<svg width="557" height="424" viewBox="0 0 557 424" fill="none" xmlns="http://www.w3.org/2000/svg">
<circle cx="212.801" cy="212" r="169.803" fill="#FFC267"/>
<circle cx="212.801" cy="212" r="191.5" stroke="#FFC267"/>
<circle cx="212.801" cy="212" r="211.5" stroke="#FFC267"/>
<path d="M176.995 244.866C176.995 232.626 166.645 229.026 157.285 226.596V213.996C161.335 214.986 165.295 216.876 168.445 219.846L175.555 210.486C170.695 206.076 164.575 203.196 157.285 202.476V193.926H148.735V202.296C136.675 203.466 129.385 211.206 129.385 220.386C129.385 232.536 139.465 236.136 148.735 238.386V252.516C142.705 251.436 137.845 248.376 134.425 244.866L127.495 254.586C132.445 259.536 139.285 263.136 148.735 263.946V272.046H157.285V263.856C170.515 262.506 176.995 254.766 176.995 244.866ZM142.525 219.306C142.525 216.066 144.955 213.726 149.545 213.276V224.706C145.405 223.626 142.525 222.096 142.525 219.306ZM156.475 240.186C160.795 241.446 163.945 242.976 163.945 246.306C163.945 249.276 161.605 252.066 156.475 252.786V240.186ZM223.818 263.046V250.626H231.558V239.376H223.818V203.016H206.178L182.328 240.546V250.626H211.038V263.046H223.818ZM211.038 239.376H194.838L211.038 214.356V239.376ZM239.809 257.826C244.039 261.606 250.159 264.036 257.449 264.036C275.179 264.036 285.349 251.166 285.349 233.076C285.349 216.066 277.699 202.026 259.519 202.026C245.839 202.026 236.479 210.936 236.479 222.636C236.479 235.416 246.199 242.076 256.999 242.076C263.569 242.076 269.599 238.386 272.479 234.336V235.596C272.479 244.686 267.079 252.876 257.449 252.876C252.139 252.876 248.719 251.256 245.479 248.286L239.809 257.826ZM272.299 225.696C269.509 229.206 265.099 231.276 260.599 231.276C254.839 231.276 249.529 228.486 249.529 222.096C249.529 217.866 253.219 213.096 260.059 213.096C268.609 213.096 271.849 219.936 272.299 225.696Z" fill="black"/>
<path d="M160.742 185.873V181.473C158.375 181.406 156.225 180.89 154.292 179.923C152.392 178.956 150.842 177.706 149.642 176.173L150.942 175.023C153.475 178.156 156.742 179.806 160.742 179.973V164.073C159.442 163.706 158.425 163.406 157.692 163.173C156.958 162.94 156.075 162.59 155.042 162.123C154.042 161.623 153.258 161.106 152.692 160.573C152.158 160.006 151.692 159.29 151.292 158.423C150.892 157.556 150.692 156.573 150.692 155.473C150.692 152.94 151.658 150.906 153.592 149.373C155.558 147.84 157.942 147.04 160.742 146.973V142.473H162.342V147.023C166.408 147.256 169.608 148.806 171.942 151.673L170.692 152.823C168.658 150.223 165.875 148.79 162.342 148.523V162.773C163.608 163.14 164.642 163.473 165.442 163.773C166.242 164.04 167.142 164.456 168.142 165.023C169.175 165.556 169.975 166.14 170.542 166.773C171.142 167.373 171.642 168.173 172.042 169.173C172.475 170.14 172.692 171.223 172.692 172.423C172.692 173.423 172.525 174.39 172.192 175.323C171.858 176.256 171.325 177.19 170.592 178.123C169.858 179.023 168.775 179.773 167.342 180.373C165.942 180.973 164.275 181.323 162.342 181.423V185.873H160.742ZM170.942 172.423C170.942 171.456 170.775 170.59 170.442 169.823C170.108 169.056 169.692 168.423 169.192 167.923C168.725 167.39 168.075 166.906 167.242 166.473C166.442 166.006 165.692 165.656 164.992 165.423C164.292 165.156 163.408 164.856 162.342 164.523V179.973C163.942 179.873 165.325 179.573 166.492 179.073C167.692 178.573 168.592 177.94 169.192 177.173C169.825 176.406 170.275 175.64 170.542 174.873C170.808 174.073 170.942 173.256 170.942 172.423ZM152.442 155.473C152.442 156.473 152.642 157.356 153.042 158.123C153.475 158.856 154.125 159.49 154.992 160.023C155.892 160.556 156.742 160.973 157.542 161.273C158.342 161.573 159.408 161.923 160.742 162.323V148.473C158.375 148.54 156.392 149.24 154.792 150.573C153.225 151.873 152.442 153.506 152.442 155.473ZM190.601 181.473C185.768 181.473 182.168 179.606 179.801 175.873L181.101 174.923C183.335 178.29 186.501 179.973 190.601 179.973C193.168 179.973 195.301 179.123 197.001 177.423C198.735 175.69 199.601 173.54 199.601 170.973C199.601 168.206 198.751 166.006 197.051 164.373C195.351 162.706 193.201 161.873 190.601 161.873C187.435 161.873 184.635 163.023 182.201 165.323L180.851 164.523V147.523H199.051V149.023H182.451V163.573C184.651 161.44 187.368 160.373 190.601 160.373C193.568 160.373 196.068 161.306 198.101 163.173C200.168 165.04 201.201 167.64 201.201 170.973C201.201 174.106 200.151 176.64 198.051 178.573C195.985 180.506 193.501 181.473 190.601 181.473ZM219.312 181.473C217.246 181.473 215.429 181.006 213.862 180.073C212.329 179.106 211.129 177.79 210.262 176.123C209.396 174.456 208.746 172.64 208.312 170.673C207.912 168.673 207.712 166.523 207.712 164.223C207.712 162.056 207.912 160.006 208.312 158.073C208.746 156.14 209.396 154.323 210.262 152.623C211.162 150.923 212.412 149.573 214.012 148.573C215.612 147.54 217.479 147.023 219.612 147.023C223.346 147.023 226.262 148.523 228.362 151.523L227.162 152.573C225.296 149.873 222.779 148.523 219.612 148.523C217.746 148.523 216.112 149.006 214.712 149.973C213.312 150.906 212.229 152.19 211.462 153.823C210.729 155.423 210.179 157.14 209.812 158.973C209.479 160.773 209.312 162.69 209.312 164.723C209.312 165.523 209.329 166.123 209.362 166.523C210.196 165.123 211.546 163.79 213.412 162.523C215.312 161.223 217.346 160.573 219.512 160.573C222.646 160.573 225.179 161.473 227.112 163.273C229.079 165.04 230.062 167.64 230.062 171.073C230.062 173.84 229.096 176.273 227.162 178.373C225.229 180.44 222.612 181.473 219.312 181.473ZM219.312 179.973C222.212 179.973 224.462 179.056 226.062 177.223C227.662 175.356 228.462 173.306 228.462 171.073C228.462 168.14 227.646 165.906 226.012 164.373C224.379 162.84 222.196 162.073 219.462 162.073C217.496 162.073 215.612 162.69 213.812 163.923C212.012 165.123 210.596 166.673 209.562 168.573C209.696 169.906 209.962 171.206 210.362 172.473C210.762 173.74 211.329 174.956 212.062 176.123C212.796 177.29 213.779 178.223 215.012 178.923C216.279 179.623 217.712 179.973 219.312 179.973ZM252.57 180.873H250.97V171.123H235.22V169.473L250.47 147.523H252.57V169.623H257.62V171.123H252.57V180.873ZM250.97 169.623V149.323L236.97 169.623H250.97Z" fill="black"/>
<path d="M146.992 164.223H259.52V166.723H146.992V164.223Z" fill="black"/>
<g filter="url(#filter0_b_28_22)">
<circle cx="454.801" cy="276" r="102" fill="#BFE0EA" fill-opacity="0.73"/>
</g>
<path d="M420.937 225.024C420.937 228.534 422.719 231.216 426.661 231.216C429.505 231.216 431.647 229.506 431.647 226.896C431.647 224.34 429.559 222.99 427.399 222.99C426.301 222.99 425.221 223.422 424.609 224.214V224.178C424.609 222.72 425.869 221.856 427.237 221.856C428.119 221.856 428.767 222.036 429.451 222.504L430.981 219.858C430.027 219.21 428.605 218.814 427.237 218.814C423.511 218.814 420.937 221.01 420.937 225.024ZM427.957 227.076C427.957 227.652 427.435 228.174 426.499 228.174C425.167 228.174 424.663 227.22 424.591 226.41C425.095 226.068 425.671 225.924 426.283 225.924C427.093 225.924 427.957 226.23 427.957 227.076ZM432.187 225.006C432.187 228.264 433.933 231.216 437.515 231.216C441.097 231.216 442.843 228.264 442.843 225.006C442.843 221.748 441.097 218.814 437.515 218.814C433.933 218.814 432.187 221.748 432.187 225.006ZM439.189 225.006C439.189 227.04 438.667 228.012 437.515 228.012C436.363 228.012 435.841 227.04 435.841 225.006C435.841 222.972 436.363 222.018 437.515 222.018C438.667 222.018 439.189 222.972 439.189 225.006ZM457.582 231V218.994H454.342V223.224C453.658 222.396 452.776 222.09 451.894 222.09C449.752 222.09 448.06 223.764 448.06 226.644C448.06 229.632 449.788 231.216 451.894 231.216C452.776 231.216 453.604 230.91 454.342 230.082V231H457.582ZM454.342 227.76C454.036 228.138 453.424 228.354 452.992 228.354C452.11 228.354 451.372 227.724 451.372 226.644C451.372 225.564 452.11 224.952 452.992 224.952C453.424 224.952 454.036 225.15 454.342 225.528V227.76ZM467.639 231V225.744C467.639 222.846 465.533 222.09 463.373 222.09C462.059 222.09 460.439 222.468 459.269 223.404L460.367 225.402C461.051 224.88 461.969 224.556 462.779 224.556C463.841 224.556 464.399 225.024 464.399 225.636V226.626C463.931 226.032 462.905 225.672 461.771 225.672C460.475 225.672 458.783 226.194 458.783 228.354C458.783 230.334 460.475 231.216 461.771 231.216C462.851 231.216 463.913 230.784 464.399 230.172V231H467.639ZM464.399 228.642C464.183 228.948 463.625 229.11 463.121 229.11C462.581 229.11 461.987 228.948 461.987 228.408C461.987 227.868 462.581 227.688 463.121 227.688C463.625 227.688 464.183 227.85 464.399 228.156V228.642ZM469.341 234.384C469.647 234.474 470.367 234.528 470.601 234.528C472.437 234.474 473.877 234.096 474.651 232.08L478.431 222.306H475.011L473.337 227.274L471.681 222.306H468.261L471.681 231.144L471.609 231.324C471.501 231.558 471.105 231.666 470.475 231.666C470.259 231.666 469.989 231.612 469.791 231.504L469.341 234.384ZM478.326 229.884C479.262 230.658 480.99 231.216 482.592 231.216C485.166 231.216 486.714 229.956 486.714 228.228C486.714 225.798 484.356 225.492 482.898 225.276C482.034 225.15 481.782 225.042 481.782 224.79C481.782 224.538 482.124 224.412 482.592 224.412C483.6 224.412 484.608 224.862 485.148 225.312L486.336 223.206C485.328 222.54 484.032 222.09 482.574 222.09C480.054 222.09 478.686 223.494 478.686 225.06C478.686 227.418 480.936 227.688 482.394 227.886C483.222 227.994 483.618 228.102 483.618 228.39C483.618 228.624 483.42 228.804 482.754 228.804C481.782 228.804 480.306 228.246 479.622 227.706L478.326 229.884ZM409.107 251V242.306H407.757V248.696C407.253 249.398 406.245 250.01 405.201 250.01C404.013 250.01 403.239 249.56 403.239 248.03V242.306H401.889V248.444C401.889 250.316 402.843 251.216 404.661 251.216C405.957 251.216 407.091 250.532 407.757 249.776V251H409.107ZM419.021 251V244.898C419.021 243.008 418.067 242.09 416.267 242.09C414.953 242.09 413.765 242.828 413.153 243.566V242.306H411.803V251H413.153V244.646C413.675 243.944 414.665 243.296 415.727 243.296C416.897 243.296 417.689 243.764 417.689 245.312V251H419.021ZM425.569 251.216C427.153 251.216 428.089 250.568 428.755 249.704L427.855 248.876C427.279 249.65 426.541 250.01 425.641 250.01C423.805 250.01 422.635 248.57 422.635 246.644C422.635 244.718 423.805 243.296 425.641 243.296C426.541 243.296 427.279 243.62 427.855 244.412L428.755 243.602C428.089 242.738 427.153 242.09 425.569 242.09C422.977 242.09 421.231 244.07 421.231 246.644C421.231 249.218 422.977 251.216 425.569 251.216ZM434.462 251.216C437.108 251.216 438.764 249.164 438.764 246.644C438.764 244.124 437.108 242.09 434.462 242.09C431.816 242.09 430.16 244.124 430.16 246.644C430.16 249.164 431.816 251.216 434.462 251.216ZM434.462 250.01C432.608 250.01 431.582 248.426 431.582 246.644C431.582 244.88 432.608 243.296 434.462 243.296C436.316 243.296 437.342 244.88 437.342 246.644C437.342 248.426 436.316 250.01 434.462 250.01ZM448.183 251V244.898C448.183 243.008 447.229 242.09 445.429 242.09C444.115 242.09 442.927 242.828 442.315 243.566V242.306H440.965V251H442.315V244.646C442.837 243.944 443.827 243.296 444.889 243.296C446.059 243.296 446.851 243.764 446.851 245.312V251H448.183ZM458.547 251V238.994H457.197V243.62C456.495 242.666 455.433 242.09 454.263 242.09C451.995 242.09 450.393 243.872 450.393 246.662C450.393 249.488 451.995 251.216 454.263 251.216C455.487 251.216 456.549 250.586 457.197 249.704V251H458.547ZM454.605 250.01C452.841 250.01 451.797 248.588 451.797 246.662C451.797 244.736 452.841 243.296 454.605 243.296C455.667 243.296 456.729 243.944 457.197 244.7V248.624C456.729 249.38 455.667 250.01 454.605 250.01ZM461.934 241.064C462.438 241.064 462.834 240.668 462.834 240.164C462.834 239.66 462.438 239.246 461.934 239.246C461.43 239.246 461.016 239.66 461.016 240.164C461.016 240.668 461.43 241.064 461.934 241.064ZM462.6 251V242.306H461.25V251H462.6ZM467.507 251.216C468.281 251.216 468.767 250.982 469.109 250.658L468.713 249.632C468.533 249.83 468.191 250.01 467.795 250.01C467.219 250.01 466.931 249.542 466.931 248.894V243.494H468.695V242.306H466.931V239.93H465.563V242.306H464.123V243.494H465.563V249.182C465.563 250.478 466.211 251.216 467.507 251.216ZM471.268 241.064C471.772 241.064 472.168 240.668 472.168 240.164C472.168 239.66 471.772 239.246 471.268 239.246C470.764 239.246 470.35 239.66 470.35 240.164C470.35 240.668 470.764 241.064 471.268 241.064ZM471.934 251V242.306H470.584V251H471.934ZM478.425 251.216C481.071 251.216 482.727 249.164 482.727 246.644C482.727 244.124 481.071 242.09 478.425 242.09C475.779 242.09 474.123 244.124 474.123 246.644C474.123 249.164 475.779 251.216 478.425 251.216ZM478.425 250.01C476.571 250.01 475.545 248.426 475.545 246.644C475.545 244.88 476.571 243.296 478.425 243.296C480.279 243.296 481.305 244.88 481.305 246.644C481.305 248.426 480.279 250.01 478.425 250.01ZM492.146 251V244.898C492.146 243.008 491.192 242.09 489.392 242.09C488.078 242.09 486.89 242.828 486.278 243.566V242.306H484.928V251H486.278V244.646C486.8 243.944 487.79 243.296 488.852 243.296C490.022 243.296 490.814 243.764 490.814 245.312V251H492.146ZM501.646 251V245.024C501.646 242.918 500.134 242.09 498.28 242.09C496.858 242.09 495.742 242.558 494.806 243.53L495.436 244.466C496.21 243.62 497.056 243.26 498.1 243.26C499.36 243.26 500.296 243.926 500.296 245.078V246.644C499.594 245.852 498.604 245.474 497.416 245.474C495.94 245.474 494.392 246.374 494.392 248.336C494.392 250.226 495.958 251.216 497.416 251.216C498.586 251.216 499.594 250.802 500.296 250.01V251H501.646ZM497.92 250.244C496.642 250.244 495.76 249.452 495.76 248.336C495.76 247.238 496.642 246.446 497.92 246.446C498.856 246.446 499.774 246.806 500.296 247.508V249.164C499.774 249.884 498.856 250.244 497.92 250.244ZM505.72 251V238.994H504.37V251H505.72ZM418.778 271V264.718C418.778 262.972 417.932 262.09 416.348 262.09C415.088 262.09 413.918 262.918 413.432 263.71C413.18 262.81 412.424 262.09 411.11 262.09C409.814 262.09 408.662 263.008 408.284 263.566V262.306H406.934V271H408.284V264.646C408.752 263.944 409.688 263.296 410.57 263.296C411.722 263.296 412.172 263.998 412.172 265.096V271H413.522V264.628C413.972 263.926 414.926 263.296 415.826 263.296C416.96 263.296 417.428 263.998 417.428 265.096V271H418.778ZM425.269 271.216C427.915 271.216 429.571 269.164 429.571 266.644C429.571 264.124 427.915 262.09 425.269 262.09C422.623 262.09 420.967 264.124 420.967 266.644C420.967 269.164 422.623 271.216 425.269 271.216ZM425.269 270.01C423.415 270.01 422.389 268.426 422.389 266.644C422.389 264.88 423.415 263.296 425.269 263.296C427.123 263.296 428.149 264.88 428.149 266.644C428.149 268.426 427.123 270.01 425.269 270.01ZM438.99 271V264.898C438.99 263.008 438.036 262.09 436.236 262.09C434.922 262.09 433.734 262.828 433.122 263.566V262.306H431.772V271H433.122V264.646C433.644 263.944 434.634 263.296 435.696 263.296C436.866 263.296 437.658 263.764 437.658 265.312V271H438.99ZM445.646 271.216C447.05 271.216 448.22 270.73 449.102 269.866L448.454 268.984C447.752 269.704 446.762 270.1 445.754 270.1C443.882 270.1 442.748 268.732 442.64 267.094H449.66V266.752C449.66 264.142 448.112 262.09 445.484 262.09C443 262.09 441.2 264.124 441.2 266.644C441.2 269.362 443.054 271.216 445.646 271.216ZM448.328 266.086H442.622C442.694 264.772 443.612 263.206 445.466 263.206C447.446 263.206 448.31 264.808 448.328 266.086ZM451.378 274.402C451.612 274.474 452.062 274.528 452.35 274.528C453.502 274.51 454.384 274.024 454.906 272.764L459.262 262.306H457.804L454.906 269.434L452.026 262.306H450.55L454.186 271.09L453.61 272.404C453.304 273.124 452.908 273.322 452.314 273.322C452.098 273.322 451.774 273.268 451.576 273.178L451.378 274.402ZM466.679 268.642V264.7C467.147 263.944 468.209 263.296 469.289 263.296C471.035 263.296 472.079 264.736 472.079 266.662C472.079 268.588 471.035 270.01 469.289 270.01C468.209 270.01 467.147 269.398 466.679 268.642ZM466.679 271V269.704C467.327 270.586 468.389 271.216 469.613 271.216C471.881 271.216 473.483 269.488 473.483 266.662C473.483 263.872 471.899 262.09 469.613 262.09C468.443 262.09 467.381 262.666 466.679 263.62V258.994H465.329V271H466.679ZM482.468 271V265.024C482.468 262.918 480.956 262.09 479.102 262.09C477.68 262.09 476.564 262.558 475.628 263.53L476.258 264.466C477.032 263.62 477.878 263.26 478.922 263.26C480.182 263.26 481.118 263.926 481.118 265.078V266.644C480.416 265.852 479.426 265.474 478.238 265.474C476.762 265.474 475.214 266.374 475.214 268.336C475.214 270.226 476.78 271.216 478.238 271.216C479.408 271.216 480.416 270.802 481.118 270.01V271H482.468ZM478.742 270.244C477.464 270.244 476.582 269.452 476.582 268.336C476.582 267.238 477.464 266.446 478.742 266.446C479.678 266.446 480.596 266.806 481.118 267.508V269.164C480.596 269.884 479.678 270.244 478.742 270.244ZM489.026 271.216C490.61 271.216 491.546 270.568 492.212 269.704L491.312 268.876C490.736 269.65 489.998 270.01 489.098 270.01C487.262 270.01 486.092 268.57 486.092 266.644C486.092 264.718 487.262 263.296 489.098 263.296C489.998 263.296 490.736 263.62 491.312 264.412L492.212 263.602C491.546 262.738 490.61 262.09 489.026 262.09C486.434 262.09 484.688 264.07 484.688 266.644C484.688 269.218 486.434 271.216 489.026 271.216ZM501.771 271L497.901 266.248L501.753 262.306H500.043L495.471 266.932V258.994H494.121V271H495.471V268.516L496.929 267.094L500.043 271H501.771ZM387.61 294.528C389.734 294.528 391.768 293.628 391.768 290.874V282.306H390.418V283.62C389.716 282.666 388.654 282.09 387.484 282.09C385.198 282.09 383.614 283.818 383.614 286.608C383.614 289.416 385.216 291.108 387.484 291.108C388.708 291.108 389.77 290.442 390.418 289.56V290.874C390.418 292.71 389.05 293.412 387.61 293.412C386.368 293.412 385.504 293.088 384.784 292.242L384.1 293.214C385.144 294.24 386.152 294.528 387.61 294.528ZM387.826 289.902C386.062 289.902 385.018 288.516 385.018 286.608C385.018 284.682 386.062 283.296 387.826 283.296C388.888 283.296 389.932 283.944 390.418 284.682V288.498C389.932 289.254 388.888 289.902 387.826 289.902ZM401.689 291V282.306H400.339V288.696C399.835 289.398 398.827 290.01 397.783 290.01C396.595 290.01 395.821 289.56 395.821 288.03V282.306H394.471V288.444C394.471 290.316 395.425 291.216 397.243 291.216C398.539 291.216 399.673 290.532 400.339 289.776V291H401.689ZM411.171 291V285.024C411.171 282.918 409.659 282.09 407.805 282.09C406.383 282.09 405.267 282.558 404.331 283.53L404.961 284.466C405.735 283.62 406.581 283.26 407.625 283.26C408.885 283.26 409.821 283.926 409.821 285.078V286.644C409.119 285.852 408.129 285.474 406.941 285.474C405.465 285.474 403.917 286.374 403.917 288.336C403.917 290.226 405.483 291.216 406.941 291.216C408.111 291.216 409.119 290.802 409.821 290.01V291H411.171ZM407.445 290.244C406.167 290.244 405.285 289.452 405.285 288.336C405.285 287.238 406.167 286.446 407.445 286.446C408.381 286.446 409.299 286.806 409.821 287.508V289.164C409.299 289.884 408.381 290.244 407.445 290.244ZM415.245 291V284.844C415.641 284.142 416.775 283.458 417.621 283.458C417.819 283.458 417.981 283.476 418.143 283.494V282.108C416.955 282.108 415.947 282.792 415.245 283.692V282.306H413.895V291H415.245ZM426.622 291V285.024C426.622 282.918 425.11 282.09 423.256 282.09C421.834 282.09 420.718 282.558 419.782 283.53L420.412 284.466C421.186 283.62 422.032 283.26 423.076 283.26C424.336 283.26 425.272 283.926 425.272 285.078V286.644C424.57 285.852 423.58 285.474 422.392 285.474C420.916 285.474 419.368 286.374 419.368 288.336C419.368 290.226 420.934 291.216 422.392 291.216C423.562 291.216 424.57 290.802 425.272 290.01V291H426.622ZM422.896 290.244C421.618 290.244 420.736 289.452 420.736 288.336C420.736 287.238 421.618 286.446 422.896 286.446C423.832 286.446 424.75 286.806 425.272 287.508V289.164C424.75 289.884 423.832 290.244 422.896 290.244ZM436.564 291V284.898C436.564 283.008 435.61 282.09 433.81 282.09C432.496 282.09 431.308 282.828 430.696 283.566V282.306H429.346V291H430.696V284.646C431.218 283.944 432.208 283.296 433.27 283.296C434.44 283.296 435.232 283.764 435.232 285.312V291H436.564ZM441.492 291.216C442.266 291.216 442.752 290.982 443.094 290.658L442.698 289.632C442.518 289.83 442.176 290.01 441.78 290.01C441.204 290.01 440.916 289.542 440.916 288.894V283.494H442.68V282.306H440.916V279.93H439.548V282.306H438.108V283.494H439.548V289.182C439.548 290.478 440.196 291.216 441.492 291.216ZM448.511 291.216C449.915 291.216 451.085 290.73 451.967 289.866L451.319 288.984C450.617 289.704 449.627 290.1 448.619 290.1C446.747 290.1 445.613 288.732 445.505 287.094H452.525V286.752C452.525 284.142 450.977 282.09 448.349 282.09C445.865 282.09 444.065 284.124 444.065 286.644C444.065 289.362 445.919 291.216 448.511 291.216ZM451.193 286.086H445.487C445.559 284.772 446.477 283.206 448.331 283.206C450.311 283.206 451.175 284.808 451.193 286.086ZM458.653 291.216C460.057 291.216 461.227 290.73 462.109 289.866L461.461 288.984C460.759 289.704 459.769 290.1 458.761 290.1C456.889 290.1 455.755 288.732 455.647 287.094H462.667V286.752C462.667 284.142 461.119 282.09 458.491 282.09C456.007 282.09 454.207 284.124 454.207 286.644C454.207 289.362 456.061 291.216 458.653 291.216ZM461.335 286.086H455.629C455.701 284.772 456.619 283.206 458.473 283.206C460.453 283.206 461.317 284.808 461.335 286.086ZM465.451 291.18C465.991 291.18 466.441 290.73 466.441 290.19C466.441 289.65 465.991 289.2 465.451 289.2C464.911 289.2 464.461 289.65 464.461 290.19C464.461 290.73 464.911 291.18 465.451 291.18ZM475.103 291V278.994H473.609V291H475.103ZM485.08 291V284.898C485.08 283.008 484.126 282.09 482.326 282.09C481.012 282.09 479.824 282.828 479.212 283.566V282.306H477.862V291H479.212V284.646C479.734 283.944 480.724 283.296 481.786 283.296C482.956 283.296 483.748 283.764 483.748 285.312V291H485.08ZM490.565 291.216C492.797 291.216 493.967 290.046 493.967 288.588C493.967 285.204 488.585 286.446 488.585 284.556C488.585 283.782 489.323 283.188 490.511 283.188C491.645 283.188 492.581 283.656 493.103 284.286L493.733 283.35C493.049 282.648 492.005 282.09 490.511 282.09C488.441 282.09 487.289 283.224 487.289 284.592C487.289 287.814 492.671 286.518 492.671 288.624C492.671 289.488 491.933 290.118 490.601 290.118C489.413 290.118 488.315 289.542 487.739 288.876L487.055 289.848C487.937 290.766 489.125 291.216 490.565 291.216ZM498.375 291.216C499.149 291.216 499.635 290.982 499.977 290.658L499.581 289.632C499.401 289.83 499.059 290.01 498.663 290.01C498.087 290.01 497.799 289.542 497.799 288.894V283.494H499.563V282.306H497.799V279.93H496.431V282.306H494.991V283.494H496.431V289.182C496.431 290.478 497.079 291.216 498.375 291.216ZM508.238 291V285.024C508.238 282.918 506.726 282.09 504.872 282.09C503.45 282.09 502.334 282.558 501.398 283.53L502.028 284.466C502.802 283.62 503.648 283.26 504.692 283.26C505.952 283.26 506.888 283.926 506.888 285.078V286.644C506.186 285.852 505.196 285.474 504.008 285.474C502.532 285.474 500.984 286.374 500.984 288.336C500.984 290.226 502.55 291.216 504.008 291.216C505.178 291.216 506.186 290.802 506.888 290.01V291H508.238ZM504.512 290.244C503.234 290.244 502.352 289.452 502.352 288.336C502.352 287.238 503.234 286.446 504.512 286.446C505.448 286.446 506.366 286.806 506.888 287.508V289.164C506.366 289.884 505.448 290.244 504.512 290.244ZM518.179 291V284.898C518.179 283.008 517.225 282.09 515.425 282.09C514.111 282.09 512.923 282.828 512.311 283.566V282.306H510.961V291H512.311V284.646C512.833 283.944 513.823 283.296 514.885 283.296C516.055 283.296 516.847 283.764 516.847 285.312V291H518.179ZM523.107 291.216C523.881 291.216 524.367 290.982 524.709 290.658L524.313 289.632C524.133 289.83 523.791 290.01 523.395 290.01C522.819 290.01 522.531 289.542 522.531 288.894V283.494H524.295V282.306H522.531V279.93H521.163V282.306H519.723V283.494H521.163V289.182C521.163 290.478 521.811 291.216 523.107 291.216ZM396.115 311V305.024C396.115 302.918 394.603 302.09 392.749 302.09C391.327 302.09 390.211 302.558 389.275 303.53L389.905 304.466C390.679 303.62 391.525 303.26 392.569 303.26C393.829 303.26 394.765 303.926 394.765 305.078V306.644C394.063 305.852 393.073 305.474 391.885 305.474C390.409 305.474 388.861 306.374 388.861 308.336C388.861 310.226 390.427 311.216 391.885 311.216C393.055 311.216 394.063 310.802 394.765 310.01V311H396.115ZM392.389 310.244C391.111 310.244 390.229 309.452 390.229 308.336C390.229 307.238 391.111 306.446 392.389 306.446C393.325 306.446 394.243 306.806 394.765 307.508V309.164C394.243 309.884 393.325 310.244 392.389 310.244ZM402.673 311.216C404.257 311.216 405.193 310.568 405.859 309.704L404.959 308.876C404.383 309.65 403.645 310.01 402.745 310.01C400.909 310.01 399.739 308.57 399.739 306.644C399.739 304.718 400.909 303.296 402.745 303.296C403.645 303.296 404.383 303.62 404.959 304.412L405.859 303.602C405.193 302.738 404.257 302.09 402.673 302.09C400.081 302.09 398.335 304.07 398.335 306.644C398.335 309.218 400.081 311.216 402.673 311.216ZM411.603 311.216C413.187 311.216 414.123 310.568 414.789 309.704L413.889 308.876C413.313 309.65 412.575 310.01 411.675 310.01C409.839 310.01 408.669 308.57 408.669 306.644C408.669 304.718 409.839 303.296 411.675 303.296C412.575 303.296 413.313 303.62 413.889 304.412L414.789 303.602C414.123 302.738 413.187 302.09 411.603 302.09C409.011 302.09 407.265 304.07 407.265 306.644C407.265 309.218 409.011 311.216 411.603 311.216ZM420.641 311.216C422.045 311.216 423.215 310.73 424.097 309.866L423.449 308.984C422.747 309.704 421.757 310.1 420.749 310.1C418.877 310.1 417.743 308.732 417.635 307.094H424.655V306.752C424.655 304.142 423.107 302.09 420.479 302.09C417.995 302.09 416.195 304.124 416.195 306.644C416.195 309.362 418.049 311.216 420.641 311.216ZM423.323 306.086H417.617C417.689 304.772 418.607 303.206 420.461 303.206C422.441 303.206 423.305 304.808 423.323 306.086ZM429.613 311.216C431.845 311.216 433.015 310.046 433.015 308.588C433.015 305.204 427.633 306.446 427.633 304.556C427.633 303.782 428.371 303.188 429.559 303.188C430.693 303.188 431.629 303.656 432.151 304.286L432.781 303.35C432.097 302.648 431.053 302.09 429.559 302.09C427.489 302.09 426.337 303.224 426.337 304.592C426.337 307.814 431.719 306.518 431.719 308.624C431.719 309.488 430.981 310.118 429.649 310.118C428.461 310.118 427.363 309.542 426.787 308.876L426.103 309.848C426.985 310.766 428.173 311.216 429.613 311.216ZM437.98 311.216C440.212 311.216 441.382 310.046 441.382 308.588C441.382 305.204 436 306.446 436 304.556C436 303.782 436.738 303.188 437.926 303.188C439.06 303.188 439.996 303.656 440.518 304.286L441.148 303.35C440.464 302.648 439.42 302.09 437.926 302.09C435.856 302.09 434.704 303.224 434.704 304.592C434.704 307.814 440.086 306.518 440.086 308.624C440.086 309.488 439.348 310.118 438.016 310.118C436.828 310.118 435.73 309.542 435.154 308.876L434.47 309.848C435.352 310.766 436.54 311.216 437.98 311.216ZM444.296 311.18C444.836 311.18 445.286 310.73 445.286 310.19C445.286 309.65 444.836 309.2 444.296 309.2C443.756 309.2 443.306 309.65 443.306 310.19C443.306 310.73 443.756 311.18 444.296 311.18ZM453.948 311V306.23H457.278C459.672 306.23 461.04 304.574 461.04 302.612C461.04 300.65 459.69 298.994 457.278 298.994H452.454V311H453.948ZM457.098 304.898H453.948V300.326H457.098C458.52 300.326 459.492 301.262 459.492 302.612C459.492 303.962 458.52 304.898 457.098 304.898ZM466.678 311.216C468.082 311.216 469.252 310.73 470.134 309.866L469.486 308.984C468.784 309.704 467.794 310.1 466.786 310.1C464.914 310.1 463.78 308.732 463.672 307.094H470.692V306.752C470.692 304.142 469.144 302.09 466.516 302.09C464.032 302.09 462.232 304.124 462.232 306.644C462.232 309.362 464.086 311.216 466.678 311.216ZM469.36 306.086H463.654C463.726 304.772 464.644 303.206 466.498 303.206C468.478 303.206 469.342 304.808 469.36 306.086ZM474.228 311V304.844C474.624 304.142 475.758 303.458 476.604 303.458C476.802 303.458 476.964 303.476 477.126 303.494V302.108C475.938 302.108 474.93 302.792 474.228 303.692V302.306H472.878V311H474.228ZM481.592 311.216C483.824 311.216 484.994 310.046 484.994 308.588C484.994 305.204 479.612 306.446 479.612 304.556C479.612 303.782 480.35 303.188 481.538 303.188C482.672 303.188 483.608 303.656 484.13 304.286L484.76 303.35C484.076 302.648 483.032 302.09 481.538 302.09C479.468 302.09 478.316 303.224 478.316 304.592C478.316 307.814 483.698 306.518 483.698 308.624C483.698 309.488 482.96 310.118 481.628 310.118C480.44 310.118 479.342 309.542 478.766 308.876L478.082 309.848C478.964 310.766 480.152 311.216 481.592 311.216ZM490.985 311.216C493.631 311.216 495.287 309.164 495.287 306.644C495.287 304.124 493.631 302.09 490.985 302.09C488.339 302.09 486.683 304.124 486.683 306.644C486.683 309.164 488.339 311.216 490.985 311.216ZM490.985 310.01C489.131 310.01 488.105 308.426 488.105 306.644C488.105 304.88 489.131 303.296 490.985 303.296C492.839 303.296 493.865 304.88 493.865 306.644C493.865 308.426 492.839 310.01 490.985 310.01ZM504.706 311V304.898C504.706 303.008 503.752 302.09 501.952 302.09C500.638 302.09 499.45 302.828 498.838 303.566V302.306H497.488V311H498.838V304.646C499.36 303.944 500.35 303.296 501.412 303.296C502.582 303.296 503.374 303.764 503.374 305.312V311H504.706ZM514.205 311V305.024C514.205 302.918 512.693 302.09 510.839 302.09C509.417 302.09 508.301 302.558 507.365 303.53L507.995 304.466C508.769 303.62 509.615 303.26 510.659 303.26C511.919 303.26 512.855 303.926 512.855 305.078V306.644C512.153 305.852 511.163 305.474 509.975 305.474C508.499 305.474 506.951 306.374 506.951 308.336C506.951 310.226 508.517 311.216 509.975 311.216C511.145 311.216 512.153 310.802 512.855 310.01V311H514.205ZM510.479 310.244C509.201 310.244 508.319 309.452 508.319 308.336C508.319 307.238 509.201 306.446 510.479 306.446C511.415 306.446 512.333 306.806 512.855 307.508V309.164C512.333 309.884 511.415 310.244 510.479 310.244ZM518.279 311V298.994H516.929V311H518.279ZM397.344 331.216C398.118 331.216 398.604 330.982 398.946 330.658L398.55 329.632C398.37 329.83 398.028 330.01 397.632 330.01C397.056 330.01 396.768 329.542 396.768 328.894V323.494H398.532V322.306H396.768V319.93H395.4V322.306H393.96V323.494H395.4V329.182C395.4 330.478 396.048 331.216 397.344 331.216ZM401.771 331V324.844C402.167 324.142 403.301 323.458 404.147 323.458C404.345 323.458 404.507 323.476 404.669 323.494V322.108C403.481 322.108 402.473 322.792 401.771 323.692V322.306H400.421V331H401.771ZM413.149 331V325.024C413.149 322.918 411.637 322.09 409.783 322.09C408.361 322.09 407.245 322.558 406.309 323.53L406.939 324.466C407.713 323.62 408.559 323.26 409.603 323.26C410.863 323.26 411.799 323.926 411.799 325.078V326.644C411.097 325.852 410.107 325.474 408.919 325.474C407.443 325.474 405.895 326.374 405.895 328.336C405.895 330.226 407.461 331.216 408.919 331.216C410.089 331.216 411.097 330.802 411.799 330.01V331H413.149ZM409.423 330.244C408.145 330.244 407.263 329.452 407.263 328.336C407.263 327.238 408.145 326.446 409.423 326.446C410.359 326.446 411.277 326.806 411.799 327.508V329.164C411.277 329.884 410.359 330.244 409.423 330.244ZM416.556 321.064C417.06 321.064 417.456 320.668 417.456 320.164C417.456 319.66 417.06 319.246 416.556 319.246C416.052 319.246 415.638 319.66 415.638 320.164C415.638 320.668 416.052 321.064 416.556 321.064ZM417.222 331V322.306H415.872V331H417.222ZM427.133 331V324.898C427.133 323.008 426.179 322.09 424.379 322.09C423.065 322.09 421.877 322.828 421.265 323.566V322.306H419.915V331H421.265V324.646C421.787 323.944 422.777 323.296 423.839 323.296C425.009 323.296 425.801 323.764 425.801 325.312V331H427.133ZM433.789 331.216C435.193 331.216 436.363 330.73 437.245 329.866L436.597 328.984C435.895 329.704 434.905 330.1 433.897 330.1C432.025 330.1 430.891 328.732 430.783 327.094H437.803V326.752C437.803 324.142 436.255 322.09 433.627 322.09C431.143 322.09 429.343 324.124 429.343 326.644C429.343 329.362 431.197 331.216 433.789 331.216ZM436.471 326.086H430.765C430.837 324.772 431.755 323.206 433.609 323.206C435.589 323.206 436.453 324.808 436.471 326.086ZM441.34 331V324.844C441.736 324.142 442.87 323.458 443.716 323.458C443.914 323.458 444.076 323.476 444.238 323.494V322.108C443.05 322.108 442.042 322.792 441.34 323.692V322.306H439.99V331H441.34ZM453.361 331.216C455.593 331.216 456.763 330.046 456.763 328.588C456.763 325.204 451.381 326.446 451.381 324.556C451.381 323.782 452.119 323.188 453.307 323.188C454.441 323.188 455.377 323.656 455.899 324.286L456.529 323.35C455.845 322.648 454.801 322.09 453.307 322.09C451.237 322.09 450.085 323.224 450.085 324.592C450.085 327.814 455.467 326.518 455.467 328.624C455.467 329.488 454.729 330.118 453.397 330.118C452.209 330.118 451.111 329.542 450.535 328.876L449.851 329.848C450.733 330.766 451.921 331.216 453.361 331.216ZM466.174 331V322.306H464.824V328.696C464.32 329.398 463.312 330.01 462.268 330.01C461.08 330.01 460.306 329.56 460.306 328.03V322.306H458.956V328.444C458.956 330.316 459.91 331.216 461.728 331.216C463.024 331.216 464.158 330.532 464.824 329.776V331H466.174ZM473.155 331.216C475.441 331.216 477.025 329.452 477.025 326.644C477.025 323.818 475.441 322.09 473.155 322.09C471.931 322.09 470.851 322.72 470.221 323.602V322.306H468.871V334.312H470.221V329.686C470.941 330.64 471.967 331.216 473.155 331.216ZM472.813 330.01C471.751 330.01 470.689 329.362 470.221 328.606V324.682C470.689 323.926 471.751 323.296 472.813 323.296C474.559 323.296 475.603 324.718 475.603 326.644C475.603 328.57 474.559 330.01 472.813 330.01ZM483.455 331.216C485.741 331.216 487.325 329.452 487.325 326.644C487.325 323.818 485.741 322.09 483.455 322.09C482.231 322.09 481.151 322.72 480.521 323.602V322.306H479.171V334.312H480.521V329.686C481.241 330.64 482.267 331.216 483.455 331.216ZM483.113 330.01C482.051 330.01 480.989 329.362 480.521 328.606V324.682C480.989 323.926 482.051 323.296 483.113 323.296C484.859 323.296 485.903 324.718 485.903 326.644C485.903 328.57 484.859 330.01 483.113 330.01ZM493.27 331.216C495.916 331.216 497.572 329.164 497.572 326.644C497.572 324.124 495.916 322.09 493.27 322.09C490.624 322.09 488.968 324.124 488.968 326.644C488.968 329.164 490.624 331.216 493.27 331.216ZM493.27 330.01C491.416 330.01 490.39 328.426 490.39 326.644C490.39 324.88 491.416 323.296 493.27 323.296C495.124 323.296 496.15 324.88 496.15 326.644C496.15 328.426 495.124 330.01 493.27 330.01ZM501.123 331V324.844C501.519 324.142 502.653 323.458 503.499 323.458C503.697 323.458 503.859 323.476 504.021 323.494V322.108C502.833 322.108 501.825 322.792 501.123 323.692V322.306H499.773V331H501.123ZM507.928 331.216C508.702 331.216 509.188 330.982 509.53 330.658L509.134 329.632C508.954 329.83 508.612 330.01 508.216 330.01C507.64 330.01 507.352 329.542 507.352 328.894V323.494H509.116V322.306H507.352V319.93H505.984V322.306H504.544V323.494H505.984V329.182C505.984 330.478 506.632 331.216 507.928 331.216ZM511.725 331.18C512.265 331.18 512.715 330.73 512.715 330.19C512.715 329.65 512.265 329.2 511.725 329.2C511.185 329.2 510.735 329.65 510.735 330.19C510.735 330.73 511.185 331.18 511.725 331.18Z" fill="black"/>
<defs>
<filter id="filter0_b_28_22" x="332.801" y="154" width="244" height="244" filterUnits="userSpaceOnUse" color-interpolation-filters="sRGB">
<feFlood flood-opacity="0" result="BackgroundImageFix"/>
<feGaussianBlur in="BackgroundImage" stdDeviation="10"/>
<feComposite in2="SourceAlpha" operator="in" result="effect1_backgroundBlur_28_22"/>
<feBlend mode="normal" in="SourceGraphic" in2="effect1_backgroundBlur_28_22" result="shape"/>
</filter>
</defs>
</svg>
