<svg version="1.2" xmlns="http://www.w3.org/2000/svg" viewBox="0 0 122 90" width="122" height="90">
	<title>“-svg</title>
	<style>
		.s0 { fill: #267594 } 
	</style>
	<path id="Layer" class="s0" d="m51.9 15.2c-8.3 3.6-20.3 15-23.6 24.8 1.3-0.5 3.9-1.1 6.7-1.1 12.5 0 22.6 9.6 22.6 24 0 15-12.5 27.1-27 27.1-15.8 0-30-12.1-30-33.3 0-22.7 12.1-42.5 32.3-56.7zm64 0c-8.3 3.6-20.2 15-23.5 24.8 1.3-0.6 3.8-1.1 6.7-1.1 12.4 0 22.5 9.6 22.5 24 0 15-12.4 27.1-26.9 27.1-15.8 0-30.1-12.1-30.1-33.3 0-22.7 12.2-42.5 32.4-56.7z"/>
</svg>