<svg width="137" height="137" viewBox="0 0 137 137" fill="none" xmlns="http://www.w3.org/2000/svg">
<path d="M32.4707 51.2176L27.2433 71.9386C26.4275 75.1791 26.8457 78.6081 28.4225 81.554L51.752 125.178C53.2979 127.925 52.8592 131.474 50.4631 133.502C48.8966 134.869 46.9565 135.328 45.1329 135.081C43.1791 134.8 41.4104 133.643 40.358 131.783L18.9515 93.653C17.762 93.4338 15.1089 92.824 12.1508 91.3476C5.77507 88.1687 1.80227 81.5472 1.66858 74.4289C1.40464 60.374 8.67498 40.0024 18.5607 29.695C19.5891 28.8146 20.6859 28.2426 21.7828 27.8932C24.5559 27.0025 27.5964 27.6157 30.0164 29.2291L64.068 51.9404C66.8308 53.6154 67.7221 57.1917 66.0733 59.9424C65.3363 61.1311 64.2874 61.9635 63.074 62.4053C61.4732 62.9945 59.6496 62.8678 58.0728 61.9258L28.419 43.1196" stroke="white" stroke-width="3" stroke-miterlimit="10"/>
<path d="M46.4801 10.0153C48.2625 16.0442 44.8176 22.378 38.7847 24.1627C32.7518 25.944 26.4104 22.5014 24.6279 16.4724C22.8455 10.4435 26.2904 4.1097 32.3233 2.325C38.3562 0.54373 44.6942 3.98638 46.4801 10.0153V10.0153Z" stroke="white" stroke-width="3" stroke-miterlimit="10"/>
<path d="M108.122 93.3175C108.42 93.684 109.143 97.2329 111.289 98.4592C116.448 101.405 125.542 103.282 125.741 104.646C125.71 105.841 130.571 110.884 132.106 109.099C133.446 107.033 132.634 103.409 129.83 100.802C125.778 97.0376 117.374 94.1739 116.966 93.088C120.332 91.3067 119.54 87.0214 120.411 83.5273" stroke="white" stroke-width="3" stroke-miterlimit="10"/>
<path d="M80.5968 93.2005C75.0712 95.7423 66.6663 86.1165 66.4263 79.9883C60.1946 88.7199 67.4821 100.802 77.1587 96.996" stroke="white" stroke-width="3" stroke-miterlimit="10"/>
<path d="M75.0644 109.506C74.6736 115.744 69.1446 118.694 68.6339 120.523C68.1231 122.352 68.202 131.115 68.202 131.115C68.1128 133.252 69.5662 134.444 71.7086 134.444H74.1595C76.1613 134.444 76.103 133.715 75.9179 132.831C75.6643 131.622 75.2324 130.635 74.0943 130.152C73.1962 129.84 74.0018 125.548 74.1492 124.233C74.2794 123.065 76.1236 119.677 82.2902 116.494C87.5244 112.805 87.922 107.564 89.9855 103.762" stroke="white" stroke-width="3" stroke-miterlimit="10"/>
<path d="M119.605 79.444C123.071 79.7215 125.864 78.1183 127.448 76.7002C127.959 76.6043 129.093 76.087 130.276 75.8129C133.001 74.9737 134.214 74.4907 134.735 72.593C135.249 70.7021 134.862 67.1532 132.963 67.2526C130.694 67.6122 129.261 68.4207 126.762 67.1669C126.07 66.8381 125.415 66.2934 124.688 66.0708C123.907 65.8275 122.827 66.1598 122.09 66.3277C120.753 66.6462 119.447 67.1053 118.172 67.6088C118.172 67.6088 114.436 63.8031 112.496 62.8987C110.566 62.0149 110.446 66.7216 113.342 71.4728C112.962 73.0211 111.841 75.1655 110.724 76.4672" stroke="white" stroke-width="3" stroke-miterlimit="10"/>
<path d="M110.724 76.5703C110.724 76.5703 105.633 85.7062 91.2607 88.7206C72.0959 93.0368 75.7088 104.639 75.0644 109.503" stroke="white" stroke-width="3" stroke-miterlimit="10"/>
<path d="M88.1105 108.259C94.7262 102.515 108.516 104.69 111.923 98.8047" stroke="white" stroke-width="3" stroke-miterlimit="10"/>
<path d="M66.0699 59.9424L108.485 79.4782C108.485 79.4782 113.977 84.4246 120.174 84.7055" stroke="white" stroke-width="3" stroke-miterlimit="10"/>
<path d="M58.2202 119.45L55.8105 122.369" stroke="white" stroke-width="3" stroke-miterlimit="10"/>
<path d="M61.6001 125.699L57.9289 126.641" stroke="white" stroke-width="3" stroke-miterlimit="10"/>
</svg>
