<svg width="164" height="130" viewBox="0 0 164 130" fill="none" xmlns="http://www.w3.org/2000/svg">
<path d="M83.5023 50.7451C85.8617 58.3996 84.775 71.044 86.2294 78.4845C87.6838 85.925 93.1905 87.3905 95.6065 91.8394C100.253 100.108 100.511 113.547 98.7295 117.366C97.2024 120.293 94.3945 120.269 92.6128 121.48C90.8311 122.687 89.5261 127.14 91.021 127.14H100.911C103.941 126.886 107.06 115.885 107.06 115.885L108.652 97.3784L107.278 90.0348C106.838 87.6811 107.497 85.2588 109.064 83.4502" stroke="white" stroke-width="3" stroke-linecap="round" stroke-linejoin="round"/>
<path d="M91.0126 46.0133C91.0126 46.0133 87.7684 50.9225 79.2842 51.4312L78.3267 51.4675L73.6967 53.8252C70.703 55.3634 67.0345 55.3109 64.0691 53.5022C61.7218 52.0448 60.4976 50.0868 61.7541 48.9362C61.7541 48.9362 66.5699 43.922 67.7537 42.3314C68.9172 40.6762 68.4001 36.3887 68.586 34.471C69.7212 30.9627 79.8134 25.1533 79.8134 25.1533C79.8134 25.1533 82.6536 20.7366 81.9264 15.8516C83.8535 9.94122 91.4449 19.0571 90.2491 26.3362C90.2491 26.3362 96.6567 27.9631 102.644 42.832C105.432 49.7598 112.49 53.9706 119.912 53.1026C124.125 52.61 128.275 51.3706 132.339 50.3088C146.782 46.5381 160.979 57.9472 160.127 72.8403C159.541 83.1027 154.382 89.001 153.218 92.2913C151.02 98.5126 155.622 100.919 156.475 103.628C157.327 106.337 151.493 126.906 149.526 126.906H138.512C138.161 124.007 140.391 121.399 142.447 120.669L144.104 119.659C144.104 119.659 147.166 110.911 146.189 108.307C145.211 105.703 135.745 97.7455 131.846 90.8662C127.943 83.9828 132.27 72.9493 132.27 72.9493" stroke="white" stroke-width="3" stroke-linecap="round" stroke-linejoin="round"/>
<path d="M77.0175 15.8879C74.8762 14.3861 72.7632 14.2327 72.844 16.7277C74.25 19.3841 73.9712 22.3958 73.8015 23.4617" stroke="white" stroke-width="3" stroke-linecap="round" stroke-linejoin="round"/>
<path d="M85.9909 88.6543C85.2476 92.203 66.7842 108.824 74.1857 117.112C77.4905 119.938 84.9324 109.377 84.5405 107.201C84.5123 103.608 92.0309 100.152 93.5258 97.5966" stroke="white" stroke-width="3" stroke-linecap="round" stroke-linejoin="round"/>
<path d="M107.165 88.9444C117.831 89.5742 123.742 82.5253 130.242 82.7473" stroke="white" stroke-width="3" stroke-linecap="round" stroke-linejoin="round"/>
<path d="M146.467 51.306C156.535 49.2551 155.832 29.6223 150.043 21.0312C167.015 26.6348 162.85 55.117 154.022 55.117" stroke="white" stroke-width="3" stroke-linecap="round" stroke-linejoin="round"/>
<path d="M84.6697 56.8454C84.6697 56.8454 93.7397 58.6863 104.24 45.8643" stroke="white" stroke-width="3" stroke-linecap="round" stroke-linejoin="round"/>
<path d="M104.24 45.8638L160.119 2" stroke="white" stroke-width="3" stroke-linecap="round" stroke-linejoin="round"/>
<path d="M10.1337 99.3805C11.5033 94.8104 18.3795 92.0974 24.3751 91.8068C31.114 91.4757 40.5517 95.3231 43.0041 95.3231C45.4564 95.3231 46.9997 94.2533 47.1896 92.7474C47.1896 92.7474 46.8583 86.6876 53.1286 84.7013C59.3988 82.6949 59.2574 84.3622 60.5503 85.0041C61.4755 85.4563 65.556 84.1927 67.9356 83.4014C68.978 83.034 70.1092 83.5911 70.5172 84.6246C70.897 85.5976 71.2243 86.837 71.1111 88.0482C70.8809 90.5956 67.1559 92.812 64.6631 94.0716C62.1663 95.311 60.6432 98.8193 57.8394 99.1625" stroke="white" stroke-width="3" stroke-linecap="round" stroke-linejoin="round"/>
<path d="M51.4116 95.7588C51.4116 95.7588 49.533 104.1 51.9773 106.635C54.4256 109.166 61.3584 107.18 61.6049 106.3C61.8513 105.42 57.5203 102.016 57.8476 99.1662" stroke="white" stroke-width="3" stroke-linecap="round" stroke-linejoin="round"/>
<path d="M53.2212 112.457C52.3041 115.263 49.779 116.547 48.575 117.608C46.9994 118.997 48.1225 122.647 48.1225 122.647C48.1225 122.647 50.1143 123.491 50.8577 124.443C51.6011 125.396 52.7 127.911 51.3021 127.911H46.2075C44.5511 127.911 43.0724 126.878 42.4987 125.328C42.4987 125.328 40.8907 121.032 40.3089 119.385C39.8686 118.137 41.8038 113.398 41.925 110.62" stroke="white" stroke-width="3" stroke-linecap="round" stroke-linejoin="round"/>
<path d="M22.5122 110.725C21.7002 114.67 18.9893 115.049 16.4642 116.757C14.8885 118.146 16.0117 121.795 16.0117 121.795C16.0117 121.795 18.0035 122.639 18.7469 123.592C19.4902 124.545 20.5891 127.06 19.1913 127.06H14.0967C12.4402 127.06 10.9616 126.03 10.3879 124.476C10.3879 124.476 8.77585 120.931 8.19811 118.533C7.61634 116.139 10 114.484 9.75356 111.335C8.47284 103.612 10.1414 99.3809 10.1414 99.3809" stroke="white" stroke-width="3" stroke-linecap="round" stroke-linejoin="round"/>
<path d="M41.7273 112.158C35.2591 115.149 30.4594 110.826 22.153 111.956" stroke="white" stroke-width="3" stroke-linecap="round" stroke-linejoin="round"/>
<path d="M10.5618 98.3389C10.5618 98.3389 1.43523 100.503 2.52202 113.22" stroke="white" stroke-width="3" stroke-linecap="round" stroke-linejoin="round"/>
<path d="M46.8825 26.8775C45.3836 25.5775 44.6241 23.6477 44.7534 21.6695C44.8503 20.1556 44.1312 18.6134 42.6525 17.7454C41.19 16.8855 39.2629 17.0227 37.9377 18.0885C35.8692 19.7519 35.8247 22.7313 37.6589 24.4471" stroke="white" stroke-width="3" stroke-linecap="round" stroke-linejoin="round"/>
<path d="M52.1627 31.4526C52.1627 31.4526 52.1627 31.4438 52.1627 31.4395C52.1627 31.4395 52.1715 31.4395 52.1759 31.4395V31.4482H52.1671L52.1627 31.4526Z" stroke="white" stroke-width="3" stroke-linecap="round" stroke-linejoin="round"/>
<path d="M60.5745 23.2888V23.2793H60.5839V23.2888H60.5745Z" stroke="white" stroke-width="3" stroke-linecap="round" stroke-linejoin="round"/>
<path d="M56.8091 17.4102L50.0217 6.80859" stroke="white" stroke-width="3" stroke-linecap="round" stroke-linejoin="round"/>
</svg>
