<svg width="131" height="134" viewBox="0 0 131 134" fill="none" xmlns="http://www.w3.org/2000/svg">
<path d="M50.8784 3.1582V6.14144" stroke="white" stroke-width="3" stroke-linecap="round" stroke-linejoin="round"/>
<path d="M55.6202 9.40625H54.1332" stroke="white" stroke-width="3" stroke-linecap="round" stroke-linejoin="round"/>
<path d="M47.6235 9.40625H46.1365" stroke="white" stroke-width="3" stroke-linecap="round" stroke-linejoin="round"/>
<path d="M50.8784 12.6709V15.6541" stroke="white" stroke-width="3" stroke-linecap="round" stroke-linejoin="round"/>
<path d="M35.6536 22.0771V25.0604" stroke="white" stroke-width="3" stroke-linecap="round" stroke-linejoin="round"/>
<path d="M40.3954 28.3252H38.9083" stroke="white" stroke-width="3" stroke-linecap="round" stroke-linejoin="round"/>
<path d="M32.3987 28.3252H30.9116" stroke="white" stroke-width="3" stroke-linecap="round" stroke-linejoin="round"/>
<path d="M35.6536 31.5898V34.5731" stroke="white" stroke-width="3" stroke-linecap="round" stroke-linejoin="round"/>
<path d="M29.5415 7.79737C29.5415 8.04207 29.341 8.24318 29.097 8.24318C28.8531 8.24318 28.6526 8.04207 28.6526 7.79737C28.6526 7.55268 28.8531 7.35156 29.097 7.35156C29.341 7.35156 29.5415 7.55268 29.5415 7.79737Z" stroke="white" stroke-width="3" stroke-linecap="round" stroke-linejoin="round"/>
<path d="M62.4039 32.8569C62.4039 33.105 62.2034 33.3028 61.9595 33.3028C61.7155 33.3028 61.515 33.1016 61.515 32.8569C61.515 32.6123 61.7155 32.4111 61.9595 32.4111C62.2034 32.4111 62.4039 32.6123 62.4039 32.8569Z" stroke="white" stroke-width="3" stroke-linecap="round" stroke-linejoin="round"/>
<path d="M84.2453 44.3975L67.5301 53.3673C64.7264 54.8958 63.6804 58.3952 65.1775 61.1941C65.8459 62.4042 66.8417 63.2757 68.0213 63.7718C69.5719 64.4321 71.3764 64.3885 72.9737 63.5338L91.8043 53.441L91.8243 53.4343L92.8669 52.8544L92.887 52.8477" stroke="white" stroke-width="3" stroke-linecap="round" stroke-linejoin="round"/>
<path d="M99.5771 39.3525L92.887 52.8509L92.8669 52.8542" stroke="white" stroke-width="3" stroke-linecap="round" stroke-linejoin="round"/>
<path d="M84.2452 44.398L89.054 34.6807" stroke="white" stroke-width="3" stroke-linecap="round" stroke-linejoin="round"/>
<path d="M85.3314 42.1515C79.6271 33.6643 82.4241 23.9638 88.2821 21.252C90.4476 20.2062 93.9764 19.2207 97.5554 21.0442C100.951 22.9816 119.437 48.6911 126.234 58.2442C128.7 61.7068 129.786 66.0844 128.72 70.204C128.272 71.937 127.514 73.5425 126.404 74.9705C124.834 76.8073 122.197 78.7582 120.292 80.3537L120.272 83.823L120.292 88.3984V125.381C120.292 127.576 119.283 129.507 117.676 130.744C116.179 131.887 114.197 132.45 112.122 132.017C108.944 131.397 106.775 128.434 106.775 125.193V91.3046C106.942 87.2353 106.414 74.5247 106.414 74.5247C106.414 74.5247 101.656 66.7414 96.222 55.5023" stroke="white" stroke-width="3" stroke-linecap="round" stroke-linejoin="round"/>
<path d="M128.413 80.9375V125.381C128.413 129.584 124.58 132.906 120.235 132.015C120.235 132.015 118.785 131.881 117.662 130.751" stroke="white" stroke-width="3" stroke-linecap="round" stroke-linejoin="round"/>
<path d="M63.6437 11.6859C63.3463 17.4177 67.7339 22.3049 73.4482 22.6032C79.1626 22.9015 84.0348 18.5004 84.3322 12.7685C84.6296 7.0367 80.2419 2.14955 74.5276 1.85123C68.8133 1.5529 63.9411 5.95402 63.6437 11.6859Z" stroke="white" stroke-width="3" stroke-linecap="round" stroke-linejoin="round"/>
<path d="M42.24 76.68C42.24 76.68 43.4931 75.1179 45.7354 75.4531C47.9743 75.7883 51.7137 77.9101 53.5483 76.7369C55.3829 75.5638 58.7046 65.2598 60.479 64.8207C61.5985 64.7403 65.8592 59.7392 64.0547 58.4654C62.2501 57.5269 59.3495 58.1034 57.4448 59.766C54.0663 62.7157 51.951 68.2531 51.3227 68.8934C50.3369 69.8956 47.0119 65.6051 47.0119 65.6051C45.9794 60.7582 41.6919 60.5973 42.2433 56.6855" stroke="white" stroke-width="3" stroke-linecap="round" stroke-linejoin="round"/>
<path d="M16.0744 96.9559C10.3066 94.3514 6.19632 87.6006 12.8296 78.3525C12.8296 78.3525 1.72177 78.8017 4.04426 91.7067C0.0642841 91.0833 1.49788 98.9402 7.41604 100.791C4.97325 101.769 9.02006 107.092 17.9324 102.433C17.9324 102.433 21.5448 105.973 22.6308 109.888C23.7169 113.803 21.6517 116.3 21.2741 118.331C20.8932 120.363 27.3627 132.161 28.295 132.161C29.2274 132.161 34.7245 132.161 34.7245 132.161C35.4262 132.161 36.0411 131.504 35.9609 130.834C35.7638 129.161 34.651 127.848 33.0302 127.378L31.7337 127.003C31.7337 127.003 28.7161 121.563 29.194 119.578C29.6718 117.594 35.8607 110.283 38.0896 104.786C40.3185 99.2889 36.1748 92.5145 36.1748 92.5145" stroke="white" stroke-width="3" stroke-linecap="round" stroke-linejoin="round"/>
<path d="M37.5215 58.2145C37.5215 58.2145 39.5366 58.1072 41.6118 57.0413C42.8181 56.4246 44.0479 55.4927 44.9167 54.0648L45.1941 53.5218L47.8608 51.4536C49.5851 50.1229 50.5609 47.9944 50.2969 45.8391C50.0797 44.1195 49.261 42.9229 48.2351 43.3586C48.2351 43.3586 43.9543 44.8704 42.6878 45.1486C41.3979 45.4033 39.0086 44.0223 37.8256 43.6469C35.4363 43.4156 29.2508 47.7597 29.2508 47.7597C29.2508 47.7597 25.8623 48.2793 23.1722 46.6335C19.1555 46.2581 22.4605 52.9117 27.0921 54.048C27.0921 54.048 27.2859 57.6648 28.2015 61.1977C28.2984 61.5497 31.9409 76.7508 25.9358 81.219C21.5214 84.7486 16.2449 89.2301 16.2449 96.5206" stroke="white" stroke-width="3" stroke-linecap="round" stroke-linejoin="round"/>
<path d="M46.2267 80.2129C45.5049 87.3593 39.7872 89.7727 38.0896 96.9928" stroke="white" stroke-width="3" stroke-linecap="round" stroke-linejoin="round"/>
</svg>
