<svg width="202" height="199" viewBox="0 0 202 199" fill="none" xmlns="http://www.w3.org/2000/svg">
<g clip-path="url(#clip0_2_1465)">
<path d="M168.899 155.779C168.633 163.341 171.883 175.761 173.202 178.862C175.888 184.499 180.817 184.457 183.952 186.784C187.081 189.112 189.376 197.693 186.748 197.693H169.363C164.038 197.201 156.559 168.602 156.559 168.602" stroke="#267594" stroke-width="5" stroke-linecap="round" stroke-linejoin="round"/>
<path d="M132.733 127.634C140.04 134.892 145.491 137.863 148.448 143.04C148.448 143.04 143.545 150.633 135.242 156.668C121.759 166.833 130.986 187.694 137.74 178.082C139.905 175.729 145.595 169.223 151.88 162.995C159.287 155.658 167.272 148.463 167.757 145.309C168.419 141.021 159.041 128.308 154.639 123.372C152.553 121.16 152.553 111.794 152.553 111.794" stroke="#267594" stroke-width="5" stroke-linecap="round" stroke-linejoin="round"/>
<path d="M134.684 59.4065C133.427 64.2699 130.381 68.2965 124.158 69.2535C115.344 70.6289 108.005 59.0823 105.564 41.4801C104.135 31.2252 112.788 21.2005 120.257 14.6323C125.765 9.79512 132.451 6.51105 139.608 4.93177L141.125 4.57617C141.125 4.57617 128.597 13.3982 128.519 24.2806C128.482 29.9127 130.011 34.5878 131.8 39.6603" stroke="#267594" stroke-width="5" stroke-linecap="round" stroke-linejoin="round"/>
<path d="M169.781 6.19141L171.184 6.72481C178.027 9.33428 184.187 13.5387 188.933 19.1133C195.354 26.7168 202.494 37.8921 199.584 47.8437C194.639 64.8863 185.731 75.2667 177.203 72.6415C171.726 70.9367 168.79 66.1989 167.981 61.7644" stroke="#267594" stroke-width="5" stroke-linecap="round" stroke-linejoin="round"/>
<path d="M173.739 42.5461C176.154 37.9337 178.616 32.8926 179.362 27.4958C180.791 17.0422 170.381 6.76642 169.781 6.19119L169.755 6.16504" stroke="#267594" stroke-width="5" stroke-linecap="round" stroke-linejoin="round"/>
<path d="M141.11 4.58092C145.475 1.73612 158.76 -1.7519 169.739 6.17066" stroke="#267594" stroke-width="5" stroke-linecap="round" stroke-linejoin="round"/>
<path d="M136.942 43.3828C133.234 49.1718 137.74 58.9508 151.719 57.0473" stroke="#267594" stroke-width="5" stroke-linecap="round" stroke-linejoin="round"/>
<path d="M168.049 45.292C171.027 51.4941 165.363 60.6455 151.719 57.0425" stroke="#267594" stroke-width="5" stroke-linecap="round" stroke-linejoin="round"/>
<path d="M152.172 48.7331C154.712 48.9005 154.968 46.793 157.153 46.7041C159.339 46.61 160.356 42.5206 159.031 41.208C157.706 39.8954 147.838 39.247 146.351 40.3765C144.87 41.5061 145.449 45.7001 147.603 46.0766C149.757 46.4531 149.632 48.5658 152.172 48.7331Z" stroke="#267594" stroke-width="5" stroke-linecap="round" stroke-linejoin="round"/>
<path d="M142.706 23.3911C142.721 24.0395 142.205 24.5781 141.558 24.5938C140.911 24.6095 140.374 24.0918 140.359 23.4433C140.343 22.7949 140.859 22.2563 141.506 22.2406C142.153 22.2249 142.69 22.7426 142.706 23.3911Z" stroke="#267594" stroke-width="5" stroke-linecap="round" stroke-linejoin="round"/>
<path d="M167.162 24.7719C167.178 25.4204 166.662 25.959 166.015 25.9747C165.368 25.9904 164.831 25.4727 164.815 24.8242C164.8 24.1758 165.316 23.6371 165.963 23.6214C166.61 23.6058 167.147 24.1235 167.162 24.7719Z" stroke="#267594" stroke-width="5" stroke-linecap="round" stroke-linejoin="round"/>
<path d="M93.401 140.598C124.45 140.054 110.029 175.217 101.386 182.842C101.386 182.842 114.994 182.078 120.184 185.702C125.29 189.268 124.012 197.688 124.012 197.688H61.5379C60.6408 192.077 67.1344 186.575 67.1344 186.575C31.0309 205.15 -9.52691 167.373 24.6729 119.926C6.30815 171.211 53.5786 181.32 62.6802 174.59C63.1183 145.352 70.8324 128.304 80.8362 117.087" stroke="#267594" stroke-width="5" stroke-linecap="round" stroke-linejoin="round"/>
<path d="M128.31 75.5283C126.239 88.309 104.375 95.2903 91.5859 103.574" stroke="#267594" stroke-width="5" stroke-linecap="round" stroke-linejoin="round"/>
<path d="M131.455 191.266H150.102C150.102 191.266 151.327 183.191 146.404 179.745" stroke="#267594" stroke-width="5" stroke-linecap="round" stroke-linejoin="round"/>
<path d="M172.149 77.4473C172.149 77.4473 176.994 99.9494 175.231 105.357C173.468 110.769 169.155 130.881 169.155 130.881" stroke="#267594" stroke-width="5" stroke-linecap="round" stroke-linejoin="round"/>
<path d="M122.693 175.222L120.528 178.663" stroke="#267594" stroke-width="5" stroke-linecap="round" stroke-linejoin="round"/>
<path d="M128.321 75.5332C142.93 85.1187 157.534 85.7567 172.143 77.4472" stroke="#267594" stroke-width="5" stroke-linecap="round" stroke-linejoin="round"/>
<path d="M44.9674 32.6839C31.8185 45.4018 34.4003 66.3508 43.1471 69.4257C54.1785 73.2641 66.8632 53.3035 56.6507 34.7234C55.3729 32.3806 53.7142 30.0378 51.6227 27.7787L51.5966 27.7526C49.479 25.8752 47.2519 24.3744 44.9935 23.203C18.9668 9.8889 -13.7413 42.489 10.1678 77.5732C17.0943 87.7601 27.2547 95.3061 38.6668 99.9341C97.1303 123.738 146.08 101.513 150.237 83.2366" stroke="#267594" stroke-width="5" stroke-linecap="round" stroke-linejoin="round"/>
<path d="M51.5967 27.7529C51.5706 27.7529 51.5706 27.7791 51.5445 27.7791" stroke="#267594" stroke-width="5" stroke-linecap="round" stroke-linejoin="round"/>
<path d="M59.6081 25.0856C91.6068 18.9253 114.468 68.6832 63.1392 95.1597" stroke="#267594" stroke-width="5" stroke-linecap="round" stroke-linejoin="round"/>
</g>
<defs>
<clipPath id="clip0_2_1465">
<rect width="201" height="199" fill="white" transform="translate(0.555176)"/>
</clipPath>
</defs>
</svg>
