<svg width="213" height="206" viewBox="0 0 213 206" fill="none" xmlns="http://www.w3.org/2000/svg">
<g clip-path="url(#clip0_2_1501)">
<path d="M106.555 98.2256C113.231 98.2256 113.397 92.2975 119.099 91.7127C124.8 91.1279 126.894 81.5248 123.206 78.4883C119.518 75.4518 93.5918 75.4518 89.9041 78.4883C86.2165 81.5248 88.3106 91.1279 94.0117 91.7127C99.7128 92.2975 99.8797 98.2256 106.555 98.2256V98.2256Z" stroke="#267594" stroke-width="5" stroke-linecap="round" stroke-linejoin="round"/>
<path d="M96.6658 92.5061L98.227 90.1992" stroke="#267594" stroke-width="5" stroke-linecap="round" stroke-linejoin="round"/>
<path d="M116.445 92.5061L114.883 90.1992" stroke="#267594" stroke-width="5" stroke-linecap="round" stroke-linejoin="round"/>
<path d="M81.9582 59.2764C81.9582 62.2754 80.7361 64.711 79.2342 64.711C77.7322 64.711 76.5101 62.2807 76.5101 59.2764C76.5101 56.2721 77.7322 53.8418 79.2342 53.8418C80.7361 53.8418 81.9582 56.2721 81.9582 59.2764Z" fill="#267594" stroke="#267594" stroke-width="5" stroke-linecap="round" stroke-linejoin="round"/>
<path d="M106.555 4.63505C106.555 4.63505 79.7348 4.08247 63.6921 20.3434" stroke="#267594" stroke-width="5" stroke-linecap="round" stroke-linejoin="round"/>
<path d="M55.0518 30.5419C23.4349 71.229 47.585 107.426 24.7161 111.455C24.7161 111.455 27.93 92.5221 8.5281 73.8792C-10.8738 55.231 17.0501 27.5858 32.0268 21.5987C46.2122 15.928 43.7412 1.44287 64.7043 1.34093C67.0084 1.3302 69.2749 2.08665 71.116 3.47615L79.6703 9.93544" stroke="#267594" stroke-width="5" stroke-linecap="round" stroke-linejoin="round"/>
<path d="M44.0211 11.5508C35.8652 19.6195 39.2029 37.4631 24.2316 47.2432" stroke="#267594" stroke-width="5" stroke-linecap="round" stroke-linejoin="round"/>
<path d="M106.544 110.168C104.488 110.034 101.963 111.257 99.1421 113.043C97.9147 113.805 96.6227 114.663 95.293 115.554H95.2607C95.1638 115.651 95.0292 115.72 94.9269 115.785C93.1988 116.943 91.4115 118.134 89.6188 119.224C86.168 121.273 82.6527 122.925 79.3311 123.092C79.0996 123.124 78.9004 123.124 78.7012 123.124C76.3433 123.124 73.9207 122.298 71.6327 120.876H71.6004C64.3328 116.412 58.6263 106.16 62.0448 98.2255C64.8012 86.3208 48.0748 75.0439 51.2618 52.7207" stroke="#267594" stroke-width="5" stroke-linecap="round" stroke-linejoin="round"/>
<path d="M131.147 59.2764C131.147 62.2754 132.369 64.711 133.871 64.711C135.373 64.711 136.595 62.2807 136.595 59.2764C136.595 56.2721 135.373 53.8418 133.871 53.8418C132.369 53.8418 131.147 56.2721 131.147 59.2764Z" fill="#267594" stroke="#267594" stroke-width="5" stroke-linecap="round" stroke-linejoin="round"/>
<path d="M106.555 4.63505C106.555 4.63505 133.375 4.08247 149.418 20.3434" stroke="#267594" stroke-width="5" stroke-linecap="round" stroke-linejoin="round"/>
<path d="M158.059 30.5424C189.676 71.2295 165.525 107.426 188.394 111.455C188.394 111.455 185.18 92.5226 204.582 73.8797C223.984 55.2368 196.06 27.5917 181.084 21.6045C166.898 15.9339 169.369 1.44872 148.401 1.34679C146.097 1.33606 143.83 2.09251 141.989 3.48201L133.435 9.9413" stroke="#267594" stroke-width="5" stroke-linecap="round" stroke-linejoin="round"/>
<path d="M169.084 11.5508C177.24 19.6195 173.902 37.4631 188.873 47.2432" stroke="#267594" stroke-width="5" stroke-linecap="round" stroke-linejoin="round"/>
<path d="M106.555 98.2255V110.178C113.053 109.765 124.6 123.145 134.414 123.129C144.229 123.113 155.534 108.676 151.076 98.2255C148.309 86.3423 165.041 75.0439 161.859 52.7207" stroke="#267594" stroke-width="5" stroke-linecap="round" stroke-linejoin="round"/>
<path d="M106.48 118.923C103.04 119.154 97.7371 124.105 92.3159 127.088C89.7211 128.515 89.9203 132.405 92.5905 133.66C101.958 138.059 111.325 138.006 120.687 133.505C123.228 132.281 123.287 128.467 120.827 127.067C115.341 123.939 109.957 118.687 106.474 118.918L106.48 118.923Z" stroke="#267594" stroke-width="5" stroke-linecap="round" stroke-linejoin="round"/>
<path d="M67.5952 50.9449C67.5791 47.3826 73.9639 38.3267 84.1763 44.1154" stroke="#267594" stroke-width="5" stroke-linecap="round" stroke-linejoin="round"/>
<path d="M145.499 50.939C145.515 47.3767 139.136 38.3209 128.918 44.1095" stroke="#267594" stroke-width="5" stroke-linecap="round" stroke-linejoin="round"/>
<path d="M46.4168 165.817C46.196 170.468 45.9753 175.071 45.4424 179.503C44.0319 191.182 37.674 210.131 22.4604 203.156C11.742 198.242 9.66937 183.811 12.4203 173.365C15.5158 161.616 23.774 151.605 32.6298 143.821C38.2555 138.875 44.6295 133.381 55.504 128.021C47.6442 138.901 47.0359 152.539 46.4114 165.817H46.4168Z" stroke="#267594" stroke-width="5" stroke-linecap="round" stroke-linejoin="round"/>
<path d="M173.816 163.247L175.092 169.03C180.405 168.805 184.895 172.915 185.121 178.21C185.304 182.448 182.004 186.026 177.751 186.209C174.349 186.354 171.474 183.719 171.329 180.334L173.692 179.814" stroke="#267594" stroke-width="5" stroke-linecap="round" stroke-linejoin="round"/>
<path d="M148.051 127.12H148.083C154.619 131.718 160.492 137.667 165.272 144.744C172.508 155.49 173.767 163.263 173.767 163.263" stroke="#267594" stroke-width="5" stroke-linecap="round" stroke-linejoin="round"/>
<path d="M61.4097 124.342C57.5605 126.423 55.504 128.011 55.504 128.011" stroke="#267594" stroke-width="5" stroke-linecap="round" stroke-linejoin="round"/>
<path d="M175.178 162.266C175.178 163.264 174.365 164.074 173.364 164.074C172.362 164.074 171.55 163.264 171.55 162.266C171.55 161.268 172.362 160.458 173.364 160.458C174.365 160.458 175.178 161.268 175.178 162.266Z" stroke="#267594" stroke-width="5" stroke-linecap="round" stroke-linejoin="round"/>
<path d="M139.319 129.701C143.071 135.887 144.993 142.995 144.858 150.104C145.257 169.385 130.226 188.763 106.302 189.09C82.3459 188.758 67.3099 169.38 67.7083 150.104C67.5737 142.995 69.5333 135.849 73.2479 129.669" stroke="#267594" stroke-width="5" stroke-linecap="round" stroke-linejoin="round"/>
<path d="M130.129 130.988V131.02C131.69 134.593 132.487 138.462 132.417 142.33C132.681 155.688 122.528 169.149 106.302 169.379C90.0765 169.149 79.891 155.688 80.1548 142.33C80.0902 138.59 80.8169 134.824 82.3135 131.353" stroke="#267594" stroke-width="5" stroke-linecap="round" stroke-linejoin="round"/>
</g>
<defs>
<clipPath id="clip0_2_1501">
<rect width="212" height="206" fill="white" transform="translate(0.555176)"/>
</clipPath>
</defs>
</svg>
