<svg width="201" height="202" viewBox="0 0 201 202" fill="none" xmlns="http://www.w3.org/2000/svg">
<g clip-path="url(#clip0_2_1486)">
<path d="M46.5951 152.53C30.1121 141.948 19.5181 106.741 52.9409 75.2836C52.9409 75.2836 25.4815 69.9902 14.638 99.58C8.70646 94.8026 -2.69996 108.092 7.03904 134.373C-7.56946 142.326 12.0838 162.319 26.1081 162.212C20.0863 164.473 25.4762 181.992 49.0803 173.682" stroke="#267594" stroke-width="5" stroke-linecap="round" stroke-linejoin="round"/>
<path d="M190.466 156.503C191.634 158.791 192.792 161.062 193.742 163.329C196.243 169.303 198.235 180.05 188.586 180.635C181.789 181.05 176.755 174.65 175.278 168.925C173.611 162.483 175.05 155.54 177.402 149.507C178.895 145.677 180.621 141.389 184.672 136C183.679 143.256 187.126 149.965 190.466 156.503V156.503Z" stroke="#267594" stroke-width="5" stroke-linecap="round" stroke-linejoin="round"/>
<path d="M137.56 50.6247C137.56 50.6247 154.138 49.7096 161.955 36.9204L162.534 35.7979" stroke="#267594" stroke-width="5" stroke-linecap="round" stroke-linejoin="round"/>
<path d="M100.117 130.191C109.984 132.212 124.985 144.778 126.275 154.976C128.134 169.186 106.734 181.816 106.734 181.816C106.734 181.816 134.278 180.613 140.932 185.258C147.516 189.87 145.881 200.665 145.881 200.665H65.5739C64.4375 193.467 72.7587 186.391 72.7587 186.391C72.7587 186.391 44.5506 187.907 46.2871 156.397C48.0182 114.874 98.6674 97.8876 104.562 86.2049C105.916 83.9333 106.766 81.2148 107.334 78.5016C108.624 72.3144 108.12 65.9038 106.58 59.7486C103.712 48.3213 103.112 36.8886 103.112 36.8886C87.7973 33.1327 76.8901 11.2197 90.1604 12.4486C99.0497 17.8484 110.238 16.1407 110.238 16.1407C110.238 16.1407 130.662 1.8033 138.542 2.56406C142.45 3.82489 150.331 8.37349 154.584 7.52229C158.774 6.60725 172.894 1.6171 172.894 1.6171C178.916 -0.877976 182.665 13.1402 177.371 23.9079L174.79 26.4668" stroke="#267594" stroke-width="5" stroke-linecap="round" stroke-linejoin="round"/>
<path d="M96.4637 15.167C93.5324 8.53827 94.382 2.665 101.349 4.11736C107.966 9.2937 116.605 10.0225 119.691 10.0864" stroke="#267594" stroke-width="5" stroke-linecap="round" stroke-linejoin="round"/>
<path d="M151.478 46.5283C151.478 46.5283 152.009 57.6471 158.838 65.9197C168.911 80.14 173.022 95.2647 166.113 124.966C159.204 154.662 169.825 184.811 169.825 184.811C169.825 184.811 178.47 184.811 180.695 189.854C182.92 194.897 186.228 200.664 182.92 200.664H168.662C162.38 200.664 156.783 196.749 154.627 190.838C153.453 187.625 152.062 183.827 150.543 179.762C148.961 172.697 137.682 153.928 136.875 148.481C136.163 143.698 139.678 137.261 137.884 132.191C136.089 127.121 132.775 123.322 132.775 123.322" stroke="#267594" stroke-width="5" stroke-linecap="round" stroke-linejoin="round"/>
<path d="M126.376 156.109L136.869 148.48" stroke="#267594" stroke-width="5" stroke-linecap="round" stroke-linejoin="round"/>
<path d="M57.821 86.3965C55.3942 88.3542 53.3126 90.6578 51.5496 93.121" stroke="#267594" stroke-width="5" stroke-linecap="round" stroke-linejoin="round"/>
<path d="M42.9151 114.47C42.7982 112.922 43.9612 107.517 46.7225 101.452" stroke="#267594" stroke-width="5" stroke-linecap="round" stroke-linejoin="round"/>
<path d="M12.3121 76.7246C11.5474 77.762 11.181 78.4164 11.181 78.4164" stroke="#267594" stroke-width="5" stroke-linecap="round" stroke-linejoin="round"/>
<path d="M19.4968 69.7508C23.8088 66.7238 29.8677 64.0904 37.8809 64.1861" stroke="#267594" stroke-width="5" stroke-linecap="round" stroke-linejoin="round"/>
<path d="M187.099 68.782C190.63 80.0551 190.662 90.0833 187.163 91.1845C183.669 92.2857 177.971 84.0344 174.439 72.7667C170.908 61.4936 170.876 51.4654 174.376 50.3642C177.87 49.263 183.568 57.5143 187.099 68.782V68.782Z" stroke="#267594" stroke-width="5" stroke-linecap="round" stroke-linejoin="round"/>
<path d="M184.683 23.9082C191.538 34.1119 199.307 54.1098 199.228 72.8574C199.095 105.033 184.683 136.006 184.683 136.006" stroke="#267594" stroke-width="5" stroke-linecap="round" stroke-linejoin="round"/>
<path d="M174.37 50.3746C174.37 50.3746 168.572 39.3356 168.125 27.9189" stroke="#267594" stroke-width="5" stroke-linecap="round" stroke-linejoin="round"/>
</g>
<defs>
<clipPath id="clip0_2_1486">
<rect width="200" height="202" fill="white" transform="translate(0.555176)"/>
</clipPath>
</defs>
</svg>
