<svg width="474" height="361" viewBox="0 0 474 361" fill="none" xmlns="http://www.w3.org/2000/svg">
<g filter="url(#filter0_d_31_13)">
<rect x="30.8008" y="26.9961" width="413" height="300" rx="30" fill="url(#paint0_linear_31_13)"/>
</g>
<path d="M92.6758 192.996V185.946L99.2258 176.321H96.8008L91.6258 184.071L86.4508 176.321H84.0258L90.6008 185.946V192.996H92.6758ZM103.426 193.296C107.101 193.296 109.401 190.446 109.401 186.946C109.401 183.446 107.101 180.621 103.426 180.621C99.7514 180.621 97.4514 183.446 97.4514 186.946C97.4514 190.446 99.7514 193.296 103.426 193.296ZM103.426 191.621C100.851 191.621 99.4264 189.421 99.4264 186.946C99.4264 184.496 100.851 182.296 103.426 182.296C106.001 182.296 107.426 184.496 107.426 186.946C107.426 189.421 106.001 191.621 103.426 191.621ZM122.483 192.996V180.921H120.608V189.796C119.908 190.771 118.508 191.621 117.058 191.621C115.408 191.621 114.333 190.996 114.333 188.871V180.921H112.458V189.446C112.458 192.046 113.783 193.296 116.308 193.296C118.108 193.296 119.683 192.346 120.608 191.296V192.996H122.483ZM138.022 193.296C140.222 193.296 141.522 192.396 142.447 191.196L141.197 190.046C140.397 191.121 139.372 191.621 138.122 191.621C135.572 191.621 133.947 189.621 133.947 186.946C133.947 184.271 135.572 182.296 138.122 182.296C139.372 182.296 140.397 182.746 141.197 183.846L142.447 182.721C141.522 181.521 140.222 180.621 138.022 180.621C134.422 180.621 131.997 183.371 131.997 186.946C131.997 190.521 134.422 193.296 138.022 193.296ZM154.525 192.996V184.696C154.525 181.771 152.425 180.621 149.85 180.621C147.875 180.621 146.325 181.271 145.025 182.621L145.9 183.921C146.975 182.746 148.15 182.246 149.6 182.246C151.35 182.246 152.65 183.171 152.65 184.771V186.946C151.675 185.846 150.3 185.321 148.65 185.321C146.6 185.321 144.45 186.571 144.45 189.296C144.45 191.921 146.625 193.296 148.65 193.296C150.275 193.296 151.675 192.721 152.65 191.621V192.996H154.525ZM149.35 191.946C147.575 191.946 146.35 190.846 146.35 189.296C146.35 187.771 147.575 186.671 149.35 186.671C150.65 186.671 151.925 187.171 152.65 188.146V190.446C151.925 191.446 150.65 191.946 149.35 191.946ZM168.333 192.996V184.521C168.333 181.896 167.008 180.621 164.508 180.621C162.683 180.621 161.033 181.646 160.183 182.671V180.921H158.308V192.996H160.183V184.171C160.908 183.196 162.283 182.296 163.758 182.296C165.383 182.296 166.483 182.946 166.483 185.096V192.996H168.333ZM179.521 179.196C180.221 179.196 180.771 178.646 180.771 177.946C180.771 177.246 180.221 176.671 179.521 176.671C178.821 176.671 178.246 177.246 178.246 177.946C178.246 178.646 178.821 179.196 179.521 179.196ZM176.871 197.896C179.196 197.896 180.446 196.546 180.446 194.171V180.921H178.571V194.171C178.571 195.696 177.746 196.346 176.621 196.346C175.871 196.346 175.321 196.021 174.896 195.596L174.246 196.996C174.996 197.596 175.646 197.896 176.871 197.896ZM189.462 193.296C193.137 193.296 195.437 190.446 195.437 186.946C195.437 183.446 193.137 180.621 189.462 180.621C185.787 180.621 183.487 183.446 183.487 186.946C183.487 190.446 185.787 193.296 189.462 193.296ZM189.462 191.621C186.887 191.621 185.462 189.421 185.462 186.946C185.462 184.496 186.887 182.296 189.462 182.296C192.037 182.296 193.462 184.496 193.462 186.946C193.462 189.421 192.037 191.621 189.462 191.621ZM199.443 179.196C200.143 179.196 200.693 178.646 200.693 177.946C200.693 177.246 200.143 176.671 199.443 176.671C198.743 176.671 198.168 177.246 198.168 177.946C198.168 178.646 198.743 179.196 199.443 179.196ZM200.368 192.996V180.921H198.493V192.996H200.368ZM214.133 192.996V184.521C214.133 181.896 212.808 180.621 210.308 180.621C208.483 180.621 206.833 181.646 205.983 182.671V180.921H204.108V192.996H205.983V184.171C206.708 183.196 208.083 182.296 209.558 182.296C211.183 182.296 212.283 182.946 212.283 185.096V192.996H214.133ZM227.447 193.296C228.522 193.296 229.197 192.971 229.672 192.521L229.122 191.096C228.872 191.371 228.397 191.621 227.847 191.621C227.047 191.621 226.647 190.971 226.647 190.071V182.571H229.097V180.921H226.647V177.621H224.747V180.921H222.747V182.571H224.747V190.471C224.747 192.271 225.647 193.296 227.447 193.296ZM236.996 193.296C240.671 193.296 242.971 190.446 242.971 186.946C242.971 183.446 240.671 180.621 236.996 180.621C233.321 180.621 231.021 183.446 231.021 186.946C231.021 190.446 233.321 193.296 236.996 193.296ZM236.996 191.621C234.421 191.621 232.996 189.421 232.996 186.946C232.996 184.496 234.421 182.296 236.996 182.296C239.571 182.296 240.996 184.496 240.996 186.946C240.996 189.421 239.571 191.621 236.996 191.621ZM256.652 192.996V176.321H254.777V182.746C253.802 181.421 252.327 180.621 250.702 180.621C247.552 180.621 245.327 183.096 245.327 186.971C245.327 190.896 247.552 193.296 250.702 193.296C252.402 193.296 253.877 192.421 254.777 191.196V192.996H256.652ZM251.177 191.621C248.727 191.621 247.277 189.646 247.277 186.971C247.277 184.296 248.727 182.296 251.177 182.296C252.652 182.296 254.127 183.196 254.777 184.246V189.696C254.127 190.746 252.652 191.621 251.177 191.621ZM269.832 192.996V184.696C269.832 181.771 267.732 180.621 265.157 180.621C263.182 180.621 261.632 181.271 260.332 182.621L261.207 183.921C262.282 182.746 263.457 182.246 264.907 182.246C266.657 182.246 267.957 183.171 267.957 184.771V186.946C266.982 185.846 265.607 185.321 263.957 185.321C261.907 185.321 259.757 186.571 259.757 189.296C259.757 191.921 261.932 193.296 263.957 193.296C265.582 193.296 266.982 192.721 267.957 191.621V192.996H269.832ZM264.657 191.946C262.882 191.946 261.657 190.846 261.657 189.296C261.657 187.771 262.882 186.671 264.657 186.671C265.957 186.671 267.232 187.171 267.957 188.146V190.446C267.232 191.446 265.957 191.946 264.657 191.946ZM272.965 197.721C273.29 197.821 273.915 197.896 274.315 197.896C275.915 197.871 277.14 197.196 277.865 195.446L283.915 180.921H281.89L277.865 190.821L273.865 180.921H271.815L276.865 193.121L276.065 194.946C275.64 195.946 275.09 196.221 274.265 196.221C273.965 196.221 273.515 196.146 273.24 196.021L272.965 197.721ZM294.741 192.996V182.571H297.191V180.921H294.741V179.996C294.741 178.446 295.416 177.621 296.666 177.621C297.266 177.621 297.741 177.846 298.141 178.196L298.916 176.996C298.166 176.296 297.341 176.071 296.366 176.071C294.241 176.071 292.866 177.521 292.866 179.996V180.921H290.866V182.571H292.866V192.996H294.741ZM304.72 193.296C308.395 193.296 310.695 190.446 310.695 186.946C310.695 183.446 308.395 180.621 304.72 180.621C301.045 180.621 298.745 183.446 298.745 186.946C298.745 190.446 301.045 193.296 304.72 193.296ZM304.72 191.621C302.145 191.621 300.72 189.421 300.72 186.946C300.72 184.496 302.145 182.296 304.72 182.296C307.295 182.296 308.72 184.496 308.72 186.946C308.72 189.421 307.295 191.621 304.72 191.621ZM315.627 192.996V184.446C316.177 183.471 317.752 182.521 318.927 182.521C319.202 182.521 319.427 182.546 319.652 182.571V180.646C318.002 180.646 316.602 181.596 315.627 182.846V180.921H313.752V192.996H315.627ZM95.1008 222.996V214.696C95.1008 211.771 93.0008 210.621 90.4258 210.621C88.4508 210.621 86.9008 211.271 85.6008 212.621L86.4758 213.921C87.5508 212.746 88.7258 212.246 90.1758 212.246C91.9258 212.246 93.2258 213.171 93.2258 214.771V216.946C92.2508 215.846 90.8758 215.321 89.2258 215.321C87.1758 215.321 85.0258 216.571 85.0258 219.296C85.0258 221.921 87.2008 223.296 89.2258 223.296C90.8508 223.296 92.2508 222.721 93.2258 221.621V222.996H95.1008ZM89.9258 221.946C88.1508 221.946 86.9258 220.846 86.9258 219.296C86.9258 217.771 88.1508 216.671 89.9258 216.671C91.2258 216.671 92.5008 217.171 93.2258 218.146V220.446C92.5008 221.446 91.2258 221.946 89.9258 221.946ZM109.204 223.296C112.304 223.296 113.929 221.671 113.929 219.646C113.929 214.946 106.454 216.671 106.454 214.046C106.454 212.971 107.479 212.146 109.129 212.146C110.704 212.146 112.004 212.796 112.729 213.671L113.604 212.371C112.654 211.396 111.204 210.621 109.129 210.621C106.254 210.621 104.654 212.196 104.654 214.096C104.654 218.571 112.129 216.771 112.129 219.696C112.129 220.896 111.104 221.771 109.254 221.771C107.604 221.771 106.079 220.971 105.279 220.046L104.329 221.396C105.554 222.671 107.204 223.296 109.204 223.296ZM122.925 223.296C126.1 223.296 128.3 220.846 128.3 216.946C128.3 213.021 126.1 210.621 122.925 210.621C121.225 210.621 119.725 211.496 118.85 212.721V210.921H116.975V227.596H118.85V221.171C119.85 222.496 121.275 223.296 122.925 223.296ZM122.45 221.621C120.975 221.621 119.5 220.721 118.85 219.671V214.221C119.5 213.171 120.975 212.296 122.45 212.296C124.875 212.296 126.325 214.271 126.325 216.946C126.325 219.621 124.875 221.621 122.45 221.621ZM136.756 223.296C138.706 223.296 140.331 222.621 141.556 221.421L140.656 220.196C139.681 221.196 138.306 221.746 136.906 221.746C134.306 221.746 132.731 219.846 132.581 217.571H142.331V217.096C142.331 213.471 140.181 210.621 136.531 210.621C133.081 210.621 130.581 213.446 130.581 216.946C130.581 220.721 133.156 223.296 136.756 223.296ZM140.481 216.171H132.556C132.656 214.346 133.931 212.171 136.506 212.171C139.256 212.171 140.456 214.396 140.481 216.171ZM150.693 223.296C152.893 223.296 154.193 222.396 155.118 221.196L153.868 220.046C153.068 221.121 152.043 221.621 150.793 221.621C148.243 221.621 146.618 219.621 146.618 216.946C146.618 214.271 148.243 212.296 150.793 212.296C152.043 212.296 153.068 212.746 153.868 213.846L155.118 212.721C154.193 211.521 152.893 210.621 150.693 210.621C147.093 210.621 144.668 213.371 144.668 216.946C144.668 220.521 147.093 223.296 150.693 223.296ZM158.721 209.196C159.421 209.196 159.971 208.646 159.971 207.946C159.971 207.246 159.421 206.671 158.721 206.671C158.021 206.671 157.446 207.246 157.446 207.946C157.446 208.646 158.021 209.196 158.721 209.196ZM159.646 222.996V210.921H157.771V222.996H159.646ZM172.811 222.996V214.696C172.811 211.771 170.711 210.621 168.136 210.621C166.161 210.621 164.611 211.271 163.311 212.621L164.186 213.921C165.261 212.746 166.436 212.246 167.886 212.246C169.636 212.246 170.936 213.171 170.936 214.771V216.946C169.961 215.846 168.586 215.321 166.936 215.321C164.886 215.321 162.736 216.571 162.736 219.296C162.736 221.921 164.911 223.296 166.936 223.296C168.561 223.296 169.961 222.721 170.936 221.621V222.996H172.811ZM167.636 221.946C165.861 221.946 164.636 220.846 164.636 219.296C164.636 217.771 165.861 216.671 167.636 216.671C168.936 216.671 170.211 217.171 170.936 218.146V220.446C170.211 221.446 168.936 221.946 167.636 221.946ZM178.469 222.996V206.321H176.594V222.996H178.469ZM199.304 222.996V206.321H197.429V212.746C196.454 211.421 194.979 210.621 193.354 210.621C190.204 210.621 187.979 213.096 187.979 216.971C187.979 220.896 190.204 223.296 193.354 223.296C195.054 223.296 196.529 222.421 197.429 221.196V222.996H199.304ZM193.829 221.621C191.379 221.621 189.929 219.646 189.929 216.971C189.929 214.296 191.379 212.296 193.829 212.296C195.304 212.296 196.779 213.196 197.429 214.246V219.696C196.779 220.746 195.304 221.621 193.829 221.621ZM204.009 209.196C204.709 209.196 205.259 208.646 205.259 207.946C205.259 207.246 204.709 206.671 204.009 206.671C203.309 206.671 202.734 207.246 202.734 207.946C202.734 208.646 203.309 209.196 204.009 209.196ZM204.934 222.996V210.921H203.059V222.996H204.934ZM212.524 223.296C215.624 223.296 217.249 221.671 217.249 219.646C217.249 214.946 209.774 216.671 209.774 214.046C209.774 212.971 210.799 212.146 212.449 212.146C214.024 212.146 215.324 212.796 216.049 213.671L216.924 212.371C215.974 211.396 214.524 210.621 212.449 210.621C209.574 210.621 207.974 212.196 207.974 214.096C207.974 218.571 215.449 216.771 215.449 219.696C215.449 220.896 214.424 221.771 212.574 221.771C210.924 221.771 209.399 220.971 208.599 220.046L207.649 221.396C208.874 222.671 210.524 223.296 212.524 223.296ZM225.62 223.296C227.82 223.296 229.12 222.396 230.045 221.196L228.795 220.046C227.995 221.121 226.97 221.621 225.72 221.621C223.17 221.621 221.545 219.621 221.545 216.946C221.545 214.271 223.17 212.296 225.72 212.296C226.97 212.296 227.995 212.746 228.795 213.846L230.045 212.721C229.12 211.521 227.82 210.621 225.62 210.621C222.02 210.621 219.595 213.371 219.595 216.946C219.595 220.521 222.02 223.296 225.62 223.296ZM237.972 223.296C241.647 223.296 243.947 220.446 243.947 216.946C243.947 213.446 241.647 210.621 237.972 210.621C234.297 210.621 231.997 213.446 231.997 216.946C231.997 220.446 234.297 223.296 237.972 223.296ZM237.972 221.621C235.397 221.621 233.972 219.421 233.972 216.946C233.972 214.496 235.397 212.296 237.972 212.296C240.547 212.296 241.972 214.496 241.972 216.946C241.972 219.421 240.547 221.621 237.972 221.621ZM257.029 222.996V210.921H255.154V219.796C254.454 220.771 253.054 221.621 251.604 221.621C249.954 221.621 248.879 220.996 248.879 218.871V210.921H247.004V219.446C247.004 222.046 248.329 223.296 250.854 223.296C252.654 223.296 254.229 222.346 255.154 221.296V222.996H257.029ZM270.798 222.996V214.521C270.798 211.896 269.473 210.621 266.973 210.621C265.148 210.621 263.498 211.646 262.648 212.671V210.921H260.773V222.996H262.648V214.171C263.373 213.196 264.748 212.296 266.223 212.296C267.848 212.296 268.948 212.946 268.948 215.096V222.996H270.798ZM277.642 223.296C278.717 223.296 279.392 222.971 279.867 222.521L279.317 221.096C279.067 221.371 278.592 221.621 278.042 221.621C277.242 221.621 276.842 220.971 276.842 220.071V212.571H279.292V210.921H276.842V207.621H274.942V210.921H272.942V212.571H274.942V220.471C274.942 222.271 275.842 223.296 277.642 223.296ZM293.661 223.296C297.336 223.296 299.636 220.446 299.636 216.946C299.636 213.446 297.336 210.621 293.661 210.621C289.986 210.621 287.686 213.446 287.686 216.946C287.686 220.446 289.986 223.296 293.661 223.296ZM293.661 221.621C291.086 221.621 289.661 219.421 289.661 216.946C289.661 214.496 291.086 212.296 293.661 212.296C296.236 212.296 297.661 214.496 297.661 216.946C297.661 219.421 296.236 221.621 293.661 221.621ZM307.967 222.996L312.992 210.921H310.967L306.942 220.821L302.942 210.921H300.892L305.917 222.996H307.967ZM320.423 223.296C322.373 223.296 323.998 222.621 325.223 221.421L324.323 220.196C323.348 221.196 321.973 221.746 320.573 221.746C317.973 221.746 316.398 219.846 316.248 217.571H325.998V217.096C325.998 213.471 323.848 210.621 320.198 210.621C316.748 210.621 314.248 213.446 314.248 216.946C314.248 220.721 316.823 223.296 320.423 223.296ZM324.148 216.171H316.223C316.323 214.346 317.598 212.171 320.173 212.171C322.923 212.171 324.123 214.396 324.148 216.171ZM330.91 222.996V214.446C331.46 213.471 333.035 212.521 334.21 212.521C334.485 212.521 334.71 212.546 334.935 212.571V210.646C333.285 210.646 331.885 211.596 330.91 212.846V210.921H329.035V222.996H330.91ZM87.5508 252.996V244.446C88.1008 243.471 89.6758 242.521 90.8508 242.521C91.1258 242.521 91.3508 242.546 91.5758 242.571V240.646C89.9258 240.646 88.5258 241.596 87.5508 242.846V240.921H85.6758V252.996H87.5508ZM99.4027 253.296C101.353 253.296 102.978 252.621 104.203 251.421L103.303 250.196C102.328 251.196 100.953 251.746 99.5527 251.746C96.9527 251.746 95.3777 249.846 95.2277 247.571H104.978V247.096C104.978 243.471 102.828 240.621 99.1777 240.621C95.7277 240.621 93.2277 243.446 93.2277 246.946C93.2277 250.721 95.8027 253.296 99.4027 253.296ZM103.128 246.171H95.2027C95.3027 244.346 96.5777 242.171 99.1527 242.171C101.903 242.171 103.103 244.396 103.128 246.171ZM112.865 257.896C115.815 257.896 118.64 256.646 118.64 252.821V240.921H116.765V242.746C115.79 241.421 114.315 240.621 112.69 240.621C109.515 240.621 107.315 243.021 107.315 246.896C107.315 250.796 109.54 253.146 112.69 253.146C114.39 253.146 115.865 252.221 116.765 250.996V252.821C116.765 255.371 114.865 256.346 112.865 256.346C111.14 256.346 109.94 255.896 108.94 254.721L107.99 256.071C109.44 257.496 110.84 257.896 112.865 257.896ZM113.165 251.471C110.715 251.471 109.265 249.546 109.265 246.896C109.265 244.221 110.715 242.296 113.165 242.296C114.64 242.296 116.09 243.196 116.765 244.221V249.521C116.09 250.571 114.64 251.471 113.165 251.471ZM132.42 252.996V240.921H130.545V249.796C129.845 250.771 128.445 251.621 126.995 251.621C125.345 251.621 124.27 250.996 124.27 248.871V240.921H122.395V249.446C122.395 252.046 123.72 253.296 126.245 253.296C128.045 253.296 129.62 252.346 130.545 251.296V252.996H132.42ZM138.039 252.996V236.321H136.164V252.996H138.039ZM151.204 252.996V244.696C151.204 241.771 149.104 240.621 146.529 240.621C144.554 240.621 143.004 241.271 141.704 242.621L142.579 243.921C143.654 242.746 144.829 242.246 146.279 242.246C148.029 242.246 149.329 243.171 149.329 244.771V246.946C148.354 245.846 146.979 245.321 145.329 245.321C143.279 245.321 141.129 246.571 141.129 249.296C141.129 251.921 143.304 253.296 145.329 253.296C146.954 253.296 148.354 252.721 149.329 251.621V252.996H151.204ZM146.029 251.946C144.254 251.946 143.029 250.846 143.029 249.296C143.029 247.771 144.254 246.671 146.029 246.671C147.329 246.671 148.604 247.171 149.329 248.146V250.446C148.604 251.446 147.329 251.946 146.029 251.946ZM156.862 252.996V244.446C157.412 243.471 158.987 242.521 160.162 242.521C160.437 242.521 160.662 242.546 160.887 242.571V240.646C159.237 240.646 157.837 241.596 156.862 242.846V240.921H154.987V252.996H156.862ZM175.659 253.296C178.834 253.296 181.034 250.846 181.034 246.946C181.034 243.021 178.834 240.621 175.659 240.621C173.959 240.621 172.459 241.496 171.584 242.721V240.921H169.709V257.596H171.584V251.171C172.584 252.496 174.009 253.296 175.659 253.296ZM175.184 251.621C173.709 251.621 172.234 250.721 171.584 249.671V244.221C172.234 243.171 173.709 242.296 175.184 242.296C177.609 242.296 179.059 244.271 179.059 246.946C179.059 249.621 177.609 251.621 175.184 251.621ZM185.891 252.996V244.446C186.441 243.471 188.016 242.521 189.191 242.521C189.466 242.521 189.691 242.546 189.916 242.571V240.646C188.266 240.646 186.866 241.596 185.891 242.846V240.921H184.016V252.996H185.891ZM193.218 239.196C193.918 239.196 194.468 238.646 194.468 237.946C194.468 237.246 193.918 236.671 193.218 236.671C192.518 236.671 191.943 237.246 191.943 237.946C191.943 238.646 192.518 239.196 193.218 239.196ZM194.143 252.996V240.921H192.268V252.996H194.143ZM203.208 253.296C205.408 253.296 206.708 252.396 207.633 251.196L206.383 250.046C205.583 251.121 204.558 251.621 203.308 251.621C200.758 251.621 199.133 249.621 199.133 246.946C199.133 244.271 200.758 242.296 203.308 242.296C204.558 242.296 205.583 242.746 206.383 243.846L207.633 242.721C206.708 241.521 205.408 240.621 203.208 240.621C199.608 240.621 197.183 243.371 197.183 246.946C197.183 250.521 199.608 253.296 203.208 253.296ZM211.235 239.196C211.935 239.196 212.485 238.646 212.485 237.946C212.485 237.246 211.935 236.671 211.235 236.671C210.535 236.671 209.96 237.246 209.96 237.946C209.96 238.646 210.535 239.196 211.235 239.196ZM212.16 252.996V240.921H210.285V252.996H212.16ZM225.925 252.996V244.521C225.925 241.896 224.6 240.621 222.1 240.621C220.275 240.621 218.625 241.646 217.775 242.671V240.921H215.9V252.996H217.775V244.171C218.5 243.196 219.875 242.296 221.35 242.296C222.975 242.296 224.075 242.946 224.075 245.096V252.996H225.925ZM234.544 257.896C237.494 257.896 240.319 256.646 240.319 252.821V240.921H238.444V242.746C237.469 241.421 235.994 240.621 234.369 240.621C231.194 240.621 228.994 243.021 228.994 246.896C228.994 250.796 231.219 253.146 234.369 253.146C236.069 253.146 237.544 252.221 238.444 250.996V252.821C238.444 255.371 236.544 256.346 234.544 256.346C232.819 256.346 231.619 255.896 230.619 254.721L229.669 256.071C231.119 257.496 232.519 257.896 234.544 257.896ZM234.844 251.471C232.394 251.471 230.944 249.546 230.944 246.896C230.944 244.221 232.394 242.296 234.844 242.296C236.319 242.296 237.769 243.196 238.444 244.221V249.521C237.769 250.571 236.319 251.471 234.844 251.471ZM245.074 253.246C245.824 253.246 246.449 252.621 246.449 251.871C246.449 251.121 245.824 250.496 245.074 250.496C244.324 250.496 243.699 251.121 243.699 251.871C243.699 252.621 244.324 253.246 245.074 253.246Z" fill="#9B9B9B"/>
<path d="M101.616 118.996V112.836H92.7608V95.6511H85.6908V118.996H101.616ZM107.465 100.341C109.425 100.341 111 98.7661 111 96.8061C111 94.8461 109.425 93.2711 107.465 93.2711C105.505 93.2711 103.93 94.8461 103.93 96.8061C103.93 98.7661 105.505 100.341 107.465 100.341ZM110.615 118.996V102.091H104.315V118.996H110.615ZM142.02 118.996V106.746C142.02 103.246 139.92 101.671 136.805 101.671C134.075 101.671 131.87 103.176 130.89 104.646C130.12 102.546 128.405 101.671 126.025 101.671C123.295 101.671 121.16 103.071 120.425 104.016V102.091H114.125V118.996H120.425V108.566C120.845 108.076 121.615 107.236 122.98 107.236C124.415 107.236 124.905 108.111 124.905 109.126V118.996H131.205V108.566C131.625 108.076 132.395 107.236 133.795 107.236C135.195 107.236 135.72 108.111 135.72 109.126V118.996H142.02ZM148.686 100.341C150.646 100.341 152.221 98.7661 152.221 96.8061C152.221 94.8461 150.646 93.2711 148.686 93.2711C146.726 93.2711 145.151 94.8461 145.151 96.8061C145.151 98.7661 146.726 100.341 148.686 100.341ZM151.836 118.996V102.091H145.536V118.996H151.836ZM162.451 119.416C164.586 119.416 166.056 118.891 166.721 118.296L165.601 113.536C165.461 113.676 164.901 113.851 164.341 113.851C163.501 113.851 162.941 113.151 162.941 112.276V107.551H166.371V102.091H162.941V97.4711H156.641V102.091H153.841V107.551H156.641V114.096C156.641 117.631 158.706 119.416 162.451 119.416ZM167.555 110.526C167.555 116.091 171.685 119.416 176.97 119.416C179.49 119.416 182.5 118.751 184.18 117.316L181.59 113.431C180.75 114.096 179.21 114.621 177.775 114.621C175.64 114.621 174.415 113.571 174.065 112.486H185.545V111.191C185.545 105.241 181.73 101.671 176.76 101.671C171.3 101.671 167.555 105.626 167.555 110.526ZM176.76 106.466C178.79 106.466 179.385 107.761 179.56 108.496H173.995C174.205 107.726 174.835 106.466 176.76 106.466ZM205.074 118.996V95.6511H198.774V103.876C197.444 102.266 195.729 101.671 194.014 101.671C189.849 101.671 186.559 104.926 186.559 110.526C186.559 116.336 189.919 119.416 194.014 119.416C195.729 119.416 197.339 118.821 198.774 117.211V118.996H205.074ZM198.774 112.696C198.179 113.431 196.989 113.851 196.149 113.851C194.434 113.851 192.999 112.626 192.999 110.526C192.999 108.426 194.434 107.236 196.149 107.236C196.989 107.236 198.179 107.621 198.774 108.356V112.696ZM229.699 118.996V101.811H235.929V95.6511H216.364V101.811H222.629V118.996H229.699ZM241.45 100.341C243.41 100.341 244.985 98.7661 244.985 96.8061C244.985 94.8461 243.41 93.2711 241.45 93.2711C239.49 93.2711 237.915 94.8461 237.915 96.8061C237.915 98.7661 239.49 100.341 241.45 100.341ZM244.6 118.996V102.091H238.3V118.996H244.6ZM276.004 118.996V106.746C276.004 103.246 273.904 101.671 270.789 101.671C268.059 101.671 265.854 103.176 264.874 104.646C264.104 102.546 262.389 101.671 260.009 101.671C257.279 101.671 255.144 103.071 254.409 104.016V102.091H248.109V118.996H254.409V108.566C254.829 108.076 255.599 107.236 256.964 107.236C258.399 107.236 258.889 108.111 258.889 109.126V118.996H265.189V108.566C265.609 108.076 266.379 107.236 267.779 107.236C269.179 107.236 269.704 108.111 269.704 109.126V118.996H276.004ZM278.366 110.526C278.366 116.091 282.496 119.416 287.781 119.416C290.301 119.416 293.311 118.751 294.991 117.316L292.401 113.431C291.561 114.096 290.021 114.621 288.586 114.621C286.451 114.621 285.226 113.571 284.876 112.486H296.356V111.191C296.356 105.241 292.541 101.671 287.571 101.671C282.111 101.671 278.366 105.626 278.366 110.526ZM287.571 106.466C289.601 106.466 290.196 107.761 290.371 108.496H284.806C285.016 107.726 285.646 106.466 287.571 106.466ZM96.1558 153.996C103.471 153.996 108.931 149.761 108.931 142.306C108.931 134.851 103.471 130.651 96.1208 130.651H85.6908V153.996H96.1558ZM92.7608 136.811H96.1558C99.9358 136.811 101.756 139.156 101.756 142.306C101.756 145.246 99.6558 147.836 96.1208 147.836H92.7608V136.811ZM114.472 135.341C116.432 135.341 118.007 133.766 118.007 131.806C118.007 129.846 116.432 128.271 114.472 128.271C112.512 128.271 110.937 129.846 110.937 131.806C110.937 133.766 112.512 135.341 114.472 135.341ZM117.622 153.996V137.091H111.322V153.996H117.622ZM119.697 151.826C121.517 153.331 124.877 154.416 127.992 154.416C132.997 154.416 136.007 151.966 136.007 148.606C136.007 143.881 131.422 143.286 128.587 142.866C126.907 142.621 126.417 142.411 126.417 141.921C126.417 141.431 127.082 141.186 127.992 141.186C129.952 141.186 131.912 142.061 132.962 142.936L135.272 138.841C133.312 137.546 130.792 136.671 127.957 136.671C123.057 136.671 120.397 139.401 120.397 142.446C120.397 147.031 124.772 147.556 127.607 147.941C129.217 148.151 129.987 148.361 129.987 148.921C129.987 149.376 129.602 149.726 128.307 149.726C126.417 149.726 123.547 148.641 122.217 147.591L119.697 151.826ZM137.135 145.526C137.135 150.916 141.265 154.416 146.62 154.416C150.47 154.416 152.85 152.631 153.795 151.231L149.735 147.381C149.21 148.151 148.23 148.851 146.9 148.851C145.115 148.851 143.575 147.696 143.575 145.526C143.575 143.356 145.115 142.236 146.9 142.236C148.23 142.236 149.21 142.866 149.735 143.671L153.795 139.856C152.85 138.421 150.47 136.671 146.62 136.671C141.265 136.671 137.135 140.171 137.135 145.526ZM164.188 154.416C170.208 154.416 173.708 150.251 173.708 145.526C173.708 140.801 170.208 136.671 164.188 136.671C158.203 136.671 154.703 140.801 154.703 145.526C154.703 150.251 158.203 154.416 164.188 154.416ZM164.188 148.851C162.263 148.851 161.178 147.416 161.178 145.526C161.178 143.671 162.263 142.236 164.188 142.236C166.148 142.236 167.233 143.671 167.233 145.526C167.233 147.416 166.148 148.851 164.188 148.851ZM193.769 153.996V137.091H187.469V147.521C186.944 148.116 186.209 148.851 184.809 148.851C183.269 148.851 182.359 148.186 182.359 146.471V137.091H176.059V149.166C176.059 152.071 177.739 154.416 181.659 154.416C184.634 154.416 186.489 153.191 187.469 152.106V153.996H193.769ZM215.029 153.996V141.991C215.029 139.051 213.314 136.671 209.394 136.671C206.419 136.671 204.564 137.896 203.584 139.016V137.091H197.284V153.996H203.584V143.566C204.109 142.971 204.844 142.236 206.279 142.236C207.784 142.236 208.729 142.901 208.729 144.651V153.996H215.029ZM225.649 154.416C227.784 154.416 229.254 153.891 229.919 153.296L228.799 148.536C228.659 148.676 228.099 148.851 227.539 148.851C226.699 148.851 226.139 148.151 226.139 147.276V142.551H229.569V137.091H226.139V132.471H219.839V137.091H217.039V142.551H219.839V149.096C219.839 152.631 221.904 154.416 225.649 154.416Z" fill="#267594"/>
<defs>
<filter id="filter0_d_31_13" x="0.800781" y="0.996094" width="473" height="360" filterUnits="userSpaceOnUse" color-interpolation-filters="sRGB">
<feFlood flood-opacity="0" result="BackgroundImageFix"/>
<feColorMatrix in="SourceAlpha" type="matrix" values="0 0 0 0 0 0 0 0 0 0 0 0 0 0 0 0 0 0 127 0" result="hardAlpha"/>
<feOffset dy="4"/>
<feGaussianBlur stdDeviation="15"/>
<feComposite in2="hardAlpha" operator="out"/>
<feColorMatrix type="matrix" values="0 0 0 0 0 0 0 0 0 0 0 0 0 0 0 0 0 0 0.12 0"/>
<feBlend mode="normal" in2="BackgroundImageFix" result="effect1_dropShadow_31_13"/>
<feBlend mode="normal" in="SourceGraphic" in2="effect1_dropShadow_31_13" result="shape"/>
</filter>
<linearGradient id="paint0_linear_31_13" x1="68.0146" y1="95.5675" x2="452.476" y2="111.011" gradientUnits="userSpaceOnUse">
<stop stop-color="white"/>
<stop offset="1" stop-color="white"/>
</linearGradient>
</defs>
</svg>
