<svg width="474" height="361" viewBox="0 0 474 361" fill="none" xmlns="http://www.w3.org/2000/svg">
<g filter="url(#filter0_d_31_12)">
<rect x="30.8008" y="26.9961" width="413" height="300" rx="30" fill="url(#paint0_linear_31_12)"/>
</g>
<path d="M88.4258 195.296C91.4008 195.296 93.7258 193.571 93.7258 189.971V178.321H91.6508V189.946C91.6508 192.021 90.3508 193.446 88.3008 193.446C86.8508 193.446 85.8758 192.671 85.1758 191.796L84.0758 193.371C85.2258 194.721 86.6758 195.296 88.4258 195.296ZM102.816 195.296C106.491 195.296 108.791 192.446 108.791 188.946C108.791 185.446 106.491 182.621 102.816 182.621C99.141 182.621 96.841 185.446 96.841 188.946C96.841 192.446 99.141 195.296 102.816 195.296ZM102.816 193.621C100.241 193.621 98.816 191.421 98.816 188.946C98.816 186.496 100.241 184.296 102.816 184.296C105.391 184.296 106.816 186.496 106.816 188.946C106.816 191.421 105.391 193.621 102.816 193.621ZM112.798 181.196C113.498 181.196 114.048 180.646 114.048 179.946C114.048 179.246 113.498 178.671 112.798 178.671C112.098 178.671 111.523 179.246 111.523 179.946C111.523 180.646 112.098 181.196 112.798 181.196ZM113.723 194.996V182.921H111.848V194.996H113.723ZM127.488 194.996V186.521C127.488 183.896 126.163 182.621 123.663 182.621C121.838 182.621 120.188 183.646 119.338 184.671V182.921H117.463V194.996H119.338V186.171C120.063 185.196 121.438 184.296 122.913 184.296C124.538 184.296 125.638 184.946 125.638 187.096V194.996H127.488ZM147.752 194.996V186.521C147.752 183.896 146.427 182.621 143.927 182.621C142.102 182.621 140.452 183.646 139.602 184.671V182.921H137.727V194.996H139.602V186.171C140.327 185.196 141.702 184.296 143.177 184.296C144.802 184.296 145.902 184.946 145.902 187.096V194.996H147.752ZM156.796 195.296C160.471 195.296 162.771 192.446 162.771 188.946C162.771 185.446 160.471 182.621 156.796 182.621C153.121 182.621 150.821 185.446 150.821 188.946C150.821 192.446 153.121 195.296 156.796 195.296ZM156.796 193.621C154.221 193.621 152.796 191.421 152.796 188.946C152.796 186.496 154.221 184.296 156.796 184.296C159.371 184.296 160.796 186.496 160.796 188.946C160.796 191.421 159.371 193.621 156.796 193.621ZM178.177 194.996L182.027 182.921H180.052L177.102 192.546L173.952 182.921H172.327L169.152 192.546L166.202 182.921H164.252L168.102 194.996H169.977L173.127 185.296L176.277 194.996H178.177ZM185.613 194.396C185.613 193.196 184.888 192.496 184.038 192.496C183.288 192.496 182.713 193.121 182.713 193.846C182.713 194.571 183.238 195.121 183.913 195.121C184.038 195.121 184.213 195.096 184.263 195.071C184.163 195.896 183.438 196.871 182.638 197.396L183.588 198.171C184.738 197.346 185.613 195.921 185.613 194.396ZM200.594 195.296C204.269 195.296 206.569 192.446 206.569 188.946C206.569 185.446 204.269 182.621 200.594 182.621C196.919 182.621 194.619 185.446 194.619 188.946C194.619 192.446 196.919 195.296 200.594 195.296ZM200.594 193.621C198.019 193.621 196.594 191.421 196.594 188.946C196.594 186.496 198.019 184.296 200.594 184.296C203.169 184.296 204.594 186.496 204.594 188.946C204.594 191.421 203.169 193.621 200.594 193.621ZM221.976 194.996L225.826 182.921H223.851L220.901 192.546L217.751 182.921H216.126L212.951 192.546L210.001 182.921H208.051L211.901 194.996H213.776L216.926 185.296L220.076 194.996H221.976ZM238.01 194.996V186.521C238.01 183.896 236.685 182.621 234.185 182.621C232.36 182.621 230.71 183.646 229.86 184.671V182.921H227.985V194.996H229.86V186.171C230.585 185.196 231.96 184.296 233.435 184.296C235.06 184.296 236.16 184.946 236.16 187.096V194.996H238.01ZM249.199 181.196C249.899 181.196 250.449 180.646 250.449 179.946C250.449 179.246 249.899 178.671 249.199 178.671C248.499 178.671 247.924 179.246 247.924 179.946C247.924 180.646 248.499 181.196 249.199 181.196ZM250.124 194.996V182.921H248.249V194.996H250.124ZM256.939 195.296C258.014 195.296 258.689 194.971 259.164 194.521L258.614 193.096C258.364 193.371 257.889 193.621 257.339 193.621C256.539 193.621 256.139 192.971 256.139 192.071V184.571H258.589V182.921H256.139V179.621H254.239V182.921H252.239V184.571H254.239V192.471C254.239 194.271 255.139 195.296 256.939 195.296ZM270.083 194.996V184.571H272.533V182.921H270.083V181.996C270.083 180.446 270.758 179.621 272.008 179.621C272.608 179.621 273.083 179.846 273.483 180.196L274.258 178.996C273.508 178.296 272.683 178.071 271.708 178.071C269.583 178.071 268.208 179.521 268.208 181.996V182.921H266.208V184.571H268.208V194.996H270.083ZM280.062 195.296C283.737 195.296 286.037 192.446 286.037 188.946C286.037 185.446 283.737 182.621 280.062 182.621C276.387 182.621 274.087 185.446 274.087 188.946C274.087 192.446 276.387 195.296 280.062 195.296ZM280.062 193.621C277.487 193.621 276.062 191.421 276.062 188.946C276.062 186.496 277.487 184.296 280.062 184.296C282.637 184.296 284.062 186.496 284.062 188.946C284.062 191.421 282.637 193.621 280.062 193.621ZM290.969 194.996V186.446C291.519 185.471 293.094 184.521 294.269 184.521C294.544 184.521 294.769 184.546 294.994 184.571V182.646C293.344 182.646 291.944 183.596 290.969 184.846V182.921H289.094V194.996H290.969ZM305.69 194.996V178.321H303.815V194.996H305.69ZM310.381 181.196C311.081 181.196 311.631 180.646 311.631 179.946C311.631 179.246 311.081 178.671 310.381 178.671C309.681 178.671 309.106 179.246 309.106 179.946C309.106 180.646 309.681 181.196 310.381 181.196ZM311.306 194.996V182.921H309.431V194.996H311.306ZM317.446 194.996V184.571H319.896V182.921H317.446V181.996C317.446 180.446 318.121 179.621 319.371 179.621C319.971 179.621 320.446 179.846 320.846 180.196L321.621 178.996C320.871 178.296 320.046 178.071 319.071 178.071C316.946 178.071 315.571 179.521 315.571 181.996V182.921H313.571V184.571H315.571V194.996H317.446ZM327.625 195.296C329.575 195.296 331.2 194.621 332.425 193.421L331.525 192.196C330.55 193.196 329.175 193.746 327.775 193.746C325.175 193.746 323.6 191.846 323.45 189.571H333.2V189.096C333.2 185.471 331.05 182.621 327.4 182.621C323.95 182.621 321.45 185.446 321.45 188.946C321.45 192.721 324.025 195.296 327.625 195.296ZM331.35 188.171H323.425C323.525 186.346 324.8 184.171 327.375 184.171C330.125 184.171 331.325 186.396 331.35 188.171ZM352.132 194.996V186.696C352.132 183.771 350.032 182.621 347.457 182.621C345.482 182.621 343.932 183.271 342.632 184.621L343.507 185.921C344.582 184.746 345.757 184.246 347.207 184.246C348.957 184.246 350.257 185.171 350.257 186.771V188.946C349.282 187.846 347.907 187.321 346.257 187.321C344.207 187.321 342.057 188.571 342.057 191.296C342.057 193.921 344.232 195.296 346.257 195.296C347.882 195.296 349.282 194.721 350.257 193.621V194.996H352.132ZM346.957 193.946C345.182 193.946 343.957 192.846 343.957 191.296C343.957 189.771 345.182 188.671 346.957 188.671C348.257 188.671 349.532 189.171 350.257 190.146V192.446C349.532 193.446 348.257 193.946 346.957 193.946ZM365.94 194.996V186.521C365.94 183.896 364.615 182.621 362.115 182.621C360.29 182.621 358.64 183.646 357.79 184.671V182.921H355.915V194.996H357.79V186.171C358.515 185.196 359.89 184.296 361.365 184.296C362.99 184.296 364.09 184.946 364.09 187.096V194.996H365.94ZM380.334 194.996V178.321H378.459V184.746C377.484 183.421 376.009 182.621 374.384 182.621C371.234 182.621 369.009 185.096 369.009 188.971C369.009 192.896 371.234 195.296 374.384 195.296C376.084 195.296 377.559 194.421 378.459 193.196V194.996H380.334ZM374.859 193.621C372.409 193.621 370.959 191.646 370.959 188.971C370.959 186.296 372.409 184.296 374.859 184.296C376.334 184.296 377.809 185.196 378.459 186.246V191.696C377.809 192.746 376.334 193.621 374.859 193.621ZM87.5508 224.996V216.446C88.1008 215.471 89.6758 214.521 90.8508 214.521C91.1258 214.521 91.3508 214.546 91.5758 214.571V212.646C89.9258 212.646 88.5258 213.596 87.5508 214.846V212.921H85.6758V224.996H87.5508ZM99.4027 225.296C101.353 225.296 102.978 224.621 104.203 223.421L103.303 222.196C102.328 223.196 100.953 223.746 99.5527 223.746C96.9527 223.746 95.3777 221.846 95.2277 219.571H104.978V219.096C104.978 215.471 102.828 212.621 99.1777 212.621C95.7277 212.621 93.2277 215.446 93.2277 218.946C93.2277 222.721 95.8027 225.296 99.4027 225.296ZM103.128 218.171H95.2027C95.3027 216.346 96.5777 214.171 99.1527 214.171C101.903 214.171 103.103 216.396 103.128 218.171ZM113.965 225.296C117.14 225.296 119.34 222.846 119.34 218.946C119.34 215.021 117.14 212.621 113.965 212.621C112.265 212.621 110.765 213.496 109.89 214.721V212.921H108.015V229.596H109.89V223.171C110.89 224.496 112.315 225.296 113.965 225.296ZM113.49 223.621C112.015 223.621 110.54 222.721 109.89 221.671V216.221C110.54 215.171 112.015 214.296 113.49 214.296C115.915 214.296 117.365 216.271 117.365 218.946C117.365 221.621 115.915 223.621 113.49 223.621ZM127.796 225.296C129.746 225.296 131.371 224.621 132.596 223.421L131.696 222.196C130.721 223.196 129.346 223.746 127.946 223.746C125.346 223.746 123.771 221.846 123.621 219.571H133.371V219.096C133.371 215.471 131.221 212.621 127.571 212.621C124.121 212.621 121.621 215.446 121.621 218.946C121.621 222.721 124.196 225.296 127.796 225.296ZM131.521 218.171H123.596C123.696 216.346 124.971 214.171 127.546 214.171C130.296 214.171 131.496 216.396 131.521 218.171ZM145.833 224.996V216.696C145.833 213.771 143.733 212.621 141.158 212.621C139.183 212.621 137.633 213.271 136.333 214.621L137.208 215.921C138.283 214.746 139.458 214.246 140.908 214.246C142.658 214.246 143.958 215.171 143.958 216.771V218.946C142.983 217.846 141.608 217.321 139.958 217.321C137.908 217.321 135.758 218.571 135.758 221.296C135.758 223.921 137.933 225.296 139.958 225.296C141.583 225.296 142.983 224.721 143.958 223.621V224.996H145.833ZM140.658 223.946C138.883 223.946 137.658 222.846 137.658 221.296C137.658 219.771 138.883 218.671 140.658 218.671C141.958 218.671 143.233 219.171 143.958 220.146V222.446C143.233 223.446 141.958 223.946 140.658 223.946ZM152.691 225.296C153.766 225.296 154.441 224.971 154.916 224.521L154.366 223.096C154.116 223.371 153.641 223.621 153.091 223.621C152.291 223.621 151.891 222.971 151.891 222.071V214.571H154.341V212.921H151.891V209.621H149.991V212.921H147.991V214.571H149.991V222.471C149.991 224.271 150.891 225.296 152.691 225.296ZM172.86 224.996V216.696C172.86 213.771 170.76 212.621 168.185 212.621C166.21 212.621 164.66 213.271 163.36 214.621L164.235 215.921C165.31 214.746 166.485 214.246 167.935 214.246C169.685 214.246 170.985 215.171 170.985 216.771V218.946C170.01 217.846 168.635 217.321 166.985 217.321C164.935 217.321 162.785 218.571 162.785 221.296C162.785 223.921 164.96 225.296 166.985 225.296C168.61 225.296 170.01 224.721 170.985 223.621V224.996H172.86ZM167.685 223.946C165.91 223.946 164.685 222.846 164.685 221.296C164.685 219.771 165.91 218.671 167.685 218.671C168.985 218.671 170.26 219.171 170.985 220.146V222.446C170.26 223.446 168.985 223.946 167.685 223.946ZM180.493 225.296C183.593 225.296 185.218 223.671 185.218 221.646C185.218 216.946 177.743 218.671 177.743 216.046C177.743 214.971 178.768 214.146 180.418 214.146C181.993 214.146 183.293 214.796 184.018 215.671L184.893 214.371C183.943 213.396 182.493 212.621 180.418 212.621C177.543 212.621 175.943 214.196 175.943 216.096C175.943 220.571 183.418 218.771 183.418 221.696C183.418 222.896 182.393 223.771 180.543 223.771C178.893 223.771 177.368 222.971 176.568 222.046L175.618 223.396C176.843 224.671 178.493 225.296 180.493 225.296ZM200.008 225.296C203.683 225.296 205.983 222.446 205.983 218.946C205.983 215.446 203.683 212.621 200.008 212.621C196.333 212.621 194.033 215.446 194.033 218.946C194.033 222.446 196.333 225.296 200.008 225.296ZM200.008 223.621C197.433 223.621 196.008 221.421 196.008 218.946C196.008 216.496 197.433 214.296 200.008 214.296C202.583 214.296 204.008 216.496 204.008 218.946C204.008 221.421 202.583 223.621 200.008 223.621ZM211.44 224.996V214.571H213.89V212.921H211.44V211.996C211.44 210.446 212.115 209.621 213.365 209.621C213.965 209.621 214.44 209.846 214.84 210.196L215.615 208.996C214.865 208.296 214.04 208.071 213.065 208.071C210.94 208.071 209.565 209.521 209.565 211.996V212.921H207.565V214.571H209.565V224.996H211.44ZM219.22 225.296C220.295 225.296 220.97 224.971 221.445 224.521L220.895 223.096C220.645 223.371 220.17 223.621 219.62 223.621C218.82 223.621 218.42 222.971 218.42 222.071V214.571H220.87V212.921H218.42V209.621H216.52V212.921H214.52V214.571H216.52V222.471C216.52 224.271 217.42 225.296 219.22 225.296ZM228.968 225.296C230.918 225.296 232.543 224.621 233.768 223.421L232.868 222.196C231.893 223.196 230.518 223.746 229.118 223.746C226.518 223.746 224.943 221.846 224.793 219.571H234.543V219.096C234.543 215.471 232.393 212.621 228.743 212.621C225.293 212.621 222.793 215.446 222.793 218.946C222.793 222.721 225.368 225.296 228.968 225.296ZM232.693 218.171H224.768C224.868 216.346 226.143 214.171 228.718 214.171C231.468 214.171 232.668 216.396 232.693 218.171ZM247.605 224.996V216.521C247.605 213.896 246.28 212.621 243.78 212.621C241.955 212.621 240.305 213.646 239.455 214.671V212.921H237.58V224.996H239.455V216.171C240.18 215.196 241.555 214.296 243.03 214.296C244.655 214.296 245.755 214.946 245.755 217.096V224.996H247.605ZM267.269 224.996V216.696C267.269 213.771 265.169 212.621 262.594 212.621C260.619 212.621 259.069 213.271 257.769 214.621L258.644 215.921C259.719 214.746 260.894 214.246 262.344 214.246C264.094 214.246 265.394 215.171 265.394 216.771V218.946C264.419 217.846 263.044 217.321 261.394 217.321C259.344 217.321 257.194 218.571 257.194 221.296C257.194 223.921 259.369 225.296 261.394 225.296C263.019 225.296 264.419 224.721 265.394 223.621V224.996H267.269ZM262.094 223.946C260.319 223.946 259.094 222.846 259.094 221.296C259.094 219.771 260.319 218.671 262.094 218.671C263.394 218.671 264.669 219.171 265.394 220.146V222.446C264.669 223.446 263.394 223.946 262.094 223.946ZM274.902 225.296C278.002 225.296 279.627 223.671 279.627 221.646C279.627 216.946 272.152 218.671 272.152 216.046C272.152 214.971 273.177 214.146 274.827 214.146C276.402 214.146 277.702 214.796 278.427 215.671L279.302 214.371C278.352 213.396 276.902 212.621 274.827 212.621C271.952 212.621 270.352 214.196 270.352 216.096C270.352 220.571 277.827 218.771 277.827 221.696C277.827 222.896 276.802 223.771 274.952 223.771C273.302 223.771 271.777 222.971 270.977 222.046L270.027 223.396C271.252 224.671 272.902 225.296 274.902 225.296ZM288.493 229.721C288.818 229.821 289.443 229.896 289.843 229.896C291.443 229.871 292.668 229.196 293.393 227.446L299.443 212.921H297.418L293.393 222.821L289.393 212.921H287.343L292.393 225.121L291.593 226.946C291.168 227.946 290.618 228.221 289.793 228.221C289.493 228.221 289.043 228.146 288.768 228.021L288.493 229.721ZM306.673 225.296C310.348 225.296 312.648 222.446 312.648 218.946C312.648 215.446 310.348 212.621 306.673 212.621C302.998 212.621 300.698 215.446 300.698 218.946C300.698 222.446 302.998 225.296 306.673 225.296ZM306.673 223.621C304.098 223.621 302.673 221.421 302.673 218.946C302.673 216.496 304.098 214.296 306.673 214.296C309.248 214.296 310.673 216.496 310.673 218.946C310.673 221.421 309.248 223.621 306.673 223.621ZM325.73 224.996V212.921H323.855V221.796C323.155 222.771 321.755 223.621 320.305 223.621C318.655 223.621 317.58 222.996 317.58 220.871V212.921H315.705V221.446C315.705 224.046 317.03 225.296 319.555 225.296C321.355 225.296 322.93 224.346 323.855 223.296V224.996H325.73ZM348.294 224.996L352.144 212.921H350.169L347.219 222.546L344.069 212.921H342.444L339.269 222.546L336.319 212.921H334.369L338.219 224.996H340.094L343.244 215.296L346.394 224.996H348.294ZM363.729 224.996V216.696C363.729 213.771 361.629 212.621 359.054 212.621C357.079 212.621 355.529 213.271 354.229 214.621L355.104 215.921C356.179 214.746 357.354 214.246 358.804 214.246C360.554 214.246 361.854 215.171 361.854 216.771V218.946C360.879 217.846 359.504 217.321 357.854 217.321C355.804 217.321 353.654 218.571 353.654 221.296C353.654 223.921 355.829 225.296 357.854 225.296C359.479 225.296 360.879 224.721 361.854 223.621V224.996H363.729ZM358.554 223.946C356.779 223.946 355.554 222.846 355.554 221.296C355.554 219.771 356.779 218.671 358.554 218.671C359.854 218.671 361.129 219.171 361.854 220.146V222.446C361.129 223.446 359.854 223.946 358.554 223.946ZM377.537 224.996V216.521C377.537 213.896 376.212 212.621 373.712 212.621C371.887 212.621 370.237 213.646 369.387 214.671V212.921H367.512V224.996H369.387V216.171C370.112 215.196 371.487 214.296 372.962 214.296C374.587 214.296 375.687 214.946 375.687 217.096V224.996H377.537ZM384.381 225.296C385.456 225.296 386.131 224.971 386.606 224.521L386.056 223.096C385.806 223.371 385.331 223.621 384.781 223.621C383.981 223.621 383.581 222.971 383.581 222.071V214.571H386.031V212.921H383.581V209.621H381.681V212.921H379.681V214.571H381.681V222.471C381.681 224.271 382.581 225.296 384.381 225.296ZM389.654 225.246C390.404 225.246 391.029 224.621 391.029 223.871C391.029 223.121 390.404 222.496 389.654 222.496C388.904 222.496 388.279 223.121 388.279 223.871C388.279 224.621 388.904 225.246 389.654 225.246Z" fill="#9B9B9B"/>
<path d="M101.616 153.996V147.836H92.7608V130.651H85.6908V153.996H101.616ZM107.465 135.341C109.425 135.341 111 133.766 111 131.806C111 129.846 109.425 128.271 107.465 128.271C105.505 128.271 103.93 129.846 103.93 131.806C103.93 133.766 105.505 135.341 107.465 135.341ZM110.615 153.996V137.091H104.315V153.996H110.615ZM125.15 142.551V137.091H121.72V136.531C121.72 135.551 122.385 134.956 123.33 134.956C123.785 134.956 124.275 135.096 124.66 135.341L125.78 131.141C124.87 130.651 123.47 130.301 121.86 130.301C118.115 130.301 115.42 132.821 115.42 136.321V137.091H112.62V142.551H115.42V153.996H121.72V142.551H125.15ZM125.958 145.526C125.958 151.091 130.088 154.416 135.373 154.416C137.893 154.416 140.903 153.751 142.583 152.316L139.993 148.431C139.153 149.096 137.613 149.621 136.178 149.621C134.043 149.621 132.818 148.571 132.468 147.486H143.948V146.191C143.948 140.241 140.133 136.671 135.163 136.671C129.703 136.671 125.958 140.626 125.958 145.526ZM135.163 141.466C137.193 141.466 137.788 142.761 137.963 143.496H132.398C132.608 142.726 133.238 141.466 135.163 141.466ZM153.222 154.416C155.357 154.416 156.827 153.891 157.492 153.296L156.372 148.536C156.232 148.676 155.672 148.851 155.112 148.851C154.272 148.851 153.712 148.151 153.712 147.276V142.551H157.142V137.091H153.712V132.471H147.412V137.091H144.612V142.551H147.412V149.096C147.412 152.631 149.477 154.416 153.222 154.416ZM162.631 135.341C164.591 135.341 166.166 133.766 166.166 131.806C166.166 129.846 164.591 128.271 162.631 128.271C160.671 128.271 159.096 129.846 159.096 131.806C159.096 133.766 160.671 135.341 162.631 135.341ZM165.781 153.996V137.091H159.481V153.996H165.781ZM197.186 153.996V141.746C197.186 138.246 195.086 136.671 191.971 136.671C189.241 136.671 187.036 138.176 186.056 139.646C185.286 137.546 183.571 136.671 181.191 136.671C178.461 136.671 176.326 138.071 175.591 139.016V137.091H169.291V153.996H175.591V143.566C176.011 143.076 176.781 142.236 178.146 142.236C179.581 142.236 180.071 143.111 180.071 144.126V153.996H186.371V143.566C186.791 143.076 187.561 142.236 188.961 142.236C190.361 142.236 190.886 143.111 190.886 144.126V153.996H197.186ZM199.547 145.526C199.547 151.091 203.677 154.416 208.962 154.416C211.482 154.416 214.492 153.751 216.172 152.316L213.582 148.431C212.742 149.096 211.202 149.621 209.767 149.621C207.632 149.621 206.407 148.571 206.057 147.486H217.537V146.191C217.537 140.241 213.722 136.671 208.752 136.671C203.292 136.671 199.547 140.626 199.547 145.526ZM208.752 141.466C210.782 141.466 211.377 142.761 211.552 143.496H205.987C206.197 142.726 206.827 141.466 208.752 141.466ZM252.357 153.996L243.747 130.651H234.857L226.247 153.996H233.912L234.822 150.986H243.782L244.692 153.996H252.357ZM241.962 145.106H236.642L239.302 136.881L241.962 145.106ZM252.321 145.526C252.321 150.916 256.451 154.416 261.806 154.416C265.656 154.416 268.036 152.631 268.981 151.231L264.921 147.381C264.396 148.151 263.416 148.851 262.086 148.851C260.301 148.851 258.761 147.696 258.761 145.526C258.761 143.356 260.301 142.236 262.086 142.236C263.416 142.236 264.396 142.866 264.921 143.671L268.981 139.856C268.036 138.421 265.656 136.671 261.806 136.671C256.451 136.671 252.321 140.171 252.321 145.526ZM269.889 145.526C269.889 150.916 274.019 154.416 279.374 154.416C283.224 154.416 285.604 152.631 286.549 151.231L282.489 147.381C281.964 148.151 280.984 148.851 279.654 148.851C277.869 148.851 276.329 147.696 276.329 145.526C276.329 143.356 277.869 142.236 279.654 142.236C280.984 142.236 281.964 142.866 282.489 143.671L286.549 139.856C285.604 138.421 283.224 136.671 279.374 136.671C274.019 136.671 269.889 140.171 269.889 145.526ZM287.457 145.526C287.457 151.091 291.587 154.416 296.872 154.416C299.392 154.416 302.402 153.751 304.082 152.316L301.492 148.431C300.652 149.096 299.112 149.621 297.677 149.621C295.542 149.621 294.317 148.571 293.967 147.486H305.447V146.191C305.447 140.241 301.632 136.671 296.662 136.671C291.202 136.671 287.457 140.626 287.457 145.526ZM296.662 141.466C298.692 141.466 299.287 142.761 299.462 143.496H293.897C294.107 142.726 294.737 141.466 296.662 141.466ZM306.181 151.826C308.001 153.331 311.361 154.416 314.476 154.416C319.481 154.416 322.491 151.966 322.491 148.606C322.491 143.881 317.906 143.286 315.071 142.866C313.391 142.621 312.901 142.411 312.901 141.921C312.901 141.431 313.566 141.186 314.476 141.186C316.436 141.186 318.396 142.061 319.446 142.936L321.756 138.841C319.796 137.546 317.276 136.671 314.441 136.671C309.541 136.671 306.881 139.401 306.881 142.446C306.881 147.031 311.256 147.556 314.091 147.941C315.701 148.151 316.471 148.361 316.471 148.921C316.471 149.376 316.086 149.726 314.791 149.726C312.901 149.726 310.031 148.641 308.701 147.591L306.181 151.826ZM323.339 151.826C325.159 153.331 328.519 154.416 331.634 154.416C336.639 154.416 339.649 151.966 339.649 148.606C339.649 143.881 335.064 143.286 332.229 142.866C330.549 142.621 330.059 142.411 330.059 141.921C330.059 141.431 330.724 141.186 331.634 141.186C333.594 141.186 335.554 142.061 336.604 142.936L338.914 138.841C336.954 137.546 334.434 136.671 331.599 136.671C326.699 136.671 324.039 139.401 324.039 142.446C324.039 147.031 328.414 147.556 331.249 147.941C332.859 148.151 333.629 148.361 333.629 148.921C333.629 149.376 333.244 149.726 331.949 149.726C330.059 149.726 327.189 148.641 325.859 147.591L323.339 151.826Z" fill="#267594"/>
<defs>
<filter id="filter0_d_31_12" x="0.800781" y="0.996094" width="473" height="360" filterUnits="userSpaceOnUse" color-interpolation-filters="sRGB">
<feFlood flood-opacity="0" result="BackgroundImageFix"/>
<feColorMatrix in="SourceAlpha" type="matrix" values="0 0 0 0 0 0 0 0 0 0 0 0 0 0 0 0 0 0 127 0" result="hardAlpha"/>
<feOffset dy="4"/>
<feGaussianBlur stdDeviation="15"/>
<feComposite in2="hardAlpha" operator="out"/>
<feColorMatrix type="matrix" values="0 0 0 0 0 0 0 0 0 0 0 0 0 0 0 0 0 0 0.12 0"/>
<feBlend mode="normal" in2="BackgroundImageFix" result="effect1_dropShadow_31_12"/>
<feBlend mode="normal" in="SourceGraphic" in2="effect1_dropShadow_31_12" result="shape"/>
</filter>
<linearGradient id="paint0_linear_31_12" x1="68.0146" y1="95.5675" x2="452.476" y2="111.011" gradientUnits="userSpaceOnUse">
<stop stop-color="white"/>
<stop offset="1" stop-color="white"/>
</linearGradient>
</defs>
</svg>
