<svg width="463" height="454" viewBox="0 0 463 454" fill="none" xmlns="http://www.w3.org/2000/svg">
<path d="M463 227C463 244.344 451.029 260.107 447.344 276.338C443.541 293.092 447.405 312.48 440.12 327.597C432.718 342.964 415.092 351.986 404.563 365.187C393.983 378.45 389.084 397.644 375.839 408.237C362.655 418.775 342.897 419.324 327.55 426.735C312.452 434.03 299.75 449.228 283.018 453.036C266.813 456.726 248.816 448.634 231.495 448.634C214.173 448.634 196.182 456.726 179.972 453.036C163.239 449.228 150.538 434.025 135.44 426.735C120.093 419.324 100.335 418.775 87.1507 408.237C73.9058 397.644 69.0068 378.455 58.4271 365.187C47.9032 351.986 30.2771 342.964 22.8703 327.597C15.5853 312.48 19.4537 293.092 15.6462 276.338C11.9707 260.112 0 244.349 0 227C0 209.656 11.9707 193.893 15.6564 177.662C19.4588 160.908 15.5954 141.52 22.8804 126.403C30.2822 111.036 47.9083 102.014 58.4372 88.8125C69.017 75.5504 73.9159 56.3561 87.1609 45.7627C100.345 35.2252 120.103 34.6762 135.45 27.2648C150.548 19.9704 163.245 4.77156 179.982 0.964228C196.187 -2.72619 214.184 5.3663 231.505 5.3663C248.827 5.3663 266.818 -2.72619 283.028 0.964228C299.761 4.77156 312.462 19.9755 327.56 27.2648C342.907 34.6762 362.665 35.2252 375.849 45.7627C389.094 56.3561 393.993 75.5453 404.573 88.8125C415.102 102.014 432.723 111.036 440.13 126.403C447.415 141.52 443.551 160.908 447.354 177.662C451.024 193.893 463 209.656 463 227Z" fill="#267594"/>
<path d="M463 227C463 244.344 451.029 260.107 447.344 276.338C443.541 293.092 447.405 312.48 440.12 327.597C432.718 342.964 415.092 351.986 404.563 365.187C393.983 378.45 389.084 397.644 375.839 408.237C362.655 418.775 342.897 419.324 327.55 426.735C312.452 434.03 299.75 449.228 283.018 453.036C266.813 456.726 248.816 448.634 231.495 448.634C214.173 448.634 196.182 456.726 179.972 453.036C163.239 449.228 150.538 434.025 135.44 426.735C120.093 419.324 100.335 418.775 87.1507 408.237C73.9058 397.644 69.0068 378.455 58.4271 365.187C47.9032 351.986 30.2771 342.964 22.8703 327.597C15.5853 312.48 19.4537 293.092 15.6462 276.338C11.9707 260.112 0 244.349 0 227C0 209.656 11.9707 193.893 15.6564 177.662C19.4588 160.908 15.5954 141.52 22.8804 126.403C30.2822 111.036 47.9083 102.014 58.4372 88.8125C69.017 75.5504 73.9159 56.3561 87.1609 45.7627C100.345 35.2252 120.103 34.6762 135.45 27.2648C150.548 19.9704 163.245 4.77156 179.982 0.964228C196.187 -2.72619 214.184 5.3663 231.505 5.3663C248.827 5.3663 266.818 -2.72619 283.028 0.964228C299.761 4.77156 312.462 19.9755 327.56 27.2648C342.907 34.6762 362.665 35.2252 375.849 45.7627C389.094 56.3561 393.993 75.5453 404.573 88.8125C415.102 102.014 432.723 111.036 440.13 126.403C447.415 141.52 443.551 160.908 447.354 177.662C451.024 193.893 463 209.656 463 227Z" fill="url(#paint0_linear_30_8)"/>
<path d="M440.379 229.171C440.379 344.814 346.861 438.561 231.5 438.561C116.139 438.561 22.6206 344.814 22.6206 229.171C22.6206 113.528 116.139 19.7811 231.5 19.7811C346.861 19.7811 440.379 113.528 440.379 229.171Z" fill="white"/>
<path d="M424.497 229.171C424.497 336.021 338.089 422.64 231.5 422.64C124.911 422.64 38.5031 336.021 38.5031 229.171C38.5031 122.321 124.911 35.7024 231.5 35.7024C338.089 35.7024 424.497 122.321 424.497 229.171Z" fill="url(#paint1_linear_30_8)"/>
<path d="M343.64 229.171C343.64 291.256 293.433 341.586 231.5 341.586C169.567 341.586 119.36 291.256 119.36 229.171C119.36 167.086 169.567 116.757 231.5 116.757C293.433 116.757 343.64 167.086 343.64 229.171Z" fill="white"/>
<path d="M102.481 314.76L86.5117 323.252C85.501 322.784 84.4614 322.181 83.3881 321.443C82.3148 320.704 81.2416 319.826 80.1587 318.813C79.0806 317.8 78.0314 316.632 77.0159 315.325C76.0003 314.013 75.0618 312.541 74.1955 310.91C72.6506 307.991 71.7121 305.232 71.38 302.631C71.0479 300.031 71.2645 297.614 72.0249 295.375C72.7901 293.136 74.0559 291.095 75.8271 289.248C77.5982 287.4 79.817 285.769 82.4785 284.355C85.2363 282.889 87.9122 281.938 90.5112 281.504C93.1102 281.07 95.5599 281.166 97.8557 281.794C100.151 282.421 102.264 283.564 104.185 285.219C106.105 286.874 107.78 289.05 109.209 291.752C110.456 294.106 111.245 296.335 111.572 298.434C111.9 300.533 111.866 302.462 111.476 304.219C111.081 305.98 110.379 307.567 109.368 308.99C108.357 310.413 107.14 311.644 105.72 312.681L99.1455 302.419C100.219 301.488 100.825 300.552 100.97 299.606C101.114 298.661 100.869 297.599 100.238 296.403C99.16 294.362 97.7017 293.242 95.8728 293.049C94.0439 292.856 91.6278 293.556 88.6197 295.158C85.4865 296.822 83.5133 298.55 82.6903 300.335C81.8672 302.12 82.1223 304.267 83.4507 306.78C84.3315 308.445 85.3373 309.738 86.4684 310.669L89.1443 309.246L86.7523 304.725L94.8813 300.402L102.481 314.76Z" fill="white"/>
<path d="M99.6027 345.344C98.6065 343.429 98.0915 341.489 98.0626 339.516C98.0337 337.542 98.5102 335.54 99.4921 333.509C100.479 331.478 102.024 329.408 104.136 327.305L119.798 311.716L128.307 320.304L112.27 336.269C110.836 337.697 110.023 339.004 109.83 340.201C109.638 341.393 110.129 342.584 111.303 343.771C112.477 344.958 113.661 345.455 114.85 345.272C116.039 345.088 117.353 344.283 118.787 342.854L134.823 326.89L143.333 335.478L127.672 351.066C123.648 355.07 119.624 357.024 115.601 356.923C111.577 356.822 107.655 354.839 103.833 350.979C102.009 349.131 100.599 347.254 99.6027 345.344Z" fill="white"/>
<path d="M140.532 371.223L136.104 375.763L125.708 369.926L155.028 342.768L168.023 350.062L160.144 389.258L149.517 383.29L151.019 377.109L140.532 371.223ZM153.387 367.629L156.53 354.916L147.356 364.242L153.387 367.629Z" fill="white"/>
<path d="M208.278 382.108C206.935 383.666 205.275 384.81 203.301 385.538L207.845 401.503L195.793 398.835L192.501 385.606L188.348 384.684L185.72 396.601L174.66 394.15L182.851 356.986L198.743 360.503C201.583 361.13 203.893 361.979 205.674 363.046C207.455 364.112 208.812 365.323 209.751 366.679C210.689 368.034 211.243 369.511 211.416 371.112C211.589 372.714 211.493 374.35 211.127 376.014C210.564 378.518 209.616 380.549 208.278 382.108ZM194.186 376.965C195.952 377.355 197.28 377.302 198.171 376.81C199.061 376.318 199.648 375.411 199.942 374.089C200.231 372.772 200.077 371.701 199.48 370.876C198.878 370.051 197.699 369.443 195.933 369.052L191.986 368.179L190.244 376.091L194.186 376.965Z" fill="white"/>
<path d="M233.781 395.443L232.597 401.681L220.719 402.574L230.181 363.697L245.034 362.578L260.074 399.612L247.926 400.523L245.77 394.541L233.781 395.443ZM242.521 385.326L238.132 372.989L235.629 385.847L242.521 385.326Z" fill="white"/>
<path d="M270.783 356.518L289.12 369.94L282.059 352.045L292.547 347.891L306.509 383.28L296.965 387.063L278.488 373.578L285.587 391.569L275.1 395.723L261.138 360.334L270.783 356.518Z" fill="white"/>
<path d="M302.885 353.773L296.541 345.551L322.839 325.162L329.182 333.384L320.808 339.878L337.687 361.762L328.138 369.168L311.259 347.283L302.885 353.773Z" fill="white"/>
<path d="M343.212 298.955L350.595 304.633L340.627 317.665L344.468 320.618L353.791 308.431L361.174 314.109L351.851 326.296L355.985 329.476L366.603 315.595L373.437 321.993L356.154 344.591L326.025 321.433L343.212 298.955Z" fill="white"/>
<path d="M357.174 267.633L365.741 271.271L359.35 286.391L363.806 288.283L369.779 274.142L378.346 277.779L372.373 291.921L377.172 293.957L383.977 277.852L392.193 282.324L381.113 308.541L346.153 293.691L357.174 267.633Z" fill="white"/>
<path d="M103.487 137.758L115.591 151.731L111.313 158.5L93.5385 153.496L108.478 162.982L103.049 171.57L72.9201 152.435L79.8699 141.435L101.716 147.48L86.9304 130.266L93.8562 119.309L123.985 138.443L118.421 147.244L103.487 137.758Z" fill="white"/>
<path d="M133.076 129.933C130.848 130.743 128.634 131.038 126.444 130.82C124.25 130.603 122.113 129.875 120.029 128.635C117.945 127.395 115.957 125.677 114.061 123.482C112.164 121.287 110.749 119.058 109.811 116.805C108.877 114.547 108.449 112.294 108.526 110.036C108.608 107.783 109.214 105.578 110.35 103.421C111.486 101.265 113.175 99.2142 115.413 97.2699C117.603 95.3689 119.817 94.0132 122.045 93.2027C124.274 92.3921 126.488 92.0978 128.677 92.3149C130.867 92.532 132.999 93.2557 135.074 94.4812C137.148 95.7067 139.131 97.4194 141.027 99.6146C142.924 101.81 144.343 104.053 145.287 106.35C146.23 108.642 146.663 110.904 146.586 113.138C146.509 115.372 145.903 117.562 144.767 119.719C143.631 121.876 141.942 123.926 139.704 125.87C137.519 127.767 135.31 129.122 133.076 129.933ZM132.282 107.469C128.36 102.924 124.822 102.022 121.675 104.753C118.527 107.484 118.912 111.121 122.839 115.666C126.762 120.211 130.299 121.113 133.447 118.383C136.595 115.652 136.21 112.014 132.282 107.469Z" fill="white"/>
<path d="M148.401 75.7278L166.454 87.114L158.681 70.8018L168.239 66.2232L183.617 98.4808L174.915 102.649L156.727 91.2149L164.548 107.614L154.989 112.193L139.612 79.9349L148.401 75.7278Z" fill="white"/>
<path d="M206.42 57.1818L208.167 65.7649L193.088 68.8526L193.998 73.3154L208.095 70.4255L209.842 79.0085L195.745 81.8985L196.727 86.7039L212.783 83.4134L213.702 92.1702L187.558 97.5256L180.421 62.4986L206.42 57.1818Z" fill="white"/>
<path d="M232.886 69.5812L238.83 56.7572L250.617 57.1673L238.156 79.2353L237.699 92.4983L226.312 92.1027L226.769 78.8397L215.853 55.966L227.89 56.3809L232.886 69.5812Z" fill="white"/>
<path d="M287.2 67.3329C289.457 68.1482 291.252 69.0553 292.595 70.054C293.938 71.0527 294.91 72.1045 295.521 73.2141C296.132 74.3238 296.435 75.4672 296.435 76.6589C296.435 77.8458 296.224 79.023 295.805 80.1858C295.251 81.7248 294.428 82.9792 293.336 83.949C292.243 84.9187 290.814 85.5508 289.048 85.8354C291.911 88.6096 292.667 91.8759 291.31 95.6439C290.838 96.9611 290.164 98.1383 289.298 99.1756C288.432 100.213 287.315 100.994 285.953 101.535C284.591 102.07 282.983 102.307 281.13 102.244C279.278 102.177 277.131 101.704 274.686 100.821L259.415 95.3014L271.5 61.6639L287.2 67.3329ZM276.322 92.7299C277.92 93.3088 279.099 93.4294 279.855 93.1013C280.611 92.7733 281.164 92.1171 281.516 91.1474C281.876 90.1438 281.872 89.2706 281.501 88.5324C281.13 87.7942 280.144 87.1381 278.546 86.5591L274.128 84.9622L271.909 91.1329L276.322 92.7299ZM280.827 79.4524C282.141 79.9252 283.113 80.0314 283.744 79.7612C284.374 79.491 284.832 78.9458 285.125 78.1304C285.419 77.3151 285.409 76.601 285.096 75.9931C284.783 75.3852 283.97 74.84 282.651 74.3672L278.469 72.8571L276.64 77.9423L280.827 79.4524Z" fill="white"/>
<path d="M301.248 107.435L296.739 111.324L287.484 105.018L317.116 81.9757L328.687 89.8592L318.146 125.904L308.684 119.458L310.59 113.794L301.248 107.435ZM313.574 105.115L317.54 93.468L308.198 101.453L313.574 105.115Z" fill="white"/>
<path d="M344.521 144.368C342.735 145.019 340.911 145.275 339.044 145.13C337.177 144.986 335.295 144.407 333.394 143.398C331.493 142.39 329.635 140.861 327.82 138.815C325.804 136.547 324.403 134.289 323.614 132.041C322.825 129.798 322.56 127.602 322.829 125.47C323.094 123.333 323.84 121.263 325.067 119.251C326.295 117.239 327.912 115.338 329.928 113.539C331.945 111.739 334.048 110.321 336.243 109.278C338.438 108.236 340.656 107.686 342.904 107.628C345.147 107.57 347.385 108.058 349.613 109.085C351.841 110.113 353.998 111.802 356.077 114.146C359.22 117.688 360.779 121.128 360.75 124.457C360.721 127.791 359.388 131.081 356.746 134.333L348.304 126.71C348.689 126.189 349.007 125.668 349.262 125.152C349.517 124.635 349.676 124.109 349.743 123.584C349.81 123.058 349.748 122.517 349.555 121.977C349.363 121.432 349.011 120.877 348.501 120.303C347.308 118.957 345.873 118.421 344.208 118.706C342.543 118.986 340.565 120.148 338.274 122.189C336.854 123.453 335.81 124.602 335.136 125.624C334.462 126.647 334.053 127.583 333.913 128.427C333.769 129.272 333.846 130.029 334.135 130.71C334.424 131.39 334.813 132.003 335.3 132.553C336.209 133.575 337.23 134.135 338.37 134.241C339.511 134.347 340.753 133.928 342.105 132.987L349.613 141.444C348.001 142.737 346.307 143.717 344.521 144.368Z" fill="white"/>
<path d="M354.955 157.602L345.46 162.412L340.343 152.266L372.171 136.132L377.287 146.279L366.723 151.634L381.523 154.683L386.889 165.322L370.029 161.409L355.648 182.618L350.08 171.579L359.316 158.591L354.955 157.602Z" fill="white"/>
<path d="M172.214 257.637V195.528H156.051L132.365 218.807L142.954 229.888L153.451 219.459V257.637H172.214Z" fill="#267594"/>
<path d="M172.214 257.637V195.528H156.051L132.365 218.807L142.954 229.888L153.451 219.459V257.637H172.214Z" fill="url(#paint2_linear_30_8)"/>
<path d="M204.576 258.754C223.061 258.754 232.072 243.483 232.072 226.629C232.072 209.775 223.061 194.597 204.576 194.597C186.092 194.597 177.081 209.775 177.081 226.629C177.081 243.483 186.092 258.754 204.576 258.754ZM204.576 242.179C198.632 242.179 195.938 237.151 195.938 226.629C195.938 216.107 198.632 211.172 204.576 211.172C210.521 211.172 213.215 216.107 213.215 226.629C213.215 237.151 210.521 242.179 204.576 242.179Z" fill="#267594"/>
<path d="M204.576 258.754C223.061 258.754 232.072 243.483 232.072 226.629C232.072 209.775 223.061 194.597 204.576 194.597C186.092 194.597 177.081 209.775 177.081 226.629C177.081 243.483 186.092 258.754 204.576 258.754ZM204.576 242.179C198.632 242.179 195.938 237.151 195.938 226.629C195.938 216.107 198.632 211.172 204.576 211.172C210.521 211.172 213.215 216.107 213.215 226.629C213.215 237.151 210.521 242.179 204.576 242.179Z" fill="url(#paint3_linear_30_8)"/>
<path d="M261.046 258.754C279.531 258.754 288.541 243.483 288.541 226.629C288.541 209.775 279.531 194.597 261.046 194.597C242.561 194.597 233.551 209.775 233.551 226.629C233.551 243.483 242.561 258.754 261.046 258.754ZM261.046 242.179C255.101 242.179 252.408 237.151 252.408 226.629C252.408 216.107 255.101 211.172 261.046 211.172C266.991 211.172 269.685 216.107 269.685 226.629C269.685 237.151 266.991 242.179 261.046 242.179Z" fill="#267594"/>
<path d="M261.046 258.754C279.531 258.754 288.541 243.483 288.541 226.629C288.541 209.775 279.531 194.597 261.046 194.597C242.561 194.597 233.551 209.775 233.551 226.629C233.551 243.483 242.561 258.754 261.046 258.754ZM261.046 242.179C255.101 242.179 252.408 237.151 252.408 226.629C252.408 216.107 255.101 211.172 261.046 211.172C266.991 211.172 269.685 216.107 269.685 226.629C269.685 237.151 266.991 242.179 261.046 242.179Z" fill="url(#paint4_linear_30_8)"/>
<path d="M307.344 228.707C311.685 228.707 314.448 225.779 314.448 222.1C314.448 218.381 311.685 215.414 307.344 215.414C303.042 215.414 300.319 218.381 300.319 222.1C300.319 225.779 303.042 228.707 307.344 228.707ZM308.528 242.198L325.38 215.81H321.512L304.7 242.198H308.528ZM322.617 242.672C326.919 242.672 329.681 239.745 329.681 236.066C329.681 232.347 326.919 229.38 322.617 229.38C318.315 229.38 315.592 232.347 315.592 236.066C315.592 239.745 318.315 242.672 322.617 242.672ZM307.344 224.513C306.12 224.513 305.134 223.801 305.134 222.1C305.134 220.32 306.12 219.608 307.344 219.608C308.607 219.608 309.633 220.32 309.633 222.1C309.633 223.801 308.607 224.513 307.344 224.513ZM322.617 238.479C321.354 238.479 320.367 237.806 320.367 236.066C320.367 234.285 321.354 233.573 322.617 233.573C323.88 233.573 324.906 234.285 324.906 236.066C324.906 237.806 323.88 238.479 322.617 238.479Z" fill="url(#paint5_linear_30_8)"/>
<path fill-rule="evenodd" clip-rule="evenodd" d="M191.488 143.756L194.824 152.836L204.358 153.253C204.745 153.27 205.044 153.603 205.029 153.996C205.02 154.21 204.917 154.398 204.764 154.522L197.293 160.553L199.848 169.891C199.952 170.27 199.732 170.663 199.36 170.767C199.156 170.824 198.949 170.784 198.786 170.674L190.831 165.321L182.876 170.674C182.554 170.891 182.118 170.801 181.904 170.473C181.782 170.286 181.758 170.06 181.822 169.861L184.371 160.55L176.898 154.521C176.594 154.277 176.545 153.827 176.785 153.52C176.926 153.341 177.131 153.25 177.338 153.252L186.84 152.836L190.178 143.756C190.313 143.387 190.716 143.2 191.079 143.337C191.273 143.413 191.419 143.569 191.488 143.756Z" fill="#267594"/>
<path fill-rule="evenodd" clip-rule="evenodd" d="M191.488 143.756L194.824 152.836L204.358 153.253C204.745 153.27 205.044 153.603 205.029 153.996C205.02 154.21 204.917 154.398 204.764 154.522L197.293 160.553L199.848 169.891C199.952 170.27 199.732 170.663 199.36 170.767C199.156 170.824 198.949 170.784 198.786 170.674L190.831 165.321L182.876 170.674C182.554 170.891 182.118 170.801 181.904 170.473C181.782 170.286 181.758 170.06 181.822 169.861L184.371 160.55L176.898 154.521C176.594 154.277 176.545 153.827 176.785 153.52C176.926 153.341 177.131 153.25 177.338 153.252L186.84 152.836L190.178 143.756C190.313 143.387 190.716 143.2 191.079 143.337C191.273 143.413 191.419 143.569 191.488 143.756Z" fill="url(#paint6_linear_30_8)"/>
<path fill-rule="evenodd" clip-rule="evenodd" d="M232.397 133.624L235.734 142.704L245.267 143.121C245.654 143.139 245.954 143.471 245.938 143.864C245.93 144.078 245.827 144.266 245.674 144.391L238.203 150.421L240.757 159.76C240.861 160.138 240.642 160.531 240.269 160.635C240.066 160.692 239.859 160.652 239.696 160.542L231.741 155.189L223.786 160.542C223.464 160.759 223.028 160.669 222.814 160.341C222.692 160.154 222.668 159.928 222.731 159.73L225.28 150.418L217.807 144.389C217.504 144.145 217.454 143.695 217.695 143.388C217.835 143.21 218.041 143.118 218.247 143.12L227.749 142.704L231.087 133.624C231.222 133.255 231.626 133.068 231.988 133.205C232.182 133.281 232.328 133.437 232.397 133.624Z" fill="#267594"/>
<path fill-rule="evenodd" clip-rule="evenodd" d="M232.397 133.624L235.734 142.704L245.267 143.121C245.654 143.139 245.954 143.471 245.938 143.864C245.93 144.078 245.827 144.266 245.674 144.391L238.203 150.421L240.757 159.76C240.861 160.138 240.642 160.531 240.269 160.635C240.066 160.692 239.859 160.652 239.696 160.542L231.741 155.189L223.786 160.542C223.464 160.759 223.028 160.669 222.814 160.341C222.692 160.154 222.668 159.928 222.731 159.73L225.28 150.418L217.807 144.389C217.504 144.145 217.454 143.695 217.695 143.388C217.835 143.21 218.041 143.118 218.247 143.12L227.749 142.704L231.087 133.624C231.222 133.255 231.626 133.068 231.988 133.205C232.182 133.281 232.328 133.437 232.397 133.624Z" fill="url(#paint7_linear_30_8)"/>
<path fill-rule="evenodd" clip-rule="evenodd" d="M273.307 143.756L276.643 152.836L286.177 153.253C286.564 153.27 286.863 153.603 286.848 153.996C286.839 154.21 286.737 154.398 286.583 154.522L279.112 160.553L281.667 169.891C281.771 170.27 281.552 170.663 281.179 170.767C280.975 170.824 280.768 170.784 280.605 170.674L272.65 165.321L264.695 170.674C264.373 170.891 263.937 170.801 263.724 170.473C263.601 170.286 263.577 170.06 263.641 169.861L266.19 160.55L258.717 154.521C258.413 154.277 258.364 153.827 258.604 153.52C258.745 153.341 258.95 153.25 259.157 153.252L268.659 152.836L271.997 143.756C272.132 143.387 272.535 143.2 272.898 143.337C273.092 143.413 273.238 143.569 273.307 143.756Z" fill="#267594"/>
<path fill-rule="evenodd" clip-rule="evenodd" d="M273.307 143.756L276.643 152.836L286.177 153.253C286.564 153.27 286.863 153.603 286.848 153.996C286.839 154.21 286.737 154.398 286.583 154.522L279.112 160.553L281.667 169.891C281.771 170.27 281.552 170.663 281.179 170.767C280.975 170.824 280.768 170.784 280.605 170.674L272.65 165.321L264.695 170.674C264.373 170.891 263.937 170.801 263.724 170.473C263.601 170.286 263.577 170.06 263.641 169.861L266.19 160.55L258.717 154.521C258.413 154.277 258.364 153.827 258.604 153.52C258.745 153.341 258.95 153.25 259.157 153.252L268.659 152.836L271.997 143.756C272.132 143.387 272.535 143.2 272.898 143.337C273.092 143.413 273.238 143.569 273.307 143.756Z" fill="url(#paint8_linear_30_8)"/>
<path fill-rule="evenodd" clip-rule="evenodd" d="M191.488 280.293L194.824 289.374L204.358 289.791C204.745 289.808 205.044 290.141 205.029 290.533C205.02 290.747 204.917 290.936 204.764 291.06L197.293 297.09L199.848 306.429C199.952 306.807 199.732 307.2 199.36 307.305C199.156 307.362 198.949 307.322 198.786 307.212L190.831 301.858L182.876 307.212C182.554 307.429 182.118 307.339 181.904 307.01C181.782 306.823 181.758 306.598 181.822 306.399L184.371 297.087L176.898 291.059C176.594 290.815 176.545 290.365 176.785 290.058C176.926 289.879 177.131 289.788 177.338 289.789L186.84 289.374L190.178 280.293C190.313 279.925 190.716 279.738 191.079 279.875C191.273 279.95 191.419 280.106 191.488 280.293Z" fill="#267594"/>
<path fill-rule="evenodd" clip-rule="evenodd" d="M191.488 280.293L194.824 289.374L204.358 289.791C204.745 289.808 205.044 290.141 205.029 290.533C205.02 290.747 204.917 290.936 204.764 291.06L197.293 297.09L199.848 306.429C199.952 306.807 199.732 307.2 199.36 307.305C199.156 307.362 198.949 307.322 198.786 307.212L190.831 301.858L182.876 307.212C182.554 307.429 182.118 307.339 181.904 307.01C181.782 306.823 181.758 306.598 181.822 306.399L184.371 297.087L176.898 291.059C176.594 290.815 176.545 290.365 176.785 290.058C176.926 289.879 177.131 289.788 177.338 289.789L186.84 289.374L190.178 280.293C190.313 279.925 190.716 279.738 191.079 279.875C191.273 279.95 191.419 280.106 191.488 280.293Z" fill="url(#paint9_linear_30_8)"/>
<path fill-rule="evenodd" clip-rule="evenodd" d="M232.397 294.767L235.734 303.848L245.267 304.265C245.654 304.282 245.954 304.614 245.938 305.007C245.93 305.221 245.827 305.41 245.674 305.534L238.203 311.564L240.757 320.903C240.861 321.281 240.642 321.674 240.269 321.778C240.066 321.836 239.859 321.796 239.696 321.686L231.741 316.332L223.786 321.686C223.464 321.903 223.028 321.813 222.814 321.484C222.692 321.297 222.668 321.072 222.731 320.873L225.28 311.561L217.807 305.533C217.504 305.289 217.454 304.839 217.695 304.532C217.835 304.353 218.041 304.262 218.247 304.263L227.749 303.848L231.087 294.767C231.222 294.399 231.626 294.212 231.988 294.349C232.182 294.424 232.328 294.58 232.397 294.767Z" fill="#267594"/>
<path fill-rule="evenodd" clip-rule="evenodd" d="M232.397 294.767L235.734 303.848L245.267 304.265C245.654 304.282 245.954 304.614 245.938 305.007C245.93 305.221 245.827 305.41 245.674 305.534L238.203 311.564L240.757 320.903C240.861 321.281 240.642 321.674 240.269 321.778C240.066 321.836 239.859 321.796 239.696 321.686L231.741 316.332L223.786 321.686C223.464 321.903 223.028 321.813 222.814 321.484C222.692 321.297 222.668 321.072 222.731 320.873L225.28 311.561L217.807 305.533C217.504 305.289 217.454 304.839 217.695 304.532C217.835 304.353 218.041 304.262 218.247 304.263L227.749 303.848L231.087 294.767C231.222 294.399 231.626 294.212 231.988 294.349C232.182 294.424 232.328 294.58 232.397 294.767Z" fill="url(#paint10_linear_30_8)"/>
<path fill-rule="evenodd" clip-rule="evenodd" d="M273.307 280.293L276.643 289.374L286.177 289.791C286.564 289.808 286.863 290.141 286.848 290.533C286.839 290.747 286.737 290.936 286.583 291.06L279.112 297.09L281.667 306.429C281.771 306.807 281.552 307.2 281.179 307.305C280.975 307.362 280.768 307.322 280.605 307.212L272.65 301.858L264.695 307.212C264.373 307.429 263.937 307.339 263.724 307.01C263.601 306.823 263.577 306.598 263.641 306.399L266.19 297.087L258.717 291.059C258.413 290.815 258.364 290.365 258.604 290.058C258.745 289.879 258.95 289.788 259.157 289.789L268.659 289.374L271.997 280.293C272.132 279.925 272.535 279.738 272.898 279.875C273.092 279.95 273.238 280.106 273.307 280.293Z" fill="#267594"/>
<path fill-rule="evenodd" clip-rule="evenodd" d="M273.307 280.293L276.643 289.374L286.177 289.791C286.564 289.808 286.863 290.141 286.848 290.533C286.839 290.747 286.737 290.936 286.583 291.06L279.112 297.09L281.667 306.429C281.771 306.807 281.552 307.2 281.179 307.305C280.975 307.362 280.768 307.322 280.605 307.212L272.65 301.858L264.695 307.212C264.373 307.429 263.937 307.339 263.724 307.01C263.601 306.823 263.577 306.598 263.641 306.399L266.19 297.087L258.717 291.059C258.413 290.815 258.364 290.365 258.604 290.058C258.745 289.879 258.95 289.788 259.157 289.789L268.659 289.374L271.997 280.293C272.132 279.925 272.535 279.738 272.898 279.875C273.092 279.95 273.238 280.106 273.307 280.293Z" fill="url(#paint11_linear_30_8)"/>
<defs>
<linearGradient id="paint0_linear_30_8" x1="231.5" y1="0" x2="231.5" y2="454" gradientUnits="userSpaceOnUse">
<stop stop-color="#267594"/>
<stop offset="0.458333" stop-color="#3995B9"/>
<stop offset="1" stop-color="#267594"/>
</linearGradient>
<linearGradient id="paint1_linear_30_8" x1="231.5" y1="0" x2="231.5" y2="454" gradientUnits="userSpaceOnUse">
<stop stop-color="#267594"/>
<stop offset="0.458333" stop-color="#3995B9"/>
<stop offset="1" stop-color="#267594"/>
</linearGradient>
<linearGradient id="paint2_linear_30_8" x1="231.5" y1="-477.646" x2="231.5" y2="756.667" gradientUnits="userSpaceOnUse">
<stop stop-color="#267594"/>
<stop offset="0.458333" stop-color="#3995B9"/>
<stop offset="1" stop-color="#267594"/>
</linearGradient>
<linearGradient id="paint3_linear_30_8" x1="231.5" y1="-477.646" x2="231.5" y2="756.667" gradientUnits="userSpaceOnUse">
<stop stop-color="#267594"/>
<stop offset="0.458333" stop-color="#3995B9"/>
<stop offset="1" stop-color="#267594"/>
</linearGradient>
<linearGradient id="paint4_linear_30_8" x1="231.5" y1="-477.646" x2="231.5" y2="756.667" gradientUnits="userSpaceOnUse">
<stop stop-color="#267594"/>
<stop offset="0.458333" stop-color="#3995B9"/>
<stop offset="1" stop-color="#267594"/>
</linearGradient>
<linearGradient id="paint5_linear_30_8" x1="231.5" y1="0" x2="231.5" y2="454" gradientUnits="userSpaceOnUse">
<stop stop-color="#267594"/>
<stop offset="0.458333" stop-color="#3995B9"/>
<stop offset="1" stop-color="#267594"/>
</linearGradient>
<linearGradient id="paint6_linear_30_8" x1="272.65" y1="279.83" x2="272.65" y2="307.33" gradientUnits="userSpaceOnUse">
<stop stop-color="#FFC267"/>
<stop offset="0.458333" stop-color="#FFD493"/>
<stop offset="1" stop-color="#FFC267"/>
</linearGradient>
<linearGradient id="paint7_linear_30_8" x1="272.65" y1="279.83" x2="272.65" y2="307.33" gradientUnits="userSpaceOnUse">
<stop stop-color="#FFC267"/>
<stop offset="0.458333" stop-color="#FFD493"/>
<stop offset="1" stop-color="#FFC267"/>
</linearGradient>
<linearGradient id="paint8_linear_30_8" x1="272.65" y1="279.83" x2="272.65" y2="307.33" gradientUnits="userSpaceOnUse">
<stop stop-color="#FFC267"/>
<stop offset="0.458333" stop-color="#FFD493"/>
<stop offset="1" stop-color="#FFC267"/>
</linearGradient>
<linearGradient id="paint9_linear_30_8" x1="272.65" y1="279.83" x2="272.65" y2="307.33" gradientUnits="userSpaceOnUse">
<stop stop-color="#FFC267"/>
<stop offset="0.458333" stop-color="#FFD493"/>
<stop offset="1" stop-color="#FFC267"/>
</linearGradient>
<linearGradient id="paint10_linear_30_8" x1="272.65" y1="279.83" x2="272.65" y2="307.33" gradientUnits="userSpaceOnUse">
<stop stop-color="#FFC267"/>
<stop offset="0.458333" stop-color="#FFD493"/>
<stop offset="1" stop-color="#FFC267"/>
</linearGradient>
<linearGradient id="paint11_linear_30_8" x1="272.65" y1="279.83" x2="272.65" y2="307.33" gradientUnits="userSpaceOnUse">
<stop stop-color="#FFC267"/>
<stop offset="0.458333" stop-color="#FFD493"/>
<stop offset="1" stop-color="#FFC267"/>
</linearGradient>
</defs>
</svg>
