<svg width="967" height="395" viewBox="0 0 967 395" fill="none" xmlns="http://www.w3.org/2000/svg">
<g filter="url(#filter0_d_20_11)">
<rect x="30.5552" y="26" width="906" height="335" rx="30" fill="url(#paint0_linear_20_11)"/>
</g>
<path d="M117.072 166V149.325H114.997V166H117.072ZM136.798 166V157.7C136.798 154.775 134.698 153.625 132.123 153.625C130.148 153.625 128.598 154.275 127.298 155.625L128.173 156.925C129.248 155.75 130.423 155.25 131.873 155.25C133.623 155.25 134.923 156.175 134.923 157.775V159.95C133.948 158.85 132.573 158.325 130.923 158.325C128.873 158.325 126.723 159.575 126.723 162.3C126.723 164.925 128.898 166.3 130.923 166.3C132.548 166.3 133.948 165.725 134.923 164.625V166H136.798ZM131.623 164.95C129.848 164.95 128.623 163.85 128.623 162.3C128.623 160.775 129.848 159.675 131.623 159.675C132.923 159.675 134.198 160.175 134.923 161.15V163.45C134.198 164.45 132.923 164.95 131.623 164.95ZM157.031 166V157.275C157.031 154.85 155.856 153.625 153.656 153.625C151.906 153.625 150.281 154.775 149.606 155.875C149.256 154.625 148.206 153.625 146.381 153.625C144.581 153.625 142.981 154.9 142.456 155.675V153.925H140.581V166H142.456V157.175C143.106 156.2 144.406 155.3 145.631 155.3C147.231 155.3 147.856 156.275 147.856 157.8V166H149.731V157.15C150.356 156.175 151.681 155.3 152.931 155.3C154.506 155.3 155.156 156.275 155.156 157.8V166H157.031ZM177.266 166V153.925H175.391V162.8C174.691 163.775 173.291 164.625 171.841 164.625C170.191 164.625 169.116 164 169.116 161.875V153.925H167.241V162.45C167.241 165.05 168.566 166.3 171.091 166.3C172.891 166.3 174.466 165.35 175.391 164.3V166H177.266ZM184.861 166.3C187.961 166.3 189.586 164.675 189.586 162.65C189.586 157.95 182.111 159.675 182.111 157.05C182.111 155.975 183.136 155.15 184.786 155.15C186.361 155.15 187.661 155.8 188.386 156.675L189.261 155.375C188.311 154.4 186.861 153.625 184.786 153.625C181.911 153.625 180.311 155.2 180.311 157.1C180.311 161.575 187.786 159.775 187.786 162.7C187.786 163.9 186.761 164.775 184.911 164.775C183.261 164.775 181.736 163.975 180.936 163.05L179.986 164.4C181.211 165.675 182.861 166.3 184.861 166.3ZM193.582 152.2C194.282 152.2 194.832 151.65 194.832 150.95C194.832 150.25 194.282 149.675 193.582 149.675C192.882 149.675 192.307 150.25 192.307 150.95C192.307 151.65 192.882 152.2 193.582 152.2ZM194.507 166V153.925H192.632V166H194.507ZM208.272 166V157.525C208.272 154.9 206.947 153.625 204.447 153.625C202.622 153.625 200.972 154.65 200.122 155.675V153.925H198.247V166H200.122V157.175C200.847 156.2 202.222 155.3 203.697 155.3C205.322 155.3 206.422 155.95 206.422 158.1V166H208.272ZM216.891 170.9C219.841 170.9 222.666 169.65 222.666 165.825V153.925H220.791V155.75C219.816 154.425 218.341 153.625 216.716 153.625C213.541 153.625 211.341 156.025 211.341 159.9C211.341 163.8 213.566 166.15 216.716 166.15C218.416 166.15 219.891 165.225 220.791 164V165.825C220.791 168.375 218.891 169.35 216.891 169.35C215.166 169.35 213.966 168.9 212.966 167.725L212.016 169.075C213.466 170.5 214.866 170.9 216.891 170.9ZM217.191 164.475C214.741 164.475 213.291 162.55 213.291 159.9C213.291 157.225 214.741 155.3 217.191 155.3C218.666 155.3 220.116 156.2 220.791 157.225V162.525C220.116 163.575 218.666 164.475 217.191 164.475ZM235.966 166.3C237.041 166.3 237.716 165.975 238.191 165.525L237.641 164.1C237.391 164.375 236.916 164.625 236.366 164.625C235.566 164.625 235.166 163.975 235.166 163.075V155.575H237.616V153.925H235.166V150.625H233.266V153.925H231.266V155.575H233.266V163.475C233.266 165.275 234.166 166.3 235.966 166.3ZM250.289 166V157.475C250.289 154.85 248.964 153.625 246.439 153.625C244.614 153.625 242.964 154.65 242.139 155.675V149.325H240.264V166H242.139V157.175C242.839 156.2 244.239 155.3 245.689 155.3C247.339 155.3 248.414 155.9 248.414 158.05V166H250.289ZM259.508 166.3C261.458 166.3 263.083 165.625 264.308 164.425L263.408 163.2C262.433 164.2 261.058 164.75 259.658 164.75C257.058 164.75 255.483 162.85 255.333 160.575H265.083V160.1C265.083 156.475 262.933 153.625 259.283 153.625C255.833 153.625 253.333 156.45 253.333 159.95C253.333 163.725 255.908 166.3 259.508 166.3ZM263.233 159.175H255.308C255.408 157.35 256.683 155.175 259.258 155.175C262.008 155.175 263.208 157.4 263.233 159.175ZM280.865 166V151.175H286.165V149.325H273.515V151.175H278.79V166H280.865ZM295.904 166V157.7C295.904 154.775 293.804 153.625 291.229 153.625C289.254 153.625 287.704 154.275 286.404 155.625L287.279 156.925C288.354 155.75 289.529 155.25 290.979 155.25C292.729 155.25 294.029 156.175 294.029 157.775V159.95C293.054 158.85 291.679 158.325 290.029 158.325C287.979 158.325 285.829 159.575 285.829 162.3C285.829 164.925 288.004 166.3 290.029 166.3C291.654 166.3 293.054 165.725 294.029 164.625V166H295.904ZM290.729 164.95C288.954 164.95 287.729 163.85 287.729 162.3C287.729 160.775 288.954 159.675 290.729 159.675C292.029 159.675 293.304 160.175 294.029 161.15V163.45C293.304 164.45 292.029 164.95 290.729 164.95ZM305.013 166.3C307.213 166.3 308.513 165.4 309.438 164.2L308.188 163.05C307.388 164.125 306.363 164.625 305.113 164.625C302.563 164.625 300.938 162.625 300.938 159.95C300.938 157.275 302.563 155.3 305.113 155.3C306.363 155.3 307.388 155.75 308.188 156.85L309.438 155.725C308.513 154.525 307.213 153.625 305.013 153.625C301.413 153.625 298.988 156.375 298.988 159.95C298.988 163.525 301.413 166.3 305.013 166.3ZM322.715 166L317.34 159.4L322.69 153.925H320.315L313.965 160.35V149.325H312.09V166H313.965V162.55L315.99 160.575L320.315 166H322.715ZM326.807 166V149.325H324.932V166H326.807ZM331.497 152.2C332.197 152.2 332.747 151.65 332.747 150.95C332.747 150.25 332.197 149.675 331.497 149.675C330.797 149.675 330.222 150.25 330.222 150.95C330.222 151.65 330.797 152.2 331.497 152.2ZM332.422 166V153.925H330.547V166H332.422ZM346.187 166V157.525C346.187 154.9 344.862 153.625 342.362 153.625C340.537 153.625 338.887 154.65 338.037 155.675V153.925H336.162V166H338.037V157.175C338.762 156.2 340.137 155.3 341.612 155.3C343.237 155.3 344.337 155.95 344.337 158.1V166H346.187ZM354.806 170.9C357.756 170.9 360.581 169.65 360.581 165.825V153.925H358.706V155.75C357.731 154.425 356.256 153.625 354.631 153.625C351.456 153.625 349.256 156.025 349.256 159.9C349.256 163.8 351.481 166.15 354.631 166.15C356.331 166.15 357.806 165.225 358.706 164V165.825C358.706 168.375 356.806 169.35 354.806 169.35C353.081 169.35 351.881 168.9 350.881 167.725L349.931 169.075C351.381 170.5 352.781 170.9 354.806 170.9ZM355.106 164.475C352.656 164.475 351.206 162.55 351.206 159.9C351.206 157.225 352.656 155.3 355.106 155.3C356.581 155.3 358.031 156.2 358.706 157.225V162.525C358.031 163.575 356.581 164.475 355.106 164.475ZM382.981 166L378.481 159.2C380.756 159 382.831 157.35 382.831 154.35C382.831 151.275 380.631 149.325 377.581 149.325H370.881V166H372.956V159.375H376.306L380.531 166H382.981ZM377.331 157.55H372.956V151.175H377.331C379.306 151.175 380.681 152.45 380.681 154.35C380.681 156.225 379.306 157.55 377.331 157.55ZM390.758 166.3C392.708 166.3 394.333 165.625 395.558 164.425L394.658 163.2C393.683 164.2 392.308 164.75 390.908 164.75C388.308 164.75 386.733 162.85 386.583 160.575H396.333V160.1C396.333 156.475 394.183 153.625 390.533 153.625C387.083 153.625 384.583 156.45 384.583 159.95C384.583 163.725 387.158 166.3 390.758 166.3ZM394.483 159.175H386.558C386.658 157.35 387.933 155.175 390.508 155.175C393.258 155.175 394.458 157.4 394.483 159.175ZM408.795 166V157.7C408.795 154.775 406.695 153.625 404.12 153.625C402.145 153.625 400.595 154.275 399.295 155.625L400.17 156.925C401.245 155.75 402.42 155.25 403.87 155.25C405.62 155.25 406.92 156.175 406.92 157.775V159.95C405.945 158.85 404.57 158.325 402.92 158.325C400.87 158.325 398.72 159.575 398.72 162.3C398.72 164.925 400.895 166.3 402.92 166.3C404.545 166.3 405.945 165.725 406.92 164.625V166H408.795ZM403.62 164.95C401.845 164.95 400.62 163.85 400.62 162.3C400.62 160.775 401.845 159.675 403.62 159.675C404.92 159.675 406.195 160.175 406.92 161.15V163.45C406.195 164.45 404.92 164.95 403.62 164.95ZM417.903 166.3C420.103 166.3 421.403 165.4 422.328 164.2L421.078 163.05C420.278 164.125 419.253 164.625 418.003 164.625C415.453 164.625 413.828 162.625 413.828 159.95C413.828 157.275 415.453 155.3 418.003 155.3C419.253 155.3 420.278 155.75 421.078 156.85L422.328 155.725C421.403 154.525 420.103 153.625 417.903 153.625C414.303 153.625 411.878 156.375 411.878 159.95C411.878 163.525 414.303 166.3 417.903 166.3ZM428.055 166.3C429.13 166.3 429.805 165.975 430.28 165.525L429.73 164.1C429.48 164.375 429.005 164.625 428.455 164.625C427.655 164.625 427.255 163.975 427.255 163.075V155.575H429.705V153.925H427.255V150.625H425.355V153.925H423.355V155.575H425.355V163.475C425.355 165.275 426.255 166.3 428.055 166.3ZM433.279 152.2C433.979 152.2 434.529 151.65 434.529 150.95C434.529 150.25 433.979 149.675 433.279 149.675C432.579 149.675 432.004 150.25 432.004 150.95C432.004 151.65 432.579 152.2 433.279 152.2ZM434.204 166V153.925H432.329V166H434.204ZM443.219 166L448.244 153.925H446.219L442.194 163.825L438.194 153.925H436.144L441.169 166H443.219ZM451.15 152.2C451.85 152.2 452.4 151.65 452.4 150.95C452.4 150.25 451.85 149.675 451.15 149.675C450.45 149.675 449.875 150.25 449.875 150.95C449.875 151.65 450.45 152.2 451.15 152.2ZM452.075 166V153.925H450.2V166H452.075ZM458.89 166.3C459.965 166.3 460.64 165.975 461.115 165.525L460.565 164.1C460.315 164.375 459.84 164.625 459.29 164.625C458.49 164.625 458.09 163.975 458.09 163.075V155.575H460.54V153.925H458.09V150.625H456.19V153.925H454.19V155.575H456.19V163.475C456.19 165.275 457.09 166.3 458.89 166.3ZM462.514 170.725C462.839 170.825 463.464 170.9 463.864 170.9C465.464 170.875 466.689 170.2 467.414 168.45L473.464 153.925H471.439L467.414 163.825L463.414 153.925H461.364L466.414 166.125L465.614 167.95C465.189 168.95 464.639 169.225 463.814 169.225C463.514 169.225 463.064 169.15 462.789 169.025L462.514 170.725ZM487.84 166.3C491.015 166.3 493.215 163.85 493.215 159.95C493.215 156.025 491.015 153.625 487.84 153.625C486.14 153.625 484.64 154.5 483.765 155.725V153.925H481.89V170.6H483.765V164.175C484.765 165.5 486.19 166.3 487.84 166.3ZM487.365 164.625C485.89 164.625 484.415 163.725 483.765 162.675V157.225C484.415 156.175 485.89 155.3 487.365 155.3C489.79 155.3 491.24 157.275 491.24 159.95C491.24 162.625 489.79 164.625 487.365 164.625ZM498.071 166V157.45C498.621 156.475 500.196 155.525 501.371 155.525C501.646 155.525 501.871 155.55 502.096 155.575V153.65C500.446 153.65 499.046 154.6 498.071 155.85V153.925H496.196V166H498.071ZM509.723 166.3C513.398 166.3 515.698 163.45 515.698 159.95C515.698 156.45 513.398 153.625 509.723 153.625C506.048 153.625 503.748 156.45 503.748 159.95C503.748 163.45 506.048 166.3 509.723 166.3ZM509.723 164.625C507.148 164.625 505.723 162.425 505.723 159.95C505.723 157.5 507.148 155.3 509.723 155.3C512.298 155.3 513.723 157.5 513.723 159.95C513.723 162.425 512.298 164.625 509.723 164.625ZM523.605 170.9C526.555 170.9 529.38 169.65 529.38 165.825V153.925H527.505V155.75C526.53 154.425 525.055 153.625 523.43 153.625C520.255 153.625 518.055 156.025 518.055 159.9C518.055 163.8 520.28 166.15 523.43 166.15C525.13 166.15 526.605 165.225 527.505 164V165.825C527.505 168.375 525.605 169.35 523.605 169.35C521.88 169.35 520.68 168.9 519.68 167.725L518.73 169.075C520.18 170.5 521.58 170.9 523.605 170.9ZM523.905 164.475C521.455 164.475 520.005 162.55 520.005 159.9C520.005 157.225 521.455 155.3 523.905 155.3C525.38 155.3 526.83 156.2 527.505 157.225V162.525C526.83 163.575 525.38 164.475 523.905 164.475ZM535.01 166V157.45C535.56 156.475 537.135 155.525 538.31 155.525C538.585 155.525 538.81 155.55 539.035 155.575V153.65C537.385 153.65 535.985 154.6 535.01 155.85V153.925H533.135V166H535.01ZM550.812 166V157.7C550.812 154.775 548.712 153.625 546.137 153.625C544.162 153.625 542.612 154.275 541.312 155.625L542.187 156.925C543.262 155.75 544.437 155.25 545.887 155.25C547.637 155.25 548.937 156.175 548.937 157.775V159.95C547.962 158.85 546.587 158.325 544.937 158.325C542.887 158.325 540.737 159.575 540.737 162.3C540.737 164.925 542.912 166.3 544.937 166.3C546.562 166.3 547.962 165.725 548.937 164.625V166H550.812ZM545.637 164.95C543.862 164.95 542.637 163.85 542.637 162.3C542.637 160.775 543.862 159.675 545.637 159.675C546.937 159.675 548.212 160.175 548.937 161.15V163.45C548.212 164.45 546.937 164.95 545.637 164.95ZM571.045 166V157.275C571.045 154.85 569.87 153.625 567.67 153.625C565.92 153.625 564.295 154.775 563.62 155.875C563.27 154.625 562.22 153.625 560.395 153.625C558.595 153.625 556.995 154.9 556.47 155.675V153.925H554.595V166H556.47V157.175C557.12 156.2 558.42 155.3 559.645 155.3C561.245 155.3 561.87 156.275 561.87 157.8V166H563.745V157.15C564.37 156.175 565.695 155.3 566.945 155.3C568.52 155.3 569.17 156.275 569.17 157.8V166H571.045ZM577.31 165.4C577.31 164.2 576.585 163.5 575.735 163.5C574.985 163.5 574.41 164.125 574.41 164.85C574.41 165.575 574.935 166.125 575.61 166.125C575.735 166.125 575.91 166.1 575.96 166.075C575.86 166.9 575.135 167.875 574.335 168.4L575.285 169.175C576.435 168.35 577.31 166.925 577.31 165.4ZM596.442 166V157.7C596.442 154.775 594.342 153.625 591.767 153.625C589.792 153.625 588.242 154.275 586.942 155.625L587.817 156.925C588.892 155.75 590.067 155.25 591.517 155.25C593.267 155.25 594.567 156.175 594.567 157.775V159.95C593.592 158.85 592.217 158.325 590.567 158.325C588.517 158.325 586.367 159.575 586.367 162.3C586.367 164.925 588.542 166.3 590.567 166.3C592.192 166.3 593.592 165.725 594.567 164.625V166H596.442ZM591.267 164.95C589.492 164.95 588.267 163.85 588.267 162.3C588.267 160.775 589.492 159.675 591.267 159.675C592.567 159.675 593.842 160.175 594.567 161.15V163.45C593.842 164.45 592.567 164.95 591.267 164.95ZM610.25 166V157.525C610.25 154.9 608.925 153.625 606.425 153.625C604.6 153.625 602.95 154.65 602.1 155.675V153.925H600.225V166H602.1V157.175C602.825 156.2 604.2 155.3 605.675 155.3C607.3 155.3 608.4 155.95 608.4 158.1V166H610.25ZM624.644 166V149.325H622.769V155.75C621.794 154.425 620.319 153.625 618.694 153.625C615.544 153.625 613.319 156.1 613.319 159.975C613.319 163.9 615.544 166.3 618.694 166.3C620.394 166.3 621.869 165.425 622.769 164.2V166H624.644ZM619.169 164.625C616.719 164.625 615.269 162.65 615.269 159.975C615.269 157.3 616.719 155.3 619.169 155.3C620.644 155.3 622.119 156.2 622.769 157.25V162.7C622.119 163.75 620.644 164.625 619.169 164.625ZM635.818 152.2C636.518 152.2 637.068 151.65 637.068 150.95C637.068 150.25 636.518 149.675 635.818 149.675C635.118 149.675 634.543 150.25 634.543 150.95C634.543 151.65 635.118 152.2 635.818 152.2ZM636.743 166V153.925H634.868V166H636.743ZM650.508 166V157.525C650.508 154.9 649.183 153.625 646.683 153.625C644.858 153.625 643.208 154.65 642.358 155.675V153.925H640.483V166H642.358V157.175C643.083 156.2 644.458 155.3 645.933 155.3C647.558 155.3 648.658 155.95 648.658 158.1V166H650.508ZM662.622 166V149.325H660.747V166H662.622ZM671.837 166.3C673.787 166.3 675.412 165.625 676.637 164.425L675.737 163.2C674.762 164.2 673.387 164.75 671.987 164.75C669.387 164.75 667.812 162.85 667.662 160.575H677.412V160.1C677.412 156.475 675.262 153.625 671.612 153.625C668.162 153.625 665.662 156.45 665.662 159.95C665.662 163.725 668.237 166.3 671.837 166.3ZM675.562 159.175H667.637C667.737 157.35 669.012 155.175 671.587 155.175C674.337 155.175 675.537 157.4 675.562 159.175ZM684.299 166.3C687.399 166.3 689.024 164.675 689.024 162.65C689.024 157.95 681.549 159.675 681.549 157.05C681.549 155.975 682.574 155.15 684.224 155.15C685.799 155.15 687.099 155.8 687.824 156.675L688.699 155.375C687.749 154.4 686.299 153.625 684.224 153.625C681.349 153.625 679.749 155.2 679.749 157.1C679.749 161.575 687.224 159.775 687.224 162.7C687.224 163.9 686.199 164.775 684.349 164.775C682.699 164.775 681.174 163.975 680.374 163.05L679.424 164.4C680.649 165.675 682.299 166.3 684.299 166.3ZM695.92 166.3C699.02 166.3 700.645 164.675 700.645 162.65C700.645 157.95 693.17 159.675 693.17 157.05C693.17 155.975 694.195 155.15 695.845 155.15C697.42 155.15 698.72 155.8 699.445 156.675L700.32 155.375C699.37 154.4 697.92 153.625 695.845 153.625C692.97 153.625 691.37 155.2 691.37 157.1C691.37 161.575 698.845 159.775 698.845 162.7C698.845 163.9 697.82 164.775 695.97 164.775C694.32 164.775 692.795 163.975 691.995 163.05L691.045 164.4C692.27 165.675 693.92 166.3 695.92 166.3ZM713.236 166.3C714.311 166.3 714.986 165.975 715.461 165.525L714.911 164.1C714.661 164.375 714.186 164.625 713.636 164.625C712.836 164.625 712.436 163.975 712.436 163.075V155.575H714.886V153.925H712.436V150.625H710.536V153.925H708.536V155.575H710.536V163.475C710.536 165.275 711.436 166.3 713.236 166.3ZM727.56 166V157.475C727.56 154.85 726.235 153.625 723.71 153.625C721.885 153.625 720.235 154.65 719.41 155.675V149.325H717.535V166H719.41V157.175C720.11 156.2 721.51 155.3 722.96 155.3C724.61 155.3 725.685 155.9 725.685 158.05V166H727.56ZM740.729 166V157.7C740.729 154.775 738.629 153.625 736.054 153.625C734.079 153.625 732.529 154.275 731.229 155.625L732.104 156.925C733.179 155.75 734.354 155.25 735.804 155.25C737.554 155.25 738.854 156.175 738.854 157.775V159.95C737.879 158.85 736.504 158.325 734.854 158.325C732.804 158.325 730.654 159.575 730.654 162.3C730.654 164.925 732.829 166.3 734.854 166.3C736.479 166.3 737.879 165.725 738.854 164.625V166H740.729ZM735.554 164.95C733.779 164.95 732.554 163.85 732.554 162.3C732.554 160.775 733.779 159.675 735.554 159.675C736.854 159.675 738.129 160.175 738.854 161.15V163.45C738.129 164.45 736.854 164.95 735.554 164.95ZM754.537 166V157.525C754.537 154.9 753.212 153.625 750.712 153.625C748.887 153.625 747.237 154.65 746.387 155.675V153.925H744.512V166H746.387V157.175C747.112 156.2 748.487 155.3 749.962 155.3C751.587 155.3 752.687 155.95 752.687 158.1V166H754.537ZM775.7 166V164.15H767.525C772.175 160.475 775.625 157.375 775.625 153.975C775.625 150.65 772.8 149.075 770.025 149.075C767.675 149.075 765.5 150 764.225 151.7L765.5 153.025C766.475 151.775 768.025 150.925 770.025 150.925C771.75 150.925 773.525 151.825 773.525 153.975C773.525 156.85 770.25 159.625 764.25 164.325V166H775.7ZM798.292 166L802.142 153.925H800.167L797.217 163.55L794.067 153.925H792.442L789.267 163.55L786.317 153.925H784.367L788.217 166H790.092L793.242 156.3L796.392 166H798.292ZM809.777 166.3C811.727 166.3 813.352 165.625 814.577 164.425L813.677 163.2C812.702 164.2 811.327 164.75 809.927 164.75C807.327 164.75 805.752 162.85 805.602 160.575H815.352V160.1C815.352 156.475 813.202 153.625 809.552 153.625C806.102 153.625 803.602 156.45 803.602 159.95C803.602 163.725 806.177 166.3 809.777 166.3ZM813.502 159.175H805.577C805.677 157.35 806.952 155.175 809.527 155.175C812.277 155.175 813.477 157.4 813.502 159.175ZM823.864 166.3C825.814 166.3 827.439 165.625 828.664 164.425L827.764 163.2C826.789 164.2 825.414 164.75 824.014 164.75C821.414 164.75 819.839 162.85 819.689 160.575H829.439V160.1C829.439 156.475 827.289 153.625 823.639 153.625C820.189 153.625 817.689 156.45 817.689 159.95C817.689 163.725 820.264 166.3 823.864 166.3ZM827.589 159.175H819.664C819.764 157.35 821.039 155.175 823.614 155.175C826.364 155.175 827.564 157.4 827.589 159.175ZM843.101 166L837.726 159.4L843.076 153.925H840.701L834.351 160.35V149.325H832.476V166H834.351V162.55L836.376 160.575L840.701 166H843.101ZM849.167 166.3C852.267 166.3 853.892 164.675 853.892 162.65C853.892 157.95 846.417 159.675 846.417 157.05C846.417 155.975 847.442 155.15 849.092 155.15C850.667 155.15 851.967 155.8 852.692 156.675L853.567 155.375C852.617 154.4 851.167 153.625 849.092 153.625C846.217 153.625 844.617 155.2 844.617 157.1C844.617 161.575 852.092 159.775 852.092 162.7C852.092 163.9 851.067 164.775 849.217 164.775C847.567 164.775 846.042 163.975 845.242 163.05L844.292 164.4C845.517 165.675 847.167 166.3 849.167 166.3ZM194.594 196L198.444 183.925H196.469L193.519 193.55L190.369 183.925H188.744L185.569 193.55L182.619 183.925H180.669L184.519 196H186.394L189.544 186.3L192.694 196H194.594ZM206.078 196.3C208.028 196.3 209.653 195.625 210.878 194.425L209.978 193.2C209.003 194.2 207.628 194.75 206.228 194.75C203.628 194.75 202.053 192.85 201.903 190.575H211.653V190.1C211.653 186.475 209.503 183.625 205.853 183.625C202.403 183.625 199.903 186.45 199.903 189.95C199.903 193.725 202.478 196.3 206.078 196.3ZM209.803 189.175H201.878C201.978 187.35 203.253 185.175 205.828 185.175C208.578 185.175 209.778 187.4 209.803 189.175ZM230.585 196V187.7C230.585 184.775 228.485 183.625 225.91 183.625C223.935 183.625 222.385 184.275 221.085 185.625L221.96 186.925C223.035 185.75 224.21 185.25 225.66 185.25C227.41 185.25 228.71 186.175 228.71 187.775V189.95C227.735 188.85 226.36 188.325 224.71 188.325C222.66 188.325 220.51 189.575 220.51 192.3C220.51 194.925 222.685 196.3 224.71 196.3C226.335 196.3 227.735 195.725 228.71 194.625V196H230.585ZM225.41 194.95C223.635 194.95 222.41 193.85 222.41 192.3C222.41 190.775 223.635 189.675 225.41 189.675C226.71 189.675 227.985 190.175 228.71 191.15V193.45C227.985 194.45 226.71 194.95 225.41 194.95ZM236.243 196V187.45C236.793 186.475 238.368 185.525 239.543 185.525C239.818 185.525 240.043 185.55 240.268 185.575V183.65C238.618 183.65 237.218 184.6 236.243 185.85V183.925H234.368V196H236.243ZM248.095 196.3C250.045 196.3 251.67 195.625 252.895 194.425L251.995 193.2C251.02 194.2 249.645 194.75 248.245 194.75C245.645 194.75 244.07 192.85 243.92 190.575H253.67V190.1C253.67 186.475 251.52 183.625 247.87 183.625C244.42 183.625 241.92 186.45 241.92 189.95C241.92 193.725 244.495 196.3 248.095 196.3ZM251.82 189.175H243.895C243.995 187.35 245.27 185.175 247.845 185.175C250.595 185.175 251.795 187.4 251.82 189.175ZM272.601 196V187.7C272.601 184.775 270.501 183.625 267.926 183.625C265.951 183.625 264.401 184.275 263.101 185.625L263.976 186.925C265.051 185.75 266.226 185.25 267.676 185.25C269.426 185.25 270.726 186.175 270.726 187.775V189.95C269.751 188.85 268.376 188.325 266.726 188.325C264.676 188.325 262.526 189.575 262.526 192.3C262.526 194.925 264.701 196.3 266.726 196.3C268.351 196.3 269.751 195.725 270.726 194.625V196H272.601ZM267.426 194.95C265.651 194.95 264.426 193.85 264.426 192.3C264.426 190.775 265.651 189.675 267.426 189.675C268.726 189.675 270.001 190.175 270.726 191.15V193.45C270.001 194.45 268.726 194.95 267.426 194.95ZM281.709 196.3C283.909 196.3 285.209 195.4 286.134 194.2L284.884 193.05C284.084 194.125 283.059 194.625 281.809 194.625C279.259 194.625 277.634 192.625 277.634 189.95C277.634 187.275 279.259 185.3 281.809 185.3C283.059 185.3 284.084 185.75 284.884 186.85L286.134 185.725C285.209 184.525 283.909 183.625 281.709 183.625C278.109 183.625 275.684 186.375 275.684 189.95C275.684 193.525 278.109 196.3 281.709 196.3ZM298.837 196V187.475C298.837 184.85 297.512 183.625 294.987 183.625C293.162 183.625 291.512 184.65 290.687 185.675V179.325H288.812V196H290.687V187.175C291.387 186.2 292.787 185.3 294.237 185.3C295.887 185.3 296.962 185.9 296.962 188.05V196H298.837ZM303.531 182.2C304.231 182.2 304.781 181.65 304.781 180.95C304.781 180.25 304.231 179.675 303.531 179.675C302.831 179.675 302.256 180.25 302.256 180.95C302.256 181.65 302.831 182.2 303.531 182.2ZM304.456 196V183.925H302.581V196H304.456ZM313.671 196.3C315.621 196.3 317.246 195.625 318.471 194.425L317.571 193.2C316.596 194.2 315.221 194.75 313.821 194.75C311.221 194.75 309.646 192.85 309.496 190.575H319.246V190.1C319.246 186.475 317.096 183.625 313.446 183.625C309.996 183.625 307.496 186.45 307.496 189.95C307.496 193.725 310.071 196.3 313.671 196.3ZM317.396 189.175H309.471C309.571 187.35 310.846 185.175 313.421 185.175C316.171 185.175 317.371 187.4 317.396 189.175ZM327.558 196L332.583 183.925H330.558L326.533 193.825L322.533 183.925H320.483L325.508 196H327.558ZM335.489 182.2C336.189 182.2 336.739 181.65 336.739 180.95C336.739 180.25 336.189 179.675 335.489 179.675C334.789 179.675 334.214 180.25 334.214 180.95C334.214 181.65 334.789 182.2 335.489 182.2ZM336.414 196V183.925H334.539V196H336.414ZM350.179 196V187.525C350.179 184.9 348.854 183.625 346.354 183.625C344.529 183.625 342.879 184.65 342.029 185.675V183.925H340.154V196H342.029V187.175C342.754 186.2 344.129 185.3 345.604 185.3C347.229 185.3 348.329 185.95 348.329 188.1V196H350.179ZM358.798 200.9C361.748 200.9 364.573 199.65 364.573 195.825V183.925H362.698V185.75C361.723 184.425 360.248 183.625 358.623 183.625C355.448 183.625 353.248 186.025 353.248 189.9C353.248 193.8 355.473 196.15 358.623 196.15C360.323 196.15 361.798 195.225 362.698 194V195.825C362.698 198.375 360.798 199.35 358.798 199.35C357.073 199.35 355.873 198.9 354.873 197.725L353.923 199.075C355.373 200.5 356.773 200.9 358.798 200.9ZM359.098 194.475C356.648 194.475 355.198 192.55 355.198 189.9C355.198 187.225 356.648 185.3 359.098 185.3C360.573 185.3 362.023 186.2 362.698 187.225V192.525C362.023 193.575 360.573 194.475 359.098 194.475ZM378.647 196.3C381.747 196.3 383.372 194.675 383.372 192.65C383.372 187.95 375.897 189.675 375.897 187.05C375.897 185.975 376.922 185.15 378.572 185.15C380.147 185.15 381.447 185.8 382.172 186.675L383.047 185.375C382.097 184.4 380.647 183.625 378.572 183.625C375.697 183.625 374.097 185.2 374.097 187.1C374.097 191.575 381.572 189.775 381.572 192.7C381.572 193.9 380.547 194.775 378.697 194.775C377.047 194.775 375.522 193.975 374.722 193.05L373.772 194.4C374.997 195.675 376.647 196.3 378.647 196.3ZM402.868 196V187.275C402.868 184.85 401.693 183.625 399.493 183.625C397.743 183.625 396.118 184.775 395.443 185.875C395.093 184.625 394.043 183.625 392.218 183.625C390.418 183.625 388.818 184.9 388.293 185.675V183.925H386.418V196H388.293V187.175C388.943 186.2 390.243 185.3 391.468 185.3C393.068 185.3 393.693 186.275 393.693 187.8V196H395.568V187.15C396.193 186.175 397.518 185.3 398.768 185.3C400.343 185.3 400.993 186.275 400.993 187.8V196H402.868ZM416.034 196V187.7C416.034 184.775 413.934 183.625 411.359 183.625C409.384 183.625 407.834 184.275 406.534 185.625L407.409 186.925C408.484 185.75 409.659 185.25 411.109 185.25C412.859 185.25 414.159 186.175 414.159 187.775V189.95C413.184 188.85 411.809 188.325 410.159 188.325C408.109 188.325 405.959 189.575 405.959 192.3C405.959 194.925 408.134 196.3 410.159 196.3C411.784 196.3 413.184 195.725 414.159 194.625V196H416.034ZM410.859 194.95C409.084 194.95 407.859 193.85 407.859 192.3C407.859 190.775 409.084 189.675 410.859 189.675C412.159 189.675 413.434 190.175 414.159 191.15V193.45C413.434 194.45 412.159 194.95 410.859 194.95ZM421.692 196V179.325H419.817V196H421.692ZM427.307 196V179.325H425.432V196H427.307ZM433.572 195.4C433.572 194.2 432.847 193.5 431.997 193.5C431.247 193.5 430.672 194.125 430.672 194.85C430.672 195.575 431.197 196.125 431.872 196.125C431.997 196.125 432.172 196.1 432.222 196.075C432.122 196.9 431.397 197.875 430.597 198.4L431.547 199.175C432.697 198.35 433.572 196.925 433.572 195.4ZM445.154 192.725V187.25C445.804 186.2 447.279 185.3 448.779 185.3C451.204 185.3 452.654 187.3 452.654 189.975C452.654 192.65 451.204 194.625 448.779 194.625C447.279 194.625 445.804 193.775 445.154 192.725ZM445.154 196V194.2C446.054 195.425 447.529 196.3 449.229 196.3C452.379 196.3 454.604 193.9 454.604 189.975C454.604 186.1 452.404 183.625 449.229 183.625C447.604 183.625 446.129 184.425 445.154 185.75V179.325H443.279V196H445.154ZM467.684 196V183.925H465.809V192.8C465.109 193.775 463.709 194.625 462.259 194.625C460.609 194.625 459.534 194 459.534 191.875V183.925H457.659V192.45C457.659 195.05 458.984 196.3 461.509 196.3C463.309 196.3 464.884 195.35 465.809 194.3V196H467.684ZM474.503 196.3C475.578 196.3 476.253 195.975 476.728 195.525L476.178 194.1C475.928 194.375 475.453 194.625 474.903 194.625C474.103 194.625 473.703 193.975 473.703 193.075V185.575H476.153V183.925H473.703V180.625H471.803V183.925H469.803V185.575H471.803V193.475C471.803 195.275 472.703 196.3 474.503 196.3ZM490.522 196L495.547 183.925H493.522L489.497 193.825L485.497 183.925H483.447L488.472 196H490.522ZM502.977 196.3C504.927 196.3 506.552 195.625 507.777 194.425L506.877 193.2C505.902 194.2 504.527 194.75 503.127 194.75C500.527 194.75 498.952 192.85 498.802 190.575H508.552V190.1C508.552 186.475 506.402 183.625 502.752 183.625C499.302 183.625 496.802 186.45 496.802 189.95C496.802 193.725 499.377 196.3 502.977 196.3ZM506.702 189.175H498.777C498.877 187.35 500.152 185.175 502.727 185.175C505.477 185.175 506.677 187.4 506.702 189.175ZM513.464 196V187.45C514.014 186.475 515.589 185.525 516.764 185.525C517.039 185.525 517.264 185.55 517.489 185.575V183.65C515.839 183.65 514.439 184.6 513.464 185.85V183.925H511.589V196H513.464ZM519.191 200.725C519.516 200.825 520.141 200.9 520.541 200.9C522.141 200.875 523.366 200.2 524.091 198.45L530.141 183.925H528.116L524.091 193.825L520.091 183.925H518.041L523.091 196.125L522.291 197.95C521.866 198.95 521.316 199.225 520.491 199.225C520.191 199.225 519.741 199.15 519.466 199.025L519.191 200.725ZM548.592 196V187.525C548.592 184.9 547.267 183.625 544.767 183.625C542.942 183.625 541.292 184.65 540.442 185.675V183.925H538.567V196H540.442V187.175C541.167 186.2 542.542 185.3 544.017 185.3C545.642 185.3 546.742 185.95 546.742 188.1V196H548.592ZM557.636 196.3C561.311 196.3 563.611 193.45 563.611 189.95C563.611 186.45 561.311 183.625 557.636 183.625C553.961 183.625 551.661 186.45 551.661 189.95C551.661 193.45 553.961 196.3 557.636 196.3ZM557.636 194.625C555.061 194.625 553.636 192.425 553.636 189.95C553.636 187.5 555.061 185.3 557.636 185.3C560.211 185.3 561.636 187.5 561.636 189.95C561.636 192.425 560.211 194.625 557.636 194.625ZM569.742 196.3C570.817 196.3 571.492 195.975 571.967 195.525L571.417 194.1C571.167 194.375 570.692 194.625 570.142 194.625C569.342 194.625 568.942 193.975 568.942 193.075V185.575H571.392V183.925H568.942V180.625H567.042V183.925H565.042V185.575H567.042V193.475C567.042 195.275 567.942 196.3 569.742 196.3ZM583.441 196V187.7C583.441 184.775 581.341 183.625 578.766 183.625C576.791 183.625 575.241 184.275 573.941 185.625L574.816 186.925C575.891 185.75 577.066 185.25 578.516 185.25C580.266 185.25 581.566 186.175 581.566 187.775V189.95C580.591 188.85 579.216 188.325 577.566 188.325C575.516 188.325 573.366 189.575 573.366 192.3C573.366 194.925 575.541 196.3 577.566 196.3C579.191 196.3 580.591 195.725 581.566 194.625V196H583.441ZM578.266 194.95C576.491 194.95 575.266 193.85 575.266 192.3C575.266 190.775 576.491 189.675 578.266 189.675C579.566 189.675 580.841 190.175 581.566 191.15V193.45C580.841 194.45 579.566 194.95 578.266 194.95ZM589.099 192.725V187.25C589.749 186.2 591.224 185.3 592.724 185.3C595.149 185.3 596.599 187.3 596.599 189.975C596.599 192.65 595.149 194.625 592.724 194.625C591.224 194.625 589.749 193.775 589.099 192.725ZM589.099 196V194.2C589.999 195.425 591.474 196.3 593.174 196.3C596.324 196.3 598.549 193.9 598.549 189.975C598.549 186.1 596.349 183.625 593.174 183.625C591.549 183.625 590.074 184.425 589.099 185.75V179.325H587.224V196H589.099ZM603.479 196V179.325H601.604V196H603.479ZM612.694 196.3C614.644 196.3 616.269 195.625 617.494 194.425L616.594 193.2C615.619 194.2 614.244 194.75 612.844 194.75C610.244 194.75 608.669 192.85 608.519 190.575H618.269V190.1C618.269 186.475 616.119 183.625 612.469 183.625C609.019 183.625 606.519 186.45 606.519 189.95C606.519 193.725 609.094 196.3 612.694 196.3ZM616.419 189.175H608.494C608.594 187.35 609.869 185.175 612.444 185.175C615.194 185.175 616.394 187.4 616.419 189.175ZM628.726 182.2C629.426 182.2 629.976 181.65 629.976 180.95C629.976 180.25 629.426 179.675 628.726 179.675C628.026 179.675 627.451 180.25 627.451 180.95C627.451 181.65 628.026 182.2 628.726 182.2ZM629.651 196V183.925H627.776V196H629.651ZM649.841 196V187.275C649.841 184.85 648.666 183.625 646.466 183.625C644.716 183.625 643.091 184.775 642.416 185.875C642.066 184.625 641.016 183.625 639.191 183.625C637.391 183.625 635.791 184.9 635.266 185.675V183.925H633.391V196H635.266V187.175C635.916 186.2 637.216 185.3 638.441 185.3C640.041 185.3 640.666 186.275 640.666 187.8V196H642.541V187.15C643.166 186.175 644.491 185.3 645.741 185.3C647.316 185.3 647.966 186.275 647.966 187.8V196H649.841ZM659.532 196.3C662.707 196.3 664.907 193.85 664.907 189.95C664.907 186.025 662.707 183.625 659.532 183.625C657.832 183.625 656.332 184.5 655.457 185.725V183.925H653.582V200.6H655.457V194.175C656.457 195.5 657.882 196.3 659.532 196.3ZM659.057 194.625C657.582 194.625 656.107 193.725 655.457 192.675V187.225C656.107 186.175 657.582 185.3 659.057 185.3C661.482 185.3 662.932 187.275 662.932 189.95C662.932 192.625 661.482 194.625 659.057 194.625ZM669.763 196V187.45C670.313 186.475 671.888 185.525 673.063 185.525C673.338 185.525 673.563 185.55 673.788 185.575V183.65C672.138 183.65 670.738 184.6 669.763 185.85V183.925H667.888V196H669.763ZM681.415 196.3C685.09 196.3 687.39 193.45 687.39 189.95C687.39 186.45 685.09 183.625 681.415 183.625C677.74 183.625 675.44 186.45 675.44 189.95C675.44 193.45 677.74 196.3 681.415 196.3ZM681.415 194.625C678.84 194.625 677.415 192.425 677.415 189.95C677.415 187.5 678.84 185.3 681.415 185.3C683.99 185.3 685.415 187.5 685.415 189.95C685.415 192.425 683.99 194.625 681.415 194.625ZM695.722 196L700.747 183.925H698.722L694.697 193.825L690.697 183.925H688.647L693.672 196H695.722ZM708.178 196.3C710.128 196.3 711.753 195.625 712.978 194.425L712.078 193.2C711.103 194.2 709.728 194.75 708.328 194.75C705.728 194.75 704.153 192.85 704.003 190.575H713.753V190.1C713.753 186.475 711.603 183.625 707.953 183.625C704.503 183.625 702.003 186.45 702.003 189.95C702.003 193.725 704.578 196.3 708.178 196.3ZM711.903 189.175H703.978C704.078 187.35 705.353 185.175 707.928 185.175C710.678 185.175 711.878 187.4 711.903 189.175ZM733.24 196V187.275C733.24 184.85 732.065 183.625 729.865 183.625C728.115 183.625 726.49 184.775 725.815 185.875C725.465 184.625 724.415 183.625 722.59 183.625C720.79 183.625 719.19 184.9 718.665 185.675V183.925H716.79V196H718.665V187.175C719.315 186.2 720.615 185.3 721.84 185.3C723.44 185.3 724.065 186.275 724.065 187.8V196H725.94V187.15C726.565 186.175 727.89 185.3 729.14 185.3C730.715 185.3 731.365 186.275 731.365 187.8V196H733.24ZM742.455 196.3C744.405 196.3 746.03 195.625 747.255 194.425L746.355 193.2C745.38 194.2 744.005 194.75 742.605 194.75C740.005 194.75 738.43 192.85 738.28 190.575H748.03V190.1C748.03 186.475 745.88 183.625 742.23 183.625C738.78 183.625 736.28 186.45 736.28 189.95C736.28 193.725 738.855 196.3 742.455 196.3ZM746.18 189.175H738.255C738.355 187.35 739.63 185.175 742.205 185.175C744.955 185.175 746.155 187.4 746.18 189.175ZM761.092 196V187.525C761.092 184.9 759.767 183.625 757.267 183.625C755.442 183.625 753.792 184.65 752.942 185.675V183.925H751.067V196H752.942V187.175C753.667 186.2 755.042 185.3 756.517 185.3C758.142 185.3 759.242 185.95 759.242 188.1V196H761.092ZM767.936 196.3C769.011 196.3 769.686 195.975 770.161 195.525L769.611 194.1C769.361 194.375 768.886 194.625 768.336 194.625C767.536 194.625 767.136 193.975 767.136 193.075V185.575H769.586V183.925H767.136V180.625H765.236V183.925H763.236V185.575H765.236V193.475C765.236 195.275 766.136 196.3 767.936 196.3ZM776.059 196.3C779.159 196.3 780.784 194.675 780.784 192.65C780.784 187.95 773.309 189.675 773.309 187.05C773.309 185.975 774.334 185.15 775.984 185.15C777.559 185.15 778.859 185.8 779.584 186.675L780.459 185.375C779.509 184.4 778.059 183.625 775.984 183.625C773.109 183.625 771.509 185.2 771.509 187.1C771.509 191.575 778.984 189.775 778.984 192.7C778.984 193.9 777.959 194.775 776.109 194.775C774.459 194.775 772.934 193.975 772.134 193.05L771.184 194.4C772.409 195.675 774.059 196.3 776.059 196.3ZM784.831 196.25C785.581 196.25 786.206 195.625 786.206 194.875C786.206 194.125 785.581 193.5 784.831 193.5C784.081 193.5 783.456 194.125 783.456 194.875C783.456 195.625 784.081 196.25 784.831 196.25Z" fill="#596F76"/>
<path d="M351.705 258.742V242.067H344.73L341.805 250.567L338.88 242.067H331.905V258.742H336.955V248.217L340.68 258.742H342.93L346.655 248.217V258.742H351.705ZM353.49 252.692C353.49 256.667 356.44 259.042 360.215 259.042C362.015 259.042 364.165 258.567 365.365 257.542L363.515 254.767C362.915 255.242 361.815 255.617 360.79 255.617C359.265 255.617 358.39 254.867 358.14 254.092H366.34V253.167C366.34 248.917 363.615 246.367 360.065 246.367C356.165 246.367 353.49 249.192 353.49 252.692ZM360.065 249.792C361.515 249.792 361.94 250.717 362.065 251.242H358.09C358.24 250.692 358.69 249.792 360.065 249.792ZM372.389 258.742V242.067H367.889V258.742H372.389ZM377.146 245.417C378.546 245.417 379.671 244.292 379.671 242.892C379.671 241.492 378.546 240.367 377.146 240.367C375.746 240.367 374.621 241.492 374.621 242.892C374.621 244.292 375.746 245.417 377.146 245.417ZM379.396 258.742V246.667H374.896V258.742H379.396ZM380.878 257.192C382.178 258.267 384.578 259.042 386.803 259.042C390.378 259.042 392.528 257.292 392.528 254.892C392.528 251.517 389.253 251.092 387.228 250.792C386.028 250.617 385.678 250.467 385.678 250.117C385.678 249.767 386.153 249.592 386.803 249.592C388.203 249.592 389.603 250.217 390.353 250.842L392.003 247.917C390.603 246.992 388.803 246.367 386.778 246.367C383.278 246.367 381.378 248.317 381.378 250.492C381.378 253.767 384.503 254.142 386.528 254.417C387.678 254.567 388.228 254.717 388.228 255.117C388.228 255.442 387.953 255.692 387.028 255.692C385.678 255.692 383.628 254.917 382.678 254.167L380.878 257.192ZM393.134 257.192C394.434 258.267 396.834 259.042 399.059 259.042C402.634 259.042 404.784 257.292 404.784 254.892C404.784 251.517 401.509 251.092 399.484 250.792C398.284 250.617 397.934 250.467 397.934 250.117C397.934 249.767 398.409 249.592 399.059 249.592C400.459 249.592 401.859 250.217 402.609 250.842L404.259 247.917C402.859 246.992 401.059 246.367 399.034 246.367C395.534 246.367 393.634 248.317 393.634 250.492C393.634 253.767 396.759 254.142 398.784 254.417C399.934 254.567 400.484 254.717 400.484 255.117C400.484 255.442 400.209 255.692 399.284 255.692C397.934 255.692 395.884 254.917 394.934 254.167L393.134 257.192ZM417.89 258.742V251.442C417.89 247.417 414.965 246.367 411.965 246.367C410.14 246.367 407.89 246.892 406.265 248.192L407.79 250.967C408.74 250.242 410.015 249.792 411.14 249.792C412.615 249.792 413.39 250.442 413.39 251.292V252.667C412.74 251.842 411.315 251.342 409.74 251.342C407.94 251.342 405.59 252.067 405.59 255.067C405.59 257.817 407.94 259.042 409.74 259.042C411.24 259.042 412.715 258.442 413.39 257.592V258.742H417.89ZM413.39 255.467C413.09 255.892 412.315 256.117 411.615 256.117C410.865 256.117 410.04 255.892 410.04 255.142C410.04 254.392 410.865 254.142 411.615 254.142C412.315 254.142 413.09 254.367 413.39 254.792V255.467ZM431.901 258.742V252.417H439.326V248.217H431.901V246.267H439.501V242.067H426.851V258.742H431.901ZM446.046 258.742V251.392C446.546 250.792 447.771 250.542 448.721 250.542C449.146 250.542 449.521 250.592 449.746 250.667V246.367C448.371 246.367 446.796 247.167 446.046 248.042V246.667H441.546V258.742H446.046ZM453.538 245.417C454.938 245.417 456.063 244.292 456.063 242.892C456.063 241.492 454.938 240.367 453.538 240.367C452.138 240.367 451.013 241.492 451.013 242.892C451.013 244.292 452.138 245.417 453.538 245.417ZM455.788 258.742V246.667H451.288V258.742H455.788ZM457.469 252.692C457.469 256.667 460.419 259.042 464.194 259.042C465.994 259.042 468.144 258.567 469.344 257.542L467.494 254.767C466.894 255.242 465.794 255.617 464.769 255.617C463.244 255.617 462.369 254.867 462.119 254.092H470.319V253.167C470.319 248.917 467.594 246.367 464.044 246.367C460.144 246.367 457.469 249.192 457.469 252.692ZM464.044 249.792C465.494 249.792 465.919 250.717 466.044 251.242H462.069C462.219 250.692 462.669 249.792 464.044 249.792ZM484.269 258.742V242.067H479.769V247.942C478.819 246.792 477.594 246.367 476.369 246.367C473.394 246.367 471.044 248.692 471.044 252.692C471.044 256.842 473.444 259.042 476.369 259.042C477.594 259.042 478.744 258.617 479.769 257.467V258.742H484.269ZM479.769 254.242C479.344 254.767 478.494 255.067 477.894 255.067C476.669 255.067 475.644 254.192 475.644 252.692C475.644 251.192 476.669 250.342 477.894 250.342C478.494 250.342 479.344 250.617 479.769 251.142V254.242ZM506.686 258.742V249.992C506.686 247.492 505.186 246.367 502.961 246.367C501.011 246.367 499.436 247.442 498.736 248.492C498.186 246.992 496.961 246.367 495.261 246.367C493.311 246.367 491.786 247.367 491.261 248.042V246.667H486.761V258.742H491.261V251.292C491.561 250.942 492.111 250.342 493.086 250.342C494.111 250.342 494.461 250.967 494.461 251.692V258.742H498.961V251.292C499.261 250.942 499.811 250.342 500.811 250.342C501.811 250.342 502.186 250.967 502.186 251.692V258.742H506.686ZM520.673 258.742V251.442C520.673 247.417 517.748 246.367 514.748 246.367C512.923 246.367 510.673 246.892 509.048 248.192L510.573 250.967C511.523 250.242 512.798 249.792 513.923 249.792C515.398 249.792 516.173 250.442 516.173 251.292V252.667C515.523 251.842 514.098 251.342 512.523 251.342C510.723 251.342 508.373 252.067 508.373 255.067C508.373 257.817 510.723 259.042 512.523 259.042C514.023 259.042 515.498 258.442 516.173 257.592V258.742H520.673ZM516.173 255.467C515.873 255.892 515.098 256.117 514.398 256.117C513.648 256.117 512.823 255.892 512.823 255.142C512.823 254.392 513.648 254.142 514.398 254.142C515.098 254.142 515.873 254.367 516.173 254.792V255.467ZM535.838 258.742V250.167C535.838 248.067 534.613 246.367 531.813 246.367C529.688 246.367 528.363 247.242 527.663 248.042V246.667H523.163V258.742H527.663V251.292C528.038 250.867 528.563 250.342 529.588 250.342C530.663 250.342 531.338 250.817 531.338 252.067V258.742H535.838ZM564.62 258.742V242.067H557.645L554.72 250.567L551.795 242.067H544.82V258.742H549.87V248.217L553.595 258.742H555.845L559.57 248.217V258.742H564.62ZM578.705 258.742V251.442C578.705 247.417 575.78 246.367 572.78 246.367C570.955 246.367 568.705 246.892 567.08 248.192L568.605 250.967C569.555 250.242 570.83 249.792 571.955 249.792C573.43 249.792 574.205 250.442 574.205 251.292V252.667C573.555 251.842 572.13 251.342 570.555 251.342C568.755 251.342 566.405 252.067 566.405 255.067C566.405 257.817 568.755 259.042 570.555 259.042C572.055 259.042 573.53 258.442 574.205 257.592V258.742H578.705ZM574.205 255.467C573.905 255.892 573.13 256.117 572.43 256.117C571.68 256.117 570.855 255.892 570.855 255.142C570.855 254.392 571.68 254.142 572.43 254.142C573.13 254.142 573.905 254.367 574.205 254.792V255.467ZM585.695 258.742V251.392C586.195 250.792 587.42 250.542 588.37 250.542C588.795 250.542 589.17 250.592 589.395 250.667V246.367C588.02 246.367 586.445 247.167 585.695 248.042V246.667H581.195V258.742H585.695ZM595.436 258.742V251.392C595.936 250.792 597.161 250.542 598.111 250.542C598.536 250.542 598.911 250.592 599.136 250.667V246.367C597.761 246.367 596.186 247.167 595.436 248.042V246.667H590.936V258.742H595.436ZM599.852 252.692C599.852 256.667 602.802 259.042 606.577 259.042C608.377 259.042 610.527 258.567 611.727 257.542L609.877 254.767C609.277 255.242 608.177 255.617 607.152 255.617C605.627 255.617 604.752 254.867 604.502 254.092H612.702V253.167C612.702 248.917 609.977 246.367 606.427 246.367C602.527 246.367 599.852 249.192 599.852 252.692ZM606.427 249.792C607.877 249.792 608.302 250.717 608.427 251.242H604.452C604.602 250.692 605.052 249.792 606.427 249.792ZM618.751 258.742V251.392C619.251 250.792 620.476 250.542 621.426 250.542C621.851 250.542 622.226 250.592 622.451 250.667V246.367C621.076 246.367 619.501 247.167 618.751 248.042V246.667H614.251V258.742H618.751ZM629.943 259.042C634.243 259.042 636.743 256.067 636.743 252.692C636.743 249.317 634.243 246.367 629.943 246.367C625.668 246.367 623.168 249.317 623.168 252.692C623.168 256.067 625.668 259.042 629.943 259.042ZM629.943 255.067C628.568 255.067 627.793 254.042 627.793 252.692C627.793 251.367 628.568 250.342 629.943 250.342C631.343 250.342 632.118 251.367 632.118 252.692C632.118 254.042 631.343 255.067 629.943 255.067Z" fill="#596F76"/>
<path d="M422.055 76L425.535 86.3647H436.797L427.686 92.7705L431.166 103.135L422.055 96.7295L412.945 103.135L416.424 92.7705L407.314 86.3647H418.575L422.055 76Z" fill="#FFC267"/>
<path d="M456.055 76L459.535 86.3647H470.797L461.686 92.7705L465.166 103.135L456.055 96.7295L446.945 103.135L450.424 92.7705L441.314 86.3647H452.575L456.055 76Z" fill="#FFC267"/>
<path d="M490.555 76L493.923 86.3647H504.821L496.004 92.7705L499.372 103.135L490.555 96.7295L481.738 103.135L485.106 92.7705L476.289 86.3647H487.187L490.555 76Z" fill="#FFC267"/>
<path d="M525.055 76L528.535 86.3647H539.797L530.686 92.7705L534.166 103.135L525.055 96.7295L515.945 103.135L519.424 92.7705L510.314 86.3647H521.575L525.055 76Z" fill="#FFC267"/>
<path d="M559.055 76L562.535 86.3647H573.797L564.686 92.7705L568.166 103.135L559.055 96.7295L549.945 103.135L553.424 92.7705L544.314 86.3647H555.575L559.055 76Z" fill="#FFC267"/>
<path d="M345.733 287V280.16C346.173 279.38 347.433 278.62 348.373 278.62C348.593 278.62 348.773 278.64 348.953 278.66V277.12C347.633 277.12 346.513 277.88 345.733 278.88V277.34H344.233V287H345.733ZM355.214 287.24C356.774 287.24 358.074 286.7 359.054 285.74L358.334 284.76C357.554 285.56 356.454 286 355.334 286C353.254 286 351.994 284.48 351.874 282.66H359.674V282.28C359.674 279.38 357.954 277.1 355.034 277.1C352.274 277.1 350.274 279.36 350.274 282.16C350.274 285.18 352.334 287.24 355.214 287.24ZM358.194 281.54H351.854C351.934 280.08 352.954 278.34 355.014 278.34C357.214 278.34 358.174 280.12 358.194 281.54ZM366.364 287.24C368.124 287.24 369.164 286.52 369.904 285.56L368.904 284.64C368.264 285.5 367.444 285.9 366.444 285.9C364.404 285.9 363.104 284.3 363.104 282.16C363.104 280.02 364.404 278.44 366.444 278.44C367.444 278.44 368.264 278.8 368.904 279.68L369.904 278.78C369.164 277.82 368.124 277.1 366.364 277.1C363.484 277.1 361.544 279.3 361.544 282.16C361.544 285.02 363.484 287.24 366.364 287.24ZM376.246 287.24C379.186 287.24 381.026 284.96 381.026 282.16C381.026 279.36 379.186 277.1 376.246 277.1C373.306 277.1 371.466 279.36 371.466 282.16C371.466 284.96 373.306 287.24 376.246 287.24ZM376.246 285.9C374.186 285.9 373.046 284.14 373.046 282.16C373.046 280.2 374.186 278.44 376.246 278.44C378.306 278.44 379.446 280.2 379.446 282.16C379.446 284.14 378.306 285.9 376.246 285.9ZM396.631 287V280.02C396.631 278.08 395.691 277.1 393.931 277.1C392.531 277.1 391.231 278.02 390.691 278.9C390.411 277.9 389.571 277.1 388.111 277.1C386.671 277.1 385.391 278.12 384.971 278.74V277.34H383.471V287H384.971V279.94C385.491 279.16 386.531 278.44 387.511 278.44C388.791 278.44 389.291 279.22 389.291 280.44V287H390.791V279.92C391.291 279.14 392.351 278.44 393.351 278.44C394.611 278.44 395.131 279.22 395.131 280.44V287H396.631ZM412.784 287V280.02C412.784 278.08 411.844 277.1 410.084 277.1C408.684 277.1 407.384 278.02 406.844 278.9C406.564 277.9 405.724 277.1 404.264 277.1C402.824 277.1 401.544 278.12 401.124 278.74V277.34H399.624V287H401.124V279.94C401.644 279.16 402.684 278.44 403.664 278.44C404.944 278.44 405.444 279.22 405.444 280.44V287H406.944V279.92C407.444 279.14 408.504 278.44 409.504 278.44C410.764 278.44 411.284 279.22 411.284 280.44V287H412.784ZM420.156 287.24C421.716 287.24 423.016 286.7 423.996 285.74L423.276 284.76C422.496 285.56 421.396 286 420.276 286C418.196 286 416.936 284.48 416.816 282.66H424.616V282.28C424.616 279.38 422.896 277.1 419.976 277.1C417.216 277.1 415.216 279.36 415.216 282.16C415.216 285.18 417.276 287.24 420.156 287.24ZM423.136 281.54H416.796C416.876 280.08 417.896 278.34 419.956 278.34C422.156 278.34 423.116 280.12 423.136 281.54ZM435.065 287V280.22C435.065 278.12 434.005 277.1 432.005 277.1C430.545 277.1 429.225 277.92 428.545 278.74V277.34H427.045V287H428.545V279.94C429.125 279.16 430.225 278.44 431.405 278.44C432.705 278.44 433.585 278.96 433.585 280.68V287H435.065ZM446.581 287V273.66H445.081V278.8C444.301 277.74 443.121 277.1 441.821 277.1C439.301 277.1 437.521 279.08 437.521 282.18C437.521 285.32 439.301 287.24 441.821 287.24C443.181 287.24 444.361 286.54 445.081 285.56V287H446.581ZM442.201 285.9C440.241 285.9 439.081 284.32 439.081 282.18C439.081 280.04 440.241 278.44 442.201 278.44C443.381 278.44 444.561 279.16 445.081 280V284.36C444.561 285.2 443.381 285.9 442.201 285.9ZM452.664 287.24C455.144 287.24 456.444 285.94 456.444 284.32C456.444 280.56 450.464 281.94 450.464 279.84C450.464 278.98 451.284 278.32 452.604 278.32C453.864 278.32 454.904 278.84 455.484 279.54L456.184 278.5C455.424 277.72 454.264 277.1 452.604 277.1C450.304 277.1 449.024 278.36 449.024 279.88C449.024 283.46 455.004 282.02 455.004 284.36C455.004 285.32 454.184 286.02 452.704 286.02C451.384 286.02 450.164 285.38 449.524 284.64L448.764 285.72C449.744 286.74 451.064 287.24 452.664 287.24ZM468.437 287.24C472.037 287.24 473.357 285.24 473.357 283.32C473.357 278.34 465.457 280.06 465.457 277.06C465.457 275.8 466.617 274.94 468.197 274.94C469.657 274.94 471.057 275.42 472.057 276.54L473.057 275.32C471.937 274.14 470.357 273.44 468.337 273.44C465.697 273.44 463.737 274.96 463.737 277.16C463.737 281.92 471.637 280 471.637 283.44C471.637 284.48 470.877 285.76 468.497 285.76C466.617 285.76 465.177 284.84 464.317 283.84L463.317 285.12C464.417 286.36 466.137 287.24 468.437 287.24ZM480.536 287.24C483.076 287.24 484.836 285.28 484.836 282.16C484.836 279.02 483.076 277.1 480.536 277.1C479.176 277.1 477.976 277.8 477.276 278.78V277.34H475.776V290.68H477.276V285.54C478.076 286.6 479.216 287.24 480.536 287.24ZM480.156 285.9C478.976 285.9 477.796 285.18 477.276 284.34V279.98C477.796 279.14 478.976 278.44 480.156 278.44C482.096 278.44 483.256 280.02 483.256 282.16C483.256 284.3 482.096 285.9 480.156 285.9ZM487.981 275.96C488.541 275.96 488.981 275.52 488.981 274.96C488.981 274.4 488.541 273.94 487.981 273.94C487.421 273.94 486.961 274.4 486.961 274.96C486.961 275.52 487.421 275.96 487.981 275.96ZM488.721 287V277.34H487.221V287H488.721ZM493.213 287V280.16C493.653 279.38 494.913 278.62 495.853 278.62C496.073 278.62 496.253 278.64 496.433 278.66V277.12C495.113 277.12 493.993 277.88 493.213 278.88V277.34H491.713V287H493.213ZM499.075 275.96C499.635 275.96 500.075 275.52 500.075 274.96C500.075 274.4 499.635 273.94 499.075 273.94C498.515 273.94 498.055 274.4 498.055 274.96C498.055 275.52 498.515 275.96 499.075 275.96ZM499.815 287V277.34H498.315V287H499.815ZM505.267 287.24C506.127 287.24 506.667 286.98 507.047 286.62L506.607 285.48C506.407 285.7 506.027 285.9 505.587 285.9C504.947 285.9 504.627 285.38 504.627 284.66V278.66H506.587V277.34H504.627V274.7H503.107V277.34H501.507V278.66H503.107V284.98C503.107 286.42 503.827 287.24 505.267 287.24ZM513.306 287C517.466 287 520.146 284.14 520.146 280.34C520.146 276.56 517.466 273.66 513.306 273.66H508.746V287H513.306ZM513.306 285.52H510.406V275.14H513.306C516.606 275.14 518.426 277.46 518.426 280.34C518.426 283.2 516.546 285.52 513.306 285.52ZM526.91 287.24C529.85 287.24 531.69 284.96 531.69 282.16C531.69 279.36 529.85 277.1 526.91 277.1C523.97 277.1 522.13 279.36 522.13 282.16C522.13 284.96 523.97 287.24 526.91 287.24ZM526.91 285.9C524.85 285.9 523.71 284.14 523.71 282.16C523.71 280.2 524.85 278.44 526.91 278.44C528.97 278.44 530.11 280.2 530.11 282.16C530.11 284.14 528.97 285.9 526.91 285.9ZM538.015 290.92C540.375 290.92 542.635 289.92 542.635 286.86V277.34H541.135V278.8C540.355 277.74 539.175 277.1 537.875 277.1C535.335 277.1 533.575 279.02 533.575 282.12C533.575 285.24 535.355 287.12 537.875 287.12C539.235 287.12 540.415 286.38 541.135 285.4V286.86C541.135 288.9 539.615 289.68 538.015 289.68C536.635 289.68 535.675 289.32 534.875 288.38L534.115 289.46C535.275 290.6 536.395 290.92 538.015 290.92ZM538.255 285.78C536.295 285.78 535.135 284.24 535.135 282.12C535.135 279.98 536.295 278.44 538.255 278.44C539.435 278.44 540.595 279.16 541.135 279.98V284.22C540.595 285.06 539.435 285.78 538.255 285.78ZM555.835 287V275.14H560.075V273.66H549.955V275.14H554.175V287H555.835ZM562.022 287V280.16C562.462 279.38 563.722 278.62 564.662 278.62C564.882 278.62 565.062 278.64 565.242 278.66V277.12C563.922 277.12 562.802 277.88 562.022 278.88V277.34H560.522V287H562.022ZM574.664 287V280.36C574.664 278.02 572.984 277.1 570.924 277.1C569.344 277.1 568.104 277.62 567.064 278.7L567.764 279.74C568.624 278.8 569.564 278.4 570.724 278.4C572.124 278.4 573.164 279.14 573.164 280.42V282.16C572.384 281.28 571.284 280.86 569.964 280.86C568.324 280.86 566.604 281.86 566.604 284.04C566.604 286.14 568.344 287.24 569.964 287.24C571.264 287.24 572.384 286.78 573.164 285.9V287H574.664ZM570.524 286.16C569.104 286.16 568.124 285.28 568.124 284.04C568.124 282.82 569.104 281.94 570.524 281.94C571.564 281.94 572.584 282.34 573.164 283.12V284.96C572.584 285.76 571.564 286.16 570.524 286.16ZM578.45 275.96C579.01 275.96 579.45 275.52 579.45 274.96C579.45 274.4 579.01 273.94 578.45 273.94C577.89 273.94 577.43 274.4 577.43 274.96C577.43 275.52 577.89 275.96 578.45 275.96ZM579.19 287V277.34H577.69V287H579.19ZM590.202 287V280.22C590.202 278.12 589.142 277.1 587.142 277.1C585.682 277.1 584.362 277.92 583.682 278.74V277.34H582.182V287H583.682V279.94C584.262 279.16 585.362 278.44 586.542 278.44C587.842 278.44 588.722 278.96 588.722 280.68V287H590.202ZM593.977 275.96C594.537 275.96 594.977 275.52 594.977 274.96C594.977 274.4 594.537 273.94 593.977 273.94C593.417 273.94 592.957 274.4 592.957 274.96C592.957 275.52 593.417 275.96 593.977 275.96ZM594.717 287V277.34H593.217V287H594.717ZM605.729 287V280.22C605.729 278.12 604.669 277.1 602.669 277.1C601.209 277.1 599.889 277.92 599.209 278.74V277.34H597.709V287H599.209V279.94C599.789 279.16 600.889 278.44 602.069 278.44C603.369 278.44 604.249 278.96 604.249 280.68V287H605.729ZM612.625 290.92C614.985 290.92 617.245 289.92 617.245 286.86V277.34H615.745V278.8C614.965 277.74 613.785 277.1 612.485 277.1C609.945 277.1 608.185 279.02 608.185 282.12C608.185 285.24 609.965 287.12 612.485 287.12C613.845 287.12 615.025 286.38 615.745 285.4V286.86C615.745 288.9 614.225 289.68 612.625 289.68C611.245 289.68 610.285 289.32 609.485 288.38L608.725 289.46C609.885 290.6 611.005 290.92 612.625 290.92ZM612.865 285.78C610.905 285.78 609.745 284.24 609.745 282.12C609.745 279.98 610.905 278.44 612.865 278.44C614.045 278.44 615.205 279.16 615.745 279.98V284.22C615.205 285.06 614.045 285.78 612.865 285.78ZM621.049 287.2C621.649 287.2 622.149 286.7 622.149 286.1C622.149 285.5 621.649 285 621.049 285C620.449 285 619.949 285.5 619.949 286.1C619.949 286.7 620.449 287.2 621.049 287.2Z" fill="#596F76"/>
<g clip-path="url(#clip0_20_11)">
<path d="M907.323 84.5001C907.323 67.2314 893.324 53.2324 876.055 53.2324C858.786 53.2324 844.787 67.2314 844.787 84.5001C844.787 101.769 858.786 115.768 876.055 115.768C893.324 115.768 907.323 101.769 907.323 84.5001Z" stroke="#596F76" stroke-width="1.5" stroke-miterlimit="10"/>
<path d="M871.29 103.395H878.898V84.3355H884.205L884.763 77.9604H878.881V74.3292C878.881 72.8176 879.177 72.2261 880.639 72.2261H884.763V65.6045H879.489C873.821 65.6045 871.274 68.102 871.274 72.8669V77.9604H867.314V84.4177H871.274V103.395H871.29Z" fill="#596F76"/>
</g>
<defs>
<filter id="filter0_d_20_11" x="0.555176" y="0" width="966" height="395" filterUnits="userSpaceOnUse" color-interpolation-filters="sRGB">
<feFlood flood-opacity="0" result="BackgroundImageFix"/>
<feColorMatrix in="SourceAlpha" type="matrix" values="0 0 0 0 0 0 0 0 0 0 0 0 0 0 0 0 0 0 127 0" result="hardAlpha"/>
<feOffset dy="4"/>
<feGaussianBlur stdDeviation="15"/>
<feComposite in2="hardAlpha" operator="out"/>
<feColorMatrix type="matrix" values="0 0 0 0 0 0 0 0 0 0 0 0 0 0 0 0 0 0 0.12 0"/>
<feBlend mode="normal" in2="BackgroundImageFix" result="effect1_dropShadow_20_11"/>
<feBlend mode="normal" in="SourceGraphic" in2="effect1_dropShadow_20_11" result="shape"/>
</filter>
<linearGradient id="paint0_linear_20_11" x1="112.191" y1="102.571" x2="951.72" y2="168.819" gradientUnits="userSpaceOnUse">
<stop stop-color="white"/>
<stop offset="1" stop-color="white"/>
</linearGradient>
<clipPath id="clip0_20_11">
<rect width="65" height="65" fill="white" transform="translate(843.555 52)"/>
</clipPath>
</defs>
</svg>
