<svg width="474" height="361" viewBox="0 0 474 361" fill="none" xmlns="http://www.w3.org/2000/svg">
<g filter="url(#filter0_d_31_11)">
<rect x="30.8008" y="26.9961" width="413" height="300" rx="30" fill="url(#paint0_linear_31_11)"/>
</g>
<path d="M87.8258 192.996V176.321H85.7508V192.996H87.8258ZM101.682 192.996V184.521C101.682 181.896 100.357 180.621 97.8572 180.621C96.0322 180.621 94.3822 181.646 93.5322 182.671V180.921H91.6572V192.996H93.5322V184.171C94.2572 183.196 95.6322 182.296 97.1072 182.296C98.7322 182.296 99.8322 182.946 99.8322 185.096V192.996H101.682ZM109.301 193.296C112.401 193.296 114.026 191.671 114.026 189.646C114.026 184.946 106.551 186.671 106.551 184.046C106.551 182.971 107.576 182.146 109.226 182.146C110.801 182.146 112.101 182.796 112.826 183.671L113.701 182.371C112.751 181.396 111.301 180.621 109.226 180.621C106.351 180.621 104.751 182.196 104.751 184.096C104.751 188.571 112.226 186.771 112.226 189.696C112.226 190.896 111.201 191.771 109.351 191.771C107.701 191.771 106.176 190.971 105.376 190.046L104.426 191.396C105.651 192.671 107.301 193.296 109.301 193.296ZM120.147 193.296C121.222 193.296 121.897 192.971 122.372 192.521L121.822 191.096C121.572 191.371 121.097 191.621 120.547 191.621C119.747 191.621 119.347 190.971 119.347 190.071V182.571H121.797V180.921H119.347V177.621H117.447V180.921H115.447V182.571H117.447V190.471C117.447 192.271 118.347 193.296 120.147 193.296ZM133.846 192.996V184.696C133.846 181.771 131.746 180.621 129.171 180.621C127.196 180.621 125.646 181.271 124.346 182.621L125.221 183.921C126.296 182.746 127.471 182.246 128.921 182.246C130.671 182.246 131.971 183.171 131.971 184.771V186.946C130.996 185.846 129.621 185.321 127.971 185.321C125.921 185.321 123.771 186.571 123.771 189.296C123.771 191.921 125.946 193.296 127.971 193.296C129.596 193.296 130.996 192.721 131.971 191.621V192.996H133.846ZM128.671 191.946C126.896 191.946 125.671 190.846 125.671 189.296C125.671 187.771 126.896 186.671 128.671 186.671C129.971 186.671 131.246 187.171 131.971 188.146V190.446C131.246 191.446 129.971 191.946 128.671 191.946ZM147.654 192.996V184.521C147.654 181.896 146.329 180.621 143.829 180.621C142.004 180.621 140.354 181.646 139.504 182.671V180.921H137.629V192.996H139.504V184.171C140.229 183.196 141.604 182.296 143.079 182.296C144.704 182.296 145.804 182.946 145.804 185.096V192.996H147.654ZM154.498 193.296C155.573 193.296 156.248 192.971 156.723 192.521L156.173 191.096C155.923 191.371 155.448 191.621 154.898 191.621C154.098 191.621 153.698 190.971 153.698 190.071V182.571H156.148V180.921H153.698V177.621H151.798V180.921H149.798V182.571H151.798V190.471C151.798 192.271 152.698 193.296 154.498 193.296ZM179.591 192.996L172.891 176.321H170.316L163.591 192.996H165.966L167.441 189.271H175.741L177.216 192.996H179.591ZM175.141 187.446H168.066L171.591 178.446L175.141 187.446ZM187.021 193.296C189.221 193.296 190.521 192.396 191.446 191.196L190.196 190.046C189.396 191.121 188.371 191.621 187.121 191.621C184.571 191.621 182.946 189.621 182.946 186.946C182.946 184.271 184.571 182.296 187.121 182.296C188.371 182.296 189.396 182.746 190.196 183.846L191.446 182.721C190.521 181.521 189.221 180.621 187.021 180.621C183.421 180.621 180.996 183.371 180.996 186.946C180.996 190.521 183.421 193.296 187.021 193.296ZM199.424 193.296C201.624 193.296 202.924 192.396 203.849 191.196L202.599 190.046C201.799 191.121 200.774 191.621 199.524 191.621C196.974 191.621 195.349 189.621 195.349 186.946C195.349 184.271 196.974 182.296 199.524 182.296C200.774 182.296 201.799 182.746 202.599 183.846L203.849 182.721C202.924 181.521 201.624 180.621 199.424 180.621C195.824 180.621 193.399 183.371 193.399 186.946C193.399 190.521 195.824 193.296 199.424 193.296ZM211.976 193.296C213.926 193.296 215.551 192.621 216.776 191.421L215.876 190.196C214.901 191.196 213.526 191.746 212.126 191.746C209.526 191.746 207.951 189.846 207.801 187.571H217.551V187.096C217.551 183.471 215.401 180.621 211.751 180.621C208.301 180.621 205.801 183.446 205.801 186.946C205.801 190.721 208.376 193.296 211.976 193.296ZM215.701 186.171H207.776C207.876 184.346 209.151 182.171 211.726 182.171C214.476 182.171 215.676 184.396 215.701 186.171ZM224.438 193.296C227.538 193.296 229.163 191.671 229.163 189.646C229.163 184.946 221.688 186.671 221.688 184.046C221.688 182.971 222.713 182.146 224.363 182.146C225.938 182.146 227.238 182.796 227.963 183.671L228.838 182.371C227.888 181.396 226.438 180.621 224.363 180.621C221.488 180.621 219.888 182.196 219.888 184.096C219.888 188.571 227.363 186.771 227.363 189.696C227.363 190.896 226.338 191.771 224.488 191.771C222.838 191.771 221.313 190.971 220.513 190.046L219.563 191.396C220.788 192.671 222.438 193.296 224.438 193.296ZM236.059 193.296C239.159 193.296 240.784 191.671 240.784 189.646C240.784 184.946 233.309 186.671 233.309 184.046C233.309 182.971 234.334 182.146 235.984 182.146C237.559 182.146 238.859 182.796 239.584 183.671L240.459 182.371C239.509 181.396 238.059 180.621 235.984 180.621C233.109 180.621 231.509 182.196 231.509 184.096C231.509 188.571 238.984 186.771 238.984 189.696C238.984 190.896 237.959 191.771 236.109 191.771C234.459 191.771 232.934 190.971 232.134 190.046L231.184 191.396C232.409 192.671 234.059 193.296 236.059 193.296ZM244.83 193.246C245.58 193.246 246.205 192.621 246.205 191.871C246.205 191.121 245.58 190.496 244.83 190.496C244.08 190.496 243.455 191.121 243.455 191.871C243.455 192.621 244.08 193.246 244.83 193.246ZM269.961 192.996V176.321H267.886V189.346L258.286 176.321H256.161V192.996H258.236V179.696L267.961 192.996H269.961ZM279.061 193.296C282.736 193.296 285.036 190.446 285.036 186.946C285.036 183.446 282.736 180.621 279.061 180.621C275.386 180.621 273.086 183.446 273.086 186.946C273.086 190.446 275.386 193.296 279.061 193.296ZM279.061 191.621C276.486 191.621 275.061 189.421 275.061 186.946C275.061 184.496 276.486 182.296 279.061 182.296C281.636 182.296 283.061 184.496 283.061 186.946C283.061 189.421 281.636 191.621 279.061 191.621ZM308.538 192.996V176.321H306.462V183.496H296.713V176.321H294.638V192.996H296.713V185.346H306.462V192.996H308.538ZM313.31 179.196C314.01 179.196 314.56 178.646 314.56 177.946C314.56 177.246 314.01 176.671 313.31 176.671C312.61 176.671 312.035 177.246 312.035 177.946C312.035 178.646 312.61 179.196 313.31 179.196ZM314.235 192.996V180.921H312.36V192.996H314.235ZM328.601 192.996V176.321H326.726V182.746C325.751 181.421 324.276 180.621 322.651 180.621C319.501 180.621 317.276 183.096 317.276 186.971C317.276 190.896 319.501 193.296 322.651 193.296C324.351 193.296 325.826 192.421 326.726 191.196V192.996H328.601ZM323.126 191.621C320.676 191.621 319.226 189.646 319.226 186.971C319.226 184.296 320.676 182.296 323.126 182.296C324.601 182.296 326.076 183.196 326.726 184.246V189.696C326.076 190.746 324.601 191.621 323.126 191.621ZM342.98 192.996V176.321H341.105V182.746C340.13 181.421 338.655 180.621 337.03 180.621C333.88 180.621 331.655 183.096 331.655 186.971C331.655 190.896 333.88 193.296 337.03 193.296C338.73 193.296 340.205 192.421 341.105 191.196V192.996H342.98ZM337.505 191.621C335.055 191.621 333.605 189.646 333.605 186.971C333.605 184.296 335.055 182.296 337.505 182.296C338.98 182.296 340.455 183.196 341.105 184.246V189.696C340.455 190.746 338.98 191.621 337.505 191.621ZM352.21 193.296C354.16 193.296 355.785 192.621 357.01 191.421L356.11 190.196C355.135 191.196 353.76 191.746 352.36 191.746C349.76 191.746 348.185 189.846 348.035 187.571H357.785V187.096C357.785 183.471 355.635 180.621 351.985 180.621C348.535 180.621 346.035 183.446 346.035 186.946C346.035 190.721 348.61 193.296 352.21 193.296ZM355.935 186.171H348.01C348.11 184.346 349.385 182.171 351.96 182.171C354.71 182.171 355.91 184.396 355.935 186.171ZM370.847 192.996V184.521C370.847 181.896 369.522 180.621 367.022 180.621C365.197 180.621 363.547 181.646 362.697 182.671V180.921H360.822V192.996H362.697V184.171C363.422 183.196 364.797 182.296 366.272 182.296C367.897 182.296 368.997 182.946 368.997 185.096V192.996H370.847ZM87.8258 222.996V215.396H96.5008V213.546H87.8258V208.171H96.6758V206.321H85.7508V222.996H87.8258ZM104.92 223.296C106.87 223.296 108.495 222.621 109.72 221.421L108.82 220.196C107.845 221.196 106.47 221.746 105.07 221.746C102.47 221.746 100.895 219.846 100.745 217.571H110.495V217.096C110.495 213.471 108.345 210.621 104.695 210.621C101.245 210.621 98.7453 213.446 98.7453 216.946C98.7453 220.721 101.32 223.296 104.92 223.296ZM108.645 216.171H100.72C100.82 214.346 102.095 212.171 104.67 212.171C107.42 212.171 108.62 214.396 108.645 216.171ZM119.007 223.296C120.957 223.296 122.582 222.621 123.807 221.421L122.907 220.196C121.932 221.196 120.557 221.746 119.157 221.746C116.557 221.746 114.982 219.846 114.832 217.571H124.582V217.096C124.582 213.471 122.432 210.621 118.782 210.621C115.332 210.621 112.832 213.446 112.832 216.946C112.832 220.721 115.407 223.296 119.007 223.296ZM122.732 216.171H114.807C114.907 214.346 116.182 212.171 118.757 212.171C121.507 212.171 122.707 214.396 122.732 216.171ZM131.469 223.296C134.569 223.296 136.194 221.671 136.194 219.646C136.194 214.946 128.719 216.671 128.719 214.046C128.719 212.971 129.744 212.146 131.394 212.146C132.969 212.146 134.269 212.796 134.994 213.671L135.869 212.371C134.919 211.396 133.469 210.621 131.394 210.621C128.519 210.621 126.919 212.196 126.919 214.096C126.919 218.571 134.394 216.771 134.394 219.696C134.394 220.896 133.369 221.771 131.519 221.771C129.869 221.771 128.344 220.971 127.544 220.046L126.594 221.396C127.819 222.671 129.469 223.296 131.469 223.296ZM140.24 223.246C140.99 223.246 141.615 222.621 141.615 221.871C141.615 221.121 140.99 220.496 140.24 220.496C139.49 220.496 138.865 221.121 138.865 221.871C138.865 222.621 139.49 223.246 140.24 223.246ZM165.371 222.996V206.321H163.296V219.346L153.696 206.321H151.571V222.996H153.646V209.696L163.371 222.996H165.371ZM174.471 223.296C178.146 223.296 180.446 220.446 180.446 216.946C180.446 213.446 178.146 210.621 174.471 210.621C170.796 210.621 168.496 213.446 168.496 216.946C168.496 220.446 170.796 223.296 174.471 223.296ZM174.471 221.621C171.896 221.621 170.471 219.421 170.471 216.946C170.471 214.496 171.896 212.296 174.471 212.296C177.046 212.296 178.471 214.496 178.471 216.946C178.471 219.421 177.046 221.621 174.471 221.621ZM191.848 222.996V214.446C192.398 213.471 193.973 212.521 195.148 212.521C195.423 212.521 195.648 212.546 195.873 212.571V210.646C194.223 210.646 192.823 211.596 191.848 212.846V210.921H189.973V222.996H191.848ZM199.175 209.196C199.875 209.196 200.425 208.646 200.425 207.946C200.425 207.246 199.875 206.671 199.175 206.671C198.475 206.671 197.9 207.246 197.9 207.946C197.9 208.646 198.475 209.196 199.175 209.196ZM200.1 222.996V210.921H198.225V222.996H200.1ZM207.69 223.296C210.79 223.296 212.415 221.671 212.415 219.646C212.415 214.946 204.94 216.671 204.94 214.046C204.94 212.971 205.965 212.146 207.615 212.146C209.19 212.146 210.49 212.796 211.215 213.671L212.09 212.371C211.14 211.396 209.69 210.621 207.615 210.621C204.74 210.621 203.14 212.196 203.14 214.096C203.14 218.571 210.615 216.771 210.615 219.696C210.615 220.896 209.59 221.771 207.74 221.771C206.09 221.771 204.565 220.971 203.765 220.046L202.815 221.396C204.04 222.671 205.69 223.296 207.69 223.296ZM226.086 222.996L220.711 216.396L226.061 210.921H223.686L217.336 217.346V206.321H215.461V222.996H217.336V219.546L219.361 217.571L223.686 222.996H226.086ZM229.303 223.246C230.053 223.246 230.678 222.621 230.678 221.871C230.678 221.121 230.053 220.496 229.303 220.496C228.553 220.496 227.928 221.121 227.928 221.871C227.928 222.621 228.553 223.246 229.303 223.246ZM246.409 223.296C250.034 223.296 252.234 220.721 252.234 217.846C252.234 214.296 249.784 212.521 246.784 212.521C244.634 212.521 242.784 213.971 242.059 215.121C242.059 214.896 242.059 214.696 242.059 214.471C242.059 211.196 243.509 207.921 246.759 207.921C248.484 207.921 249.459 208.621 250.309 209.621L251.359 208.071C250.334 206.871 248.884 206.071 246.759 206.071C242.059 206.071 239.959 210.171 239.959 214.671C239.959 219.221 241.734 223.296 246.409 223.296ZM246.309 221.446C243.409 221.446 242.309 218.871 242.134 216.796C243.034 215.346 244.634 214.321 246.309 214.321C248.434 214.321 250.134 215.471 250.134 217.921C250.134 219.496 248.884 221.446 246.309 221.446ZM261.104 223.296C265.654 223.296 267.479 218.721 267.479 214.671C267.479 210.596 265.654 206.071 261.104 206.071C256.529 206.071 254.729 210.596 254.729 214.671C254.729 218.721 256.529 223.296 261.104 223.296ZM261.104 221.446C257.929 221.446 256.854 217.996 256.854 214.671C256.854 211.346 257.929 207.921 261.104 207.921C264.279 207.921 265.354 211.346 265.354 214.671C265.354 217.996 264.279 221.446 261.104 221.446ZM275.512 217.771V216.121H269.512V217.771H275.512ZM283.907 222.996C289.107 222.996 292.457 219.421 292.457 214.671C292.457 209.946 289.107 206.321 283.907 206.321H278.207V222.996H283.907ZM283.907 221.146H280.282V208.171H283.907C288.032 208.171 290.307 211.071 290.307 214.671C290.307 218.246 287.957 221.146 283.907 221.146ZM305.062 222.996V214.696C305.062 211.771 302.962 210.621 300.387 210.621C298.412 210.621 296.862 211.271 295.562 212.621L296.437 213.921C297.512 212.746 298.687 212.246 300.137 212.246C301.887 212.246 303.187 213.171 303.187 214.771V216.946C302.212 215.846 300.837 215.321 299.187 215.321C297.137 215.321 294.987 216.571 294.987 219.296C294.987 221.921 297.162 223.296 299.187 223.296C300.812 223.296 302.212 222.721 303.187 221.621V222.996H305.062ZM299.887 221.946C298.112 221.946 296.887 220.846 296.887 219.296C296.887 217.771 298.112 216.671 299.887 216.671C301.187 216.671 302.462 217.171 303.187 218.146V220.446C302.462 221.446 301.187 221.946 299.887 221.946ZM308.195 227.721C308.52 227.821 309.145 227.896 309.545 227.896C311.145 227.871 312.37 227.196 313.095 225.446L319.145 210.921H317.12L313.095 220.821L309.095 210.921H307.045L312.095 223.121L311.295 224.946C310.87 225.946 310.32 226.221 309.495 226.221C309.195 226.221 308.745 226.146 308.47 226.021L308.195 227.721ZM324.951 223.296C328.051 223.296 329.676 221.671 329.676 219.646C329.676 214.946 322.201 216.671 322.201 214.046C322.201 212.971 323.226 212.146 324.876 212.146C326.451 212.146 327.751 212.796 328.476 213.671L329.351 212.371C328.401 211.396 326.951 210.621 324.876 210.621C322.001 210.621 320.401 212.196 320.401 214.096C320.401 218.571 327.876 216.771 327.876 219.696C327.876 220.896 326.851 221.771 325.001 221.771C323.351 221.771 321.826 220.971 321.026 220.046L320.076 221.396C321.301 222.671 322.951 223.296 324.951 223.296ZM102.076 252.996V236.321H99.1008L93.9258 249.171L88.7258 236.321H85.7508V252.996H87.8258V238.971L93.5008 252.996H94.3508L100.001 238.971V252.996H102.076ZM111.166 253.296C114.841 253.296 117.141 250.446 117.141 246.946C117.141 243.446 114.841 240.621 111.166 240.621C107.491 240.621 105.191 243.446 105.191 246.946C105.191 250.446 107.491 253.296 111.166 253.296ZM111.166 251.621C108.591 251.621 107.166 249.421 107.166 246.946C107.166 244.496 108.591 242.296 111.166 242.296C113.741 242.296 115.166 244.496 115.166 246.946C115.166 249.421 113.741 251.621 111.166 251.621ZM130.222 252.996V244.521C130.222 241.896 128.897 240.621 126.397 240.621C124.572 240.621 122.922 241.646 122.072 242.671V240.921H120.197V252.996H122.072V244.171C122.797 243.196 124.172 242.296 125.647 242.296C127.272 242.296 128.372 242.946 128.372 245.096V252.996H130.222ZM139.466 253.296C141.416 253.296 143.041 252.621 144.266 251.421L143.366 250.196C142.391 251.196 141.016 251.746 139.616 251.746C137.016 251.746 135.441 249.846 135.291 247.571H145.041V247.096C145.041 243.471 142.891 240.621 139.241 240.621C135.791 240.621 133.291 243.446 133.291 246.946C133.291 250.721 135.866 253.296 139.466 253.296ZM143.191 246.171H135.266C135.366 244.346 136.641 242.171 139.216 242.171C141.966 242.171 143.166 244.396 143.191 246.171ZM147.428 257.721C147.753 257.821 148.378 257.896 148.778 257.896C150.378 257.871 151.603 257.196 152.328 255.446L158.378 240.921H156.353L152.328 250.821L148.328 240.921H146.278L151.328 253.121L150.528 254.946C150.103 255.946 149.553 256.221 148.728 256.221C148.428 256.221 147.978 256.146 147.703 256.021L147.428 257.721ZM174.479 252.996C177.529 252.996 179.304 251.171 179.304 248.496C179.304 246.496 177.829 244.671 176.054 244.396C177.579 244.071 178.979 242.671 178.979 240.571C178.979 238.071 177.204 236.321 174.304 236.321H166.879V252.996H174.479ZM173.954 243.546H168.954V238.171H173.954C175.829 238.171 176.829 239.371 176.829 240.871C176.829 242.396 175.829 243.546 173.954 243.546ZM174.079 251.146H168.954V245.396H174.079C176.104 245.396 177.154 246.746 177.154 248.271C177.154 250.046 176.004 251.146 174.079 251.146ZM191.951 252.996V244.696C191.951 241.771 189.851 240.621 187.276 240.621C185.301 240.621 183.751 241.271 182.451 242.621L183.326 243.921C184.401 242.746 185.576 242.246 187.026 242.246C188.776 242.246 190.076 243.171 190.076 244.771V246.946C189.101 245.846 187.726 245.321 186.076 245.321C184.026 245.321 181.876 246.571 181.876 249.296C181.876 251.921 184.051 253.296 186.076 253.296C187.701 253.296 189.101 252.721 190.076 251.621V252.996H191.951ZM186.776 251.946C185.001 251.946 183.776 250.846 183.776 249.296C183.776 247.771 185.001 246.671 186.776 246.671C188.076 246.671 189.351 247.171 190.076 248.146V250.446C189.351 251.446 188.076 251.946 186.776 251.946ZM201.059 253.296C203.259 253.296 204.559 252.396 205.484 251.196L204.234 250.046C203.434 251.121 202.409 251.621 201.159 251.621C198.609 251.621 196.984 249.621 196.984 246.946C196.984 244.271 198.609 242.296 201.159 242.296C202.409 242.296 203.434 242.746 204.234 243.846L205.484 242.721C204.559 241.521 203.259 240.621 201.059 240.621C197.459 240.621 195.034 243.371 195.034 246.946C195.034 250.521 197.459 253.296 201.059 253.296ZM218.762 252.996L213.387 246.396L218.737 240.921H216.362L210.012 247.346V236.321H208.137V252.996H210.012V249.546L212.037 247.571L216.362 252.996H218.762ZM235.423 253.321C238.148 253.321 240.423 252.171 241.973 250.421V244.421H234.173V246.271H239.923V249.646C239.073 250.496 237.423 251.446 235.423 251.446C231.773 251.446 228.998 248.621 228.998 244.671C228.998 240.671 231.773 237.896 235.423 237.896C237.423 237.896 239.198 238.846 240.248 240.196L241.898 239.146C240.448 237.346 238.398 236.046 235.423 236.046C230.673 236.046 226.848 239.471 226.848 244.671C226.848 249.846 230.673 253.321 235.423 253.321ZM255.296 252.996V240.921H253.421V249.796C252.721 250.771 251.321 251.621 249.871 251.621C248.221 251.621 247.146 250.996 247.146 248.871V240.921H245.271V249.446C245.271 252.046 246.596 253.296 249.121 253.296C250.921 253.296 252.496 252.346 253.421 251.296V252.996H255.296ZM268.465 252.996V244.696C268.465 241.771 266.365 240.621 263.79 240.621C261.815 240.621 260.265 241.271 258.965 242.621L259.84 243.921C260.915 242.746 262.09 242.246 263.54 242.246C265.29 242.246 266.59 243.171 266.59 244.771V246.946C265.615 245.846 264.24 245.321 262.59 245.321C260.54 245.321 258.39 246.571 258.39 249.296C258.39 251.921 260.565 253.296 262.59 253.296C264.215 253.296 265.615 252.721 266.59 251.621V252.996H268.465ZM263.29 251.946C261.515 251.946 260.29 250.846 260.29 249.296C260.29 247.771 261.515 246.671 263.29 246.671C264.59 246.671 265.865 247.171 266.59 248.146V250.446C265.865 251.446 264.59 251.946 263.29 251.946ZM274.123 252.996V244.446C274.673 243.471 276.248 242.521 277.423 242.521C277.698 242.521 277.923 242.546 278.148 242.571V240.646C276.498 240.646 275.098 241.596 274.123 242.846V240.921H272.248V252.996H274.123ZM289.925 252.996V244.696C289.925 241.771 287.825 240.621 285.25 240.621C283.275 240.621 281.725 241.271 280.425 242.621L281.3 243.921C282.375 242.746 283.55 242.246 285 242.246C286.75 242.246 288.05 243.171 288.05 244.771V246.946C287.075 245.846 285.7 245.321 284.05 245.321C282 245.321 279.85 246.571 279.85 249.296C279.85 251.921 282.025 253.296 284.05 253.296C285.675 253.296 287.075 252.721 288.05 251.621V252.996H289.925ZM284.75 251.946C282.975 251.946 281.75 250.846 281.75 249.296C281.75 247.771 282.975 246.671 284.75 246.671C286.05 246.671 287.325 247.171 288.05 248.146V250.446C287.325 251.446 286.05 251.946 284.75 251.946ZM303.733 252.996V244.521C303.733 241.896 302.408 240.621 299.908 240.621C298.083 240.621 296.433 241.646 295.583 242.671V240.921H293.708V252.996H295.583V244.171C296.308 243.196 297.683 242.296 299.158 242.296C300.783 242.296 301.883 242.946 301.883 245.096V252.996H303.733ZM310.577 253.296C311.652 253.296 312.327 252.971 312.802 252.521L312.252 251.096C312.002 251.371 311.527 251.621 310.977 251.621C310.177 251.621 309.777 250.971 309.777 250.071V242.571H312.227V240.921H309.777V237.621H307.877V240.921H305.877V242.571H307.877V250.471C307.877 252.271 308.777 253.296 310.577 253.296ZM320.326 253.296C322.276 253.296 323.901 252.621 325.126 251.421L324.226 250.196C323.251 251.196 321.876 251.746 320.476 251.746C317.876 251.746 316.301 249.846 316.151 247.571H325.901V247.096C325.901 243.471 323.751 240.621 320.101 240.621C316.651 240.621 314.151 243.446 314.151 246.946C314.151 250.721 316.726 253.296 320.326 253.296ZM324.051 246.171H316.126C316.226 244.346 317.501 242.171 320.076 242.171C322.826 242.171 324.026 244.396 324.051 246.171ZM334.412 253.296C336.363 253.296 337.988 252.621 339.213 251.421L338.313 250.196C337.338 251.196 335.963 251.746 334.563 251.746C331.963 251.746 330.388 249.846 330.238 247.571H339.988V247.096C339.988 243.471 337.838 240.621 334.188 240.621C330.737 240.621 328.238 243.446 328.238 246.946C328.238 250.721 330.813 253.296 334.412 253.296ZM338.138 246.171H330.213C330.313 244.346 331.588 242.171 334.163 242.171C336.913 242.171 338.113 244.396 338.138 246.171Z" fill="#9B9B9B"/>
<path d="M106.306 116.056C103.879 118.296 100.846 119.416 97.2058 119.416C93.5658 119.416 90.5208 118.296 88.0708 116.056C85.6441 113.793 84.4308 110.888 84.4308 107.341C84.4308 103.794 85.6441 100.901 88.0708 98.6611C90.5208 96.3978 93.5658 95.2661 97.2058 95.2661C100.846 95.2661 103.879 96.3978 106.306 98.6611C108.756 100.901 109.981 103.794 109.981 107.341C109.981 110.888 108.756 113.793 106.306 116.056ZM93.1458 111.506C94.1958 112.626 95.5491 113.186 97.2058 113.186C98.8624 113.186 100.204 112.626 101.231 111.506C102.281 110.386 102.806 108.998 102.806 107.341C102.806 105.684 102.281 104.296 101.231 103.176C100.204 102.056 98.8624 101.496 97.2058 101.496C95.5491 101.496 94.1958 102.056 93.1458 103.176C92.1191 104.296 91.6058 105.684 91.6058 107.341C91.6058 108.998 92.1191 110.386 93.1458 111.506ZM130.093 118.996H123.793V109.651C123.793 108.041 122.976 107.236 121.343 107.236C120.339 107.236 119.441 107.679 118.648 108.566V118.996H112.348V102.091H118.648V104.016C120.024 102.453 121.961 101.671 124.458 101.671C126.324 101.671 127.724 102.173 128.658 103.176C129.614 104.156 130.093 105.428 130.093 106.991V118.996ZM141.867 119.416C139.161 119.416 136.909 118.611 135.112 117.001C133.339 115.391 132.452 113.233 132.452 110.526C132.452 108.029 133.316 105.929 135.042 104.226C136.769 102.523 138.974 101.671 141.657 101.671C144.201 101.671 146.301 102.534 147.957 104.261C149.614 105.964 150.442 108.274 150.442 111.191V112.486H138.962C139.149 113.069 139.557 113.571 140.187 113.991C140.817 114.411 141.622 114.621 142.602 114.621C143.139 114.621 143.816 114.504 144.632 114.271C145.472 114.038 146.091 113.758 146.487 113.431L149.077 117.316C148.284 117.993 147.222 118.518 145.892 118.891C144.562 119.241 143.221 119.416 141.867 119.416ZM144.457 108.496C144.131 107.143 143.197 106.466 141.657 106.466C140.187 106.466 139.266 107.143 138.892 108.496H144.457ZM168.637 119.416C166.747 119.416 165.301 118.973 164.297 118.086C163.317 117.176 162.827 115.846 162.827 114.096V107.551H160.027V102.091H162.827V97.4711H169.127V102.091H172.557V107.551H169.127V112.276C169.127 112.719 169.256 113.093 169.512 113.396C169.769 113.699 170.107 113.851 170.527 113.851C171.157 113.851 171.577 113.746 171.787 113.536L172.907 118.296C172.067 119.043 170.644 119.416 168.637 119.416ZM180.531 99.8511C179.855 100.528 179.026 100.866 178.046 100.866C177.066 100.866 176.226 100.528 175.526 99.8511C174.85 99.1511 174.511 98.3111 174.511 97.3311C174.511 96.3511 174.85 95.5228 175.526 94.8461C176.226 94.1461 177.066 93.7961 178.046 93.7961C179.026 93.7961 179.855 94.1461 180.531 94.8461C181.231 95.5228 181.581 96.3511 181.581 97.3311C181.581 98.3111 181.231 99.1511 180.531 99.8511ZM181.196 118.996H174.896V102.091H181.196V118.996ZM212.601 118.996H206.301V109.126C206.301 108.566 206.138 108.111 205.811 107.761C205.508 107.411 205.029 107.236 204.376 107.236C203.419 107.236 202.556 107.679 201.786 108.566V118.996H195.486V109.126C195.486 107.866 194.844 107.236 193.561 107.236C192.628 107.236 191.776 107.679 191.006 108.566V118.996H184.706V102.091H191.006V104.016C191.449 103.456 192.184 102.931 193.211 102.441C194.238 101.928 195.369 101.671 196.606 101.671C199.126 101.671 200.748 102.663 201.471 104.646C202.008 103.829 202.801 103.129 203.851 102.546C204.924 101.963 206.103 101.671 207.386 101.671C208.996 101.671 210.268 102.091 211.201 102.931C212.134 103.771 212.601 105.043 212.601 106.746V118.996ZM224.377 119.416C221.671 119.416 219.419 118.611 217.622 117.001C215.849 115.391 214.962 113.233 214.962 110.526C214.962 108.029 215.826 105.929 217.552 104.226C219.279 102.523 221.484 101.671 224.167 101.671C226.711 101.671 228.811 102.534 230.467 104.261C232.124 105.964 232.952 108.274 232.952 111.191V112.486H221.472C221.659 113.069 222.067 113.571 222.697 113.991C223.327 114.411 224.132 114.621 225.112 114.621C225.649 114.621 226.326 114.504 227.142 114.271C227.982 114.038 228.601 113.758 228.997 113.431L231.587 117.316C230.794 117.993 229.732 118.518 228.402 118.891C227.072 119.241 225.731 119.416 224.377 119.416ZM226.967 108.496C226.641 107.143 225.707 106.466 224.167 106.466C222.697 106.466 221.776 107.143 221.402 108.496H226.967ZM93.8808 154.416C91.1508 154.416 88.8874 153.599 87.0908 151.966C85.2941 150.333 84.3958 148.186 84.3958 145.526C84.3958 142.889 85.2941 140.754 87.0908 139.121C88.8874 137.488 91.1508 136.671 93.8808 136.671C95.6308 136.671 97.1241 136.998 98.3608 137.651C99.5974 138.281 100.496 139.016 101.056 139.856L96.9958 143.671C96.3658 142.714 95.4208 142.236 94.1608 142.236C93.2274 142.236 92.4341 142.528 91.7808 143.111C91.1508 143.671 90.8358 144.476 90.8358 145.526C90.8358 146.576 91.1508 147.393 91.7808 147.976C92.4341 148.559 93.2274 148.851 94.1608 148.851C95.3741 148.851 96.3191 148.361 96.9958 147.381L101.056 151.231C100.496 152.071 99.5974 152.818 98.3608 153.471C97.1241 154.101 95.6308 154.416 93.8808 154.416ZM120.899 153.996H114.599V144.581C114.599 143.018 113.782 142.236 112.149 142.236C111.146 142.236 110.247 142.679 109.454 143.566V153.996H103.154V130.651H109.454V139.016C110.831 137.453 112.767 136.671 115.264 136.671C117.131 136.671 118.531 137.161 119.464 138.141C120.421 139.098 120.899 140.358 120.899 141.921V153.996ZM140.478 153.996H134.178V152.386C133.711 152.993 133 153.483 132.043 153.856C131.11 154.229 130.118 154.416 129.068 154.416C127.621 154.416 126.291 153.938 125.078 152.981C123.865 152.001 123.258 150.624 123.258 148.851C123.258 147.544 123.573 146.471 124.203 145.631C124.856 144.768 125.591 144.196 126.408 143.916C127.225 143.613 128.111 143.461 129.068 143.461C131.495 143.461 133.198 144.079 134.178 145.316V143.566C134.178 142.959 133.898 142.458 133.338 142.061C132.801 141.664 132.031 141.466 131.028 141.466C129.348 141.466 127.785 142.014 126.338 143.111L124.203 139.226C126.326 137.523 128.986 136.671 132.183 136.671C133.303 136.671 134.33 136.788 135.263 137.021C136.196 137.231 137.071 137.593 137.888 138.106C138.705 138.596 139.335 139.331 139.778 140.311C140.245 141.268 140.478 142.423 140.478 143.776V153.996ZM131.693 150.321C132.93 150.321 133.758 150.018 134.178 149.411V148.466C133.758 147.859 132.93 147.556 131.693 147.556C130.223 147.556 129.488 148.023 129.488 148.956C129.488 149.866 130.223 150.321 131.693 150.321ZM150.264 153.996H143.964V137.091H150.264V138.946C150.801 138.316 151.559 137.768 152.539 137.301C153.542 136.834 154.511 136.601 155.444 136.601V142.621C155.094 142.504 154.616 142.446 154.009 142.446C152.166 142.446 150.917 142.843 150.264 143.636V153.996ZM164.707 160.856C161.697 160.856 159.13 160.016 157.007 158.336L159.667 153.856C160.903 155.093 162.583 155.711 164.707 155.711C165.71 155.711 166.608 155.443 167.402 154.906C168.218 154.393 168.627 153.483 168.627 152.176V151.266C167.297 152.783 165.71 153.541 163.867 153.541C161.697 153.541 159.912 152.829 158.512 151.406C157.135 149.959 156.447 147.859 156.447 145.106C156.447 142.399 157.135 140.323 158.512 138.876C159.912 137.406 161.697 136.671 163.867 136.671C165.803 136.671 167.39 137.406 168.627 138.876V137.091H174.927V152.176C174.927 153.576 174.693 154.813 174.227 155.886C173.783 156.959 173.223 157.799 172.547 158.406C171.87 159.013 171.053 159.503 170.097 159.876C169.163 160.273 168.265 160.529 167.402 160.646C166.538 160.786 165.64 160.856 164.707 160.856ZM166.037 147.976C166.48 147.976 166.947 147.883 167.437 147.696C167.95 147.486 168.347 147.218 168.627 146.891V143.321C168.347 142.994 167.95 142.738 167.437 142.551C166.947 142.341 166.48 142.236 166.037 142.236C165.103 142.236 164.345 142.469 163.762 142.936C163.178 143.403 162.887 144.126 162.887 145.106C162.887 146.086 163.178 146.809 163.762 147.276C164.345 147.743 165.103 147.976 166.037 147.976ZM186.677 154.416C183.97 154.416 181.719 153.611 179.922 152.001C178.149 150.391 177.262 148.233 177.262 145.526C177.262 143.029 178.125 140.929 179.852 139.226C181.579 137.523 183.784 136.671 186.467 136.671C189.01 136.671 191.11 137.534 192.767 139.261C194.424 140.964 195.252 143.274 195.252 146.191V147.486H183.772C183.959 148.069 184.367 148.571 184.997 148.991C185.627 149.411 186.432 149.621 187.412 149.621C187.949 149.621 188.625 149.504 189.442 149.271C190.282 149.038 190.9 148.758 191.297 148.431L193.887 152.316C193.094 152.993 192.032 153.518 190.702 153.891C189.372 154.241 188.03 154.416 186.677 154.416ZM189.267 143.496C188.94 142.143 188.007 141.466 186.467 141.466C184.997 141.466 184.075 142.143 183.702 143.496H189.267ZM221.602 151.826C219.875 153.553 217.565 154.416 214.672 154.416C211.778 154.416 209.468 153.553 207.742 151.826C206.038 150.099 205.187 147.999 205.187 145.526C205.187 143.053 206.038 140.964 207.742 139.261C209.468 137.534 211.778 136.671 214.672 136.671C217.565 136.671 219.875 137.534 221.602 139.261C223.328 140.964 224.192 143.053 224.192 145.526C224.192 147.999 223.328 150.099 221.602 151.826ZM214.672 148.851C215.628 148.851 216.375 148.548 216.912 147.941C217.448 147.311 217.717 146.506 217.717 145.526C217.717 144.569 217.448 143.788 216.912 143.181C216.375 142.551 215.628 142.236 214.672 142.236C213.738 142.236 213.003 142.551 212.467 143.181C211.93 143.788 211.662 144.569 211.662 145.526C211.662 146.506 211.93 147.311 212.467 147.941C213.003 148.548 213.738 148.851 214.672 148.851ZM234.137 153.996H227.837V142.551H225.037V137.091H227.837V136.321C227.837 134.548 228.444 133.101 229.657 131.981C230.87 130.861 232.41 130.301 234.277 130.301C236.657 130.301 238.419 130.908 239.562 132.121L237.287 135.621C236.914 135.178 236.4 134.956 235.747 134.956C235.327 134.956 234.954 135.084 234.627 135.341C234.3 135.598 234.137 135.924 234.137 136.321V137.091H237.567V142.551H234.137V153.996Z" fill="#267594"/>
<path d="M255.871 157.496V154.276C252.418 153.949 249.571 152.759 247.331 150.706L251.006 145.456C253.106 147.463 255.615 148.466 258.531 148.466C260.258 148.466 261.121 148.046 261.121 147.206C261.121 146.809 260.666 146.506 259.756 146.296C258.87 146.086 257.785 145.864 256.501 145.631C255.241 145.398 253.97 145.059 252.686 144.616C251.426 144.173 250.341 143.391 249.431 142.271C248.545 141.151 248.101 139.739 248.101 138.036C248.101 136.169 248.778 134.524 250.131 133.101C251.508 131.654 253.421 130.768 255.871 130.441V127.116H260.351V130.476C263.221 130.873 265.671 131.899 267.701 133.556L263.921 138.561C261.891 137.021 259.605 136.251 257.061 136.251C255.871 136.251 255.276 136.601 255.276 137.301C255.276 137.674 255.72 137.978 256.606 138.211C257.493 138.444 258.566 138.689 259.826 138.946C261.11 139.203 262.393 139.553 263.676 139.996C264.96 140.439 266.045 141.198 266.931 142.271C267.818 143.344 268.261 144.686 268.261 146.296C268.261 148.536 267.561 150.344 266.161 151.721C264.785 153.098 262.848 153.949 260.351 154.276V157.496H255.871ZM287.853 153.996H280.783V150.251H269.548V144.826L278.053 130.651H287.853V144.091H290.548V150.251H287.853V153.996ZM280.783 144.091V136.741L276.373 144.091H280.783ZM300.164 154.381C297.294 154.381 294.867 153.704 292.884 152.351L295.859 146.891C297.049 147.731 298.484 148.151 300.164 148.151C301.634 148.151 302.847 147.766 303.804 146.996C304.784 146.226 305.274 145.269 305.274 144.126V144.021C304.037 145.608 302.229 146.401 299.849 146.401C297.609 146.401 295.672 145.713 294.039 144.336C292.406 142.936 291.589 141.046 291.589 138.666C291.589 136.169 292.499 134.151 294.319 132.611C296.162 131.048 298.484 130.266 301.284 130.266C304.947 130.266 307.712 131.374 309.579 133.591C311.469 135.808 312.414 138.713 312.414 142.306C312.414 146.133 311.294 149.108 309.054 151.231C306.837 153.331 303.874 154.381 300.164 154.381ZM302.019 140.416C303.396 140.416 304.492 140.101 305.309 139.471C305.239 138.608 304.912 137.896 304.329 137.336C303.746 136.776 302.871 136.496 301.704 136.496C300.864 136.496 300.164 136.683 299.604 137.056C299.044 137.429 298.764 137.873 298.764 138.386C298.764 139.063 299.091 139.576 299.744 139.926C300.421 140.253 301.179 140.416 302.019 140.416Z" fill="#FFC267"/>
<defs>
<filter id="filter0_d_31_11" x="0.800781" y="0.996094" width="473" height="360" filterUnits="userSpaceOnUse" color-interpolation-filters="sRGB">
<feFlood flood-opacity="0" result="BackgroundImageFix"/>
<feColorMatrix in="SourceAlpha" type="matrix" values="0 0 0 0 0 0 0 0 0 0 0 0 0 0 0 0 0 0 127 0" result="hardAlpha"/>
<feOffset dy="4"/>
<feGaussianBlur stdDeviation="15"/>
<feComposite in2="hardAlpha" operator="out"/>
<feColorMatrix type="matrix" values="0 0 0 0 0 0 0 0 0 0 0 0 0 0 0 0 0 0 0.12 0"/>
<feBlend mode="normal" in2="BackgroundImageFix" result="effect1_dropShadow_31_11"/>
<feBlend mode="normal" in="SourceGraphic" in2="effect1_dropShadow_31_11" result="shape"/>
</filter>
<linearGradient id="paint0_linear_31_11" x1="68.0146" y1="95.5675" x2="452.476" y2="111.011" gradientUnits="userSpaceOnUse">
<stop stop-color="white"/>
<stop offset="1" stop-color="white"/>
</linearGradient>
</defs>
</svg>
