<svg width="281" height="63" viewBox="0 0 281 63" fill="none" xmlns="http://www.w3.org/2000/svg">
<path d="M48.0823 0.156002C46.3738 0.518414 44.5186 1.27776 42.603 2.39951C41.7401 2.89999 41.6106 2.95176 41.1792 2.94313C36.2435 2.8741 35.6222 2.89999 33.2751 3.29692C28.8658 4.039 24.5341 5.8597 20.9617 8.46563C19.7795 9.32851 19.7536 9.33714 19.3049 9.40617C18.8994 9.4752 15.6808 10.3467 15.1199 10.5452C14.2743 10.8472 12.4709 11.9948 11.0126 13.1511C6.30983 16.9133 2.49586 21.7541 1.02032 25.8442C0.657905 26.8711 0.726936 27.2939 1.35685 27.8806C1.57257 28.0705 1.75377 28.3121 1.7624 28.407C1.77966 28.5019 1.73652 29.0973 1.66749 29.7272C1.58983 30.5297 1.56394 31.4789 1.59845 32.8336C1.6416 34.6284 1.67611 34.9563 1.99538 36.777C2.44409 39.2449 2.60804 39.8921 3.09988 41.1346C3.85922 43.0675 4.56679 44.2496 5.06727 44.4654C5.77484 44.7588 6.65499 44.4999 7.00014 43.8959C7.10369 43.706 7.21586 43.5507 7.25038 43.5507C7.2849 43.5507 7.58691 44.0857 7.9148 44.7329C9.15737 47.149 9.92534 48.288 11.6511 50.2812C14.0931 53.1115 16.63 54.9408 19.9521 56.2783C20.4008 56.4595 21.0652 56.8133 21.419 57.0549C25.233 59.6695 29.3749 61.2917 34.1035 62.0338C35.2253 62.2064 35.6653 62.2236 38.3317 62.2236C41.5589 62.2236 42.4218 62.146 44.8033 61.6196C52.6297 59.8766 59.3775 55.0703 63.6747 48.1844C64.9 46.2084 66.2116 43.2746 66.8588 41.0224C67.0227 40.4529 67.3075 39.7108 67.4887 39.3743C68.1704 38.1404 69.1713 35.0944 69.6114 32.9544C69.922 31.4357 69.9997 30.6764 70.0515 28.4501C70.0774 27.337 70.1119 26.3361 70.1378 26.2325C70.155 26.1203 70.3276 25.9391 70.5174 25.8183C71.0093 25.5077 71.2423 25.0158 71.1819 24.3859C71.0869 23.2987 69.6114 19.4934 68.1013 16.4128C66.5654 13.2719 63.5453 8.70723 61.017 5.68712C59.1014 3.40046 57.9365 2.22694 57.1081 1.75235C56.6767 1.50211 54.4073 0.751396 52.8282 0.345837C51.7841 0.0697136 51.5252 0.0351982 50.2827 0.00930786C49.135 -0.0165787 48.764 0.00930786 48.0823 0.156002ZM51.1456 1.47622C51.4303 1.54525 52.1206 1.68332 52.6729 1.77823C53.717 1.96807 54.6144 2.21831 55.762 2.65838C56.3574 2.89136 56.5041 2.99491 57.2117 3.71111C60.4561 7.01597 64.2874 12.7714 66.7984 18.1472C67.7217 20.1233 69.3008 23.7992 69.3612 24.1271C69.4733 24.6879 69.2921 24.895 68.5587 25.0417C68.1876 25.1194 68.1445 25.3092 68.3516 26.0082C69.0592 28.4243 68.7571 31.453 67.4542 34.9822C66.9796 36.2507 65.4868 39.2708 65.2452 39.4347C64.7965 39.754 64.3995 39.4692 64.2356 38.7013C64.0889 38.0714 63.8041 37.7521 63.4159 37.7866C63.1829 37.8039 63.088 37.8988 62.8032 38.3302C61.9231 39.6677 60.4561 40.7549 56.6249 42.9208C53.0094 44.9658 51.2319 45.5612 46.1839 46.4414C44.7343 46.6916 44.3115 46.7089 44.044 46.519C43.7247 46.3033 43.811 45.9754 44.5358 44.5258C45.3642 42.8604 45.5886 42.2477 45.8733 40.8671C46.1926 39.3053 46.2702 38.5632 46.3479 36.2766C46.4256 34.1107 46.3652 31.1596 46.1494 26.8969C45.8819 21.6937 45.9251 22.0389 45.4678 22.082L45.1916 22.1079L45.1312 23.0139C45.0967 23.5144 45.0277 25.5681 44.9759 27.5873C44.8896 31.2114 44.7947 32.756 44.4582 36.2161C44.2338 38.4855 43.9663 40.0129 43.7851 40.0129C43.7506 40.0129 43.4745 39.6246 43.1725 39.15C42.8705 38.6754 42.5512 38.2439 42.4649 38.2008C42.3614 38.1404 42.1801 38.1404 41.9472 38.1922C41.4122 38.313 41.0152 38.1576 40.7736 37.7262C40.6701 37.5364 40.5752 37.3034 40.5752 37.2085C40.5665 36.8547 40.4285 36.7857 39.4793 36.6562L38.5474 36.5182L38.5042 35.0771C38.4697 33.9036 38.4352 33.6102 38.323 33.498C38.2195 33.3945 37.9175 33.3341 37.2013 33.2823C36.0968 33.2047 35.9328 33.1615 35.8379 32.9113C35.7602 32.7042 35.7257 32.8854 36.4678 29.5374C36.7785 28.1222 37.0373 26.8452 37.0373 26.6985C37.0373 26.5518 36.7785 25.8787 36.4419 25.1798C35.1562 22.4531 35.0354 22.082 34.6644 19.9938C34.1984 17.362 34.0604 14.7992 34.2761 13.1166C34.3969 12.2019 34.906 11.1924 35.9501 9.79448C36.9769 8.42248 37.788 7.56822 38.9357 6.64493C40.1006 5.70438 41.0152 5.1435 42.8359 4.23747C43.6471 3.84054 44.415 3.43498 44.5531 3.34006C44.9932 3.02079 48.2376 1.68332 49.0315 1.48485C49.6614 1.32953 50.507 1.32953 51.1456 1.47622ZM25.6903 10.8558C26.1908 11.0716 26.6654 11.4512 26.9674 11.8568C27.4161 12.4781 30.2119 17.224 31.1697 19.0015C33.5512 23.4281 34.7334 25.8874 34.7248 26.4224C34.7161 26.802 34.4141 28.1568 33.5512 31.5997L32.999 33.8518L33.1112 34.4904C33.1802 34.8442 33.5426 36.6476 33.9137 38.4942C34.6644 42.1787 34.6644 42.1442 34.207 42.9208C33.8619 43.4989 33.7756 43.8009 33.6634 44.8019C33.6116 45.2765 33.534 45.6993 33.4908 45.7511C33.3528 45.8891 27.3384 44.5775 26.7085 44.2669C26.3893 44.1116 25.8629 43.4472 23.1017 39.7022C22.2301 38.5201 21.885 38.2612 18.9857 36.6044L16.7163 35.3101L15.9828 35.267C15.2839 35.2238 15.2494 35.2152 15.0768 34.9563C14.9732 34.8096 14.7057 34.1625 14.4814 33.5326C13.6703 31.3063 13.6271 31.2373 12.7988 31.3322C12.2551 31.3926 12.1516 31.3495 12.0222 31.0216C11.91 30.7368 11.3577 27.4233 11.2714 26.5777C11.2283 26.129 11.1679 25.9132 11.0471 25.8097C10.8918 25.663 10.8745 25.663 10.7192 25.827C10.4862 26.0599 10.374 26.8452 10.3136 28.6227C10.2532 30.5383 10.374 31.8586 10.7623 33.4549C11.0039 34.4645 11.1075 34.7406 11.2887 34.8959C11.4095 35.0081 11.5735 35.0944 11.6597 35.0944C11.9272 35.0944 12.2724 34.7492 12.4967 34.2488C12.6089 33.9899 12.7297 33.7914 12.7556 33.8173C12.7729 33.8432 12.8764 34.1538 12.9713 34.499C13.1525 35.1548 14.3261 37.6831 14.5763 37.9592C14.6626 38.0541 14.8352 38.1145 15.0164 38.1145C15.2666 38.1145 15.3874 38.0368 15.8102 37.5968C16.1123 37.2775 16.3797 37.079 16.4919 37.079C16.7335 37.079 18.1055 37.6227 19.2963 38.2008C20.5475 38.7962 20.7891 39.0637 23.2311 42.5152C25.2244 45.3369 25.4315 45.6044 25.8629 45.9237C26.139 46.1307 26.1218 45.9064 26.2081 50.2381C26.2771 53.5171 26.3375 54.0607 26.7689 55.1307C27.0623 55.8469 27.0882 56.0799 26.8897 56.2697C26.5964 56.5717 25.2761 56.3128 22.8773 55.4931C19.8658 54.4663 18.1487 53.6379 16.4143 52.3694C14.5504 51.0061 13.6012 49.9016 11.5217 46.683C10.0634 44.4222 8.97616 42.6706 8.47568 41.7386C8.08738 41.0138 7.92343 40.7981 7.6732 40.66L7.36256 40.4874L7.12095 40.6687C6.99151 40.7722 6.79305 41.057 6.69813 41.3072C6.46515 41.8853 6.28394 42.0838 6.02508 42.0838C5.63678 42.0838 5.38654 41.7386 4.86018 40.4702C4.08358 38.6236 3.84197 37.8988 3.36738 35.9141C2.72021 33.196 2.6857 31.6515 3.21206 29.2354C3.53996 27.7426 3.51407 27.5614 2.96182 27.2507C2.4182 26.9487 2.37506 26.7848 2.65981 26.0686C3.69528 23.454 6.01645 20.0111 8.45843 17.4742C10.0979 15.7743 11.6943 14.4713 14.0413 12.9181C15.9138 11.6842 16.1209 11.5979 18.3126 11.1492C20.3577 10.735 24.9914 10.5452 25.6903 10.8558Z" fill="#596F76"/>
<path d="M62.5788 21.2371C62.4839 21.3579 62.4839 21.5822 62.5788 22.6263C62.7514 24.4643 62.5184 27.7778 62.1905 28.097C62.0956 28.1919 61.9057 28.2178 61.4657 28.2092C60.7322 28.1833 60.6891 28.2265 60.4302 29.3137C60.0505 30.9014 59.6536 32.1181 59.4638 32.2648C59.343 32.3683 59.1272 32.4201 58.8252 32.4201C58.4542 32.4201 58.2902 32.4719 57.8674 32.748C57.1426 33.2226 56.5731 33.7144 56.1416 34.2494C55.7361 34.7326 55.1234 35.8199 55.1752 35.9579C55.1925 36.0097 55.3478 35.9493 55.529 35.8285C56.2883 35.3022 58.0918 34.4047 58.3593 34.4047C58.5664 34.4047 58.7821 34.5169 59.1359 34.793C59.6709 35.2159 60.0505 35.2935 60.3871 35.0519C60.4906 34.9829 60.7149 34.5946 60.8875 34.1804C61.1637 33.5419 61.2931 33.0673 61.6986 31.2207C61.7936 30.7806 61.9403 30.8065 62.2423 31.2897C62.6219 31.9196 63.1569 31.9887 63.5366 31.4709C64.0026 30.8496 64.0975 26.7164 63.7092 24.5247C63.4676 23.1613 63.0189 21.4959 62.8463 21.2716C62.7082 21.1163 62.691 21.1076 62.5788 21.2371Z" fill="#596F76"/>
<path d="M42.9656 24.5589C42.7498 24.93 41.8524 25.7238 41.421 25.9309C40.9205 26.1725 40.1094 26.3796 39.6434 26.3796C39.4363 26.3796 39.1947 26.4228 39.0912 26.4746C38.9272 26.5608 37.9004 28.5369 37.9004 28.7698C37.9004 28.8302 38.1593 28.7526 38.5476 28.5714C38.9013 28.4074 39.5485 28.2003 39.9972 28.114C41.1794 27.8638 41.7144 27.6395 42.258 27.1476C42.8016 26.6471 43.1295 26.0345 43.2503 25.2924C43.3366 24.7919 43.2934 24.3087 43.1726 24.3087C43.1381 24.3087 43.0518 24.4209 42.9656 24.5589Z" fill="#596F76"/>
<path d="M19.4603 15.6101C19.3999 15.6791 19.1583 16.4384 18.9167 17.3013C18.6837 18.1556 18.4075 19.0616 18.3126 19.2946C17.8294 20.5372 17.0873 21.6934 16.095 22.7634C15.1631 23.773 14.5245 24.61 14.4641 24.8861C14.3261 25.5937 16.4574 28.7519 18.0192 30.1584C19.3654 31.3578 20.2714 31.8842 21.1429 31.9618C21.9972 32.0308 23.4209 31.4959 24.7843 30.5812C25.9147 29.8218 26.7862 29.1056 27.5973 28.26C28.6242 27.1814 29.2109 26.3013 29.4871 25.4039C29.7373 24.6359 29.8667 23.704 29.7287 23.704C29.6855 23.704 29.349 24.144 28.9952 24.679C28.0892 26.0165 27.4334 26.7068 26.1218 27.6733C24.0595 29.2006 23.0499 29.8046 21.9454 30.1843C21.2465 30.4259 20.979 30.4 20.4957 30.0376C18.1142 28.2341 16.4143 26.2063 16.4143 25.1536C16.4143 24.61 16.699 24.1009 17.7518 22.7548C18.7527 21.4691 19.2532 20.5717 19.5379 19.5189C19.6933 18.9322 19.7191 18.6129 19.7105 17.4049C19.7019 15.8689 19.6329 15.403 19.4603 15.6101Z" fill="#596F76"/>
<path d="M30.3673 27.3115C30.1171 27.5876 29.7115 28.5541 29.6597 29.0114C29.5303 30.021 29.9531 31.0219 30.9195 31.9797C31.3251 32.3939 31.6961 32.8685 31.9119 33.2568C32.0931 33.602 32.2915 33.8867 32.3347 33.8867C32.421 33.8867 32.723 31.9797 32.723 31.4793C32.723 31.3412 32.5159 31.091 32.0499 30.6423C31.6789 30.2971 31.2733 29.8225 31.1439 29.5895C30.8505 29.0545 30.6521 28.2866 30.6521 27.6998C30.6521 27.1993 30.5658 27.0871 30.3673 27.3115Z" fill="#596F76"/>
<path d="M141.749 12.1415C141.784 12.1933 141.646 12.2278 141.404 12.2278C141.188 12.2278 140.947 12.2623 140.86 12.3054C140.783 12.3572 140.489 12.4953 140.213 12.6247C139.488 12.9612 138.427 14.0916 138.427 14.5231C138.427 14.5921 138.367 14.6439 138.297 14.6439C138.203 14.6439 138.168 14.7474 138.168 15.0408C138.168 15.2738 138.134 15.4118 138.082 15.3773C138.03 15.3428 137.995 15.5758 137.995 16.0245C137.995 16.4732 138.03 16.7062 138.082 16.6717C138.134 16.6371 138.168 16.8011 138.168 17.0945C138.168 17.4655 138.194 17.5777 138.297 17.5777C138.367 17.5777 138.427 17.6467 138.427 17.7416C138.427 17.8279 138.487 17.9487 138.556 18.0091C138.625 18.0695 138.66 18.1472 138.634 18.1904C138.608 18.2335 138.651 18.268 138.72 18.268C138.798 18.268 138.858 18.3112 138.858 18.3716C138.858 18.5096 139.79 19.3898 139.937 19.3898C140.006 19.3898 140.066 19.4243 140.066 19.4674C140.066 19.5106 140.161 19.571 140.282 19.5969C140.403 19.6314 140.481 19.6918 140.455 19.7349C140.42 19.7867 140.55 19.8212 140.757 19.8212C140.955 19.8212 141.093 19.8557 141.067 19.8989C140.99 20.0283 141.361 20.0801 142.379 20.0801C143.164 20.0801 143.363 20.0542 143.397 19.9506C143.432 19.873 143.561 19.8212 143.751 19.8212C143.915 19.8212 144.027 19.7867 144.001 19.7436C143.975 19.7004 144.044 19.64 144.165 19.6141C144.286 19.5796 144.381 19.5192 144.381 19.4761C144.381 19.4243 144.484 19.3898 144.605 19.3898C144.726 19.3898 144.804 19.3553 144.769 19.3035C144.717 19.2258 144.838 19.1827 145.011 19.2086C145.045 19.2086 145.071 19.1654 145.071 19.0964C145.071 19.036 145.166 18.9065 145.287 18.8203C145.408 18.734 145.503 18.6045 145.503 18.5441C145.503 18.4837 145.563 18.4147 145.632 18.3888C145.701 18.3543 145.761 18.3025 145.761 18.2508C145.761 18.2076 145.822 18.1127 145.891 18.0437C145.96 17.966 146.02 17.8366 146.02 17.7416C146.02 17.6554 146.055 17.5777 146.098 17.5777C146.133 17.5777 146.193 17.4137 146.219 17.2153C146.245 17.0082 146.314 16.8356 146.357 16.8184C146.512 16.7666 146.478 15.4377 146.322 15.2824C146.253 15.2048 146.193 14.9977 146.193 14.8078C146.193 14.618 146.158 14.4799 146.115 14.5058C146.072 14.5317 146.02 14.4368 145.986 14.2901C145.96 14.1434 145.9 14.0485 145.848 14.083C145.805 14.1089 145.761 14.0571 145.761 13.9622C145.761 13.8586 145.701 13.781 145.632 13.781C145.563 13.781 145.503 13.7551 145.503 13.712C145.503 13.5394 144.614 12.7628 144.269 12.6333C144.174 12.5988 144.139 12.5298 144.174 12.478C144.208 12.4176 144.2 12.4004 144.139 12.4349C144.027 12.5039 143.578 12.34 143.63 12.2537C143.656 12.2105 143.458 12.2019 143.199 12.2105C142.862 12.2364 142.741 12.2192 142.776 12.1501C142.819 12.0811 142.664 12.0552 142.267 12.0552C141.904 12.0552 141.715 12.0897 141.749 12.1415Z" fill="#596F76"/>
<path d="M173.59 12.1415C173.624 12.1933 173.478 12.2278 173.227 12.2278C172.994 12.2278 172.77 12.2623 172.718 12.3141C172.675 12.3572 172.528 12.409 172.399 12.4176C172.278 12.4262 172.149 12.4867 172.132 12.5471C172.106 12.6075 172.045 12.6592 171.993 12.6592C171.778 12.6592 170.699 13.6084 170.587 13.9018C170.552 13.9881 170.483 14.0226 170.432 13.9881C170.371 13.9536 170.354 13.9622 170.38 14.0226C170.466 14.1434 170.363 14.385 170.225 14.385C170.164 14.385 170.112 14.4368 170.121 14.4886C170.13 14.7733 170.086 14.9114 170.009 14.8596C169.914 14.7992 169.905 14.8251 169.905 16.0676C169.905 17.3188 169.905 17.3188 170.035 17.3016C170.086 17.2843 170.138 17.3533 170.138 17.4483C170.138 17.5432 170.19 17.6554 170.25 17.6899C170.302 17.7244 170.354 17.8193 170.354 17.8883C170.354 17.966 170.458 18.1386 170.596 18.2853C171.225 18.9928 171.657 19.3898 171.778 19.3898C171.847 19.3898 171.907 19.4243 171.907 19.4761C171.907 19.5192 172.002 19.5796 172.123 19.6141C172.244 19.64 172.313 19.7004 172.287 19.7436C172.261 19.7867 172.399 19.8212 172.58 19.8212C172.805 19.8212 172.943 19.8644 172.977 19.9506C173.012 20.0542 173.219 20.0801 174.056 20.0801C174.858 20.0801 175.117 20.0542 175.221 19.9506C175.29 19.8816 175.488 19.8212 175.661 19.8212C175.833 19.8212 175.954 19.7867 175.92 19.7436C175.894 19.6918 176.023 19.5882 176.196 19.5106C176.377 19.4243 176.558 19.3035 176.593 19.2431C176.627 19.1827 176.722 19.1309 176.791 19.1309C176.86 19.1309 176.895 19.0878 176.869 19.0446C176.843 18.9928 176.877 18.9583 176.946 18.9583C177.024 18.9583 177.085 18.8979 177.085 18.8289C177.085 18.7599 177.145 18.6995 177.214 18.6995C177.283 18.6995 177.335 18.6736 177.317 18.6304C177.309 18.5959 177.404 18.4492 177.542 18.3112C177.671 18.1731 177.775 17.9919 177.775 17.9142C177.775 17.8366 177.835 17.7416 177.904 17.7158C177.982 17.6899 178.034 17.6208 178.025 17.5604C177.999 17.3447 178.034 17.2239 178.111 17.2671C178.241 17.3533 178.267 17.1376 178.249 16.0331C178.241 15.2997 178.206 14.9459 178.137 14.92C178.077 14.9027 178.034 14.7733 178.034 14.6352C178.034 14.4713 177.991 14.385 177.904 14.385C177.792 14.385 177.732 14.2211 177.766 14.014C177.775 13.9708 177.74 13.9622 177.689 13.9967C177.637 14.0226 177.568 13.9795 177.533 13.8845C177.464 13.6947 176.946 13.0907 176.86 13.0907C176.826 13.0907 176.679 13.0044 176.532 12.8922C176.386 12.78 176.084 12.5988 175.851 12.4953C175.626 12.3831 175.462 12.2709 175.48 12.245C175.497 12.2105 175.298 12.2019 175.039 12.2105C174.703 12.2364 174.582 12.2192 174.617 12.1501C174.66 12.0811 174.504 12.0552 174.108 12.0552C173.745 12.0552 173.555 12.0897 173.59 12.1415Z" fill="#596F76"/>
<path d="M93.0819 13.3159C92.7022 13.3418 92.3139 13.3849 92.219 13.4281C92.1241 13.4712 91.8566 13.5316 91.615 13.5489C91.382 13.5747 91.1749 13.6352 91.1576 13.6869C91.1404 13.7387 91.0023 13.7818 90.847 13.7818C90.6917 13.7818 90.4932 13.8422 90.3983 13.9113C90.312 13.9803 90.1653 14.0407 90.079 14.0407C90.0014 14.0407 89.8633 14.0752 89.777 14.1184C89.6994 14.1615 89.3801 14.3255 89.0695 14.4722C88.4395 14.7742 88.2842 14.8605 87.8873 15.1366C87.7406 15.2488 87.5767 15.335 87.5249 15.335C87.4731 15.335 87.43 15.3696 87.43 15.4213C87.43 15.4645 87.3954 15.5076 87.3437 15.5076C87.2574 15.5076 87.0244 15.7061 86.2564 16.4309C85.9976 16.6812 85.7473 16.8882 85.6956 16.8882C85.6438 16.8882 85.6265 16.9228 85.6524 16.9573C85.6783 17.0004 85.6352 17.1126 85.5489 17.1989C85.2641 17.5095 84.9276 18.0014 84.9276 18.0877C84.9276 18.1394 84.8931 18.1826 84.8499 18.1826C84.8068 18.1826 84.7464 18.2775 84.7205 18.3983C84.686 18.5191 84.6256 18.5968 84.5824 18.5709C84.5307 18.545 84.4961 18.614 84.4961 18.7435C84.4961 18.8643 84.4357 18.9851 84.3667 19.011C84.2977 19.0455 84.2373 19.1663 84.2373 19.3043C84.2373 19.4424 84.1769 19.5632 84.1078 19.5977C84.0302 19.6236 83.9784 19.7617 83.9784 19.9515C83.9784 20.1154 83.9439 20.2535 83.8921 20.2535C83.849 20.2535 83.8058 20.452 83.8058 20.685C83.8058 20.9956 83.7713 21.1337 83.6764 21.1768C83.5642 21.2199 83.547 21.4702 83.547 22.9371C83.5556 24.1969 83.5901 24.6456 83.6591 24.6284C83.7282 24.6197 83.7713 24.7837 83.7886 25.1116C83.8058 25.3963 83.849 25.5862 83.9007 25.5603C83.9439 25.5258 83.9784 25.6466 83.9784 25.8191C83.9784 26.009 84.0302 26.147 84.1078 26.1729C84.1769 26.2074 84.2373 26.3283 84.2373 26.4663C84.2373 26.6044 84.2977 26.7252 84.3667 26.7597C84.4357 26.7856 84.4961 26.8891 84.4961 26.9841C84.4961 27.079 84.5307 27.1566 84.5738 27.1566C84.6169 27.1566 84.6687 27.2257 84.7032 27.3033C84.7723 27.519 84.919 27.7434 85.29 28.1748C85.4712 28.3819 85.6006 28.5804 85.592 28.6149C85.5834 28.6408 85.6006 28.6667 85.6265 28.6667C85.7128 28.6667 86.2219 29.2103 86.2219 29.3139C86.2219 29.3656 86.2651 29.3829 86.3082 29.357C86.36 29.3311 86.4204 29.3656 86.4463 29.4347C86.4722 29.5123 86.5326 29.5727 86.5757 29.5727C86.6447 29.5727 86.9467 29.8057 87.2574 30.0905C87.3264 30.1681 87.5335 30.2975 87.7147 30.3752C87.8959 30.4615 88.0167 30.565 87.9908 30.6168C87.9563 30.66 88.034 30.6945 88.1548 30.6945C88.2929 30.6945 88.3791 30.7462 88.3791 30.8239C88.3791 30.9016 88.4568 30.9533 88.5949 30.9533C88.7243 30.9533 88.802 30.9965 88.7933 31.0569C88.7761 31.1259 88.871 31.1777 89.0091 31.195C89.1471 31.2122 89.2248 31.264 89.1903 31.3158C89.1471 31.3762 89.2075 31.3934 89.3628 31.3503C89.5527 31.3071 89.6131 31.3244 89.6476 31.4538C89.6735 31.5746 89.7425 31.6091 89.8978 31.5746C90.0359 31.5487 90.1222 31.5833 90.1567 31.6782C90.1912 31.7645 90.312 31.8162 90.5018 31.8162C90.6831 31.8162 90.7866 31.8594 90.778 31.9198C90.7521 32.032 90.8039 32.0492 91.2353 32.0665C91.382 32.0665 91.4769 32.1096 91.4424 32.1614C91.4079 32.2132 91.5114 32.2477 91.7013 32.2477C91.8911 32.2477 92.0292 32.2994 92.055 32.3771C92.0896 32.4634 92.2276 32.5065 92.4779 32.5065C92.685 32.5065 92.8834 32.5411 92.9093 32.5928C92.9352 32.636 93.0905 32.6791 93.2545 32.6791C93.4098 32.6791 93.5996 32.7395 93.6773 32.8086C93.7463 32.8776 93.9534 32.938 94.1519 32.938C94.3503 32.938 94.5057 32.9725 94.5057 33.0243C94.5057 33.0674 94.6351 33.1106 94.799 33.1106C95.1615 33.1106 95.3858 33.1882 95.3168 33.2918C95.2909 33.3349 95.4462 33.3694 95.6619 33.3694C95.9381 33.3694 96.0502 33.4039 96.0416 33.473C96.0243 33.5506 96.1451 33.5938 96.3868 33.611C96.5852 33.6283 96.7492 33.6714 96.7492 33.7232C96.7492 33.7664 96.87 33.8009 97.008 33.8009C97.1547 33.8009 97.2928 33.8526 97.3187 33.9217C97.3446 33.9907 97.4136 34.0339 97.4826 34.008C97.543 33.9821 97.6466 34.0252 97.7242 34.0943C97.8019 34.1719 97.9227 34.2323 97.9917 34.2323C98.0694 34.2323 98.1298 34.2755 98.1298 34.3186C98.1298 34.3704 98.1988 34.4394 98.2851 34.4653C98.5008 34.5516 99.0272 35.0952 99.1739 35.3972C99.3378 35.7337 99.3724 37.4336 99.2257 37.8565C99.1653 38.0204 99.0186 38.262 98.8891 38.3914C98.7511 38.5209 98.6475 38.6676 98.6475 38.7193C98.6475 38.7625 98.5958 38.8056 98.5267 38.8056C98.4577 38.8056 98.3887 38.866 98.3541 38.9351C98.3283 39.0041 98.2506 39.0645 98.1816 39.0645C98.1125 39.0645 98.0435 39.1076 98.0262 39.1594C98.009 39.2112 97.8796 39.263 97.7415 39.263C97.5948 39.263 97.5344 39.2802 97.5948 39.2975C97.776 39.3665 97.6207 39.4959 97.3532 39.4959C97.2151 39.4959 97.0943 39.5563 97.0598 39.634C97.0167 39.7462 96.9131 39.7721 96.5248 39.7376C96.266 39.7117 96.0934 39.7203 96.1451 39.7548C96.2055 39.798 96.171 39.8411 96.0416 39.867C95.7827 39.9446 94.264 39.9446 93.9966 39.867C93.7981 39.8152 93.7981 39.8066 93.9534 39.7462C94.0397 39.7117 93.8757 39.7117 93.5824 39.7289C93.125 39.7721 93.0387 39.7548 93.0387 39.6426C93.0387 39.5563 92.9438 39.4959 92.7626 39.4787C92.5987 39.4614 92.4865 39.4097 92.4951 39.3493C92.5124 39.2889 92.4692 39.263 92.4002 39.2889C92.3398 39.3147 92.2276 39.2716 92.15 39.2026C92.0723 39.1249 91.986 39.0645 91.9515 39.0645C91.8393 39.0645 90.9678 38.1153 90.9678 37.9945C90.9678 37.9341 90.9074 37.8306 90.8297 37.7615C90.7435 37.6925 90.7089 37.5631 90.7262 37.4164C90.7521 37.2783 90.7262 37.1834 90.6744 37.192C90.6227 37.2007 90.5709 37.0281 90.5536 36.7778C90.5364 36.5449 90.4846 36.3033 90.4328 36.2429C90.3638 36.1566 89.5699 36.1307 86.8001 36.1307H83.2622L83.3226 37.356C83.3658 38.0808 83.4262 38.6158 83.4779 38.6503C83.5297 38.6762 83.5728 38.8574 83.5642 39.0472C83.5556 39.2802 83.5901 39.4097 83.6764 39.4442C83.7541 39.4701 83.8058 39.5995 83.8058 39.7548C83.8058 39.8929 83.849 40.0137 83.8921 40.0137C83.9439 40.0137 83.9784 40.1086 83.9784 40.2208C83.9784 40.3329 84.0388 40.471 84.1078 40.5314C84.1769 40.5918 84.2373 40.7299 84.2373 40.8507C84.2373 40.9801 84.2718 41.0405 84.3322 41.006C84.384 40.9715 84.4444 41.0233 84.4703 41.1268C84.4961 41.2304 84.5479 41.308 84.5911 41.308C84.6342 41.308 84.6687 41.3598 84.6687 41.4202C84.6687 41.4892 84.7464 41.6273 84.8413 41.7395C84.9362 41.843 84.988 41.9638 84.9621 42.007C84.9362 42.0501 84.9794 42.0587 85.057 42.0328C85.1519 41.9897 85.1778 42.0156 85.1347 42.1191C85.1002 42.214 85.126 42.2572 85.221 42.2572C85.2986 42.2572 85.359 42.3003 85.359 42.3521C85.359 42.4039 85.5316 42.6196 85.7473 42.844C85.9631 43.0597 86.1356 43.2754 86.1356 43.3185C86.1356 43.3531 86.1788 43.3617 86.2219 43.3358C86.2737 43.3099 86.3341 43.3444 86.36 43.4135C86.3859 43.4911 86.4635 43.5515 86.5326 43.5515C86.6016 43.5515 86.6534 43.6119 86.6534 43.681C86.6534 43.75 86.7138 43.8104 86.7828 43.8104C86.8518 43.8104 86.9122 43.8449 86.9122 43.8881C86.9122 43.9312 86.9899 44.0002 87.0848 44.0261C87.1797 44.0606 87.2401 44.121 87.2142 44.1642C87.1797 44.2073 87.2229 44.2418 87.3005 44.2418C87.4904 44.2418 87.87 44.5007 87.8096 44.5956C87.7837 44.6388 87.8614 44.6733 87.9908 44.6733C88.1116 44.6733 88.2324 44.7337 88.2583 44.8027C88.2929 44.8717 88.3878 44.9322 88.4741 44.9322C88.5603 44.9322 88.638 44.9667 88.638 45.0098C88.638 45.053 88.7416 45.1047 88.8796 45.122C89.0091 45.1392 89.104 45.191 89.0953 45.26C89.0781 45.3291 89.173 45.3636 89.3628 45.3636C89.544 45.3636 89.6735 45.4154 89.708 45.493C89.7339 45.5707 89.8633 45.6225 90.0186 45.6225C90.174 45.6225 90.2689 45.657 90.2344 45.7088C90.1998 45.7605 90.3465 45.795 90.614 45.795C90.9678 45.795 91.0368 45.8209 91.0023 45.9245C90.9592 46.028 91.0023 46.0453 91.218 46.0021C91.5287 45.9331 92.1155 46.028 92.0464 46.1402C92.0205 46.1747 92.4175 46.2265 92.9266 46.2437C93.5651 46.261 93.8585 46.3041 93.8844 46.3732C93.9103 46.4595 94.2209 46.4854 95.032 46.4854C95.6706 46.4854 96.1365 46.4508 96.1106 46.4077C96.0243 46.2783 96.3005 46.2265 97.1461 46.2265C97.6466 46.2265 97.9486 46.192 97.9141 46.1488C97.845 46.028 98.4059 45.9417 98.7338 46.0108C98.9323 46.0539 98.9927 46.0366 98.9754 45.9504C98.9582 45.8727 99.0703 45.8296 99.3637 45.8123C99.5881 45.795 99.752 45.7519 99.7261 45.7001C99.6916 45.657 99.8124 45.6225 99.985 45.6225C100.175 45.6225 100.313 45.5707 100.339 45.493C100.373 45.4154 100.503 45.3636 100.684 45.3636C100.874 45.3636 100.969 45.3291 100.951 45.2514C100.943 45.191 101.029 45.1479 101.176 45.1479C101.305 45.1565 101.409 45.1047 101.409 45.0443C101.409 44.9408 101.521 44.8976 101.694 44.9235C101.728 44.9322 101.78 44.8717 101.806 44.8027C101.84 44.7337 101.952 44.6733 102.073 44.6733C102.185 44.6733 102.263 44.6388 102.237 44.5956C102.168 44.4921 102.565 44.2418 102.789 44.2418C102.893 44.2418 102.953 44.2073 102.927 44.1728C102.876 44.0951 103.178 43.8104 103.307 43.8104C103.359 43.8104 103.393 43.75 103.393 43.681C103.393 43.6119 103.428 43.5515 103.48 43.5515C103.523 43.5515 103.739 43.3703 103.963 43.1373C104.187 42.913 104.403 42.7404 104.446 42.749C104.481 42.7663 104.515 42.7145 104.515 42.6455C104.515 42.5333 104.593 42.4211 104.99 41.9638C105.042 41.9034 105.119 41.7826 105.18 41.6963C105.231 41.6014 105.318 41.5324 105.369 41.541C105.421 41.5583 105.438 41.5065 105.404 41.4288C105.369 41.3425 105.413 41.2562 105.49 41.2045C105.577 41.1613 105.637 41.0491 105.637 40.9629C105.637 40.8679 105.68 40.7903 105.723 40.7903C105.775 40.7903 105.81 40.7126 105.81 40.6177C105.81 40.5228 105.87 40.4192 105.939 40.3934C106.008 40.3588 106.068 40.2467 106.068 40.1431C106.068 40.0309 106.094 39.8756 106.12 39.798C106.163 39.6858 106.189 39.6772 106.25 39.7721C106.293 39.8325 106.301 39.7462 106.275 39.565C106.232 39.3493 106.267 39.1939 106.362 39.0559C106.439 38.9351 106.5 38.6848 106.5 38.4519C106.5 37.9945 106.577 37.7098 106.664 37.8478C106.698 37.8996 106.724 37.3128 106.724 36.5449C106.724 35.7769 106.707 35.2246 106.672 35.3109C106.621 35.4576 106.612 35.449 106.56 35.2592C106.526 35.147 106.5 34.8881 106.5 34.681C106.5 34.4826 106.439 34.2151 106.362 34.1029C106.267 33.9648 106.241 33.7922 106.267 33.6369C106.301 33.4643 106.284 33.3694 106.198 33.3349C106.129 33.309 106.068 33.2314 106.068 33.1537C106.068 33.0847 105.973 32.8776 105.861 32.6964C105.758 32.5238 105.637 32.2908 105.602 32.1786C105.568 32.0751 105.499 31.9888 105.456 31.9888C105.413 31.9888 105.378 31.9284 105.378 31.8594C105.378 31.7903 105.335 31.7299 105.283 31.7299C105.24 31.7299 105.223 31.6868 105.249 31.6437C105.275 31.5919 105.257 31.5574 105.214 31.5574C105.162 31.5574 105.119 31.5228 105.119 31.4797C105.119 31.3934 103.54 29.7453 103.454 29.7453C103.428 29.7453 103.298 29.6504 103.169 29.5296C103.04 29.4088 102.884 29.3139 102.833 29.3139C102.772 29.3139 102.703 29.2534 102.669 29.1844C102.643 29.1154 102.565 29.055 102.487 29.055C102.418 29.055 102.358 29.0118 102.358 28.9687C102.358 28.9169 102.306 28.8824 102.237 28.8824C102.177 28.8824 102.073 28.822 102.013 28.753C101.952 28.6839 101.832 28.6235 101.745 28.6235C101.65 28.6235 101.581 28.5804 101.581 28.5373C101.581 28.4855 101.512 28.451 101.417 28.451C101.331 28.451 101.21 28.3906 101.15 28.3215C101.09 28.2525 100.986 28.1921 100.917 28.1921C100.848 28.1921 100.736 28.1317 100.667 28.0627C100.589 27.9936 100.46 27.9332 100.373 27.9332C100.287 27.9332 100.183 27.8901 100.158 27.8469C100.132 27.7952 100.028 27.7607 99.9332 27.7607C99.8383 27.7607 99.7002 27.7002 99.6312 27.6312C99.5536 27.5622 99.4069 27.5018 99.2947 27.5018C99.1825 27.5018 99.0617 27.4586 99.0358 27.4155C99.0099 27.3637 98.8719 27.3292 98.7424 27.3292C98.6044 27.3292 98.4491 27.2688 98.3887 27.1998C98.3283 27.1307 98.1643 27.0703 98.0262 27.0703C97.8882 27.0703 97.7587 27.0186 97.7329 26.9582C97.707 26.8891 97.5862 26.8632 97.4136 26.8805C97.2238 26.8978 97.0857 26.8632 97.0167 26.777C96.9476 26.6993 96.7664 26.6389 96.6025 26.6389C96.3868 26.6389 96.3091 26.6044 96.3436 26.5267C96.3781 26.4404 96.2918 26.4059 96.033 26.3973C95.8345 26.3887 95.636 26.3369 95.5929 26.2937C95.5411 26.242 95.4117 26.2074 95.2909 26.2074C95.0234 26.2074 94.7214 26.0435 94.9371 26.0262C95.0061 26.0176 94.8767 25.9831 94.6351 25.9572C94.3676 25.9227 94.2123 25.8623 94.2209 25.8019C94.2382 25.7329 94.1519 25.7156 93.9448 25.7501C93.7377 25.7846 93.591 25.7587 93.4874 25.6638C93.4098 25.5948 93.2458 25.5171 93.125 25.4999C93.0042 25.4826 92.9179 25.4222 92.9352 25.3618C92.9438 25.2928 92.8834 25.2755 92.7454 25.31C92.6073 25.3446 92.5124 25.3187 92.4606 25.2324C92.4261 25.1634 92.3139 25.0857 92.219 25.0684C92.1241 25.0512 92.055 24.9821 92.0637 24.9304C92.0809 24.87 92.0292 24.8268 91.9601 24.8268C91.8134 24.8268 91.3993 24.4817 91.5373 24.4817C91.5805 24.473 91.5201 24.4213 91.3993 24.3522C91.2698 24.2918 91.0714 24.0243 90.9419 23.7741C90.7607 23.4117 90.7089 23.196 90.7089 22.73C90.7089 22.3158 90.7521 22.1001 90.8384 22.0138C90.9074 21.9361 90.9678 21.8067 90.9678 21.7118C90.9678 21.6255 91.011 21.5478 91.0541 21.5478C91.1059 21.5478 91.1404 21.4874 91.1404 21.4098C91.1404 21.2545 91.6754 20.685 91.8307 20.685C91.8825 20.685 91.8997 20.6418 91.8738 20.5987C91.848 20.5469 91.8997 20.5124 92.0033 20.5124C92.0982 20.5124 92.2017 20.452 92.2276 20.3829C92.2621 20.3139 92.3743 20.2535 92.4951 20.2535C92.6073 20.2535 92.6763 20.219 92.6504 20.1672C92.6159 20.1154 92.7022 20.0809 92.8403 20.0723C93.22 20.0637 93.4184 20.0119 93.4529 19.917C93.4702 19.8566 93.9189 19.8221 94.6955 19.8221C95.6274 19.8221 95.8949 19.848 95.8604 19.9256C95.8345 20.0033 95.9467 20.0464 96.2228 20.0637C96.4385 20.0809 96.637 20.1241 96.6456 20.1759C96.6629 20.219 96.7492 20.2535 96.8441 20.2535C96.939 20.2535 97.0339 20.3139 97.0598 20.3829C97.0943 20.452 97.1634 20.5124 97.2324 20.5124C97.3014 20.5124 97.3532 20.5469 97.3532 20.5987C97.3532 20.6418 97.4136 20.685 97.4826 20.685C97.5517 20.685 97.6121 20.7454 97.6121 20.8144C97.6121 20.8834 97.6638 20.9438 97.7242 20.9438C97.845 20.9438 98.2161 21.6082 98.2161 21.824C98.2161 21.9016 98.2506 21.9793 98.3024 21.9965C98.3455 22.0052 98.3973 22.3244 98.4059 22.6869L98.4318 23.3599H102.039H105.637V22.2036C105.637 21.289 105.611 21.0301 105.507 20.9438C105.438 20.8834 105.378 20.6936 105.378 20.521C105.378 20.3398 105.318 20.1241 105.249 20.0292C105.18 19.9429 105.119 19.7876 105.119 19.684C105.119 19.5891 105.059 19.382 104.981 19.2353C104.912 19.08 104.878 18.916 104.912 18.8643C104.947 18.8039 104.938 18.7866 104.878 18.8211C104.765 18.8901 104.653 18.5709 104.74 18.4242C104.783 18.3552 104.757 18.3465 104.662 18.381C104.558 18.4242 104.515 18.3897 104.515 18.2689C104.515 18.1826 104.455 18.0531 104.386 17.9755C104.317 17.9065 104.256 17.8288 104.256 17.7943C104.256 17.7598 104.205 17.6821 104.153 17.6217C104.092 17.5527 103.903 17.3283 103.739 17.1299C103.316 16.6121 102.453 15.7665 102.358 15.7665C102.306 15.7665 102.272 15.7061 102.272 15.6371C102.272 15.568 102.229 15.5076 102.168 15.5076C102.116 15.5076 101.944 15.4127 101.788 15.2919C101.633 15.1711 101.469 15.0762 101.417 15.0762C101.366 15.0762 101.322 15.033 101.322 14.9899C101.322 14.9381 101.271 14.9036 101.202 14.9036C101.133 14.9036 101.064 14.8432 101.029 14.7742C101.003 14.7051 100.934 14.6447 100.882 14.6447C100.718 14.6447 100.114 14.36 100.114 14.2823C100.114 14.2478 100.02 14.2133 99.9073 14.2133C99.7865 14.2133 99.6657 14.1701 99.6398 14.127C99.614 14.0752 99.5018 14.0407 99.3982 14.0407C99.2947 14.0407 99.1307 13.9803 99.0445 13.9113C98.9495 13.8422 98.777 13.7818 98.6562 13.7818C98.5353 13.7818 98.3541 13.7214 98.2679 13.6524C98.1729 13.5834 97.9141 13.523 97.6983 13.523C97.4826 13.523 97.2669 13.4885 97.2238 13.4453C97.1288 13.3504 94.195 13.2641 93.0819 13.3159Z" fill="#596F76"/>
<path d="M200.71 13.5823C200.564 13.6168 200.555 14.4624 200.555 29.7097V45.7939H208.33C213.481 45.7939 216.078 45.7681 216.044 45.7077C216.009 45.6559 216.199 45.6214 216.553 45.6214C217.002 45.6214 217.123 45.5955 217.123 45.4919C217.123 45.3884 217.235 45.3625 217.597 45.3625C217.934 45.3625 218.063 45.328 218.046 45.2503C218.037 45.1813 218.158 45.1381 218.4 45.1209C218.598 45.1036 218.745 45.0605 218.719 45.0087C218.667 44.9311 218.702 44.9224 219.038 44.8965C219.142 44.8965 219.237 44.8361 219.262 44.7757C219.28 44.724 219.409 44.6722 219.547 44.6722C219.694 44.6722 219.797 44.629 219.797 44.56C219.797 44.491 219.987 44.3961 220.229 44.327C220.462 44.2666 220.669 44.1631 220.695 44.0941C220.721 44.0337 220.798 43.9819 220.876 43.9819C220.945 43.9819 221.006 43.9387 221.006 43.8956C221.006 43.8438 221.083 43.8093 221.169 43.8093C221.256 43.8093 221.351 43.7489 221.385 43.6799C221.411 43.6108 221.489 43.5504 221.566 43.5504C221.635 43.5504 221.696 43.5159 221.696 43.4728C221.696 43.3779 222.127 43.0931 222.274 43.0931C222.334 43.0931 222.36 43.0672 222.343 43.0327C222.3 42.9637 222.662 42.6358 222.757 42.6703C222.792 42.6789 222.818 42.6271 222.818 42.5581C222.818 42.4891 222.861 42.4287 222.913 42.4287C223.033 42.4287 223.249 42.213 223.249 42.0921C223.249 42.0404 223.275 41.9972 223.318 41.9972C223.396 41.9972 223.939 41.514 223.939 41.4364C223.939 41.4105 224.077 41.2465 224.241 41.0739C224.405 40.91 224.561 40.6943 224.587 40.608C224.621 40.5131 224.681 40.444 224.725 40.444C224.768 40.444 224.802 40.3923 224.802 40.3319C224.802 40.2715 224.897 40.1506 225.018 40.0644C225.139 39.9781 225.234 39.8314 225.234 39.7451C225.234 39.6502 225.26 39.5811 225.303 39.5811C225.337 39.5811 225.441 39.4345 225.536 39.2532C225.631 39.0807 225.751 38.8995 225.812 38.8649C225.872 38.8304 225.924 38.7355 225.924 38.6665C225.924 38.5888 225.984 38.4766 226.062 38.399C226.131 38.3213 226.174 38.2091 226.148 38.1401C226.122 38.0797 226.157 38.0021 226.226 37.9762C226.295 37.9417 226.355 37.8381 226.355 37.7346C226.355 37.6396 226.416 37.4757 226.485 37.3894C226.554 37.2945 226.614 37.1478 226.614 37.0615C226.614 36.9752 226.657 36.9062 226.701 36.9062C226.752 36.9062 226.787 36.794 226.787 36.6559C226.787 36.5179 226.839 36.3885 226.916 36.3539C227.003 36.328 227.046 36.19 227.046 35.9656C227.046 35.7758 227.089 35.5946 227.132 35.5687C227.184 35.5428 227.218 35.3616 227.218 35.1718C227.218 34.9474 227.261 34.8094 227.348 34.7835C227.443 34.7403 227.477 34.6023 227.477 34.2744C227.477 34.0155 227.52 33.7825 227.563 33.7566C227.615 33.7308 227.65 33.4374 227.65 33.1181C227.65 32.7902 227.71 32.3588 227.779 32.1603C227.883 31.8755 227.909 31.3492 227.909 29.7442C227.909 28.1133 227.883 27.6301 227.779 27.3885C227.71 27.2073 227.65 26.8104 227.65 26.4739C227.65 26.146 227.615 25.8439 227.563 25.8181C227.52 25.7922 227.477 25.5764 227.477 25.3521C227.477 25.1277 227.417 24.8689 227.348 24.774C227.279 24.6877 227.218 24.4633 227.218 24.2821C227.218 24.1095 227.184 23.9628 227.132 23.9628C227.089 23.9628 227.046 23.8593 227.046 23.7212C227.046 23.3847 226.951 23.0913 226.865 23.1517C226.821 23.1776 226.787 23.0741 226.787 22.936C226.787 22.7893 226.752 22.6685 226.709 22.6685C226.666 22.6685 226.606 22.5304 226.58 22.3665C226.545 22.2026 226.485 22.0645 226.442 22.0645C226.39 22.0645 226.355 21.9437 226.355 21.797C226.355 21.6503 226.321 21.5554 226.269 21.5899C226.183 21.6417 226.148 21.5295 226.174 21.3051C226.183 21.2447 226.131 21.1757 226.053 21.1498C225.984 21.1239 225.924 21.0031 225.924 20.891C225.924 20.7615 225.872 20.6839 225.795 20.6839C225.726 20.6839 225.665 20.6235 225.665 20.5458C225.665 20.4768 225.613 20.356 225.562 20.2956C225.285 19.9849 225.234 19.9073 225.234 19.7433C225.234 19.657 225.173 19.5535 225.096 19.5276C225.027 19.5017 224.992 19.4413 225.018 19.3895C225.044 19.3464 225.009 19.3032 224.94 19.3032C224.863 19.3032 224.802 19.2601 224.802 19.217C224.802 19.1134 224.673 18.9408 224.44 18.7251C224.362 18.6474 224.31 18.5525 224.336 18.5094C224.362 18.4749 224.319 18.4404 224.25 18.4404C224.172 18.4404 224.112 18.4058 224.112 18.3541C224.112 18.2678 223.663 17.7414 223.387 17.4998C223.301 17.4221 223.016 17.1546 222.766 16.9044C222.507 16.6628 222.257 16.4557 222.205 16.4557C222.162 16.4557 222.101 16.3953 222.076 16.3263C222.041 16.2572 221.963 16.1968 221.894 16.1968C221.825 16.1968 221.791 16.1623 221.817 16.1192C221.843 16.076 221.774 16.0156 221.653 15.9897C221.532 15.9552 221.437 15.8948 221.437 15.8517C221.437 15.7999 221.377 15.7654 221.308 15.7654C221.23 15.7654 221.152 15.705 221.126 15.636C221.092 15.5669 221.006 15.5065 220.928 15.4979C220.85 15.4979 220.678 15.4202 220.531 15.334C220.134 15.0837 219.78 14.9025 219.694 14.9025C219.651 14.9025 219.556 14.8421 219.487 14.7731C219.409 14.704 219.262 14.6436 219.15 14.6436C219.038 14.6436 218.917 14.6005 218.891 14.5574C218.866 14.5056 218.753 14.4711 218.65 14.4711C218.538 14.4711 218.382 14.4193 218.287 14.3503C218.115 14.2381 217.916 14.1863 217.123 14.0569C216.907 14.0224 216.674 13.9533 216.605 13.9102C216.536 13.8584 216.165 13.798 215.785 13.7635C215.405 13.729 214.862 13.6686 214.577 13.6168C214.068 13.5391 201.012 13.5046 200.71 13.5823ZM215.103 20.3819C215.138 20.4681 215.276 20.5113 215.535 20.5113C215.785 20.5113 215.914 20.5458 215.914 20.6235C215.914 20.6839 216.018 20.7443 216.156 20.7529C216.286 20.7615 216.406 20.8133 216.415 20.8564C216.432 20.9082 216.519 20.9427 216.613 20.9427C216.777 20.9427 216.855 20.9945 217.166 21.262C217.226 21.3224 217.304 21.3742 217.33 21.3742C217.425 21.3742 218.546 22.5132 218.529 22.5909C218.512 22.634 218.564 22.6685 218.633 22.6685C218.702 22.6685 218.762 22.7289 218.762 22.7979C218.762 22.867 218.797 22.9274 218.84 22.9274C218.883 22.9274 218.943 23.0223 218.969 23.1431C219.004 23.2639 219.064 23.3588 219.107 23.3588C219.159 23.3588 219.193 23.4365 219.193 23.5314C219.193 23.6263 219.254 23.7299 219.323 23.7558C219.392 23.7903 219.452 23.8852 219.452 23.9715C219.452 24.0578 219.495 24.1354 219.539 24.1354C219.59 24.1354 219.625 24.2476 219.625 24.3943C219.625 24.5669 219.668 24.6532 219.754 24.6532C219.841 24.6532 219.884 24.7394 219.884 24.912C219.884 25.0501 219.927 25.1709 219.97 25.1709C220.022 25.1709 220.056 25.309 220.056 25.4729C220.056 25.6627 220.108 25.8008 220.186 25.8267C220.272 25.8612 220.315 25.9993 220.315 26.2495C220.315 26.4566 220.35 26.6464 220.393 26.6723C220.427 26.6982 220.488 27.0002 220.522 27.3367C220.548 27.6819 220.617 28.0098 220.66 28.0702C220.781 28.2083 220.738 31.4355 220.617 31.4096C220.565 31.401 220.522 31.6943 220.505 32.0999C220.488 32.4882 220.436 32.8161 220.393 32.8333C220.35 32.8506 220.315 33.0404 220.315 33.2475C220.315 33.5064 220.272 33.6445 220.186 33.679C220.099 33.7135 220.056 33.8516 220.056 34.0673C220.056 34.2485 220.022 34.4038 219.97 34.4038C219.927 34.4038 219.884 34.4987 219.884 34.6195C219.884 34.7403 219.823 34.8611 219.754 34.887C219.685 34.9215 219.625 35.0337 219.625 35.1459C219.625 35.2581 219.59 35.353 219.539 35.353C219.495 35.353 219.452 35.4479 219.452 35.5687C219.452 35.7068 219.401 35.7844 219.323 35.7844C219.254 35.7844 219.193 35.8621 219.193 35.957C219.193 36.0519 219.159 36.1296 219.116 36.1296C219.073 36.1296 219.021 36.2072 218.995 36.3108C218.969 36.4143 218.909 36.4661 218.857 36.4316C218.797 36.3971 218.762 36.4661 218.762 36.5955C218.762 36.7163 218.71 36.8199 218.65 36.8199C218.598 36.8199 218.495 36.9407 218.425 37.0874C218.356 37.2513 218.27 37.329 218.184 37.3031C218.115 37.2772 218.089 37.2945 218.115 37.3376C218.141 37.3894 218.106 37.4498 218.037 37.4757C217.96 37.5016 217.899 37.5879 217.899 37.6569C217.899 37.7259 217.865 37.7604 217.821 37.7346C217.778 37.7087 217.727 37.7432 217.692 37.8122C217.666 37.8812 217.588 37.9417 217.519 37.9417C217.459 37.9417 217.373 38.0021 217.347 38.0797C217.312 38.1574 217.235 38.2005 217.166 38.166C217.088 38.1401 217.036 38.166 217.036 38.2437C217.036 38.3127 216.959 38.3731 216.872 38.3731C216.786 38.3731 216.691 38.4335 216.657 38.5025C216.631 38.5716 216.544 38.632 216.475 38.632C216.398 38.632 216.277 38.6924 216.199 38.77C216.104 38.8563 215.984 38.8822 215.811 38.8391C215.638 38.8045 215.569 38.8132 215.604 38.8736C215.673 38.9944 215.388 39.0807 214.983 39.0634C214.534 39.0375 214.473 39.0548 214.62 39.1497C214.706 39.2015 213.585 39.236 211.367 39.236C209.512 39.236 207.941 39.2532 207.872 39.2791C207.777 39.3136 207.76 37.6914 207.76 29.7873V20.2524H211.41C214.568 20.2524 215.06 20.2697 215.103 20.3819Z" fill="#596F76"/>
<path d="M185.014 19.7088C185.014 22.03 184.988 23.8679 184.962 23.8075C184.936 23.7299 184.488 23.704 183.133 23.704C181.839 23.704 181.304 23.7299 181.2 23.8075C181.071 23.9111 181.053 24.1958 181.053 26.586C181.045 28.0443 181.071 29.2696 181.097 29.3041C181.131 29.33 182.029 29.3559 183.09 29.3559H185.023V37.5706V45.7939H188.388H191.753V37.5706V29.3559L193.911 29.3818C195.326 29.399 196.128 29.3732 196.24 29.3128C196.404 29.2265 196.413 29.1316 196.404 26.6551C196.396 25.2486 196.37 24.006 196.344 23.9024L196.283 23.7126L194.023 23.7299L191.753 23.7471L191.736 19.6484L191.71 15.5497L188.371 15.5238L185.023 15.5065L185.014 19.7088Z" fill="#596F76"/>
<path d="M123.11 23.3499C123.24 23.4017 123.205 23.4276 122.938 23.4707C122.748 23.5053 122.411 23.5311 122.187 23.5311C121.954 23.5311 121.773 23.5657 121.773 23.6174C121.773 23.6606 121.583 23.7037 121.341 23.7037C120.996 23.7037 120.927 23.7296 120.962 23.8332C121.005 23.9281 120.953 23.9626 120.781 23.9626C120.66 23.9626 120.487 24.023 120.418 24.1006C120.34 24.1697 120.211 24.2128 120.125 24.1956C120.038 24.1697 119.952 24.2042 119.926 24.2732C119.9 24.3423 119.797 24.394 119.702 24.394C119.598 24.394 119.547 24.4285 119.572 24.4803C119.598 24.5235 119.521 24.5839 119.4 24.6184C119.279 24.6443 119.184 24.7047 119.184 24.7478C119.184 24.791 119.124 24.8255 119.055 24.8255C118.986 24.8255 118.925 24.8859 118.925 24.9635C118.925 25.0585 118.874 25.093 118.753 25.0585C118.658 25.0326 118.597 25.0498 118.623 25.0843C118.675 25.1706 118.192 25.6884 118.062 25.6884C118.011 25.6884 117.985 25.7143 118.011 25.7574C118.028 25.7919 117.993 25.8955 117.924 25.9904C117.821 26.1371 117.804 26.0249 117.804 25.0671C117.804 24.4631 117.778 23.9194 117.752 23.8418C117.709 23.721 117.338 23.7037 114.525 23.7037C111.746 23.7037 111.323 23.721 111.211 23.8418C111.082 23.9626 111.073 25.533 111.09 40.1676L111.116 56.3641L114.464 56.39L117.804 56.4072L117.812 49.9614C117.812 46.4063 117.838 43.5588 117.864 43.6278C117.924 43.7832 118.149 44.0507 118.356 44.2319C118.442 44.3095 118.641 44.4994 118.796 44.646C118.943 44.8014 119.115 44.9308 119.176 44.9308C119.236 44.9308 119.262 44.9653 119.227 45.0085C119.201 45.0516 119.27 45.1034 119.374 45.1206C119.486 45.1379 119.564 45.1983 119.547 45.2587C119.538 45.3191 119.624 45.3622 119.78 45.3622C119.918 45.3622 120.047 45.414 120.082 45.4917C120.107 45.5607 120.228 45.6211 120.349 45.6211C120.479 45.6211 120.556 45.6556 120.522 45.6988C120.496 45.7505 120.625 45.7937 120.798 45.8109C120.988 45.8282 121.117 45.88 121.108 45.9404C121.091 46.0008 121.195 46.018 121.419 45.9922C121.652 45.9576 121.781 45.9922 121.885 46.0957C122.014 46.2165 122.273 46.2338 124.016 46.2338C125.759 46.2338 126.018 46.2165 126.148 46.0871C126.251 45.9835 126.389 45.9576 126.657 45.9922C126.907 46.018 127.019 46.0008 127.011 45.9317C127.002 45.88 127.14 45.8282 127.321 45.8109C127.494 45.7937 127.64 45.7505 127.64 45.6988C127.64 45.6556 127.753 45.6211 127.891 45.6211C128.029 45.6211 128.158 45.5693 128.193 45.4917C128.219 45.4226 128.339 45.3622 128.46 45.3622C128.581 45.3622 128.667 45.3191 128.659 45.2587C128.641 45.1983 128.728 45.1379 128.849 45.1206C128.969 45.1034 129.09 45.0343 129.133 44.9653C129.168 44.9049 129.254 44.8704 129.323 44.8963C129.401 44.9308 129.453 44.8963 129.453 44.81C129.453 44.7323 129.522 44.6719 129.625 44.6719C129.729 44.6719 129.798 44.6115 129.798 44.5339C129.798 44.4476 129.849 44.4131 129.919 44.439C129.988 44.4648 130.065 44.4303 130.091 44.3613C130.117 44.2923 130.212 44.2405 130.307 44.2405C130.428 44.2405 130.471 44.1973 130.436 44.1111C130.402 44.042 130.428 43.9816 130.488 43.9816C130.548 43.9816 130.669 43.8781 130.764 43.7573C130.868 43.6365 130.997 43.5588 131.066 43.5847C131.135 43.6192 131.161 43.5933 131.127 43.5415C131.101 43.4898 131.334 43.1964 131.644 42.8857C131.955 42.5837 132.214 42.3076 132.214 42.2904C132.214 42.2645 132.36 42.0487 132.542 41.7985C132.723 41.5483 132.904 41.2721 132.939 41.1772C132.982 41.0478 133.016 41.0392 133.068 41.1255C133.12 41.2031 133.146 41.16 133.146 41.0047C133.146 40.8752 133.18 40.7458 133.232 40.7113C133.275 40.6854 133.327 40.5905 133.344 40.5042C133.361 40.4179 133.422 40.3489 133.465 40.3575C133.517 40.3575 133.569 40.2367 133.594 40.0814C133.62 39.9174 133.689 39.8052 133.75 39.8225C133.819 39.8311 133.836 39.7707 133.802 39.624C133.767 39.486 133.802 39.3652 133.888 39.2789C133.965 39.2012 134.026 39.02 134.026 38.8819C134.026 38.7439 134.06 38.6317 134.104 38.6317C134.147 38.6317 134.216 38.416 134.242 38.1571C134.276 37.8983 134.337 37.7084 134.38 37.7343C134.423 37.7602 134.457 37.4927 134.457 37.1389C134.457 36.7851 134.483 36.3709 134.518 36.207C134.561 35.9654 134.578 35.9481 134.639 36.0862C134.673 36.1811 134.708 35.6202 134.708 34.835C134.708 33.9635 134.682 33.4544 134.639 33.532C134.526 33.7046 134.423 32.9712 134.475 32.3844C134.5 32.022 134.492 31.9271 134.397 31.9616C134.319 31.9961 134.285 31.9012 134.276 31.6337C134.267 31.4266 134.267 31.2022 134.276 31.1332C134.293 31.0728 134.259 31.0469 134.207 31.0728C134.095 31.1505 134.034 31.0383 134.009 30.6672C134 30.4947 133.965 30.3739 133.922 30.3997C133.845 30.4515 133.732 30.0373 133.802 29.9338C133.827 29.882 133.793 29.8302 133.724 29.7957C133.655 29.7698 133.594 29.6663 133.594 29.5714C133.594 29.4764 133.534 29.3729 133.465 29.347C133.396 29.3125 133.336 29.2262 133.336 29.1399C133.336 29.0536 133.275 28.9415 133.206 28.8811C133.137 28.8207 133.094 28.743 133.12 28.7085C133.146 28.6653 133.103 28.579 133.025 28.5014C132.956 28.4237 132.921 28.3288 132.947 28.277C132.982 28.2253 132.956 28.1994 132.895 28.208C132.835 28.2253 132.749 28.1562 132.697 28.0527C132.593 27.8542 131.998 27.138 131.515 26.6289C131.342 26.4477 131.221 26.2751 131.247 26.2492C131.273 26.2234 131.239 26.2061 131.17 26.2061C131.101 26.2061 130.98 26.1371 130.911 26.0508C130.617 25.7315 129.763 25.0843 129.625 25.0843C129.582 25.0843 129.539 25.0239 129.539 24.9549C129.539 24.8772 129.461 24.8255 129.323 24.8255C129.202 24.8255 129.116 24.7823 129.133 24.7219C129.142 24.6615 129.073 24.6184 128.978 24.6098C128.883 24.6098 128.814 24.558 128.831 24.4976C128.84 24.4372 128.754 24.394 128.598 24.394C128.452 24.394 128.314 24.3509 128.288 24.3077C128.262 24.256 128.167 24.2215 128.081 24.2215C127.994 24.2215 127.873 24.1697 127.813 24.1006C127.761 24.0316 127.589 23.9626 127.442 23.9453C127.278 23.9281 127.175 23.8763 127.192 23.8073C127.2 23.7382 127.08 23.7037 126.769 23.7037C126.501 23.7037 126.355 23.6692 126.389 23.6174C126.424 23.5657 126.243 23.5311 125.897 23.5311C125.595 23.5311 125.199 23.5053 125.009 23.4707C124.741 23.4276 124.707 23.4017 124.836 23.3499C124.931 23.3154 124.543 23.2809 123.973 23.2809C123.404 23.2809 123.015 23.3154 123.11 23.3499ZM124.172 30.0546C124.232 30.0718 124.258 30.1236 124.232 30.1754C124.198 30.2272 124.301 30.2617 124.482 30.2617C124.689 30.2617 124.793 30.3048 124.793 30.3825C124.793 30.4601 124.853 30.486 124.966 30.4601C125.069 30.4343 125.155 30.4688 125.19 30.5551C125.216 30.6327 125.293 30.6931 125.362 30.6931C125.561 30.6931 126.683 31.8149 126.631 31.9529C126.605 32.0306 126.64 32.0737 126.734 32.0737C126.812 32.0737 126.855 32.1083 126.821 32.1514C126.795 32.1946 126.838 32.2895 126.907 32.3585C126.976 32.4362 127.036 32.5915 127.036 32.7123C127.036 32.8503 127.088 32.9366 127.166 32.9366C127.261 32.9366 127.295 33.0488 127.295 33.3853C127.295 33.6701 127.33 33.7995 127.373 33.7305C127.494 33.532 127.554 33.929 127.554 34.9385C127.554 35.9136 127.502 36.2329 127.373 36.0258C127.33 35.9567 127.295 36.1034 127.295 36.4055C127.295 36.7938 127.269 36.9059 127.166 36.9059C127.088 36.9059 127.036 36.9836 127.036 37.113C127.036 37.2252 126.976 37.3633 126.907 37.4237C126.838 37.4841 126.803 37.5617 126.821 37.5962C126.847 37.6394 126.709 37.8378 126.519 38.0449C126.329 38.252 126.174 38.4419 126.174 38.4764C126.174 38.5195 126.113 38.5454 126.044 38.5454C125.975 38.5454 125.915 38.5886 125.915 38.6403C125.915 38.6835 125.872 38.7007 125.828 38.6749C125.777 38.6403 125.751 38.6662 125.759 38.7353C125.777 38.7957 125.733 38.8388 125.682 38.8302C125.621 38.8129 125.578 38.8561 125.595 38.9078C125.604 38.9682 125.526 39.0286 125.414 39.0459C125.311 39.0632 125.242 39.1149 125.268 39.1581C125.319 39.2271 125.173 39.2702 124.905 39.2616C124.845 39.2616 124.81 39.2961 124.819 39.3565C124.827 39.4083 124.733 39.4601 124.603 39.4773C124.482 39.4946 124.327 39.5636 124.275 39.6327C124.12 39.8139 121.359 39.8139 121.29 39.624C121.255 39.5464 121.126 39.4946 120.936 39.4946C120.729 39.4946 120.642 39.4601 120.677 39.3824C120.703 39.322 120.634 39.2702 120.496 39.2616C120.384 39.2616 120.263 39.2185 120.228 39.1753C120.202 39.1322 120.107 39.0718 120.021 39.0373C119.935 39.0027 119.892 38.9423 119.918 38.8906C119.944 38.8474 119.9 38.8043 119.814 38.8043C119.607 38.7957 119.322 38.5799 119.391 38.4764C119.417 38.4332 119.357 38.3728 119.262 38.347C119.15 38.3124 119.107 38.2607 119.15 38.1916C119.184 38.1226 119.176 38.1053 119.107 38.1485C119.055 38.183 118.986 38.1485 118.951 38.0536C118.925 37.9673 118.848 37.8637 118.779 37.8292C118.718 37.7947 118.666 37.6998 118.666 37.6394C118.666 37.5704 118.632 37.5099 118.58 37.5099C118.537 37.5099 118.494 37.4323 118.494 37.346C118.494 37.2511 118.433 37.1216 118.364 37.044C118.295 36.975 118.235 36.811 118.235 36.6729C118.235 36.5349 118.192 36.3796 118.14 36.3278C118.088 36.276 118.062 35.7755 118.088 34.9127C118.131 33.4975 118.192 33.0574 118.373 32.8676C118.442 32.8072 118.494 32.6778 118.494 32.5915C118.494 32.5052 118.537 32.4189 118.589 32.4016C118.632 32.3844 118.684 32.3154 118.692 32.2463C118.727 32.022 119.512 31.1246 119.641 31.1505C119.702 31.1591 119.736 31.1159 119.728 31.0555C119.711 31.0038 119.762 30.952 119.831 30.952C119.9 30.952 119.961 30.8916 119.961 30.8226C119.961 30.7535 120.038 30.6931 120.125 30.6931C120.211 30.6931 120.315 30.6327 120.34 30.5551C120.375 30.4601 120.461 30.4256 120.599 30.4515C120.746 30.486 120.798 30.4601 120.763 30.3739C120.729 30.2962 120.806 30.2617 121.039 30.2617C121.221 30.2617 121.333 30.2272 121.298 30.1754C121.238 30.0718 121.497 30.0114 122.118 29.9856C122.687 29.951 124.016 30.0028 124.172 30.0546Z" fill="#596F76"/>
<path d="M163.261 23.3502C163.425 23.4537 163.192 23.5314 162.717 23.5314C162.501 23.5314 162.329 23.5745 162.312 23.6349C162.286 23.6953 162.156 23.7299 162.001 23.7212C161.82 23.7126 161.734 23.7385 161.742 23.8075C161.759 23.8593 161.69 23.9283 161.595 23.9456C161.501 23.9628 161.38 24.0405 161.319 24.1095C161.259 24.1872 161.155 24.2217 161.086 24.1958C161.009 24.1613 160.957 24.1872 160.974 24.2476C160.983 24.2994 160.905 24.3598 160.802 24.377C160.689 24.3943 160.603 24.4633 160.603 24.5323C160.603 24.6014 160.56 24.6532 160.508 24.6532C160.456 24.6532 160.362 24.7136 160.284 24.7826C160.215 24.8516 160.12 24.8948 160.077 24.8602C160.034 24.8344 160.008 24.8602 160.016 24.9293C160.034 24.9897 159.973 25.0328 159.896 25.0328C159.809 25.0242 159.766 25.0501 159.792 25.0932C159.835 25.1623 159.706 25.3348 159.205 25.8698C159.119 25.9647 159.05 26.0683 159.05 26.1201C159.05 26.1632 159.015 26.2064 158.964 26.2064C158.92 26.2064 158.877 26.2668 158.877 26.3358C158.877 26.4134 158.817 26.4911 158.748 26.517C158.679 26.5515 158.618 26.6464 158.618 26.7327C158.618 26.819 158.584 26.8967 158.532 26.8967C158.489 26.8967 158.446 26.9657 158.446 27.0606C158.446 27.1469 158.385 27.2677 158.316 27.3281C158.247 27.3885 158.187 27.5266 158.187 27.6388C158.187 27.7423 158.153 27.8631 158.101 27.889C158.04 27.9235 158.014 27.2418 158.014 25.913C158.014 23.9715 158.006 23.8766 157.842 23.7903C157.73 23.7299 156.591 23.704 154.459 23.704C151.56 23.7126 151.241 23.7299 151.146 23.8593C151.06 23.9801 151.034 26.2236 151.034 34.7058C151.025 40.5907 151.051 45.4919 151.077 45.6041L151.129 45.7939L154.554 45.7767L157.971 45.7508L158.023 40.8755C158.083 36.0692 158.153 34.6195 158.334 34.3865C158.385 34.3261 158.446 34.1191 158.472 33.9292C158.567 33.2475 158.644 32.98 158.757 32.911C158.826 32.8765 158.877 32.7471 158.877 32.6263C158.877 32.5054 158.912 32.4364 158.964 32.4623C159.041 32.5054 159.093 32.3329 159.059 32.1344C159.05 32.0999 159.11 32.0481 159.179 32.0222C159.248 31.9877 159.309 31.9101 159.309 31.8497C159.309 31.6684 159.576 31.2888 159.663 31.3492C159.706 31.3751 159.74 31.3319 159.74 31.2629C159.74 31.1852 159.801 31.1248 159.878 31.1248C159.947 31.1248 159.99 31.0903 159.965 31.0558C159.913 30.9695 160.456 30.4345 160.594 30.4345C160.646 30.4345 160.689 30.3914 160.689 30.3482C160.689 30.2965 160.81 30.2619 160.948 30.2619C161.112 30.2619 161.199 30.2188 161.19 30.1498C161.173 30.0894 161.276 30.0376 161.423 30.0203C161.57 30.0031 161.734 29.9427 161.794 29.8995C161.906 29.8046 164.555 29.7183 164.857 29.8046C164.935 29.8219 165.004 29.8909 165.004 29.9513C165.004 30.0203 165.107 30.0462 165.306 30.0203C165.47 30.0031 165.677 30.0117 165.755 30.0376C165.884 30.0894 165.884 30.1066 165.78 30.1756C165.686 30.236 165.755 30.2619 166.022 30.2706C166.221 30.2792 166.436 30.2878 166.497 30.2965C166.548 30.3051 166.617 30.167 166.643 30.0031C166.669 29.8305 166.738 29.7097 166.799 29.7269C166.868 29.7356 166.902 29.5716 166.902 29.1488C166.902 28.8209 166.937 28.5362 166.98 28.5189C167.032 28.5016 167.075 28.2859 167.083 28.0271C167.101 27.7768 167.161 27.5179 167.221 27.4575C167.282 27.3885 167.334 27.1383 167.334 26.8794C167.342 26.6119 167.394 26.353 167.463 26.2581C167.541 26.1546 167.593 25.8957 167.593 25.6196C167.593 25.3348 167.627 25.1795 167.679 25.214C167.731 25.2485 167.765 25.0673 167.765 24.7481C167.765 24.3339 167.739 24.2217 167.636 24.2217C167.558 24.2217 167.48 24.1613 167.454 24.0923C167.42 24.0146 167.291 23.9628 167.144 23.9628C166.945 23.9628 166.894 23.9283 166.937 23.8248C166.98 23.7212 166.937 23.6953 166.747 23.704C166.315 23.7385 166.117 23.704 166.169 23.6177C166.203 23.5659 166.031 23.5314 165.711 23.5314C165.047 23.5314 164.607 23.4451 164.762 23.3502C164.823 23.307 164.512 23.2725 164.012 23.2725C163.511 23.2725 163.2 23.307 163.261 23.3502Z" fill="#596F76"/>
<path d="M241.671 23.3504C241.896 23.4367 241.352 23.5316 240.567 23.5316C240.196 23.5316 239.997 23.5661 240.032 23.6179C240.092 23.7128 239.945 23.7387 239.402 23.7042C239.1 23.6955 239.048 23.7128 239.091 23.825C239.134 23.9372 239.083 23.963 238.798 23.963C238.556 23.963 238.435 24.0062 238.401 24.1011C238.358 24.2047 238.28 24.2305 238.09 24.196C237.892 24.1529 237.849 24.1701 237.892 24.2651C237.926 24.36 237.866 24.3945 237.667 24.3945C237.521 24.3945 237.4 24.429 237.4 24.4808C237.4 24.5239 237.305 24.5843 237.184 24.6188C237.063 24.6447 236.968 24.7051 236.968 24.7483C236.968 24.7914 236.891 24.8259 236.805 24.8259C236.718 24.8259 236.615 24.8863 236.589 24.964C236.554 25.0503 236.468 25.0848 236.373 25.0589C236.252 25.033 236.218 25.0503 236.252 25.1366C236.278 25.2056 236.252 25.2574 236.201 25.2574C236.149 25.2574 236.088 25.2574 236.062 25.2574C236.037 25.2574 235.95 25.3264 235.864 25.4041C235.605 25.6543 235.243 25.9477 235.2 25.9477C235.165 25.9477 233.776 27.3542 233.543 27.6303C233.482 27.6994 233.431 27.7856 233.431 27.8202C233.431 27.8633 233.31 27.9927 233.172 28.1222C233.025 28.2516 232.922 28.381 232.93 28.4242C232.956 28.5018 232.473 29.2526 232.378 29.2957C232.335 29.313 232.309 29.4424 232.309 29.5805C232.309 29.7358 232.266 29.8221 232.205 29.8048C232.136 29.7962 232.085 29.9083 232.067 30.1068C232.05 30.288 232.007 30.4347 231.955 30.4347C231.912 30.4347 231.877 30.5469 231.877 30.6849C231.877 30.823 231.817 30.9956 231.748 31.0733C231.679 31.1423 231.619 31.3494 231.619 31.5478C231.619 31.7377 231.584 31.9189 231.532 31.9448C231.489 31.9707 231.446 32.2209 231.446 32.497C231.446 32.7731 231.386 33.1701 231.317 33.3685C231.23 33.6188 231.187 34.0761 231.187 34.8096C231.187 35.5603 231.222 35.9658 231.317 36.1902C231.386 36.3541 231.446 36.7424 231.446 37.0444C231.446 37.3378 231.489 37.614 231.532 37.6398C231.584 37.6657 231.619 37.8469 231.619 38.0368C231.619 38.2352 231.679 38.4423 231.748 38.5114C231.817 38.589 231.877 38.7357 231.877 38.8479C231.877 38.9601 231.921 39.0809 231.964 39.1067C232.016 39.1326 232.05 39.2793 232.05 39.4174C232.05 39.5641 232.102 39.6935 232.179 39.7194C232.248 39.7539 232.309 39.8661 232.309 39.9783C232.309 40.0904 232.343 40.1854 232.387 40.1854C232.43 40.1854 232.49 40.2803 232.516 40.4011C232.55 40.5219 232.611 40.6168 232.654 40.6168C232.706 40.6168 232.74 40.6772 232.74 40.7549C232.74 40.8239 232.792 40.9447 232.853 41.0051C233.094 41.2812 233.172 41.3934 233.172 41.4624C233.172 41.497 233.327 41.6954 233.517 41.8939C233.707 42.0837 233.862 42.2736 233.862 42.3081C233.862 42.334 233.957 42.4375 234.078 42.5324C234.199 42.6273 234.294 42.7568 234.294 42.8258C234.294 42.8948 234.328 42.938 234.371 42.9121C234.414 42.8862 234.518 42.9639 234.604 43.076C234.69 43.1968 234.811 43.2918 234.872 43.2918C234.932 43.2918 234.984 43.3522 234.984 43.4212C234.984 43.4902 235.044 43.5506 235.122 43.5506C235.208 43.5506 235.243 43.5938 235.208 43.6887C235.182 43.7577 235.191 43.8009 235.234 43.775C235.294 43.7318 235.407 43.8009 235.829 44.1547C235.881 44.2064 235.933 44.2237 235.933 44.1892C235.933 44.1633 235.993 44.1805 236.062 44.2409C236.131 44.3013 236.166 44.3876 236.131 44.4394C236.106 44.4825 236.123 44.4998 236.175 44.4739C236.295 44.3963 236.546 44.4998 236.485 44.5947C236.459 44.6379 236.537 44.6724 236.658 44.6724C236.805 44.6724 236.882 44.7242 236.882 44.8018C236.882 44.8795 236.934 44.9313 236.994 44.9226C237.219 44.8967 237.305 44.9313 237.262 45.0434C237.236 45.1211 237.305 45.1556 237.46 45.147C237.607 45.147 237.693 45.1901 237.676 45.2591C237.667 45.3282 237.762 45.3627 237.952 45.3627C238.133 45.3627 238.263 45.4145 238.297 45.4921C238.323 45.5698 238.453 45.6216 238.608 45.6216C238.746 45.6216 238.867 45.6561 238.867 45.7079C238.867 45.751 239.039 45.7941 239.247 45.7941C239.626 45.7941 239.842 45.9063 239.626 45.9926C239.566 46.0185 239.678 46.0099 239.876 45.9926C240.308 45.9322 240.877 46.0271 240.808 46.1479C240.774 46.1911 241.464 46.2256 242.62 46.2256C243.777 46.2256 244.467 46.1911 244.432 46.1479C244.363 46.0358 244.933 45.9322 245.304 45.9926C245.52 46.0271 245.597 46.0099 245.597 45.9149C245.597 45.8287 245.71 45.7941 245.986 45.7941C246.201 45.7941 246.374 45.751 246.374 45.7079C246.374 45.6561 246.486 45.6216 246.624 45.6216C246.762 45.6216 246.918 45.5612 246.978 45.4921C247.038 45.4231 247.194 45.3627 247.332 45.3627C247.487 45.3627 247.573 45.3196 247.565 45.2591C247.548 45.1987 247.634 45.1383 247.746 45.1211C247.858 45.1038 248.005 45.0348 248.074 44.9744C248.134 44.9054 248.246 44.8708 248.315 44.8967C248.393 44.9313 248.445 44.8967 248.445 44.8104C248.445 44.7328 248.505 44.6724 248.566 44.6724C248.635 44.6724 248.799 44.5775 248.928 44.4567C249.058 44.3359 249.222 44.2409 249.291 44.2409C249.36 44.2409 249.506 44.146 249.618 44.0252C249.731 43.9044 249.877 43.8095 249.955 43.8095C250.024 43.8095 250.076 43.7836 250.067 43.7405C250.041 43.6628 251.025 42.6877 251.137 42.6877C251.172 42.6877 251.206 42.6273 251.206 42.5583C251.206 42.4893 251.267 42.4289 251.336 42.4289C251.405 42.4289 251.456 42.3944 251.448 42.3512C251.431 42.3081 251.525 42.1786 251.663 42.0578C251.793 41.937 251.896 41.7903 251.896 41.7386C251.896 41.6954 251.94 41.6523 251.983 41.6523C252.035 41.6523 252.069 41.5746 252.069 41.4797C252.069 41.3848 252.104 41.3071 252.147 41.3071C252.19 41.3071 252.319 41.1604 252.423 40.9792C252.535 40.8066 252.656 40.6427 252.69 40.6341C252.725 40.6168 252.759 40.5133 252.759 40.4011C252.759 40.2975 252.82 40.1854 252.889 40.1508C252.958 40.125 253.018 40.0214 253.018 39.9265C253.018 39.8316 253.061 39.7539 253.105 39.7539C253.156 39.7539 253.191 39.6676 253.191 39.5555C253.191 39.4433 253.251 39.2793 253.32 39.1844C253.389 39.0981 253.45 38.9169 253.45 38.7789C253.45 38.6494 253.493 38.5545 253.545 38.5631C253.596 38.5804 253.648 38.4078 253.665 38.1576C253.683 37.9246 253.743 37.7175 253.786 37.7002C253.847 37.683 253.881 37.4155 253.881 37.0703C253.881 36.7338 253.924 36.3886 253.967 36.2937C254.114 36.0262 254.175 34.2487 254.054 33.7137C253.993 33.4548 253.933 32.963 253.907 32.6351C253.881 32.2986 253.829 31.9879 253.778 31.9275C253.734 31.8757 253.683 31.66 253.674 31.4616C253.657 31.2545 253.596 31.0733 253.545 31.056C253.493 31.0387 253.45 30.9093 253.45 30.7626C253.45 30.6245 253.389 30.452 253.32 30.3829C253.251 30.3053 253.191 30.1586 253.191 30.0378C253.191 29.9256 253.156 29.8307 253.113 29.8307C253.07 29.8307 253.018 29.7271 253.001 29.5891C252.984 29.4596 252.932 29.3647 252.872 29.3734C252.803 29.3906 252.759 29.3043 252.759 29.1576C252.759 29.0109 252.682 28.8643 252.544 28.7607C252.423 28.6744 252.328 28.545 252.328 28.476C252.328 28.4069 252.233 28.2689 252.112 28.1567C251.991 28.0445 251.896 27.9151 251.896 27.8633C251.896 27.8029 251.767 27.6303 251.62 27.475C251.465 27.3111 251.137 26.9659 250.887 26.707C250.645 26.4395 250.378 26.2066 250.292 26.172C250.214 26.1375 250.171 26.0944 250.197 26.0599C250.231 26.034 250.128 25.9391 249.972 25.8528C249.826 25.7751 249.705 25.6716 249.713 25.6284C249.722 25.5766 249.679 25.5421 249.627 25.5421C249.463 25.5421 249.049 25.2487 249.049 25.1366C249.049 25.0762 248.963 25.033 248.859 25.033C248.747 25.0417 248.669 24.9985 248.687 24.9295C248.695 24.8691 248.617 24.8259 248.488 24.8259C248.367 24.8259 248.272 24.7914 248.272 24.7483C248.272 24.7051 248.186 24.6534 248.083 24.6361C247.97 24.6188 247.893 24.5584 247.91 24.498C247.919 24.4376 247.832 24.3945 247.677 24.3945C247.53 24.3945 247.392 24.3513 247.366 24.3082C247.34 24.2564 247.22 24.2219 247.099 24.2219C246.978 24.2219 246.866 24.1615 246.84 24.0925C246.805 24.0148 246.676 23.963 246.495 23.963C246.314 23.963 246.176 23.9113 246.15 23.8336C246.115 23.7473 245.986 23.7128 245.701 23.7301C245.451 23.7387 245.295 23.7042 245.269 23.6351C245.252 23.5661 245.045 23.5316 244.709 23.5316C244.415 23.5316 244.018 23.5057 243.828 23.4712C243.561 23.4281 243.526 23.4022 243.656 23.3504C243.751 23.3159 243.302 23.2814 242.664 23.2814C242.025 23.2814 241.576 23.3159 241.671 23.3504ZM243.095 30.1845C242.957 30.219 243.121 30.2449 243.561 30.2535C244.113 30.2621 244.225 30.288 244.191 30.3916C244.148 30.4865 244.191 30.5037 244.389 30.4606C244.579 30.4261 244.657 30.452 244.7 30.5555C244.726 30.6332 244.847 30.6936 244.959 30.6936C245.088 30.6936 245.166 30.7454 245.166 30.823C245.166 30.9093 245.226 30.9524 245.321 30.9352C245.399 30.9179 245.459 30.9524 245.451 31.0128C245.433 31.0646 245.502 31.1423 245.597 31.1682C245.692 31.2027 245.77 31.2631 245.77 31.3062C245.77 31.3494 245.83 31.3839 245.899 31.3839C245.968 31.3839 246.029 31.4357 246.029 31.5047C246.029 31.5737 246.089 31.6428 246.158 31.6773C246.227 31.7032 246.288 31.7636 246.288 31.8153C246.288 31.8671 246.383 31.9965 246.503 32.1087C246.624 32.2209 246.719 32.3676 246.719 32.4366C246.719 32.5143 246.78 32.6178 246.849 32.6782C246.918 32.7386 246.978 32.8767 246.978 32.9889C246.978 33.101 247.021 33.196 247.064 33.196C247.116 33.196 247.151 33.4031 247.151 33.6619C247.151 33.9208 247.194 34.1624 247.237 34.1883C247.289 34.2142 247.323 34.5075 247.323 34.8354C247.323 35.1633 247.289 35.4567 247.237 35.4826C247.194 35.5085 247.151 35.7501 247.151 36.009C247.151 36.2678 247.116 36.4749 247.064 36.4749C247.021 36.4749 246.978 36.5699 246.978 36.682C246.978 36.7942 246.918 36.9323 246.849 36.9927C246.78 37.0531 246.719 37.1825 246.719 37.2861C246.719 37.4327 246.702 37.4414 246.633 37.3378C246.564 37.2257 246.547 37.2257 246.538 37.3551C246.529 37.4414 246.521 37.5449 246.512 37.5794C246.495 37.6916 246.227 37.9418 246.124 37.9418C246.072 37.9418 246.029 38.0023 246.029 38.0799C246.029 38.1489 245.994 38.1835 245.943 38.1576C245.899 38.1317 245.856 38.1576 245.856 38.218C245.856 38.3301 245.563 38.6322 245.459 38.6322C245.433 38.6322 245.356 38.6926 245.287 38.7616C245.218 38.8306 245.106 38.8651 245.028 38.8306C244.95 38.8047 244.907 38.8306 244.924 38.8997C244.942 38.9687 244.864 39.0291 244.734 39.0463C244.614 39.0636 244.493 39.1154 244.467 39.1672C244.432 39.2103 244.251 39.2621 244.061 39.2621C243.872 39.2707 243.725 39.3138 243.725 39.3656C243.734 39.4174 243.311 39.4605 242.629 39.4778C241.645 39.495 241.525 39.4864 241.576 39.3656C241.602 39.288 241.594 39.2534 241.542 39.2793C241.43 39.3484 240.765 39.2276 240.817 39.1413C240.843 39.0981 240.765 39.0636 240.636 39.0636C240.515 39.0636 240.394 39.0032 240.368 38.9342C240.334 38.8651 240.282 38.8306 240.239 38.8565C240.127 38.9169 239.894 38.7271 239.954 38.6235C239.98 38.5804 239.945 38.5718 239.876 38.5976C239.816 38.6149 239.687 38.5372 239.592 38.4164C239.505 38.2956 239.385 38.2007 239.324 38.2007C239.264 38.2007 239.212 38.1403 239.212 38.0627C239.212 37.9936 239.169 37.9591 239.126 37.985C239.074 38.0109 239.014 37.9677 238.979 37.8814C238.945 37.7952 238.901 37.7089 238.875 37.683C238.789 37.6053 238.608 37.3033 238.556 37.1394C238.522 37.0617 238.47 36.9927 238.427 36.9927C238.384 36.9927 238.349 36.8805 238.349 36.7511C238.349 36.6216 238.315 36.4749 238.271 36.4232C238.228 36.38 238.177 36.1298 238.151 35.8709C238.125 35.612 238.064 35.241 238.004 35.0512C237.909 34.7492 237.909 34.6542 238.03 34.404C238.108 34.2401 238.168 34.0416 238.159 33.9726C238.133 33.5929 238.185 33.1873 238.263 33.2391C238.315 33.2736 238.349 33.1701 238.349 32.9975C238.349 32.8335 238.41 32.6523 238.479 32.5919C238.548 32.5315 238.608 32.428 238.608 32.3676C238.608 32.2986 238.651 32.2468 238.694 32.2468C238.746 32.2468 238.781 32.1864 238.781 32.1087C238.781 32.0397 238.824 32.0052 238.867 32.0311C238.919 32.0569 238.953 32.0311 238.953 31.962C238.953 31.7981 239.479 31.2458 239.712 31.1768C239.816 31.1423 239.894 31.0646 239.876 31.0128C239.868 30.9524 239.911 30.9179 239.971 30.9266C240.023 30.9438 240.075 30.892 240.075 30.823C240.075 30.7454 240.153 30.6936 240.282 30.6936C240.394 30.6936 240.515 30.6332 240.541 30.5555C240.575 30.4606 240.67 30.4261 240.851 30.452C240.998 30.4779 241.093 30.452 241.084 30.4002C241.076 30.3398 241.343 30.288 241.758 30.2535C242.137 30.2276 242.353 30.1931 242.232 30.1845C241.861 30.1327 242.56 30.0378 242.966 30.0809C243.276 30.1154 243.285 30.1241 243.095 30.1845Z" fill="#596F76"/>
<path d="M267.041 23.3502C267.179 23.4106 267.161 23.4279 266.92 23.471C266.756 23.5055 266.359 23.5314 266.031 23.5314C265.703 23.5314 265.453 23.5659 265.479 23.6091C265.548 23.7213 265.341 23.7817 265.065 23.7299C264.892 23.6954 264.797 23.7213 264.737 23.8248C264.693 23.9025 264.564 23.9629 264.443 23.9629C264.322 23.9629 264.158 24.0233 264.089 24.1009C264.012 24.1786 263.865 24.2217 263.753 24.1958C263.641 24.1786 263.563 24.2045 263.572 24.2562C263.58 24.308 263.46 24.3598 263.304 24.3771C263.149 24.3943 263.045 24.4375 263.071 24.4806C263.097 24.5237 263.019 24.5841 262.899 24.6187C262.778 24.6445 262.683 24.7049 262.683 24.7481C262.683 24.7912 262.588 24.8258 262.467 24.8258C262.312 24.8258 262.269 24.8603 262.303 24.9552C262.338 25.0415 262.303 25.0846 262.208 25.0846C262.131 25.0846 262.019 25.1364 261.949 25.1882C261.716 25.4125 261.276 25.7318 261.026 25.8785C260.888 25.9561 260.785 26.0511 260.785 26.0856C260.793 26.1287 260.724 26.1805 260.638 26.215C260.552 26.2495 260.508 26.284 260.552 26.284C260.586 26.2927 260.534 26.3703 260.439 26.4652C260.336 26.5688 260.215 26.6206 260.163 26.586C260.112 26.5515 260.094 26.5602 260.12 26.6206C260.155 26.6637 260.008 26.8794 259.81 27.0952C259.602 27.3022 259.404 27.5439 259.378 27.6215C259.344 27.6992 259.283 27.7596 259.231 27.7596C259.188 27.7596 259.145 27.8027 259.145 27.8459C259.145 27.8976 259.05 28.0443 258.929 28.1738C258.809 28.3032 258.714 28.4499 258.714 28.5103C258.714 28.5707 258.679 28.6225 258.636 28.6225C258.593 28.6225 258.532 28.7174 258.507 28.8382C258.472 28.959 258.412 29.0539 258.368 29.0539C258.317 29.0539 258.282 29.1143 258.282 29.192C258.282 29.261 258.222 29.3818 258.153 29.4508C258.084 29.5285 258.023 29.6579 258.023 29.7442C258.023 29.8305 257.989 29.9341 257.937 29.9599C257.894 29.9858 257.851 30.0894 257.851 30.1843C257.851 30.2792 257.79 30.4173 257.721 30.4863C257.652 30.564 257.592 30.7279 257.592 30.866C257.592 31.004 257.557 31.1421 257.506 31.168C257.462 31.1939 257.419 31.3665 257.419 31.539C257.419 31.7116 257.359 31.936 257.29 32.0222C257.212 32.1258 257.16 32.3847 257.16 32.7039C257.16 32.9801 257.117 33.2907 257.066 33.3856C256.936 33.6186 256.945 36.2936 257.074 36.423C257.117 36.4661 257.16 36.7423 257.16 37.027C257.16 37.329 257.221 37.6569 257.29 37.8036C257.359 37.933 257.419 38.1833 257.419 38.3386C257.419 38.5025 257.462 38.632 257.506 38.632C257.557 38.632 257.592 38.77 257.592 38.934C257.592 39.1238 257.644 39.2619 257.721 39.2878C257.79 39.3223 257.851 39.4172 257.851 39.5035C257.851 39.6588 257.911 39.8141 258.127 40.1852C258.161 40.2542 258.282 40.4958 258.386 40.7202C258.489 40.9445 258.601 41.1085 258.645 41.0826C258.679 41.0567 258.714 41.1171 258.714 41.2034C258.714 41.2983 258.774 41.3932 258.843 41.4277C258.912 41.4536 258.973 41.5227 258.973 41.5744C258.973 41.6262 259.067 41.7643 259.188 41.8764C259.309 41.9886 259.404 42.1008 259.404 42.1267C259.404 42.1526 259.482 42.2561 259.577 42.3597C259.663 42.4632 259.723 42.584 259.689 42.6272C259.663 42.6789 259.671 42.6876 259.715 42.6617C259.827 42.5926 260.647 43.4296 260.577 43.5418C260.543 43.5936 260.569 43.6195 260.629 43.5936C260.69 43.5677 260.845 43.6454 260.974 43.7662C261.104 43.887 261.251 43.9819 261.302 43.9819C261.345 43.9819 261.389 44.0337 261.389 44.0941C261.389 44.1545 261.544 44.2666 261.734 44.3529C261.924 44.4306 262.079 44.5341 262.079 44.5773C262.079 44.6204 262.157 44.6722 262.26 44.6981C262.372 44.7326 262.415 44.7844 262.381 44.8448C262.338 44.9224 262.372 44.9311 262.493 44.8966C262.605 44.862 262.7 44.8793 262.743 44.957C262.778 45.026 262.89 45.1037 262.985 45.1209C263.08 45.1382 263.149 45.2072 263.132 45.259C263.123 45.3194 263.218 45.3625 263.365 45.3625C263.511 45.3625 263.632 45.4143 263.667 45.492C263.693 45.5696 263.762 45.6214 263.822 45.6128C264.064 45.5869 264.245 45.63 264.193 45.699C264.167 45.7508 264.314 45.794 264.512 45.8112C264.719 45.8285 264.875 45.8803 264.866 45.932C264.857 45.9838 264.952 46.0097 265.099 45.9838C265.427 45.9407 265.815 46.0356 265.746 46.1391C265.694 46.2254 266.971 46.2686 268.844 46.2254C269.612 46.2081 269.905 46.1736 270 46.0787C270.078 46.0097 270.25 45.9665 270.432 45.9838C270.622 46.0011 270.751 45.9665 270.777 45.8975C270.794 45.8371 270.958 45.794 271.148 45.794C271.355 45.794 271.476 45.7594 271.441 45.7077C271.407 45.6559 271.484 45.6214 271.614 45.6214C271.735 45.6214 271.855 45.561 271.881 45.492C271.916 45.4143 272.045 45.3625 272.183 45.3625C272.339 45.3625 272.425 45.3194 272.416 45.259C272.399 45.1986 272.477 45.1382 272.589 45.1209C272.692 45.1037 272.779 45.0519 272.779 45.0087C272.779 44.9656 272.856 44.9311 272.951 44.9311C273.046 44.9311 273.115 44.9052 273.107 44.862C273.063 44.7499 273.469 44.4047 273.573 44.4651C273.624 44.4996 273.65 44.491 273.624 44.4479C273.598 44.4047 273.728 44.1976 273.909 43.9819L274.246 43.5936V44.56C274.246 45.1641 274.211 45.5351 274.151 45.5524C274.099 45.5696 274.039 45.8285 274.013 46.1219C273.987 46.4152 273.926 46.6569 273.892 46.6569C273.849 46.6569 273.814 46.7949 273.814 46.9589C273.814 47.1487 273.762 47.2868 273.685 47.3126C273.607 47.3472 273.555 47.4766 273.555 47.6147C273.555 47.7527 273.521 47.8649 273.469 47.8649C273.426 47.8649 273.383 47.9426 273.383 48.0375C273.383 48.1324 273.322 48.2101 273.245 48.2101C273.176 48.2101 273.133 48.2446 273.167 48.2877C273.193 48.3309 273.15 48.4258 273.081 48.4948C273.012 48.5725 272.951 48.6674 272.951 48.7192C272.951 48.7709 272.891 48.8141 272.822 48.8141C272.753 48.8141 272.692 48.8572 272.692 48.909C272.692 49.0298 272.477 49.2455 272.356 49.2455C272.304 49.2455 272.261 49.28 272.261 49.3318C272.261 49.375 272.166 49.4354 272.045 49.4699C271.924 49.4958 271.855 49.5562 271.881 49.5993C271.907 49.6424 271.83 49.677 271.717 49.677C271.597 49.677 271.484 49.7374 271.45 49.8064C271.424 49.8841 271.295 49.9358 271.148 49.9358C271.001 49.9358 270.88 49.9876 270.846 50.0739C270.803 50.1861 270.716 50.2033 270.406 50.1688C270.121 50.1257 270.026 50.1429 270.043 50.2206C270.052 50.2982 269.741 50.3328 268.809 50.35C267.541 50.3759 267.127 50.3328 267.204 50.2033C267.23 50.1602 267.127 50.1429 266.963 50.1688C266.773 50.1947 266.626 50.1602 266.54 50.0739C266.462 49.9962 266.307 49.9358 266.186 49.9358C266.048 49.9358 265.962 49.8841 265.962 49.8064C265.962 49.7287 265.884 49.677 265.746 49.677C265.625 49.677 265.53 49.6338 265.53 49.5907C265.53 49.5389 265.47 49.5044 265.401 49.5044C265.323 49.5044 265.246 49.444 265.22 49.375C265.185 49.3059 265.108 49.2455 265.047 49.2455C264.909 49.2455 264.84 49.1937 264.279 48.676C264.064 48.4775 263.891 48.2877 263.891 48.2532C263.891 48.2273 263.839 48.141 263.787 48.0806C263.529 47.7872 263.46 47.6923 263.46 47.606C263.46 47.5543 263.373 47.3989 263.27 47.2609C263.063 46.9761 262.631 46.8985 262.545 47.1314C262.51 47.2005 262.398 47.2609 262.286 47.2609C262.174 47.2609 262.079 47.2954 262.079 47.3385C262.079 47.4421 261.578 47.6923 261.371 47.6923C261.285 47.6923 261.216 47.7268 261.216 47.77C261.216 47.8131 261.095 47.8735 260.957 47.908C260.81 47.9426 260.716 48.003 260.75 48.0461C260.776 48.0892 260.698 48.1238 260.569 48.1238C260.448 48.1238 260.327 48.1842 260.301 48.2532C260.267 48.3222 260.155 48.3826 260.051 48.3826C259.939 48.3826 259.835 48.4258 259.818 48.4689C259.801 48.5207 259.706 48.5725 259.594 48.5811C259.49 48.5811 259.404 48.6415 259.404 48.7019C259.404 48.7623 259.309 48.8141 259.188 48.8141C259.067 48.8141 258.973 48.8486 258.973 48.8917C258.973 48.9349 258.86 48.9953 258.714 49.0298C258.576 49.0643 258.455 49.1247 258.455 49.1679C258.455 49.211 258.36 49.2455 258.239 49.2455C258.118 49.2455 258.023 49.2887 258.023 49.3318C258.023 49.3836 257.928 49.4612 257.808 49.5044C257.566 49.5993 257.531 49.7719 257.721 49.9358C257.79 49.9962 257.851 50.0998 257.851 50.1602C257.851 50.2292 257.885 50.35 257.928 50.4363C257.972 50.514 258.032 50.652 258.058 50.7383C258.084 50.8246 258.144 50.8678 258.196 50.8419C258.239 50.816 258.282 50.8678 258.282 50.954C258.282 51.049 258.343 51.1698 258.412 51.2302C258.481 51.2906 258.541 51.3941 258.541 51.4631C258.541 51.5322 258.567 51.5667 258.61 51.5408C258.645 51.5235 258.748 51.653 258.834 51.8428C258.929 52.024 259.033 52.1793 259.076 52.1793C259.111 52.1793 259.145 52.2397 259.145 52.3088C259.145 52.3778 259.188 52.4382 259.24 52.4382C259.361 52.4382 259.835 52.9128 259.835 53.0336C259.835 53.0854 259.87 53.1285 259.913 53.1285C259.956 53.1285 260.181 53.327 260.422 53.56C260.664 53.8016 260.879 53.9914 260.914 53.9914C260.94 53.9914 261.069 54.0863 261.199 54.2071C261.328 54.3279 261.458 54.4229 261.501 54.4229C261.535 54.4229 261.673 54.5178 261.803 54.6386C261.932 54.7594 262.105 54.8543 262.182 54.8543C262.269 54.8543 262.338 54.8888 262.338 54.9406C262.338 54.9837 262.51 55.1045 262.717 55.1995C262.933 55.2944 263.132 55.4065 263.158 55.4583C263.183 55.5015 263.304 55.5446 263.425 55.5446C263.546 55.5446 263.658 55.5964 263.684 55.6654C263.71 55.7344 263.796 55.769 263.882 55.7431C263.96 55.7258 264.081 55.769 264.141 55.838C264.21 55.9157 264.357 55.9761 264.486 55.9761C264.616 55.9761 264.762 56.0192 264.806 56.0623C264.857 56.1141 265.065 56.1831 265.28 56.2177C265.487 56.2608 265.651 56.3298 265.643 56.373C265.634 56.4248 265.858 56.442 266.204 56.4248C266.626 56.4075 266.747 56.4248 266.652 56.4852C266.557 56.5542 267.118 56.5801 268.576 56.5801C270.035 56.5801 270.613 56.5542 270.57 56.4852C270.535 56.4248 270.699 56.3989 271.122 56.4248C271.459 56.4334 271.709 56.4248 271.691 56.3989C271.648 56.3212 271.881 56.2349 272.106 56.2349C272.201 56.2349 272.408 56.1745 272.572 56.0969C272.736 56.0192 272.986 55.9761 273.124 55.9933C273.322 56.0192 273.383 56.0019 273.348 55.9157C273.296 55.7948 273.659 55.6654 273.797 55.7517C273.849 55.7776 273.9 55.7431 273.935 55.674C273.961 55.605 274.082 55.5446 274.203 55.5446C274.323 55.5446 274.418 55.5101 274.418 55.4583C274.418 55.4152 274.513 55.3548 274.634 55.3203C274.755 55.2944 274.85 55.234 274.85 55.1908C274.85 55.1477 274.919 55.1132 275.014 55.1132C275.1 55.1132 275.221 55.0528 275.281 54.9837C275.342 54.9147 275.436 54.8543 275.497 54.8543C275.557 54.8543 275.635 54.7939 275.661 54.7162C275.687 54.6472 275.747 54.6041 275.79 54.6299C275.825 54.6558 275.971 54.5609 276.109 54.4229C276.248 54.2848 276.386 54.164 276.429 54.164C276.584 54.164 278.042 52.7143 278.042 52.5676C278.042 52.49 278.388 52.1793 278.474 52.1793C278.526 52.1793 278.56 52.1189 278.56 52.0327C278.56 51.955 278.655 51.7652 278.776 51.6098C278.897 51.4545 278.992 51.2647 278.992 51.1956C278.992 51.118 279.035 51.0576 279.078 51.0576C279.13 51.0576 279.164 50.9886 279.164 50.8936C279.164 50.8073 279.225 50.6865 279.294 50.6261C279.363 50.5657 279.423 50.4536 279.423 50.3673C279.423 50.281 279.483 50.1947 279.552 50.1602C279.621 50.1343 279.682 50.0135 279.682 49.8927C279.682 49.7633 279.716 49.6856 279.768 49.7201C279.82 49.7546 279.854 49.6338 279.854 49.4267C279.854 49.2455 279.898 49.0729 279.949 49.0557C279.992 49.0384 280.062 48.8658 280.087 48.6588C280.113 48.4603 280.174 48.2963 280.208 48.2963C280.251 48.2963 280.286 48.1151 280.286 47.8994C280.286 47.6664 280.338 47.4593 280.415 47.3817C280.502 47.2954 280.545 47.0797 280.545 46.7518C280.545 46.4756 280.588 46.2168 280.657 46.1564C280.812 45.9924 280.864 23.8852 280.7 23.7817C280.51 23.6609 274.47 23.6867 274.349 23.8075C274.28 23.8766 274.246 24.2735 274.246 25.0242C274.246 25.7836 274.22 26.1115 274.151 26.0769C274.099 26.0424 274.082 25.9561 274.116 25.8785C274.142 25.8008 274.142 25.7663 274.108 25.8008C274.013 25.8871 273.806 25.6886 273.875 25.5678C273.9 25.5161 273.9 25.4988 273.857 25.5333C273.762 25.6282 273.547 25.4298 273.616 25.3176C273.65 25.2658 273.624 25.2572 273.564 25.2917C273.495 25.3349 273.443 25.3003 273.409 25.1882C273.383 25.076 273.314 25.0328 273.245 25.0587C273.176 25.0846 273.124 25.0501 273.124 24.9638C273.124 24.8862 273.055 24.8258 272.943 24.8258C272.848 24.8258 272.796 24.7826 272.822 24.7395C272.848 24.6877 272.796 24.6532 272.692 24.6532C272.598 24.6532 272.494 24.6014 272.468 24.5324C272.442 24.4633 272.304 24.3943 272.166 24.3598C272.019 24.3339 271.924 24.2821 271.95 24.239C271.968 24.2045 271.907 24.17 271.804 24.1786C271.7 24.1786 271.605 24.1354 271.597 24.0923C271.588 24.0405 271.433 23.9888 271.251 23.9629C271.044 23.937 270.932 23.8766 270.949 23.8075C270.967 23.7299 270.88 23.6954 270.691 23.704C270.225 23.7299 270.087 23.7126 270.147 23.6177C270.181 23.5659 270.026 23.5314 269.733 23.5314C269.474 23.5314 269.137 23.5055 268.973 23.471C268.732 23.4279 268.715 23.4106 268.853 23.3502C268.948 23.3157 268.542 23.2812 267.947 23.2812C267.351 23.2812 266.946 23.3157 267.041 23.3502ZM270.561 30.1498C270.544 30.2274 270.647 30.262 270.88 30.262C271.113 30.262 271.226 30.2965 271.226 30.3828C271.226 30.4604 271.295 30.4863 271.441 30.4518C271.597 30.4259 271.657 30.4518 271.657 30.5467C271.657 30.6244 271.743 30.6934 271.855 30.7107C271.959 30.7279 272.037 30.7883 272.019 30.8487C272.011 30.9091 272.054 30.9523 272.114 30.935C272.175 30.9178 272.218 30.9436 272.218 30.9868C272.218 31.0299 272.304 31.099 272.416 31.1335C272.537 31.1766 272.589 31.2456 272.554 31.3061C272.52 31.3665 272.529 31.3837 272.58 31.3578C272.727 31.2715 273.383 32.0481 273.383 32.307C273.383 32.4968 273.4 32.5227 273.469 32.4192C273.538 32.3156 273.555 32.3415 273.555 32.5314C273.555 32.6608 273.616 32.7902 273.685 32.8161C273.762 32.8506 273.814 32.9801 273.814 33.1613C273.814 33.3252 273.857 33.4546 273.9 33.4546C273.952 33.4546 273.987 33.9465 273.987 34.749C273.987 35.5515 273.952 36.0433 273.9 36.0433C273.857 36.0433 273.814 36.1727 273.814 36.3367C273.814 36.5179 273.762 36.6473 273.685 36.6819C273.616 36.7077 273.555 36.8027 273.555 36.8889C273.555 37.1392 273.296 37.6051 273.193 37.5447C273.141 37.5102 273.124 37.5275 273.158 37.5793C273.184 37.631 273.15 37.7259 273.081 37.795C273.012 37.8726 272.951 37.9503 272.951 37.9848C272.951 38.1142 272.14 38.8046 271.985 38.8046C271.899 38.8046 271.847 38.8477 271.873 38.8908C271.899 38.9426 271.855 39.003 271.769 39.0375C271.683 39.0721 271.562 39.1497 271.502 39.2101C271.433 39.2705 271.346 39.305 271.303 39.2705C271.26 39.2446 271.2 39.2878 271.174 39.3568C271.139 39.4517 271.01 39.4949 270.785 39.4949C270.561 39.4949 270.458 39.5294 270.475 39.5984C270.501 39.771 267.679 39.8055 267.558 39.6329C267.506 39.5639 267.351 39.4949 267.213 39.4776C267.066 39.469 266.963 39.4086 266.971 39.3568C266.98 39.2964 266.946 39.2619 266.885 39.2619C266.618 39.2705 266.471 39.2274 266.523 39.1583C266.549 39.1152 266.48 39.0634 266.376 39.0462C266.255 39.0289 266.186 38.9685 266.204 38.8908C266.221 38.8218 266.204 38.7873 266.169 38.8218C266.083 38.9081 265.617 38.6234 265.617 38.4767C265.617 38.4163 265.582 38.3904 265.53 38.4163C265.487 38.4421 265.444 38.4076 265.444 38.3386C265.444 38.2609 265.384 38.2005 265.315 38.2005C265.246 38.2005 265.185 38.1401 265.185 38.0711C265.185 38.0021 265.151 37.9417 265.108 37.9417C265.065 37.9417 265.004 37.8468 264.978 37.7259C264.944 37.6051 264.883 37.5275 264.84 37.5534C264.788 37.5793 264.754 37.5447 264.754 37.4671C264.754 37.3894 264.693 37.2686 264.624 37.1996C264.555 37.1219 264.495 36.9925 264.495 36.9062C264.495 36.8199 264.46 36.7164 264.409 36.6905C264.366 36.6646 264.322 36.4144 264.314 36.1469C264.314 35.7931 264.288 35.7068 264.236 35.8276C264.193 35.9398 264.158 35.5774 264.158 34.8525C264.15 34.145 264.184 33.7135 264.236 33.7135C264.288 33.7135 264.322 33.5582 264.322 33.3684C264.322 33.1354 264.366 32.9973 264.452 32.9714C264.521 32.9369 264.555 32.8851 264.53 32.842C264.504 32.7902 264.538 32.6608 264.616 32.5486C264.693 32.4364 264.754 32.2811 264.754 32.2035C264.754 32.1344 264.814 32.074 264.883 32.074C264.952 32.074 265.013 32.0136 265.013 31.9446C265.013 31.8756 265.056 31.8152 265.099 31.8152C265.151 31.8152 265.185 31.772 265.185 31.7289C265.185 31.6771 265.263 31.5649 265.358 31.47C265.453 31.3751 265.53 31.3147 265.53 31.3492C265.53 31.3751 265.625 31.2974 265.738 31.1766C265.85 31.0472 265.979 30.9523 266.04 30.9523C266.091 30.9523 266.134 30.8919 266.134 30.8228C266.134 30.7452 266.221 30.6934 266.359 30.6934C266.48 30.6934 266.557 30.6589 266.523 30.6071C266.497 30.5553 266.54 30.4949 266.626 30.469C266.713 30.4432 266.851 30.3828 266.928 30.3396C267.015 30.2965 267.196 30.262 267.343 30.262C267.506 30.262 267.593 30.2188 267.584 30.1498C267.567 30.0807 267.774 30.0376 268.335 30.0031C269.448 29.9427 270.587 30.0203 270.561 30.1498Z" fill="#596F76"/>
<path d="M138.858 34.7576V45.7939L142.241 45.7767L145.632 45.7508L145.658 34.8957C145.666 27.4317 145.649 23.9887 145.589 23.8679C145.494 23.704 145.39 23.704 142.18 23.704L138.858 23.7126V34.7576Z" fill="#596F76"/>
<path d="M170.759 23.9111L170.526 24.1268V34.8698C170.526 45.4056 170.526 45.6127 170.69 45.7077C170.802 45.7594 172.062 45.7939 174.185 45.7939H177.516V34.887C177.516 28.8899 177.49 23.9197 177.464 23.842C177.421 23.7299 177.007 23.7126 174.202 23.704H170.984L170.759 23.9111Z" fill="#596F76"/>
<path d="M191.969 37.5967C191.969 42.032 191.978 43.8527 191.986 41.6264C192.004 39.4088 192.004 35.7847 191.986 33.5584C191.978 31.3408 191.969 33.1615 191.969 37.5967Z" fill="#596F76"/>
</svg>
