<svg width="595" height="48" viewBox="0 0 595 48" fill="none" xmlns="http://www.w3.org/2000/svg">
<rect x="0.5" y="0.5" width="69" height="47" rx="5.5" fill="white" stroke="#D9D9D9"/>
<path fill-rule="evenodd" clip-rule="evenodd" d="M16.6924 17.8659C17.6325 17.9452 18.5726 17.3901 19.1601 16.6863C19.7379 15.9627 20.1198 14.9913 20.0219 14C19.1895 14.0397 18.1613 14.5551 17.5737 15.2787C17.0352 15.9032 16.5749 16.9143 16.6924 17.8659ZM27.8755 30.6333V15.1796H33.6041C36.5615 15.1796 38.6277 17.2414 38.6277 20.2548C38.6277 23.2683 36.5223 25.3499 33.5258 25.3499H30.2453V30.6333H27.8755ZM20.012 18.0542C19.1838 18.006 18.4281 18.3064 17.8177 18.549C17.4249 18.7051 17.0923 18.8373 16.8392 18.8373C16.5552 18.8373 16.2089 18.6981 15.82 18.5417L15.82 18.5417L15.82 18.5417L15.82 18.5417C15.3104 18.3368 14.7278 18.1025 14.1169 18.1137C12.7166 18.1335 11.4142 18.9365 10.6993 20.2152C9.23044 22.7726 10.3174 26.5593 11.7373 28.6409C12.4326 29.6718 13.265 30.8018 14.3617 30.7622C14.8442 30.7438 15.1913 30.5947 15.5505 30.4404C15.9641 30.2628 16.3937 30.0782 17.0645 30.0782C17.712 30.0782 18.1228 30.2579 18.5172 30.4305C18.8921 30.5945 19.2522 30.752 19.7868 30.7424C20.9227 30.7225 21.6376 29.7115 22.3328 28.6806C23.0831 27.5741 23.4129 26.4943 23.4629 26.3304L23.4688 26.3114C23.4676 26.3102 23.4583 26.3059 23.4419 26.2984C23.1911 26.1821 21.274 25.2937 21.2557 22.9114C21.2372 20.9118 22.7762 19.8987 23.0185 19.7392C23.0332 19.7295 23.0432 19.723 23.0477 19.7196C22.0684 18.2525 20.5408 18.0939 20.012 18.0542ZM42.9561 30.7523C44.4445 30.7523 45.8253 29.989 46.452 28.7797H46.501V30.6333H48.6945V22.9412C48.6945 20.7108 46.9318 19.2735 44.2193 19.2735C41.7026 19.2735 39.842 20.7307 39.7735 22.733H41.9083C42.0845 21.7814 42.9561 21.1569 44.1508 21.1569C45.6 21.1569 46.4128 21.8409 46.4128 23.0998V23.9522L43.4555 24.1307C40.7038 24.2992 39.2153 25.4391 39.2153 27.4217C39.2153 29.424 40.7527 30.7523 42.9561 30.7523ZM43.5924 28.9185C42.3292 28.9185 41.5262 28.3039 41.5262 27.3622C41.5262 26.3908 42.2998 25.8257 43.7785 25.7365L46.4127 25.568V26.4403C46.4127 27.8876 45.1984 28.9185 43.5924 28.9185ZM55.9702 31.238C55.0204 33.9442 53.9334 34.8363 51.6224 34.8363C51.4461 34.8363 50.8585 34.8165 50.7214 34.7768V32.9232C50.8683 32.943 51.2307 32.9628 51.4167 32.9628C52.4645 32.9628 53.0521 32.5167 53.4144 31.357L53.6298 30.673L49.6149 19.4222H52.0924L54.8833 28.5517H54.9322L57.7231 19.4222H60.1321L55.9702 31.238ZM30.2451 17.2018H32.9772C35.0336 17.2018 36.2087 18.312 36.2087 20.2648C36.2087 22.2175 35.0336 23.3377 32.9674 23.3377H30.2451V17.2018Z" fill="black"/>
<rect x="75.5" y="0.5" width="69" height="47" rx="5.5" fill="white" stroke="#D9D9D9"/>
<path fill-rule="evenodd" clip-rule="evenodd" d="M108.06 31.5161V25.4742H111.179C112.456 25.4742 113.535 25.046 114.414 24.2016L114.625 23.9875C116.231 22.2392 116.126 19.5156 114.414 17.898C113.558 17.0417 112.386 16.5779 111.179 16.6016H106.173V31.5161H108.06ZM108.06 23.6426V18.4332H111.226C111.906 18.4332 112.551 18.6949 113.032 19.1706C114.052 20.1697 114.075 21.8348 113.09 22.8695C112.61 23.3809 111.93 23.6664 111.226 23.6426H108.06ZM123.429 22.1084C122.62 21.3591 121.518 20.9785 120.123 20.9785C118.33 20.9785 116.982 21.6445 116.091 22.9647L117.755 24.0232C118.365 23.1193 119.197 22.6673 120.252 22.6673C120.921 22.6673 121.565 22.9171 122.069 23.3691C122.562 23.7972 122.843 24.4157 122.843 25.0698V25.5099C122.116 25.1055 121.202 24.8914 120.076 24.8914C118.764 24.8914 117.708 25.2007 116.923 25.831C116.138 26.4614 115.739 27.2939 115.739 28.3525C115.715 29.3158 116.126 30.2316 116.853 30.8501C117.591 31.5161 118.529 31.8491 119.631 31.8491C120.932 31.8491 121.964 31.2664 122.749 30.1008H122.831V31.5161H124.637V25.2245C124.637 23.9043 124.238 22.8576 123.429 22.1084ZM118.307 29.6369C117.92 29.3515 117.685 28.8877 117.685 28.3881C117.685 27.8291 117.943 27.3653 118.447 26.9966C118.963 26.6279 119.608 26.4376 120.37 26.4376C121.425 26.4257 122.246 26.6636 122.832 27.1393C122.832 27.9481 122.516 28.6498 121.894 29.2445C121.332 29.8153 120.57 30.1365 119.772 30.1365C119.245 30.1484 118.729 29.97 118.307 29.6369ZM128.693 36L135 21.3115H132.949L130.029 28.6379H129.994L127.005 21.3115H124.953L129.092 30.862L126.747 36H128.693Z" fill="#3C4043"/>
<path d="M101.544 24.1659C101.544 23.5831 101.497 23.0004 101.404 22.4295H93.4435V25.724H98.0038C97.8162 26.7825 97.2066 27.734 96.3157 28.3286V30.4695H99.0355C100.63 28.9828 101.544 26.7825 101.544 24.1659Z" fill="#4285F4"/>
<path d="M93.4439 32.539C95.7182 32.539 97.6408 31.7778 99.0358 30.4695L96.3161 28.3287C95.5541 28.852 94.581 29.1493 93.4439 29.1493C91.2399 29.1493 89.376 27.6388 88.7078 25.6169H85.9059V27.8291C87.3361 30.7193 90.2552 32.539 93.4439 32.539Z" fill="#34A853"/>
<path d="M88.7081 25.617C88.3563 24.5584 88.3563 23.4048 88.7081 22.3343V20.134H85.9058C84.6981 22.5484 84.6981 25.4029 85.9058 27.8173L88.7081 25.617Z" fill="#FBBC04"/>
<path d="M93.4439 18.8019C94.6514 18.7782 95.812 19.242 96.6795 20.0864L99.0944 17.6364C97.5587 16.1854 95.5423 15.3885 93.4439 15.4123C90.2552 15.4123 87.3361 17.2439 85.9059 20.134L88.7078 22.3462C89.376 20.3124 91.2399 18.8019 93.4439 18.8019Z" fill="#EA4335"/>
<rect x="150.5" y="0.5" width="69" height="47" rx="5.5" fill="white" stroke="#D9D9D9"/>
<path fill-rule="evenodd" clip-rule="evenodd" d="M169.8 30.4819H166.689C166.476 30.4819 166.295 30.6366 166.262 30.8467L165.003 38.8248C164.978 38.9823 165.1 39.1242 165.26 39.1242H166.745C166.958 39.1242 167.139 38.9695 167.172 38.759L167.512 36.6072C167.544 36.3964 167.726 36.2419 167.938 36.2419H168.923C170.973 36.2419 172.156 35.2501 172.465 33.2848C172.604 32.425 172.471 31.7495 172.068 31.2762C171.626 30.7568 170.841 30.4819 169.8 30.4819ZM170.159 33.3958C169.989 34.5122 169.136 34.5122 168.311 34.5122H167.842L168.171 32.4271C168.19 32.3013 168.3 32.2084 168.427 32.2084H168.642C169.204 32.2084 169.734 32.2084 170.008 32.5286C170.171 32.7198 170.221 33.0036 170.159 33.3958ZM179.1 33.36H177.61C177.483 33.36 177.374 33.4528 177.354 33.5789L177.288 33.9956L177.184 33.8446C176.862 33.3764 176.142 33.22 175.424 33.22C173.778 33.22 172.372 34.4669 172.098 36.2162C171.956 37.0886 172.158 37.9229 172.653 38.5048C173.107 39.0398 173.757 39.2627 174.529 39.2627C175.856 39.2627 176.592 38.4097 176.592 38.4097L176.525 38.8238C176.5 38.9821 176.622 39.124 176.781 39.124H178.123C178.336 39.124 178.516 38.9693 178.55 38.7587L179.355 33.6594C179.381 33.5025 179.259 33.36 179.1 33.36ZM177.023 36.2598C176.88 37.1109 176.204 37.6823 175.343 37.6823C174.91 37.6823 174.564 37.5436 174.342 37.2806C174.122 37.0196 174.038 36.6478 174.108 36.2339C174.243 35.3899 174.929 34.8 175.778 34.8C176.201 34.8 176.545 34.9404 176.771 35.2057C176.998 35.4737 177.088 35.8476 177.023 36.2598ZM185.538 33.3598H187.035C187.245 33.3598 187.367 33.5949 187.248 33.7669L182.268 40.9547C182.188 41.0712 182.055 41.1404 181.913 41.1404H180.418C180.207 41.1404 180.084 40.9034 180.206 40.731L181.757 38.5423L180.108 33.7027C180.051 33.5345 180.175 33.3598 180.354 33.3598H181.825C182.016 33.3598 182.185 33.4853 182.24 33.6682L183.115 36.5912L185.18 33.5495C185.261 33.4307 185.395 33.3598 185.538 33.3598Z" fill="#253B80"/>
<path fill-rule="evenodd" clip-rule="evenodd" d="M201.771 38.8248L203.048 30.7008C203.067 30.5747 203.177 30.4818 203.304 30.4814H204.741C204.9 30.4814 205.022 30.6237 204.997 30.7812L203.737 38.7589C203.705 38.9694 203.524 39.1242 203.31 39.1242H202.026C201.868 39.1242 201.746 38.9823 201.771 38.8248ZM191.992 30.4818H188.88C188.668 30.4818 188.487 30.6366 188.454 30.8467L187.195 38.8248C187.17 38.9823 187.292 39.1242 187.451 39.1242H189.048C189.196 39.1242 189.323 39.016 189.346 38.8686L189.703 36.6071C189.736 36.3964 189.918 36.2418 190.13 36.2418H191.114C193.164 36.2418 194.347 35.25 194.656 33.2848C194.796 32.425 194.662 31.7494 194.259 31.2761C193.817 30.7568 193.033 30.4818 191.992 30.4818ZM192.351 33.3957C192.181 34.5122 191.328 34.5122 190.503 34.5122H190.034L190.364 32.4271C190.384 32.3012 190.492 32.2084 190.62 32.2084H190.835C191.396 32.2084 191.927 32.2084 192.2 32.5286C192.364 32.7197 192.413 33.0035 192.351 33.3957ZM201.292 33.3599H199.803C199.675 33.3599 199.566 33.4528 199.547 33.5789L199.481 33.9955L199.376 33.8446C199.054 33.3764 198.335 33.2199 197.617 33.2199C195.971 33.2199 194.565 34.4669 194.291 36.2162C194.149 37.0886 194.351 37.9229 194.846 38.5048C195.301 39.0397 195.949 39.2627 196.722 39.2627C198.049 39.2627 198.784 38.4096 198.784 38.4096L198.718 38.8237C198.693 38.9821 198.815 39.124 198.975 39.124H200.316C200.529 39.124 200.71 38.9692 200.743 38.7587L201.549 33.6593C201.573 33.5025 201.451 33.3599 201.292 33.3599ZM199.215 36.2597C199.072 37.1109 198.396 37.6823 197.534 37.6823C197.102 37.6823 196.756 37.5435 196.533 37.2806C196.313 37.0195 196.23 36.6477 196.3 36.2338C196.435 35.3898 197.121 34.7999 197.969 34.7999C198.392 34.7999 198.736 34.9404 198.963 35.2056C199.191 35.4736 199.281 35.8475 199.215 36.2597Z" fill="#179BD7"/>
<path d="M181.314 27.6277L181.697 25.1983L180.845 25.1785H176.776L179.603 7.2508C179.612 7.19667 179.641 7.14621 179.682 7.11038C179.724 7.07455 179.778 7.0548 179.833 7.0548H186.693C188.971 7.0548 190.542 7.52872 191.363 8.46411C191.748 8.90293 191.993 9.36148 192.111 9.86611C192.235 10.3956 192.238 11.0282 192.116 11.7998L192.107 11.8561V12.3505L192.492 12.5685C192.816 12.7403 193.073 12.9371 193.271 13.1623C193.6 13.5375 193.813 14.0144 193.903 14.5797C193.996 15.1611 193.965 15.853 193.813 16.6363C193.637 17.5373 193.354 18.322 192.97 18.9642C192.618 19.5558 192.169 20.0465 191.636 20.4269C191.127 20.7881 190.522 21.0625 189.838 21.238C189.175 21.4105 188.42 21.4976 187.591 21.4976H187.057C186.676 21.4976 186.305 21.6351 186.014 21.8816C185.722 22.1332 185.529 22.4768 185.47 22.8528L185.429 23.0715L184.754 27.3534L184.723 27.5107C184.715 27.5606 184.701 27.5854 184.681 27.6023C184.662 27.6174 184.636 27.6277 184.61 27.6277H181.314Z" fill="#253B80"/>
<path d="M192.856 11.9134C192.836 12.0443 192.813 12.1781 192.786 12.3156C191.881 16.9605 188.786 18.5651 184.833 18.5651H182.821C182.337 18.5651 181.93 18.9161 181.855 19.3929L180.824 25.9284L180.532 27.7808C180.483 28.0939 180.725 28.3762 181.041 28.3762H184.61C185.033 28.3762 185.392 28.069 185.459 27.6522L185.494 27.4707L186.166 23.2054L186.209 22.9715C186.275 22.5532 186.635 22.2461 187.057 22.2461H187.591C191.05 22.2461 193.757 20.8419 194.549 16.7784C194.879 15.0809 194.708 13.6635 193.833 12.6667C193.569 12.3661 193.24 12.1167 192.856 11.9134Z" fill="#179BD7"/>
<path d="M191.91 11.5363C191.772 11.4961 191.629 11.4595 191.482 11.4266C191.336 11.3945 191.185 11.3659 191.03 11.3411C190.487 11.2533 189.893 11.2116 189.256 11.2116H183.879C183.746 11.2116 183.621 11.2416 183.508 11.2957C183.26 11.4149 183.076 11.6497 183.031 11.9371L181.887 19.1819L181.854 19.3933C181.93 18.9164 182.337 18.5654 182.82 18.5654H184.833C188.786 18.5654 191.881 16.9601 192.786 12.316C192.813 12.1785 192.836 12.0446 192.856 11.9137C192.627 11.7923 192.379 11.6885 192.112 11.6C192.046 11.578 191.978 11.5568 191.91 11.5363Z" fill="#222D65"/>
<path d="M183.031 11.937C183.076 11.6495 183.26 11.4148 183.508 11.2963C183.621 11.2422 183.747 11.2122 183.879 11.2122H189.256C189.893 11.2122 190.487 11.2539 191.03 11.3416C191.185 11.3665 191.336 11.395 191.483 11.4272C191.629 11.4601 191.772 11.4967 191.91 11.5369C191.979 11.5574 192.047 11.5786 192.113 11.5998C192.38 11.6883 192.628 11.7929 192.857 11.9136C193.126 10.1971 192.855 9.02837 191.927 7.97009C190.904 6.80506 189.057 6.30628 186.694 6.30628H179.834C179.351 6.30628 178.939 6.65731 178.865 7.13489L176.007 25.2469C175.951 25.6052 176.227 25.9285 176.589 25.9285H180.824L181.887 19.1817L183.031 11.937Z" fill="#253B80"/>
<rect x="225.5" y="0.5" width="69" height="47" rx="5.5" fill="white" stroke="#D9D9D9"/>
<path fill-rule="evenodd" clip-rule="evenodd" d="M262.611 16.2839L259.055 17.047V14.1641L262.611 13.4151V16.2839ZM248.161 15.0544L244.704 15.7892L244.69 27.109C244.69 29.2006 246.262 30.741 248.359 30.741C249.521 30.741 250.371 30.529 250.838 30.2746V27.4058C250.385 27.5895 248.147 28.2396 248.147 26.148V21.1312H250.838V18.121H248.147L248.161 15.0544ZM286 24.3533C286 20.7355 284.243 17.8808 280.886 17.8808C277.514 17.8808 275.474 20.7355 275.474 24.325C275.474 28.5788 277.882 30.7268 281.339 30.7268C283.025 30.7268 284.3 30.3453 285.263 29.8083V26.9818C284.3 27.4623 283.195 27.7591 281.792 27.7591C280.418 27.7591 279.2 27.2786 279.044 25.611H285.972C285.972 25.5332 285.977 25.3563 285.983 25.1525V25.1524V25.1524V25.1523C285.991 24.8753 286 24.5487 286 24.3533ZM279.002 23.0107C279.002 21.4138 279.979 20.7496 280.872 20.7496C281.736 20.7496 282.657 21.4138 282.657 23.0107H279.002ZM239.788 20.9475C239.038 20.9475 238.584 21.1595 238.584 21.7106C238.584 22.3124 239.364 22.5771 240.332 22.9055C241.91 23.4409 243.987 24.1455 243.996 26.7558C243.996 29.2854 241.97 30.741 239.023 30.741C237.805 30.741 236.473 30.5008 235.156 29.9355V26.5721C236.346 27.2221 237.848 27.7026 239.023 27.7026C239.817 27.7026 240.383 27.4906 240.383 26.8406C240.383 26.174 239.538 25.8693 238.517 25.5015C236.962 24.9413 235 24.2347 235 21.8802C235 19.3788 236.913 17.8808 239.788 17.8808C240.964 17.8808 242.126 18.0645 243.302 18.5309V21.8519C242.225 21.2725 240.865 20.9475 239.788 20.9475ZM255.244 19.1668L255.018 18.121H251.958V30.4866H255.499V22.1063C256.335 21.0181 257.752 21.216 258.191 21.3714V18.121C257.738 17.9515 256.08 17.6406 255.244 19.1668ZM259.055 18.1211H262.611V30.4866H259.055V18.1211ZM267.229 18.9831C267.725 18.5309 268.617 17.8808 270.006 17.8808C272.485 17.8808 274.822 20.1137 274.837 24.212C274.837 28.6918 272.527 30.7269 269.991 30.7269C268.745 30.7269 267.994 30.204 267.484 29.8365L267.47 33.8359L263.928 34.5849V18.1069H267.045L267.229 18.9831ZM267.484 26.9536C267.824 27.321 268.32 27.6178 269.156 27.6178C270.459 27.6178 271.337 26.2046 271.337 24.3109C271.337 22.4596 270.445 21.0181 269.156 21.0181C268.348 21.0181 267.838 21.3007 267.47 21.7106L267.484 26.9536Z" fill="#6461FC"/>
<rect x="300.5" y="0.5" width="69" height="47" rx="5.5" fill="white" stroke="#D9D9D9"/>
<path fill-rule="evenodd" clip-rule="evenodd" d="M321.251 32.5165H317.01L313.83 20.3847C313.679 19.8267 313.358 19.3333 312.887 19.1008C311.711 18.5165 310.414 18.0514 309 17.8169V17.3498H315.831C316.774 17.3498 317.481 18.0514 317.599 18.8663L319.249 27.6173L323.488 17.3498H327.61L321.251 32.5165ZM329.968 32.5165H325.963L329.26 17.3498H333.265L329.968 32.5165ZM338.447 21.5514C338.565 20.7346 339.272 20.2675 340.097 20.2675C341.393 20.1502 342.805 20.3848 343.984 20.9671L344.691 17.7016C343.512 17.2345 342.216 17 341.039 17C337.152 17 334.324 19.1008 334.324 22.0165C334.324 24.2346 336.327 25.3992 337.742 26.1008C339.272 26.8004 339.861 27.2675 339.743 27.9671C339.743 29.0165 338.565 29.4836 337.388 29.4836C335.974 29.4836 334.56 29.1338 333.265 28.5494L332.558 31.8169C333.972 32.3992 335.502 32.6338 336.917 32.6338C341.275 32.749 343.984 30.6502 343.984 27.5C343.984 23.5329 338.447 23.3004 338.447 21.5514V21.5514ZM358 32.5165L354.82 17.3498H351.404C350.697 17.3498 349.99 17.8169 349.754 18.5165L343.866 32.5165H347.989L348.812 30.3004H353.877L354.349 32.5165H358ZM351.994 21.4342L353.17 27.1502H349.872L351.994 21.4342Z" fill="#172B85"/>
<rect x="375.5" y="0.5" width="69" height="47" rx="5.5" fill="white" stroke="#D9D9D9"/>
<path fill-rule="evenodd" clip-rule="evenodd" d="M410.5 34.3139C408.117 36.3704 405.026 37.6119 401.648 37.6119C394.11 37.6119 388 31.4308 388 23.806C388 16.1811 394.11 10 401.648 10C405.026 10 408.117 11.2415 410.5 13.2981C412.883 11.2415 415.974 10 419.352 10C426.89 10 433 16.1811 433 23.806C433 31.4308 426.89 37.6119 419.352 37.6119C415.974 37.6119 412.883 36.3704 410.5 34.3139Z" fill="#ED0006"/>
<path fill-rule="evenodd" clip-rule="evenodd" d="M410.5 34.3139C413.434 31.7816 415.295 28.0136 415.295 23.806C415.295 19.5983 413.434 15.8303 410.5 13.2981C412.883 11.2415 415.974 10 419.352 10C426.89 10 433 16.1811 433 23.806C433 31.4308 426.89 37.6119 419.352 37.6119C415.974 37.6119 412.883 36.3704 410.5 34.3139Z" fill="#F9A000"/>
<path fill-rule="evenodd" clip-rule="evenodd" d="M410.5 13.2981C413.434 15.8304 415.295 19.5984 415.295 23.806C415.295 28.0136 413.434 31.7816 410.5 34.3138C407.566 31.7816 405.705 28.0136 405.705 23.806C405.705 19.5984 407.566 15.8304 410.5 13.2981Z" fill="#FF5E00"/>
<rect x="450.5" y="0.5" width="69" height="47" rx="5.5" fill="#1F72CD" stroke="#D9D9D9"/>
<path fill-rule="evenodd" clip-rule="evenodd" d="M462.549 17L456 31.4935H463.84L464.812 29.1826H467.034L468.006 31.4935H476.636V29.7298L477.405 31.4935H481.87L482.639 29.6925V31.4935H500.587L502.769 29.2426L504.813 31.4935L514.032 31.5121L507.462 24.2872L514.032 17H504.956L502.832 19.2093L500.852 17H481.327L479.65 20.7409L477.934 17H470.11V18.7037L469.24 17H462.549ZM489.352 19.0581H499.658L502.811 22.4633L506.065 19.0581H509.217L504.427 24.2852L509.217 29.452H505.922L502.769 26.0073L499.499 29.452H489.352V19.0581ZM491.897 23.1099V21.2114V21.2096H498.328L501.134 24.2458L498.204 27.2986H491.897V25.226H497.52V23.1099H491.897ZM464.066 19.0581H467.888L472.232 28.8862V19.0581H476.419L479.774 26.1048L482.867 19.0581H487.033V29.4581H484.498L484.477 21.3087L480.782 29.4581H478.514L474.798 21.3087V29.4581H469.584L468.595 27.1266H463.254L462.267 29.4561H459.474L464.066 19.0581ZM464.166 24.9712L465.926 20.8177L467.683 24.9712H464.166Z" fill="white"/>
<rect x="525.5" y="0.5" width="69" height="47" rx="5.5" fill="white" stroke="#D9D9D9"/>
<path d="M554.468 47L593.968 35.5V42C593.968 44.7614 591.73 47 588.968 47H554.468Z" fill="#FD6020"/>
<path fill-rule="evenodd" clip-rule="evenodd" d="M586.471 19.2217C588.644 19.2217 589.839 20.1888 589.839 22.0155C589.948 23.4124 588.97 24.5944 587.666 24.8093L590.6 28.7851H588.318L585.819 24.9168H585.602V28.7851H583.755V19.2217H586.471ZM585.602 23.6273H586.145C587.34 23.6273 587.884 23.09 587.884 22.1229C587.884 21.2633 587.34 20.726 586.145 20.726H585.602V23.6273ZM577.344 28.7851H582.559V27.1733H579.191V24.5944H582.451V22.9826H579.191V20.8335H582.559V19.2217H577.344V28.7851V28.7851ZM571.911 25.6689L569.412 19.2217H567.456L571.477 29H572.455L576.475 19.2217H574.519L571.911 25.6689V25.6689ZM549.854 24.0571C549.854 26.7435 552.027 29 554.744 29C555.613 29 556.373 28.7851 557.134 28.4627V26.3137C556.591 26.9584 555.83 27.3882 554.961 27.3882C553.222 27.3882 551.81 26.0987 551.81 24.3795V24.1646C551.701 22.4453 553.114 20.941 554.852 20.8335C555.722 20.8335 556.591 21.2633 557.134 21.908V19.759C556.482 19.3291 555.613 19.2217 554.852 19.2217C552.027 19.0068 549.854 21.2633 549.854 24.0571V24.0571ZM546.486 22.8751C545.399 22.4453 545.073 22.2304 545.073 21.6931C545.182 21.0484 545.725 20.5111 546.377 20.6186C546.92 20.6186 547.464 20.941 547.898 21.3708L548.876 20.0813C548.116 19.4366 547.138 19.0068 546.16 19.0068C544.639 18.8993 543.335 20.0813 543.226 21.5857V21.6931C543.226 22.9826 543.769 23.7348 545.508 24.272C545.943 24.3795 546.377 24.5944 546.812 24.8093C547.138 25.0242 547.355 25.3466 547.355 25.7764C547.355 26.5286 546.703 27.1733 546.051 27.1733H545.943C545.073 27.1733 544.313 26.636 543.987 25.8838L542.792 27.0658C543.443 28.2478 544.747 28.8925 546.051 28.8925C547.79 29 549.202 27.7106 549.311 25.9913V25.6689C549.202 24.3795 548.659 23.7348 546.486 22.8751V22.8751ZM540.184 28.7851H542.031V19.2217H540.184V28.7851V28.7851ZM531.6 19.2217H534.316H534.86C537.467 19.3292 539.532 21.4782 539.423 24.0571C539.423 25.454 538.771 26.7435 537.685 27.7106C536.707 28.4627 535.512 28.8926 534.316 28.7851H531.6V19.2217ZM533.99 27.1733C534.86 27.2807 535.838 26.9584 536.49 26.4211C537.141 25.7764 537.467 24.9168 537.467 23.9497C537.467 23.09 537.141 22.2304 536.49 21.5857C535.838 21.0484 534.86 20.7261 533.99 20.8335H533.447V27.1733H533.99Z" fill="black"/>
<path fill-rule="evenodd" clip-rule="evenodd" d="M562.676 19C559.959 19 557.677 21.1491 557.677 23.9429C557.677 26.6292 559.85 28.8858 562.676 28.9932C565.501 29.1007 567.674 26.8441 567.782 24.0503C567.674 21.2565 565.501 19 562.676 19V19Z" fill="#FD6020"/>
</svg>
